%TF.GenerationSoftware,KiCad,Pcbnew,6.0.4-6f826c9f35~116~ubuntu18.04.1*%
%TF.CreationDate,2022-11-10T15:02:10+01:00*%
%TF.ProjectId,Strip_connector,53747269-705f-4636-9f6e-6e6563746f72,rev?*%
%TF.SameCoordinates,Original*%
%TF.FileFunction,Copper,L1,Top*%
%TF.FilePolarity,Positive*%
%FSLAX46Y46*%
G04 Gerber Fmt 4.6, Leading zero omitted, Abs format (unit mm)*
G04 Created by KiCad (PCBNEW 6.0.4-6f826c9f35~116~ubuntu18.04.1) date 2022-11-10 15:02:10*
%MOMM*%
%LPD*%
G01*
G04 APERTURE LIST*
G04 Aperture macros list*
%AMRoundRect*
0 Rectangle with rounded corners*
0 $1 Rounding radius*
0 $2 $3 $4 $5 $6 $7 $8 $9 X,Y pos of 4 corners*
0 Add a 4 corners polygon primitive as box body*
4,1,4,$2,$3,$4,$5,$6,$7,$8,$9,$2,$3,0*
0 Add four circle primitives for the rounded corners*
1,1,$1+$1,$2,$3*
1,1,$1+$1,$4,$5*
1,1,$1+$1,$6,$7*
1,1,$1+$1,$8,$9*
0 Add four rect primitives between the rounded corners*
20,1,$1+$1,$2,$3,$4,$5,0*
20,1,$1+$1,$4,$5,$6,$7,0*
20,1,$1+$1,$6,$7,$8,$9,0*
20,1,$1+$1,$8,$9,$2,$3,0*%
G04 Aperture macros list end*
%TA.AperFunction,SMDPad,CuDef*%
%ADD10RoundRect,0.300000X-0.300000X-0.462000X0.300000X-0.462000X0.300000X0.462000X-0.300000X0.462000X0*%
%TD*%
%TA.AperFunction,ViaPad*%
%ADD11C,0.600000*%
%TD*%
%TA.AperFunction,Conductor*%
%ADD12C,1.000000*%
%TD*%
G04 APERTURE END LIST*
D10*
%TO.P,J1,1,Pin_1*%
%TO.N,Net-(J1-Pad1)*%
X134500000Y-56250000D03*
%TO.P,J1,2,Pin_2*%
%TO.N,Net-(J1-Pad2)*%
X134500000Y-58790000D03*
%TO.P,J1,3,Pin_3*%
%TO.N,Net-(J1-Pad3)*%
X134500000Y-61330000D03*
%TO.P,J1,4,Pin_4*%
%TO.N,Net-(J1-Pad4)*%
X134500000Y-63870000D03*
%TD*%
%TO.P,J2,1,Pin_1*%
%TO.N,Net-(J1-Pad4)*%
X134500000Y-89500000D03*
%TO.P,J2,2,Pin_2*%
%TO.N,Net-(J1-Pad3)*%
X134500000Y-92040000D03*
%TO.P,J2,3,Pin_3*%
%TO.N,Net-(J1-Pad2)*%
X134500000Y-94580000D03*
%TO.P,J2,4,Pin_4*%
%TO.N,Net-(J1-Pad1)*%
X134500000Y-97120000D03*
%TD*%
D11*
%TO.N,Net-(J1-Pad2)*%
X136414150Y-93414150D03*
X136250000Y-60002500D03*
%TO.N,Net-(J1-Pad3)*%
X136019150Y-91269150D03*
X136102500Y-62147500D03*
%TO.N,Net-(J1-Pad4)*%
X134475000Y-87275000D03*
X134475000Y-66225000D03*
%TO.N,Net-(J1-Pad1)*%
X136559150Y-95809150D03*
X136517500Y-57482500D03*
%TD*%
D12*
%TO.N,Net-(J1-Pad2)*%
X134500000Y-94580000D02*
X135248300Y-94580000D01*
X135000792Y-58730000D02*
X138000000Y-61729208D01*
X138000000Y-61729208D02*
X138000000Y-91828300D01*
X135248300Y-94580000D02*
X136414150Y-93414150D01*
X134475000Y-58730000D02*
X135000792Y-58730000D01*
X135225000Y-94603300D02*
X134475000Y-94603300D01*
X136414150Y-93414150D02*
X135225000Y-94603300D01*
X138000000Y-91828300D02*
X136414150Y-93414150D01*
%TO.N,Net-(J1-Pad3)*%
X135225000Y-92063300D02*
X136500000Y-90788300D01*
X136500000Y-90788300D02*
X136500000Y-62545000D01*
X136500000Y-62545000D02*
X136102500Y-62147500D01*
X134475000Y-92063300D02*
X135225000Y-92063300D01*
X135285000Y-61330000D02*
X136102500Y-62147500D01*
X136102500Y-62147500D02*
X135225000Y-61270000D01*
X135225000Y-61270000D02*
X134475000Y-61270000D01*
X134500000Y-61330000D02*
X135285000Y-61330000D01*
%TO.N,Net-(J1-Pad4)*%
X134475000Y-63810000D02*
X134475000Y-66225000D01*
X134500000Y-66200000D02*
X134475000Y-66225000D01*
X134475000Y-66225000D02*
X134475000Y-87275000D01*
X134500000Y-87300000D02*
X134475000Y-87275000D01*
X134500000Y-63870000D02*
X134500000Y-66200000D01*
X134500000Y-89500000D02*
X134500000Y-87300000D01*
X134475000Y-87275000D02*
X134475000Y-89523300D01*
%TO.N,Net-(J1-Pad1)*%
X135225000Y-56190000D02*
X136517500Y-57482500D01*
X134500000Y-56250000D02*
X135285000Y-56250000D01*
X135285000Y-56250000D02*
X136517500Y-57482500D01*
X136517500Y-57482500D02*
X139500000Y-60465000D01*
X135225000Y-97143300D02*
X134475000Y-97143300D01*
X139500000Y-60465000D02*
X139500000Y-92868300D01*
X134475000Y-56190000D02*
X135225000Y-56190000D01*
X139500000Y-92868300D02*
X135225000Y-97143300D01*
%TD*%
M02*
