%TF.GenerationSoftware,KiCad,Pcbnew,6.0.4-6f826c9f35~116~ubuntu18.04.1*%
%TF.CreationDate,2022-11-10T15:02:10+01:00*%
%TF.ProjectId,Strip_connector,53747269-705f-4636-9f6e-6e6563746f72,rev?*%
%TF.SameCoordinates,Original*%
%TF.FileFunction,Legend,Top*%
%TF.FilePolarity,Positive*%
%FSLAX46Y46*%
G04 Gerber Fmt 4.6, Leading zero omitted, Abs format (unit mm)*
G04 Created by KiCad (PCBNEW 6.0.4-6f826c9f35~116~ubuntu18.04.1) date 2022-11-10 15:02:10*
%MOMM*%
%LPD*%
G01*
G04 APERTURE LIST*
%ADD10C,0.150000*%
G04 APERTURE END LIST*
D10*
X136452380Y-96964285D02*
X136452380Y-97535714D01*
X136452380Y-97250000D02*
X135452380Y-97250000D01*
X135595238Y-97345238D01*
X135690476Y-97440476D01*
X135738095Y-97535714D01*
X135785714Y-63809523D02*
X136452380Y-63809523D01*
X135404761Y-64047619D02*
X136119047Y-64285714D01*
X136119047Y-63666666D01*
X136452380Y-55964285D02*
X136452380Y-56535714D01*
X136452380Y-56250000D02*
X135452380Y-56250000D01*
X135595238Y-56345238D01*
X135690476Y-56440476D01*
X135738095Y-56535714D01*
X135452380Y-92333333D02*
X135452380Y-91714285D01*
X135833333Y-92047619D01*
X135833333Y-91904761D01*
X135880952Y-91809523D01*
X135928571Y-91761904D01*
X136023809Y-91714285D01*
X136261904Y-91714285D01*
X136357142Y-91761904D01*
X136404761Y-91809523D01*
X136452380Y-91904761D01*
X136452380Y-92190476D01*
X136404761Y-92285714D01*
X136357142Y-92333333D01*
X135452380Y-61833333D02*
X135452380Y-61214285D01*
X135833333Y-61547619D01*
X135833333Y-61404761D01*
X135880952Y-61309523D01*
X135928571Y-61261904D01*
X136023809Y-61214285D01*
X136261904Y-61214285D01*
X136357142Y-61261904D01*
X136404761Y-61309523D01*
X136452380Y-61404761D01*
X136452380Y-61690476D01*
X136404761Y-61785714D01*
X136357142Y-61833333D01*
X135547619Y-59035714D02*
X135500000Y-58988095D01*
X135452380Y-58892857D01*
X135452380Y-58654761D01*
X135500000Y-58559523D01*
X135547619Y-58511904D01*
X135642857Y-58464285D01*
X135738095Y-58464285D01*
X135880952Y-58511904D01*
X136452380Y-59083333D01*
X136452380Y-58464285D01*
X135785714Y-89309523D02*
X136452380Y-89309523D01*
X135404761Y-89547619D02*
X136119047Y-89785714D01*
X136119047Y-89166666D01*
X135547619Y-95035714D02*
X135500000Y-94988095D01*
X135452380Y-94892857D01*
X135452380Y-94654761D01*
X135500000Y-94559523D01*
X135547619Y-94511904D01*
X135642857Y-94464285D01*
X135738095Y-94464285D01*
X135880952Y-94511904D01*
X136452380Y-95083333D01*
X136452380Y-94464285D01*
%TO.C,REF\u002A\u002A*%
X139553720Y-49321528D02*
X139553720Y-49797719D01*
X140029911Y-49845338D01*
X139982292Y-49797719D01*
X139934673Y-49702480D01*
X139934673Y-49464385D01*
X139982292Y-49369147D01*
X140029911Y-49321528D01*
X140125149Y-49273909D01*
X140363244Y-49273909D01*
X140458482Y-49321528D01*
X140506101Y-49369147D01*
X140553720Y-49464385D01*
X140553720Y-49702480D01*
X140506101Y-49797719D01*
X140458482Y-49845338D01*
X139553720Y-48654861D02*
X139553720Y-48559623D01*
X139601340Y-48464385D01*
X139648959Y-48416766D01*
X139744197Y-48369147D01*
X139934673Y-48321528D01*
X140172768Y-48321528D01*
X140363244Y-48369147D01*
X140458482Y-48416766D01*
X140506101Y-48464385D01*
X140553720Y-48559623D01*
X140553720Y-48654861D01*
X140506101Y-48750100D01*
X140458482Y-48797719D01*
X140363244Y-48845338D01*
X140172768Y-48892957D01*
X139934673Y-48892957D01*
X139744197Y-48845338D01*
X139648959Y-48797719D01*
X139601340Y-48750100D01*
X139553720Y-48654861D01*
X140553720Y-47892957D02*
X139887054Y-47892957D01*
X139982292Y-47892957D02*
X139934673Y-47845338D01*
X139887054Y-47750100D01*
X139887054Y-47607242D01*
X139934673Y-47512004D01*
X140029911Y-47464385D01*
X140553720Y-47464385D01*
X140029911Y-47464385D02*
X139934673Y-47416766D01*
X139887054Y-47321528D01*
X139887054Y-47178671D01*
X139934673Y-47083433D01*
X140029911Y-47035814D01*
X140553720Y-47035814D01*
X140553720Y-46559623D02*
X139887054Y-46559623D01*
X139982292Y-46559623D02*
X139934673Y-46512004D01*
X139887054Y-46416766D01*
X139887054Y-46273909D01*
X139934673Y-46178671D01*
X140029911Y-46131052D01*
X140553720Y-46131052D01*
X140029911Y-46131052D02*
X139934673Y-46083433D01*
X139887054Y-45988195D01*
X139887054Y-45845338D01*
X139934673Y-45750100D01*
X140029911Y-45702480D01*
X140553720Y-45702480D01*
X139452120Y-68559583D02*
X139452120Y-67940536D01*
X139833073Y-68273869D01*
X139833073Y-68131012D01*
X139880692Y-68035774D01*
X139928311Y-67988155D01*
X140023549Y-67940536D01*
X140261644Y-67940536D01*
X140356882Y-67988155D01*
X140404501Y-68035774D01*
X140452120Y-68131012D01*
X140452120Y-68416726D01*
X140404501Y-68511964D01*
X140356882Y-68559583D01*
X139452120Y-67321488D02*
X139452120Y-67226250D01*
X139499740Y-67131012D01*
X139547359Y-67083393D01*
X139642597Y-67035774D01*
X139833073Y-66988155D01*
X140071168Y-66988155D01*
X140261644Y-67035774D01*
X140356882Y-67083393D01*
X140404501Y-67131012D01*
X140452120Y-67226250D01*
X140452120Y-67321488D01*
X140404501Y-67416726D01*
X140356882Y-67464345D01*
X140261644Y-67511964D01*
X140071168Y-67559583D01*
X139833073Y-67559583D01*
X139642597Y-67511964D01*
X139547359Y-67464345D01*
X139499740Y-67416726D01*
X139452120Y-67321488D01*
X139448299Y-78412884D02*
X139400680Y-78365265D01*
X139353060Y-78270027D01*
X139353060Y-78031932D01*
X139400680Y-77936694D01*
X139448299Y-77889075D01*
X139543537Y-77841456D01*
X139638775Y-77841456D01*
X139781632Y-77889075D01*
X140353060Y-78460503D01*
X140353060Y-77841456D01*
X139353060Y-77222408D02*
X139353060Y-77127170D01*
X139400680Y-77031932D01*
X139448299Y-76984313D01*
X139543537Y-76936694D01*
X139734013Y-76889075D01*
X139972108Y-76889075D01*
X140162584Y-76936694D01*
X140257822Y-76984313D01*
X140305441Y-77031932D01*
X140353060Y-77127170D01*
X140353060Y-77222408D01*
X140305441Y-77317646D01*
X140257822Y-77365265D01*
X140162584Y-77412884D01*
X139972108Y-77460503D01*
X139734013Y-77460503D01*
X139543537Y-77412884D01*
X139448299Y-77365265D01*
X139400680Y-77317646D01*
X139353060Y-77222408D01*
X140152400Y-89273829D02*
X140152400Y-89845258D01*
X140152400Y-89559543D02*
X139152400Y-89559543D01*
X139295258Y-89654781D01*
X139390496Y-89750020D01*
X139438115Y-89845258D01*
X139152400Y-88654781D02*
X139152400Y-88559543D01*
X139200020Y-88464305D01*
X139247639Y-88416686D01*
X139342877Y-88369067D01*
X139533353Y-88321448D01*
X139771448Y-88321448D01*
X139961924Y-88369067D01*
X140057162Y-88416686D01*
X140104781Y-88464305D01*
X140152400Y-88559543D01*
X140152400Y-88654781D01*
X140104781Y-88750020D01*
X140057162Y-88797639D01*
X139961924Y-88845258D01*
X139771448Y-88892877D01*
X139533353Y-88892877D01*
X139342877Y-88845258D01*
X139247639Y-88797639D01*
X139200020Y-88750020D01*
X139152400Y-88654781D01*
X140152400Y-87892877D02*
X139485734Y-87892877D01*
X139580972Y-87892877D02*
X139533353Y-87845258D01*
X139485734Y-87750020D01*
X139485734Y-87607162D01*
X139533353Y-87511924D01*
X139628591Y-87464305D01*
X140152400Y-87464305D01*
X139628591Y-87464305D02*
X139533353Y-87416686D01*
X139485734Y-87321448D01*
X139485734Y-87178591D01*
X139533353Y-87083353D01*
X139628591Y-87035734D01*
X140152400Y-87035734D01*
X140152400Y-86559543D02*
X139485734Y-86559543D01*
X139580972Y-86559543D02*
X139533353Y-86511924D01*
X139485734Y-86416686D01*
X139485734Y-86273829D01*
X139533353Y-86178591D01*
X139628591Y-86130972D01*
X140152400Y-86130972D01*
X139628591Y-86130972D02*
X139533353Y-86083353D01*
X139485734Y-85988115D01*
X139485734Y-85845258D01*
X139533353Y-85750020D01*
X139628591Y-85702400D01*
X140152400Y-85702400D01*
X139353060Y-92513184D02*
X139353060Y-92989375D01*
X139829251Y-93036994D01*
X139781632Y-92989375D01*
X139734013Y-92894137D01*
X139734013Y-92656041D01*
X139781632Y-92560803D01*
X139829251Y-92513184D01*
X139924489Y-92465565D01*
X140162584Y-92465565D01*
X140257822Y-92513184D01*
X140305441Y-92560803D01*
X140353060Y-92656041D01*
X140353060Y-92894137D01*
X140305441Y-92989375D01*
X140257822Y-93036994D01*
X139887054Y-58035794D02*
X140553720Y-58035794D01*
X139506101Y-58273889D02*
X140220387Y-58511984D01*
X140220387Y-57892937D01*
X139553720Y-57321508D02*
X139553720Y-57226270D01*
X139601340Y-57131032D01*
X139648959Y-57083413D01*
X139744197Y-57035794D01*
X139934673Y-56988175D01*
X140172768Y-56988175D01*
X140363244Y-57035794D01*
X140458482Y-57083413D01*
X140506101Y-57131032D01*
X140553720Y-57226270D01*
X140553720Y-57321508D01*
X140506101Y-57416746D01*
X140458482Y-57464365D01*
X140363244Y-57511984D01*
X140172768Y-57559603D01*
X139934673Y-57559603D01*
X139744197Y-57511984D01*
X139648959Y-57464365D01*
X139601340Y-57416746D01*
X139553720Y-57321508D01*
X139251460Y-97797619D02*
X139251460Y-97702380D01*
X139299080Y-97607142D01*
X139346699Y-97559523D01*
X139441937Y-97511904D01*
X139632413Y-97464285D01*
X139870508Y-97464285D01*
X140060984Y-97511904D01*
X140156222Y-97559523D01*
X140203841Y-97607142D01*
X140251460Y-97702380D01*
X140251460Y-97797619D01*
X140203841Y-97892857D01*
X140156222Y-97940476D01*
X140060984Y-97988095D01*
X139870508Y-98035714D01*
X139632413Y-98035714D01*
X139441937Y-97988095D01*
X139346699Y-97940476D01*
X139299080Y-97892857D01*
X139251460Y-97797619D01*
X137000000Y-96749240D02*
X138000760Y-96749240D01*
X137000000Y-87750020D02*
X138998980Y-87750020D01*
X137000000Y-91750520D02*
X138000760Y-91750520D01*
X137000000Y-97750000D02*
X137000000Y-87750020D01*
X137000000Y-82748760D02*
X138000760Y-82748760D01*
X137000000Y-97750000D02*
X138998980Y-97750000D01*
X137000000Y-88750780D02*
X138000760Y-88750780D01*
X137000000Y-93749500D02*
X138000760Y-93749500D01*
X137000000Y-77750040D02*
X138998980Y-77750040D01*
X137000000Y-52748820D02*
X138000760Y-52748820D01*
X137000000Y-62748800D02*
X138000760Y-62748800D01*
X137000000Y-72748780D02*
X138000760Y-72748780D01*
X137000000Y-89749000D02*
X138000760Y-89749000D01*
X137000000Y-92748740D02*
X138998980Y-92748740D01*
X137000000Y-87750020D02*
X137000000Y-47750100D01*
X137000000Y-67750060D02*
X138998980Y-67750060D01*
X137000000Y-94750260D02*
X138000760Y-94750260D01*
X137000000Y-95751020D02*
X138000760Y-95751020D01*
X137000000Y-90749760D02*
X138000760Y-90749760D01*
X137000000Y-47750100D02*
X138998980Y-47750100D01*
X137000000Y-57750080D02*
X138998980Y-57750080D01*
%TD*%
M02*
