%TF.GenerationSoftware,KiCad,Pcbnew,6.0.4-6f826c9f35~116~ubuntu18.04.1*%
%TF.CreationDate,2022-09-09T12:05:51+02:00*%
%TF.ProjectId,WS2815_D1Mini,57533238-3135-45f4-9431-4d696e692e6b,rev?*%
%TF.SameCoordinates,Original*%
%TF.FileFunction,Legend,Top*%
%TF.FilePolarity,Positive*%
%FSLAX46Y46*%
G04 Gerber Fmt 4.6, Leading zero omitted, Abs format (unit mm)*
G04 Created by KiCad (PCBNEW 6.0.4-6f826c9f35~116~ubuntu18.04.1) date 2022-09-09 12:05:51*
%MOMM*%
%LPD*%
G01*
G04 APERTURE LIST*
%ADD10C,0.150000*%
%ADD11C,0.250000*%
%ADD12C,0.120000*%
%ADD13C,0.010000*%
G04 APERTURE END LIST*
D10*
X116911380Y-87421404D02*
X115911380Y-87421404D01*
X115911380Y-87183309D01*
X115959000Y-87040452D01*
X116054238Y-86945214D01*
X116149476Y-86897595D01*
X116339952Y-86849976D01*
X116482809Y-86849976D01*
X116673285Y-86897595D01*
X116768523Y-86945214D01*
X116863761Y-87040452D01*
X116911380Y-87183309D01*
X116911380Y-87421404D01*
X115911380Y-86230928D02*
X115911380Y-86135690D01*
X115959000Y-86040452D01*
X116006619Y-85992833D01*
X116101857Y-85945214D01*
X116292333Y-85897595D01*
X116530428Y-85897595D01*
X116720904Y-85945214D01*
X116816142Y-85992833D01*
X116863761Y-86040452D01*
X116911380Y-86135690D01*
X116911380Y-86230928D01*
X116863761Y-86326166D01*
X116816142Y-86373785D01*
X116720904Y-86421404D01*
X116530428Y-86469023D01*
X116292333Y-86469023D01*
X116101857Y-86421404D01*
X116006619Y-86373785D01*
X115959000Y-86326166D01*
X115911380Y-86230928D01*
X121991380Y-87421404D02*
X120991380Y-87421404D01*
X120991380Y-87183309D01*
X121039000Y-87040452D01*
X121134238Y-86945214D01*
X121229476Y-86897595D01*
X121419952Y-86849976D01*
X121562809Y-86849976D01*
X121753285Y-86897595D01*
X121848523Y-86945214D01*
X121943761Y-87040452D01*
X121991380Y-87183309D01*
X121991380Y-87421404D01*
X120991380Y-85992833D02*
X120991380Y-86183309D01*
X121039000Y-86278547D01*
X121086619Y-86326166D01*
X121229476Y-86421404D01*
X121419952Y-86469023D01*
X121800904Y-86469023D01*
X121896142Y-86421404D01*
X121943761Y-86373785D01*
X121991380Y-86278547D01*
X121991380Y-86088071D01*
X121943761Y-85992833D01*
X121896142Y-85945214D01*
X121800904Y-85897595D01*
X121562809Y-85897595D01*
X121467571Y-85945214D01*
X121419952Y-85992833D01*
X121372333Y-86088071D01*
X121372333Y-86278547D01*
X121419952Y-86373785D01*
X121467571Y-86421404D01*
X121562809Y-86469023D01*
X124531380Y-87421404D02*
X123531380Y-87421404D01*
X123531380Y-87183309D01*
X123579000Y-87040452D01*
X123674238Y-86945214D01*
X123769476Y-86897595D01*
X123959952Y-86849976D01*
X124102809Y-86849976D01*
X124293285Y-86897595D01*
X124388523Y-86945214D01*
X124483761Y-87040452D01*
X124531380Y-87183309D01*
X124531380Y-87421404D01*
X123531380Y-86516642D02*
X123531380Y-85849976D01*
X124531380Y-86278547D01*
D11*
X149006428Y-81073571D02*
X148949285Y-81130714D01*
X148777857Y-81187857D01*
X148663571Y-81187857D01*
X148492142Y-81130714D01*
X148377857Y-81016428D01*
X148320714Y-80902142D01*
X148263571Y-80673571D01*
X148263571Y-80502142D01*
X148320714Y-80273571D01*
X148377857Y-80159285D01*
X148492142Y-80045000D01*
X148663571Y-79987857D01*
X148777857Y-79987857D01*
X148949285Y-80045000D01*
X149006428Y-80102142D01*
X149692142Y-81187857D02*
X149577857Y-81130714D01*
X149520714Y-81073571D01*
X149463571Y-80959285D01*
X149463571Y-80616428D01*
X149520714Y-80502142D01*
X149577857Y-80445000D01*
X149692142Y-80387857D01*
X149863571Y-80387857D01*
X149977857Y-80445000D01*
X150035000Y-80502142D01*
X150092142Y-80616428D01*
X150092142Y-80959285D01*
X150035000Y-81073571D01*
X149977857Y-81130714D01*
X149863571Y-81187857D01*
X149692142Y-81187857D01*
X150606428Y-80387857D02*
X150606428Y-81187857D01*
X150606428Y-80502142D02*
X150663571Y-80445000D01*
X150777857Y-80387857D01*
X150949285Y-80387857D01*
X151063571Y-80445000D01*
X151120714Y-80559285D01*
X151120714Y-81187857D01*
X151692142Y-80387857D02*
X151692142Y-81187857D01*
X151692142Y-80502142D02*
X151749285Y-80445000D01*
X151863571Y-80387857D01*
X152035000Y-80387857D01*
X152149285Y-80445000D01*
X152206428Y-80559285D01*
X152206428Y-81187857D01*
X153235000Y-81130714D02*
X153120714Y-81187857D01*
X152892142Y-81187857D01*
X152777857Y-81130714D01*
X152720714Y-81016428D01*
X152720714Y-80559285D01*
X152777857Y-80445000D01*
X152892142Y-80387857D01*
X153120714Y-80387857D01*
X153235000Y-80445000D01*
X153292142Y-80559285D01*
X153292142Y-80673571D01*
X152720714Y-80787857D01*
X154320714Y-81130714D02*
X154206428Y-81187857D01*
X153977857Y-81187857D01*
X153863571Y-81130714D01*
X153806428Y-81073571D01*
X153749285Y-80959285D01*
X153749285Y-80616428D01*
X153806428Y-80502142D01*
X153863571Y-80445000D01*
X153977857Y-80387857D01*
X154206428Y-80387857D01*
X154320714Y-80445000D01*
X154663571Y-80387857D02*
X155120714Y-80387857D01*
X154835000Y-79987857D02*
X154835000Y-81016428D01*
X154892142Y-81130714D01*
X155006428Y-81187857D01*
X155120714Y-81187857D01*
X155692142Y-81187857D02*
X155577857Y-81130714D01*
X155520714Y-81073571D01*
X155463571Y-80959285D01*
X155463571Y-80616428D01*
X155520714Y-80502142D01*
X155577857Y-80445000D01*
X155692142Y-80387857D01*
X155863571Y-80387857D01*
X155977857Y-80445000D01*
X156035000Y-80502142D01*
X156092142Y-80616428D01*
X156092142Y-80959285D01*
X156035000Y-81073571D01*
X155977857Y-81130714D01*
X155863571Y-81187857D01*
X155692142Y-81187857D01*
X156606428Y-81187857D02*
X156606428Y-80387857D01*
X156606428Y-80616428D02*
X156663571Y-80502142D01*
X156720714Y-80445000D01*
X156835000Y-80387857D01*
X156949285Y-80387857D01*
X157292142Y-81130714D02*
X157406428Y-81187857D01*
X157635000Y-81187857D01*
X157749285Y-81130714D01*
X157806428Y-81016428D01*
X157806428Y-80959285D01*
X157749285Y-80845000D01*
X157635000Y-80787857D01*
X157463571Y-80787857D01*
X157349285Y-80730714D01*
X157292142Y-80616428D01*
X157292142Y-80559285D01*
X157349285Y-80445000D01*
X157463571Y-80387857D01*
X157635000Y-80387857D01*
X157749285Y-80445000D01*
D10*
X125857095Y-76208000D02*
X125761857Y-76160380D01*
X125619000Y-76160380D01*
X125476142Y-76208000D01*
X125380904Y-76303238D01*
X125333285Y-76398476D01*
X125285666Y-76588952D01*
X125285666Y-76731809D01*
X125333285Y-76922285D01*
X125380904Y-77017523D01*
X125476142Y-77112761D01*
X125619000Y-77160380D01*
X125714238Y-77160380D01*
X125857095Y-77112761D01*
X125904714Y-77065142D01*
X125904714Y-76731809D01*
X125714238Y-76731809D01*
X126333285Y-77160380D02*
X126333285Y-76160380D01*
X126904714Y-77160380D01*
X126904714Y-76160380D01*
X127380904Y-77160380D02*
X127380904Y-76160380D01*
X127619000Y-76160380D01*
X127761857Y-76208000D01*
X127857095Y-76303238D01*
X127904714Y-76398476D01*
X127952333Y-76588952D01*
X127952333Y-76731809D01*
X127904714Y-76922285D01*
X127857095Y-77017523D01*
X127761857Y-77112761D01*
X127619000Y-77160380D01*
X127380904Y-77160380D01*
X114371380Y-77170500D02*
X113895190Y-77503833D01*
X114371380Y-77741928D02*
X113371380Y-77741928D01*
X113371380Y-77360976D01*
X113419000Y-77265738D01*
X113466619Y-77218119D01*
X113561857Y-77170500D01*
X113704714Y-77170500D01*
X113799952Y-77218119D01*
X113847571Y-77265738D01*
X113895190Y-77360976D01*
X113895190Y-77741928D01*
X114371380Y-76837166D02*
X113704714Y-76313357D01*
X113704714Y-76837166D02*
X114371380Y-76313357D01*
X128968523Y-76160380D02*
X128492333Y-76160380D01*
X128444714Y-76636571D01*
X128492333Y-76588952D01*
X128587571Y-76541333D01*
X128825666Y-76541333D01*
X128920904Y-76588952D01*
X128968523Y-76636571D01*
X129016142Y-76731809D01*
X129016142Y-76969904D01*
X128968523Y-77065142D01*
X128920904Y-77112761D01*
X128825666Y-77160380D01*
X128587571Y-77160380D01*
X128492333Y-77112761D01*
X128444714Y-77065142D01*
X129301857Y-76160380D02*
X129635190Y-77160380D01*
X129968523Y-76160380D01*
X119451380Y-77884785D02*
X118451380Y-77884785D01*
X118451380Y-77646690D01*
X118499000Y-77503833D01*
X118594238Y-77408595D01*
X118689476Y-77360976D01*
X118879952Y-77313357D01*
X119022809Y-77313357D01*
X119213285Y-77360976D01*
X119308523Y-77408595D01*
X119403761Y-77503833D01*
X119451380Y-77646690D01*
X119451380Y-77884785D01*
X118546619Y-76932404D02*
X118499000Y-76884785D01*
X118451380Y-76789547D01*
X118451380Y-76551452D01*
X118499000Y-76456214D01*
X118546619Y-76408595D01*
X118641857Y-76360976D01*
X118737095Y-76360976D01*
X118879952Y-76408595D01*
X119451380Y-76980023D01*
X119451380Y-76360976D01*
X121991380Y-77884785D02*
X120991380Y-77884785D01*
X120991380Y-77646690D01*
X121039000Y-77503833D01*
X121134238Y-77408595D01*
X121229476Y-77360976D01*
X121419952Y-77313357D01*
X121562809Y-77313357D01*
X121753285Y-77360976D01*
X121848523Y-77408595D01*
X121943761Y-77503833D01*
X121991380Y-77646690D01*
X121991380Y-77884785D01*
X120991380Y-76980023D02*
X120991380Y-76360976D01*
X121372333Y-76694309D01*
X121372333Y-76551452D01*
X121419952Y-76456214D01*
X121467571Y-76408595D01*
X121562809Y-76360976D01*
X121800904Y-76360976D01*
X121896142Y-76408595D01*
X121943761Y-76456214D01*
X121991380Y-76551452D01*
X121991380Y-76837166D01*
X121943761Y-76932404D01*
X121896142Y-76980023D01*
X111831380Y-86849976D02*
X111355190Y-87183309D01*
X111831380Y-87421404D02*
X110831380Y-87421404D01*
X110831380Y-87040452D01*
X110879000Y-86945214D01*
X110926619Y-86897595D01*
X111021857Y-86849976D01*
X111164714Y-86849976D01*
X111259952Y-86897595D01*
X111307571Y-86945214D01*
X111355190Y-87040452D01*
X111355190Y-87421404D01*
X111783761Y-86469023D02*
X111831380Y-86326166D01*
X111831380Y-86088071D01*
X111783761Y-85992833D01*
X111736142Y-85945214D01*
X111640904Y-85897595D01*
X111545666Y-85897595D01*
X111450428Y-85945214D01*
X111402809Y-85992833D01*
X111355190Y-86088071D01*
X111307571Y-86278547D01*
X111259952Y-86373785D01*
X111212333Y-86421404D01*
X111117095Y-86469023D01*
X111021857Y-86469023D01*
X110926619Y-86421404D01*
X110879000Y-86373785D01*
X110831380Y-86278547D01*
X110831380Y-86040452D01*
X110879000Y-85897595D01*
X110831380Y-85611880D02*
X110831380Y-85040452D01*
X111831380Y-85326166D02*
X110831380Y-85326166D01*
X114085666Y-87469023D02*
X114085666Y-86992833D01*
X114371380Y-87564261D02*
X113371380Y-87230928D01*
X114371380Y-86897595D01*
X113371380Y-86373785D02*
X113371380Y-86278547D01*
X113419000Y-86183309D01*
X113466619Y-86135690D01*
X113561857Y-86088071D01*
X113752333Y-86040452D01*
X113990428Y-86040452D01*
X114180904Y-86088071D01*
X114276142Y-86135690D01*
X114323761Y-86183309D01*
X114371380Y-86278547D01*
X114371380Y-86373785D01*
X114323761Y-86469023D01*
X114276142Y-86516642D01*
X114180904Y-86564261D01*
X113990428Y-86611880D01*
X113752333Y-86611880D01*
X113561857Y-86564261D01*
X113466619Y-86516642D01*
X113419000Y-86469023D01*
X113371380Y-86373785D01*
X132357142Y-93452380D02*
X132595238Y-94452380D01*
X132785714Y-93738095D01*
X132976190Y-94452380D01*
X133214285Y-93452380D01*
X133547619Y-94404761D02*
X133690476Y-94452380D01*
X133928571Y-94452380D01*
X134023809Y-94404761D01*
X134071428Y-94357142D01*
X134119047Y-94261904D01*
X134119047Y-94166666D01*
X134071428Y-94071428D01*
X134023809Y-94023809D01*
X133928571Y-93976190D01*
X133738095Y-93928571D01*
X133642857Y-93880952D01*
X133595238Y-93833333D01*
X133547619Y-93738095D01*
X133547619Y-93642857D01*
X133595238Y-93547619D01*
X133642857Y-93500000D01*
X133738095Y-93452380D01*
X133976190Y-93452380D01*
X134119047Y-93500000D01*
X134500000Y-93547619D02*
X134547619Y-93500000D01*
X134642857Y-93452380D01*
X134880952Y-93452380D01*
X134976190Y-93500000D01*
X135023809Y-93547619D01*
X135071428Y-93642857D01*
X135071428Y-93738095D01*
X135023809Y-93880952D01*
X134452380Y-94452380D01*
X135071428Y-94452380D01*
X135642857Y-93880952D02*
X135547619Y-93833333D01*
X135500000Y-93785714D01*
X135452380Y-93690476D01*
X135452380Y-93642857D01*
X135500000Y-93547619D01*
X135547619Y-93500000D01*
X135642857Y-93452380D01*
X135833333Y-93452380D01*
X135928571Y-93500000D01*
X135976190Y-93547619D01*
X136023809Y-93642857D01*
X136023809Y-93690476D01*
X135976190Y-93785714D01*
X135928571Y-93833333D01*
X135833333Y-93880952D01*
X135642857Y-93880952D01*
X135547619Y-93928571D01*
X135500000Y-93976190D01*
X135452380Y-94071428D01*
X135452380Y-94261904D01*
X135500000Y-94357142D01*
X135547619Y-94404761D01*
X135642857Y-94452380D01*
X135833333Y-94452380D01*
X135928571Y-94404761D01*
X135976190Y-94357142D01*
X136023809Y-94261904D01*
X136023809Y-94071428D01*
X135976190Y-93976190D01*
X135928571Y-93928571D01*
X135833333Y-93880952D01*
X136976190Y-94452380D02*
X136404761Y-94452380D01*
X136690476Y-94452380D02*
X136690476Y-93452380D01*
X136595238Y-93595238D01*
X136500000Y-93690476D01*
X136404761Y-93738095D01*
X137880952Y-93452380D02*
X137404761Y-93452380D01*
X137357142Y-93928571D01*
X137404761Y-93880952D01*
X137500000Y-93833333D01*
X137738095Y-93833333D01*
X137833333Y-93880952D01*
X137880952Y-93928571D01*
X137928571Y-94023809D01*
X137928571Y-94261904D01*
X137880952Y-94357142D01*
X137833333Y-94404761D01*
X137738095Y-94452380D01*
X137500000Y-94452380D01*
X137404761Y-94404761D01*
X137357142Y-94357142D01*
X138119047Y-94547619D02*
X138880952Y-94547619D01*
X139119047Y-94452380D02*
X139119047Y-93452380D01*
X139357142Y-93452380D01*
X139500000Y-93500000D01*
X139595238Y-93595238D01*
X139642857Y-93690476D01*
X139690476Y-93880952D01*
X139690476Y-94023809D01*
X139642857Y-94214285D01*
X139595238Y-94309523D01*
X139500000Y-94404761D01*
X139357142Y-94452380D01*
X139119047Y-94452380D01*
X140642857Y-94452380D02*
X140071428Y-94452380D01*
X140357142Y-94452380D02*
X140357142Y-93452380D01*
X140261904Y-93595238D01*
X140166666Y-93690476D01*
X140071428Y-93738095D01*
X141071428Y-94452380D02*
X141071428Y-93452380D01*
X141404761Y-94166666D01*
X141738095Y-93452380D01*
X141738095Y-94452380D01*
X142214285Y-94452380D02*
X142214285Y-93785714D01*
X142214285Y-93452380D02*
X142166666Y-93500000D01*
X142214285Y-93547619D01*
X142261904Y-93500000D01*
X142214285Y-93452380D01*
X142214285Y-93547619D01*
X142690476Y-93785714D02*
X142690476Y-94452380D01*
X142690476Y-93880952D02*
X142738095Y-93833333D01*
X142833333Y-93785714D01*
X142976190Y-93785714D01*
X143071428Y-93833333D01*
X143119047Y-93928571D01*
X143119047Y-94452380D01*
X143595238Y-94452380D02*
X143595238Y-93785714D01*
X143595238Y-93452380D02*
X143547619Y-93500000D01*
X143595238Y-93547619D01*
X143642857Y-93500000D01*
X143595238Y-93452380D01*
X143595238Y-93547619D01*
X144690476Y-93452380D02*
X145023809Y-94452380D01*
X145357142Y-93452380D01*
X146214285Y-94452380D02*
X145642857Y-94452380D01*
X145928571Y-94452380D02*
X145928571Y-93452380D01*
X145833333Y-93595238D01*
X145738095Y-93690476D01*
X145642857Y-93738095D01*
X146642857Y-94452380D02*
X146642857Y-93785714D01*
X146642857Y-93976190D02*
X146690476Y-93880952D01*
X146738095Y-93833333D01*
X146833333Y-93785714D01*
X146928571Y-93785714D01*
X147785714Y-94452380D02*
X147214285Y-94452380D01*
X147500000Y-94452380D02*
X147500000Y-93452380D01*
X147404761Y-93595238D01*
X147309523Y-93690476D01*
X147214285Y-93738095D01*
X149261904Y-94833333D02*
X149214285Y-94785714D01*
X149119047Y-94642857D01*
X149071428Y-94547619D01*
X149023809Y-94404761D01*
X148976190Y-94166666D01*
X148976190Y-93976190D01*
X149023809Y-93738095D01*
X149071428Y-93595238D01*
X149119047Y-93500000D01*
X149214285Y-93357142D01*
X149261904Y-93309523D01*
X149595238Y-93547619D02*
X149642857Y-93500000D01*
X149738095Y-93452380D01*
X149976190Y-93452380D01*
X150071428Y-93500000D01*
X150119047Y-93547619D01*
X150166666Y-93642857D01*
X150166666Y-93738095D01*
X150119047Y-93880952D01*
X149547619Y-94452380D01*
X150166666Y-94452380D01*
X150785714Y-93452380D02*
X150880952Y-93452380D01*
X150976190Y-93500000D01*
X151023809Y-93547619D01*
X151071428Y-93642857D01*
X151119047Y-93833333D01*
X151119047Y-94071428D01*
X151071428Y-94261904D01*
X151023809Y-94357142D01*
X150976190Y-94404761D01*
X150880952Y-94452380D01*
X150785714Y-94452380D01*
X150690476Y-94404761D01*
X150642857Y-94357142D01*
X150595238Y-94261904D01*
X150547619Y-94071428D01*
X150547619Y-93833333D01*
X150595238Y-93642857D01*
X150642857Y-93547619D01*
X150690476Y-93500000D01*
X150785714Y-93452380D01*
X151500000Y-93547619D02*
X151547619Y-93500000D01*
X151642857Y-93452380D01*
X151880952Y-93452380D01*
X151976190Y-93500000D01*
X152023809Y-93547619D01*
X152071428Y-93642857D01*
X152071428Y-93738095D01*
X152023809Y-93880952D01*
X151452380Y-94452380D01*
X152071428Y-94452380D01*
X152452380Y-93547619D02*
X152500000Y-93500000D01*
X152595238Y-93452380D01*
X152833333Y-93452380D01*
X152928571Y-93500000D01*
X152976190Y-93547619D01*
X153023809Y-93642857D01*
X153023809Y-93738095D01*
X152976190Y-93880952D01*
X152404761Y-94452380D01*
X153023809Y-94452380D01*
X154166666Y-93404761D02*
X153309523Y-94690476D01*
X154690476Y-93452380D02*
X154785714Y-93452380D01*
X154880952Y-93500000D01*
X154928571Y-93547619D01*
X154976190Y-93642857D01*
X155023809Y-93833333D01*
X155023809Y-94071428D01*
X154976190Y-94261904D01*
X154928571Y-94357142D01*
X154880952Y-94404761D01*
X154785714Y-94452380D01*
X154690476Y-94452380D01*
X154595238Y-94404761D01*
X154547619Y-94357142D01*
X154500000Y-94261904D01*
X154452380Y-94071428D01*
X154452380Y-93833333D01*
X154500000Y-93642857D01*
X154547619Y-93547619D01*
X154595238Y-93500000D01*
X154690476Y-93452380D01*
X155500000Y-94452380D02*
X155690476Y-94452380D01*
X155785714Y-94404761D01*
X155833333Y-94357142D01*
X155928571Y-94214285D01*
X155976190Y-94023809D01*
X155976190Y-93642857D01*
X155928571Y-93547619D01*
X155880952Y-93500000D01*
X155785714Y-93452380D01*
X155595238Y-93452380D01*
X155500000Y-93500000D01*
X155452380Y-93547619D01*
X155404761Y-93642857D01*
X155404761Y-93880952D01*
X155452380Y-93976190D01*
X155500000Y-94023809D01*
X155595238Y-94071428D01*
X155785714Y-94071428D01*
X155880952Y-94023809D01*
X155928571Y-93976190D01*
X155976190Y-93880952D01*
X157119047Y-93404761D02*
X156261904Y-94690476D01*
X157642857Y-93452380D02*
X157738095Y-93452380D01*
X157833333Y-93500000D01*
X157880952Y-93547619D01*
X157928571Y-93642857D01*
X157976190Y-93833333D01*
X157976190Y-94071428D01*
X157928571Y-94261904D01*
X157880952Y-94357142D01*
X157833333Y-94404761D01*
X157738095Y-94452380D01*
X157642857Y-94452380D01*
X157547619Y-94404761D01*
X157500000Y-94357142D01*
X157452380Y-94261904D01*
X157404761Y-94071428D01*
X157404761Y-93833333D01*
X157452380Y-93642857D01*
X157500000Y-93547619D01*
X157547619Y-93500000D01*
X157642857Y-93452380D01*
X158833333Y-93785714D02*
X158833333Y-94452380D01*
X158595238Y-93404761D02*
X158357142Y-94119047D01*
X158976190Y-94119047D01*
X159261904Y-94833333D02*
X159309523Y-94785714D01*
X159404761Y-94642857D01*
X159452380Y-94547619D01*
X159500000Y-94404761D01*
X159547619Y-94166666D01*
X159547619Y-93976190D01*
X159500000Y-93738095D01*
X159452380Y-93595238D01*
X159404761Y-93500000D01*
X159309523Y-93357142D01*
X159261904Y-93309523D01*
X145639404Y-82050000D02*
X145544166Y-82002380D01*
X145401309Y-82002380D01*
X145258452Y-82050000D01*
X145163214Y-82145238D01*
X145115595Y-82240476D01*
X145067976Y-82430952D01*
X145067976Y-82573809D01*
X145115595Y-82764285D01*
X145163214Y-82859523D01*
X145258452Y-82954761D01*
X145401309Y-83002380D01*
X145496547Y-83002380D01*
X145639404Y-82954761D01*
X145687023Y-82907142D01*
X145687023Y-82573809D01*
X145496547Y-82573809D01*
X146115595Y-83002380D02*
X146115595Y-82002380D01*
X146687023Y-83002380D01*
X146687023Y-82002380D01*
X147163214Y-83002380D02*
X147163214Y-82002380D01*
X147401309Y-82002380D01*
X147544166Y-82050000D01*
X147639404Y-82145238D01*
X147687023Y-82240476D01*
X147734642Y-82430952D01*
X147734642Y-82573809D01*
X147687023Y-82764285D01*
X147639404Y-82859523D01*
X147544166Y-82954761D01*
X147401309Y-83002380D01*
X147163214Y-83002380D01*
X148401309Y-83335714D02*
X148401309Y-81907142D01*
X149448928Y-82478571D02*
X149591785Y-82526190D01*
X149639404Y-82573809D01*
X149687023Y-82669047D01*
X149687023Y-82811904D01*
X149639404Y-82907142D01*
X149591785Y-82954761D01*
X149496547Y-83002380D01*
X149115595Y-83002380D01*
X149115595Y-82002380D01*
X149448928Y-82002380D01*
X149544166Y-82050000D01*
X149591785Y-82097619D01*
X149639404Y-82192857D01*
X149639404Y-82288095D01*
X149591785Y-82383333D01*
X149544166Y-82430952D01*
X149448928Y-82478571D01*
X149115595Y-82478571D01*
X150115595Y-83002380D02*
X150115595Y-82002380D01*
X150829880Y-83335714D02*
X150829880Y-81907142D01*
X151544166Y-83002380D02*
X151544166Y-82002380D01*
X151782261Y-82002380D01*
X151925119Y-82050000D01*
X152020357Y-82145238D01*
X152067976Y-82240476D01*
X152115595Y-82430952D01*
X152115595Y-82573809D01*
X152067976Y-82764285D01*
X152020357Y-82859523D01*
X151925119Y-82954761D01*
X151782261Y-83002380D01*
X151544166Y-83002380D01*
X152544166Y-83002380D02*
X152544166Y-82002380D01*
X153258452Y-83335714D02*
X153258452Y-81907142D01*
X154496547Y-83002380D02*
X153925119Y-83002380D01*
X154210833Y-83002380D02*
X154210833Y-82002380D01*
X154115595Y-82145238D01*
X154020357Y-82240476D01*
X153925119Y-82288095D01*
X154877500Y-82097619D02*
X154925119Y-82050000D01*
X155020357Y-82002380D01*
X155258452Y-82002380D01*
X155353690Y-82050000D01*
X155401309Y-82097619D01*
X155448928Y-82192857D01*
X155448928Y-82288095D01*
X155401309Y-82430952D01*
X154829880Y-83002380D01*
X155448928Y-83002380D01*
X155734642Y-82002380D02*
X156067976Y-83002380D01*
X156401309Y-82002380D01*
X116911380Y-77884785D02*
X115911380Y-77884785D01*
X115911380Y-77646690D01*
X115959000Y-77503833D01*
X116054238Y-77408595D01*
X116149476Y-77360976D01*
X116339952Y-77313357D01*
X116482809Y-77313357D01*
X116673285Y-77360976D01*
X116768523Y-77408595D01*
X116863761Y-77503833D01*
X116911380Y-77646690D01*
X116911380Y-77884785D01*
X116911380Y-76360976D02*
X116911380Y-76932404D01*
X116911380Y-76646690D02*
X115911380Y-76646690D01*
X116054238Y-76741928D01*
X116149476Y-76837166D01*
X116197095Y-76932404D01*
X153351547Y-84907380D02*
X152780119Y-84907380D01*
X153065833Y-84907380D02*
X153065833Y-83907380D01*
X152970595Y-84050238D01*
X152875357Y-84145476D01*
X152780119Y-84193095D01*
X153732500Y-84002619D02*
X153780119Y-83955000D01*
X153875357Y-83907380D01*
X154113452Y-83907380D01*
X154208690Y-83955000D01*
X154256309Y-84002619D01*
X154303928Y-84097857D01*
X154303928Y-84193095D01*
X154256309Y-84335952D01*
X153684880Y-84907380D01*
X154303928Y-84907380D01*
X154589642Y-83907380D02*
X154922976Y-84907380D01*
X155256309Y-83907380D01*
X155684880Y-84240714D02*
X156256309Y-84812142D01*
X156256309Y-84240714D02*
X155684880Y-84812142D01*
X156780119Y-84002619D02*
X156827738Y-83955000D01*
X156922976Y-83907380D01*
X157161071Y-83907380D01*
X157256309Y-83955000D01*
X157303928Y-84002619D01*
X157351547Y-84097857D01*
X157351547Y-84193095D01*
X157303928Y-84335952D01*
X156732500Y-84907380D01*
X157351547Y-84907380D01*
X158018214Y-85240714D02*
X158018214Y-83812142D01*
X159256309Y-83955000D02*
X159161071Y-83907380D01*
X159018214Y-83907380D01*
X158875357Y-83955000D01*
X158780119Y-84050238D01*
X158732500Y-84145476D01*
X158684880Y-84335952D01*
X158684880Y-84478809D01*
X158732500Y-84669285D01*
X158780119Y-84764523D01*
X158875357Y-84859761D01*
X159018214Y-84907380D01*
X159113452Y-84907380D01*
X159256309Y-84859761D01*
X159303928Y-84812142D01*
X159303928Y-84478809D01*
X159113452Y-84478809D01*
X159732500Y-84907380D02*
X159732500Y-83907380D01*
X160303928Y-84907380D01*
X160303928Y-83907380D01*
X160780119Y-84907380D02*
X160780119Y-83907380D01*
X161018214Y-83907380D01*
X161161071Y-83955000D01*
X161256309Y-84050238D01*
X161303928Y-84145476D01*
X161351547Y-84335952D01*
X161351547Y-84478809D01*
X161303928Y-84669285D01*
X161256309Y-84764523D01*
X161161071Y-84859761D01*
X161018214Y-84907380D01*
X160780119Y-84907380D01*
X161875357Y-84240714D02*
X162446785Y-84812142D01*
X162446785Y-84240714D02*
X161875357Y-84812142D01*
X162970595Y-84002619D02*
X163018214Y-83955000D01*
X163113452Y-83907380D01*
X163351547Y-83907380D01*
X163446785Y-83955000D01*
X163494404Y-84002619D01*
X163542023Y-84097857D01*
X163542023Y-84193095D01*
X163494404Y-84335952D01*
X162922976Y-84907380D01*
X163542023Y-84907380D01*
X123340904Y-77160380D02*
X123340904Y-76160380D01*
X123579000Y-76160380D01*
X123721857Y-76208000D01*
X123817095Y-76303238D01*
X123864714Y-76398476D01*
X123912333Y-76588952D01*
X123912333Y-76731809D01*
X123864714Y-76922285D01*
X123817095Y-77017523D01*
X123721857Y-77112761D01*
X123579000Y-77160380D01*
X123340904Y-77160380D01*
X124769476Y-76493714D02*
X124769476Y-77160380D01*
X124531380Y-76112761D02*
X124293285Y-76827047D01*
X124912333Y-76827047D01*
X110831380Y-77646690D02*
X110831380Y-77075261D01*
X111831380Y-77360976D02*
X110831380Y-77360976D01*
X111831380Y-76837166D02*
X111164714Y-76313357D01*
X111164714Y-76837166D02*
X111831380Y-76313357D01*
X127071380Y-87421404D02*
X126071380Y-87421404D01*
X126071380Y-87183309D01*
X126119000Y-87040452D01*
X126214238Y-86945214D01*
X126309476Y-86897595D01*
X126499952Y-86849976D01*
X126642809Y-86849976D01*
X126833285Y-86897595D01*
X126928523Y-86945214D01*
X127023761Y-87040452D01*
X127071380Y-87183309D01*
X127071380Y-87421404D01*
X126499952Y-86278547D02*
X126452333Y-86373785D01*
X126404714Y-86421404D01*
X126309476Y-86469023D01*
X126261857Y-86469023D01*
X126166619Y-86421404D01*
X126119000Y-86373785D01*
X126071380Y-86278547D01*
X126071380Y-86088071D01*
X126119000Y-85992833D01*
X126166619Y-85945214D01*
X126261857Y-85897595D01*
X126309476Y-85897595D01*
X126404714Y-85945214D01*
X126452333Y-85992833D01*
X126499952Y-86088071D01*
X126499952Y-86278547D01*
X126547571Y-86373785D01*
X126595190Y-86421404D01*
X126690428Y-86469023D01*
X126880904Y-86469023D01*
X126976142Y-86421404D01*
X127023761Y-86373785D01*
X127071380Y-86278547D01*
X127071380Y-86088071D01*
X127023761Y-85992833D01*
X126976142Y-85945214D01*
X126880904Y-85897595D01*
X126690428Y-85897595D01*
X126595190Y-85945214D01*
X126547571Y-85992833D01*
X126499952Y-86088071D01*
X119451380Y-87421404D02*
X118451380Y-87421404D01*
X118451380Y-87183309D01*
X118499000Y-87040452D01*
X118594238Y-86945214D01*
X118689476Y-86897595D01*
X118879952Y-86849976D01*
X119022809Y-86849976D01*
X119213285Y-86897595D01*
X119308523Y-86945214D01*
X119403761Y-87040452D01*
X119451380Y-87183309D01*
X119451380Y-87421404D01*
X118451380Y-85945214D02*
X118451380Y-86421404D01*
X118927571Y-86469023D01*
X118879952Y-86421404D01*
X118832333Y-86326166D01*
X118832333Y-86088071D01*
X118879952Y-85992833D01*
X118927571Y-85945214D01*
X119022809Y-85897595D01*
X119260904Y-85897595D01*
X119356142Y-85945214D01*
X119403761Y-85992833D01*
X119451380Y-86088071D01*
X119451380Y-86326166D01*
X119403761Y-86421404D01*
X119356142Y-86469023D01*
X128611380Y-87516642D02*
X128611380Y-86897595D01*
X128992333Y-87230928D01*
X128992333Y-87088071D01*
X129039952Y-86992833D01*
X129087571Y-86945214D01*
X129182809Y-86897595D01*
X129420904Y-86897595D01*
X129516142Y-86945214D01*
X129563761Y-86992833D01*
X129611380Y-87088071D01*
X129611380Y-87373785D01*
X129563761Y-87469023D01*
X129516142Y-87516642D01*
X128611380Y-86611880D02*
X129611380Y-86278547D01*
X128611380Y-85945214D01*
X128611380Y-85707119D02*
X128611380Y-85088071D01*
X128992333Y-85421404D01*
X128992333Y-85278547D01*
X129039952Y-85183309D01*
X129087571Y-85135690D01*
X129182809Y-85088071D01*
X129420904Y-85088071D01*
X129516142Y-85135690D01*
X129563761Y-85183309D01*
X129611380Y-85278547D01*
X129611380Y-85564261D01*
X129563761Y-85659500D01*
X129516142Y-85707119D01*
%TO.C,J14*%
X113312380Y-66932380D02*
X113121904Y-66932380D01*
X113026666Y-66980000D01*
X112979047Y-67027619D01*
X112883809Y-67170476D01*
X112836190Y-67360952D01*
X112836190Y-67741904D01*
X112883809Y-67837142D01*
X112931428Y-67884761D01*
X113026666Y-67932380D01*
X113217142Y-67932380D01*
X113312380Y-67884761D01*
X113360000Y-67837142D01*
X113407619Y-67741904D01*
X113407619Y-67503809D01*
X113360000Y-67408571D01*
X113312380Y-67360952D01*
X113217142Y-67313333D01*
X113026666Y-67313333D01*
X112931428Y-67360952D01*
X112883809Y-67408571D01*
X112836190Y-67503809D01*
X113883809Y-67932380D02*
X114074285Y-67932380D01*
X114169523Y-67884761D01*
X114217142Y-67837142D01*
X114312380Y-67694285D01*
X114360000Y-67503809D01*
X114360000Y-67122857D01*
X114312380Y-67027619D01*
X114264761Y-66980000D01*
X114169523Y-66932380D01*
X113979047Y-66932380D01*
X113883809Y-66980000D01*
X113836190Y-67027619D01*
X113788571Y-67122857D01*
X113788571Y-67360952D01*
X113836190Y-67456190D01*
X113883809Y-67503809D01*
X113979047Y-67551428D01*
X114169523Y-67551428D01*
X114264761Y-67503809D01*
X114312380Y-67456190D01*
X114360000Y-67360952D01*
X115312380Y-67932380D02*
X114740952Y-67932380D01*
X115026666Y-67932380D02*
X115026666Y-66932380D01*
X114931428Y-67075238D01*
X114836190Y-67170476D01*
X114740952Y-67218095D01*
X116169523Y-67265714D02*
X116169523Y-67932380D01*
X115931428Y-66884761D02*
X115693333Y-67599047D01*
X116312380Y-67599047D01*
X117217142Y-67932380D02*
X116645714Y-67932380D01*
X116931428Y-67932380D02*
X116931428Y-66932380D01*
X116836190Y-67075238D01*
X116740952Y-67170476D01*
X116645714Y-67218095D01*
X118169523Y-67932380D02*
X117598095Y-67932380D01*
X117883809Y-67932380D02*
X117883809Y-66932380D01*
X117788571Y-67075238D01*
X117693333Y-67170476D01*
X117598095Y-67218095D01*
X119026666Y-67265714D02*
X119026666Y-67932380D01*
X118788571Y-66884761D02*
X118550476Y-67599047D01*
X119169523Y-67599047D01*
X120074285Y-67932380D02*
X119502857Y-67932380D01*
X119788571Y-67932380D02*
X119788571Y-66932380D01*
X119693333Y-67075238D01*
X119598095Y-67170476D01*
X119502857Y-67218095D01*
X120693333Y-66932380D02*
X120788571Y-66932380D01*
X120883809Y-66980000D01*
X120931428Y-67027619D01*
X120979047Y-67122857D01*
X121026666Y-67313333D01*
X121026666Y-67551428D01*
X120979047Y-67741904D01*
X120931428Y-67837142D01*
X120883809Y-67884761D01*
X120788571Y-67932380D01*
X120693333Y-67932380D01*
X120598095Y-67884761D01*
X120550476Y-67837142D01*
X120502857Y-67741904D01*
X120455238Y-67551428D01*
X120455238Y-67313333D01*
X120502857Y-67122857D01*
X120550476Y-67027619D01*
X120598095Y-66980000D01*
X120693333Y-66932380D01*
X121645714Y-66932380D02*
X121740952Y-66932380D01*
X121836190Y-66980000D01*
X121883809Y-67027619D01*
X121931428Y-67122857D01*
X121979047Y-67313333D01*
X121979047Y-67551428D01*
X121931428Y-67741904D01*
X121883809Y-67837142D01*
X121836190Y-67884761D01*
X121740952Y-67932380D01*
X121645714Y-67932380D01*
X121550476Y-67884761D01*
X121502857Y-67837142D01*
X121455238Y-67741904D01*
X121407619Y-67551428D01*
X121407619Y-67313333D01*
X121455238Y-67122857D01*
X121502857Y-67027619D01*
X121550476Y-66980000D01*
X121645714Y-66932380D01*
X122598095Y-66932380D02*
X122693333Y-66932380D01*
X122788571Y-66980000D01*
X122836190Y-67027619D01*
X122883809Y-67122857D01*
X122931428Y-67313333D01*
X122931428Y-67551428D01*
X122883809Y-67741904D01*
X122836190Y-67837142D01*
X122788571Y-67884761D01*
X122693333Y-67932380D01*
X122598095Y-67932380D01*
X122502857Y-67884761D01*
X122455238Y-67837142D01*
X122407619Y-67741904D01*
X122360000Y-67551428D01*
X122360000Y-67313333D01*
X122407619Y-67122857D01*
X122455238Y-67027619D01*
X122502857Y-66980000D01*
X122598095Y-66932380D01*
X123788571Y-67265714D02*
X123788571Y-67932380D01*
X123550476Y-66884761D02*
X123312380Y-67599047D01*
X123931428Y-67599047D01*
%TO.C,C4*%
X129627333Y-80693142D02*
X129579714Y-80740761D01*
X129436857Y-80788380D01*
X129341619Y-80788380D01*
X129198761Y-80740761D01*
X129103523Y-80645523D01*
X129055904Y-80550285D01*
X129008285Y-80359809D01*
X129008285Y-80216952D01*
X129055904Y-80026476D01*
X129103523Y-79931238D01*
X129198761Y-79836000D01*
X129341619Y-79788380D01*
X129436857Y-79788380D01*
X129579714Y-79836000D01*
X129627333Y-79883619D01*
X130484476Y-80121714D02*
X130484476Y-80788380D01*
X130246380Y-79740761D02*
X130008285Y-80455047D01*
X130627333Y-80455047D01*
%TO.C,C1*%
X139583333Y-86357142D02*
X139535714Y-86404761D01*
X139392857Y-86452380D01*
X139297619Y-86452380D01*
X139154761Y-86404761D01*
X139059523Y-86309523D01*
X139011904Y-86214285D01*
X138964285Y-86023809D01*
X138964285Y-85880952D01*
X139011904Y-85690476D01*
X139059523Y-85595238D01*
X139154761Y-85500000D01*
X139297619Y-85452380D01*
X139392857Y-85452380D01*
X139535714Y-85500000D01*
X139583333Y-85547619D01*
X140535714Y-86452380D02*
X139964285Y-86452380D01*
X140250000Y-86452380D02*
X140250000Y-85452380D01*
X140154761Y-85595238D01*
X140059523Y-85690476D01*
X139964285Y-85738095D01*
%TO.C,U3*%
X149860095Y-69374380D02*
X149860095Y-70183904D01*
X149907714Y-70279142D01*
X149955333Y-70326761D01*
X150050571Y-70374380D01*
X150241047Y-70374380D01*
X150336285Y-70326761D01*
X150383904Y-70279142D01*
X150431523Y-70183904D01*
X150431523Y-69374380D01*
X150812476Y-69374380D02*
X151431523Y-69374380D01*
X151098190Y-69755333D01*
X151241047Y-69755333D01*
X151336285Y-69802952D01*
X151383904Y-69850571D01*
X151431523Y-69945809D01*
X151431523Y-70183904D01*
X151383904Y-70279142D01*
X151336285Y-70326761D01*
X151241047Y-70374380D01*
X150955333Y-70374380D01*
X150860095Y-70326761D01*
X150812476Y-70279142D01*
%TO.C,U1*%
X135977380Y-91104404D02*
X136786904Y-91104404D01*
X136882142Y-91056785D01*
X136929761Y-91009166D01*
X136977380Y-90913928D01*
X136977380Y-90723452D01*
X136929761Y-90628214D01*
X136882142Y-90580595D01*
X136786904Y-90532976D01*
X135977380Y-90532976D01*
X136977380Y-89532976D02*
X136977380Y-90104404D01*
X136977380Y-89818690D02*
X135977380Y-89818690D01*
X136120238Y-89913928D01*
X136215476Y-90009166D01*
X136263095Y-90104404D01*
X134072380Y-91199642D02*
X135072380Y-90961547D01*
X134358095Y-90771071D01*
X135072380Y-90580595D01*
X134072380Y-90342500D01*
X135024761Y-89580595D02*
X135072380Y-89675833D01*
X135072380Y-89866309D01*
X135024761Y-89961547D01*
X134929523Y-90009166D01*
X134548571Y-90009166D01*
X134453333Y-89961547D01*
X134405714Y-89866309D01*
X134405714Y-89675833D01*
X134453333Y-89580595D01*
X134548571Y-89532976D01*
X134643809Y-89532976D01*
X134739047Y-90009166D01*
X135072380Y-89104404D02*
X134072380Y-89104404D01*
X134786666Y-88771071D01*
X134072380Y-88437738D01*
X135072380Y-88437738D01*
X135072380Y-87818690D02*
X135024761Y-87913928D01*
X134977142Y-87961547D01*
X134881904Y-88009166D01*
X134596190Y-88009166D01*
X134500952Y-87961547D01*
X134453333Y-87913928D01*
X134405714Y-87818690D01*
X134405714Y-87675833D01*
X134453333Y-87580595D01*
X134500952Y-87532976D01*
X134596190Y-87485357D01*
X134881904Y-87485357D01*
X134977142Y-87532976D01*
X135024761Y-87580595D01*
X135072380Y-87675833D01*
X135072380Y-87818690D01*
X135024761Y-87104404D02*
X135072380Y-87009166D01*
X135072380Y-86818690D01*
X135024761Y-86723452D01*
X134929523Y-86675833D01*
X134881904Y-86675833D01*
X134786666Y-86723452D01*
X134739047Y-86818690D01*
X134739047Y-86961547D01*
X134691428Y-87056785D01*
X134596190Y-87104404D01*
X134548571Y-87104404D01*
X134453333Y-87056785D01*
X134405714Y-86961547D01*
X134405714Y-86818690D01*
X134453333Y-86723452D01*
X135167619Y-86485357D02*
X135167619Y-85723452D01*
X135072380Y-85485357D02*
X134072380Y-85485357D01*
X134072380Y-85247261D01*
X134120000Y-85104404D01*
X134215238Y-85009166D01*
X134310476Y-84961547D01*
X134500952Y-84913928D01*
X134643809Y-84913928D01*
X134834285Y-84961547D01*
X134929523Y-85009166D01*
X135024761Y-85104404D01*
X135072380Y-85247261D01*
X135072380Y-85485357D01*
X135072380Y-83961547D02*
X135072380Y-84532976D01*
X135072380Y-84247261D02*
X134072380Y-84247261D01*
X134215238Y-84342500D01*
X134310476Y-84437738D01*
X134358095Y-84532976D01*
X135167619Y-83771071D02*
X135167619Y-83009166D01*
X135072380Y-82771071D02*
X134405714Y-82771071D01*
X134500952Y-82771071D02*
X134453333Y-82723452D01*
X134405714Y-82628214D01*
X134405714Y-82485357D01*
X134453333Y-82390119D01*
X134548571Y-82342500D01*
X135072380Y-82342500D01*
X134548571Y-82342500D02*
X134453333Y-82294880D01*
X134405714Y-82199642D01*
X134405714Y-82056785D01*
X134453333Y-81961547D01*
X134548571Y-81913928D01*
X135072380Y-81913928D01*
X135072380Y-81437738D02*
X134405714Y-81437738D01*
X134072380Y-81437738D02*
X134120000Y-81485357D01*
X134167619Y-81437738D01*
X134120000Y-81390119D01*
X134072380Y-81437738D01*
X134167619Y-81437738D01*
X134405714Y-80961547D02*
X135072380Y-80961547D01*
X134500952Y-80961547D02*
X134453333Y-80913928D01*
X134405714Y-80818690D01*
X134405714Y-80675833D01*
X134453333Y-80580595D01*
X134548571Y-80532976D01*
X135072380Y-80532976D01*
X135072380Y-80056785D02*
X134405714Y-80056785D01*
X134072380Y-80056785D02*
X134120000Y-80104404D01*
X134167619Y-80056785D01*
X134120000Y-80009166D01*
X134072380Y-80056785D01*
X134167619Y-80056785D01*
%TO.C,C2*%
X138787142Y-71921666D02*
X138834761Y-71969285D01*
X138882380Y-72112142D01*
X138882380Y-72207380D01*
X138834761Y-72350238D01*
X138739523Y-72445476D01*
X138644285Y-72493095D01*
X138453809Y-72540714D01*
X138310952Y-72540714D01*
X138120476Y-72493095D01*
X138025238Y-72445476D01*
X137930000Y-72350238D01*
X137882380Y-72207380D01*
X137882380Y-72112142D01*
X137930000Y-71969285D01*
X137977619Y-71921666D01*
X137977619Y-71540714D02*
X137930000Y-71493095D01*
X137882380Y-71397857D01*
X137882380Y-71159761D01*
X137930000Y-71064523D01*
X137977619Y-71016904D01*
X138072857Y-70969285D01*
X138168095Y-70969285D01*
X138310952Y-71016904D01*
X138882380Y-71588333D01*
X138882380Y-70969285D01*
%TO.C,J13*%
X143792380Y-66932380D02*
X143601904Y-66932380D01*
X143506666Y-66980000D01*
X143459047Y-67027619D01*
X143363809Y-67170476D01*
X143316190Y-67360952D01*
X143316190Y-67741904D01*
X143363809Y-67837142D01*
X143411428Y-67884761D01*
X143506666Y-67932380D01*
X143697142Y-67932380D01*
X143792380Y-67884761D01*
X143840000Y-67837142D01*
X143887619Y-67741904D01*
X143887619Y-67503809D01*
X143840000Y-67408571D01*
X143792380Y-67360952D01*
X143697142Y-67313333D01*
X143506666Y-67313333D01*
X143411428Y-67360952D01*
X143363809Y-67408571D01*
X143316190Y-67503809D01*
X144363809Y-67932380D02*
X144554285Y-67932380D01*
X144649523Y-67884761D01*
X144697142Y-67837142D01*
X144792380Y-67694285D01*
X144840000Y-67503809D01*
X144840000Y-67122857D01*
X144792380Y-67027619D01*
X144744761Y-66980000D01*
X144649523Y-66932380D01*
X144459047Y-66932380D01*
X144363809Y-66980000D01*
X144316190Y-67027619D01*
X144268571Y-67122857D01*
X144268571Y-67360952D01*
X144316190Y-67456190D01*
X144363809Y-67503809D01*
X144459047Y-67551428D01*
X144649523Y-67551428D01*
X144744761Y-67503809D01*
X144792380Y-67456190D01*
X144840000Y-67360952D01*
X145792380Y-67932380D02*
X145220952Y-67932380D01*
X145506666Y-67932380D02*
X145506666Y-66932380D01*
X145411428Y-67075238D01*
X145316190Y-67170476D01*
X145220952Y-67218095D01*
X146649523Y-67265714D02*
X146649523Y-67932380D01*
X146411428Y-66884761D02*
X146173333Y-67599047D01*
X146792380Y-67599047D01*
X147697142Y-67932380D02*
X147125714Y-67932380D01*
X147411428Y-67932380D02*
X147411428Y-66932380D01*
X147316190Y-67075238D01*
X147220952Y-67170476D01*
X147125714Y-67218095D01*
X148649523Y-67932380D02*
X148078095Y-67932380D01*
X148363809Y-67932380D02*
X148363809Y-66932380D01*
X148268571Y-67075238D01*
X148173333Y-67170476D01*
X148078095Y-67218095D01*
X149506666Y-67265714D02*
X149506666Y-67932380D01*
X149268571Y-66884761D02*
X149030476Y-67599047D01*
X149649523Y-67599047D01*
X150554285Y-67932380D02*
X149982857Y-67932380D01*
X150268571Y-67932380D02*
X150268571Y-66932380D01*
X150173333Y-67075238D01*
X150078095Y-67170476D01*
X149982857Y-67218095D01*
X151173333Y-66932380D02*
X151268571Y-66932380D01*
X151363809Y-66980000D01*
X151411428Y-67027619D01*
X151459047Y-67122857D01*
X151506666Y-67313333D01*
X151506666Y-67551428D01*
X151459047Y-67741904D01*
X151411428Y-67837142D01*
X151363809Y-67884761D01*
X151268571Y-67932380D01*
X151173333Y-67932380D01*
X151078095Y-67884761D01*
X151030476Y-67837142D01*
X150982857Y-67741904D01*
X150935238Y-67551428D01*
X150935238Y-67313333D01*
X150982857Y-67122857D01*
X151030476Y-67027619D01*
X151078095Y-66980000D01*
X151173333Y-66932380D01*
X152125714Y-66932380D02*
X152220952Y-66932380D01*
X152316190Y-66980000D01*
X152363809Y-67027619D01*
X152411428Y-67122857D01*
X152459047Y-67313333D01*
X152459047Y-67551428D01*
X152411428Y-67741904D01*
X152363809Y-67837142D01*
X152316190Y-67884761D01*
X152220952Y-67932380D01*
X152125714Y-67932380D01*
X152030476Y-67884761D01*
X151982857Y-67837142D01*
X151935238Y-67741904D01*
X151887619Y-67551428D01*
X151887619Y-67313333D01*
X151935238Y-67122857D01*
X151982857Y-67027619D01*
X152030476Y-66980000D01*
X152125714Y-66932380D01*
X153078095Y-66932380D02*
X153173333Y-66932380D01*
X153268571Y-66980000D01*
X153316190Y-67027619D01*
X153363809Y-67122857D01*
X153411428Y-67313333D01*
X153411428Y-67551428D01*
X153363809Y-67741904D01*
X153316190Y-67837142D01*
X153268571Y-67884761D01*
X153173333Y-67932380D01*
X153078095Y-67932380D01*
X152982857Y-67884761D01*
X152935238Y-67837142D01*
X152887619Y-67741904D01*
X152840000Y-67551428D01*
X152840000Y-67313333D01*
X152887619Y-67122857D01*
X152935238Y-67027619D01*
X152982857Y-66980000D01*
X153078095Y-66932380D01*
X154268571Y-67265714D02*
X154268571Y-67932380D01*
X154030476Y-66884761D02*
X153792380Y-67599047D01*
X154411428Y-67599047D01*
%TO.C,R1*%
X124738333Y-79987380D02*
X124405000Y-79511190D01*
X124166904Y-79987380D02*
X124166904Y-78987380D01*
X124547857Y-78987380D01*
X124643095Y-79035000D01*
X124690714Y-79082619D01*
X124738333Y-79177857D01*
X124738333Y-79320714D01*
X124690714Y-79415952D01*
X124643095Y-79463571D01*
X124547857Y-79511190D01*
X124166904Y-79511190D01*
X125690714Y-79987380D02*
X125119285Y-79987380D01*
X125405000Y-79987380D02*
X125405000Y-78987380D01*
X125309761Y-79130238D01*
X125214523Y-79225476D01*
X125119285Y-79273095D01*
%TO.C,U2*%
X163837380Y-75056904D02*
X164646904Y-75056904D01*
X164742142Y-75009285D01*
X164789761Y-74961666D01*
X164837380Y-74866428D01*
X164837380Y-74675952D01*
X164789761Y-74580714D01*
X164742142Y-74533095D01*
X164646904Y-74485476D01*
X163837380Y-74485476D01*
X163932619Y-74056904D02*
X163885000Y-74009285D01*
X163837380Y-73914047D01*
X163837380Y-73675952D01*
X163885000Y-73580714D01*
X163932619Y-73533095D01*
X164027857Y-73485476D01*
X164123095Y-73485476D01*
X164265952Y-73533095D01*
X164837380Y-74104523D01*
X164837380Y-73485476D01*
X148264761Y-79192380D02*
X147788571Y-79192380D01*
X147788571Y-78192380D01*
X148502857Y-78192380D02*
X149169523Y-78192380D01*
X148740952Y-79192380D01*
X149693333Y-78620952D02*
X149598095Y-78573333D01*
X149550476Y-78525714D01*
X149502857Y-78430476D01*
X149502857Y-78382857D01*
X149550476Y-78287619D01*
X149598095Y-78240000D01*
X149693333Y-78192380D01*
X149883809Y-78192380D01*
X149979047Y-78240000D01*
X150026666Y-78287619D01*
X150074285Y-78382857D01*
X150074285Y-78430476D01*
X150026666Y-78525714D01*
X149979047Y-78573333D01*
X149883809Y-78620952D01*
X149693333Y-78620952D01*
X149598095Y-78668571D01*
X149550476Y-78716190D01*
X149502857Y-78811428D01*
X149502857Y-79001904D01*
X149550476Y-79097142D01*
X149598095Y-79144761D01*
X149693333Y-79192380D01*
X149883809Y-79192380D01*
X149979047Y-79144761D01*
X150026666Y-79097142D01*
X150074285Y-79001904D01*
X150074285Y-78811428D01*
X150026666Y-78716190D01*
X149979047Y-78668571D01*
X149883809Y-78620952D01*
X150693333Y-78192380D02*
X150788571Y-78192380D01*
X150883809Y-78240000D01*
X150931428Y-78287619D01*
X150979047Y-78382857D01*
X151026666Y-78573333D01*
X151026666Y-78811428D01*
X150979047Y-79001904D01*
X150931428Y-79097142D01*
X150883809Y-79144761D01*
X150788571Y-79192380D01*
X150693333Y-79192380D01*
X150598095Y-79144761D01*
X150550476Y-79097142D01*
X150502857Y-79001904D01*
X150455238Y-78811428D01*
X150455238Y-78573333D01*
X150502857Y-78382857D01*
X150550476Y-78287619D01*
X150598095Y-78240000D01*
X150693333Y-78192380D01*
X151931428Y-78192380D02*
X151455238Y-78192380D01*
X151407619Y-78668571D01*
X151455238Y-78620952D01*
X151550476Y-78573333D01*
X151788571Y-78573333D01*
X151883809Y-78620952D01*
X151931428Y-78668571D01*
X151979047Y-78763809D01*
X151979047Y-79001904D01*
X151931428Y-79097142D01*
X151883809Y-79144761D01*
X151788571Y-79192380D01*
X151550476Y-79192380D01*
X151455238Y-79144761D01*
X151407619Y-79097142D01*
%TO.C,C3*%
X138842142Y-77001666D02*
X138889761Y-77049285D01*
X138937380Y-77192142D01*
X138937380Y-77287380D01*
X138889761Y-77430238D01*
X138794523Y-77525476D01*
X138699285Y-77573095D01*
X138508809Y-77620714D01*
X138365952Y-77620714D01*
X138175476Y-77573095D01*
X138080238Y-77525476D01*
X137985000Y-77430238D01*
X137937380Y-77287380D01*
X137937380Y-77192142D01*
X137985000Y-77049285D01*
X138032619Y-77001666D01*
X137937380Y-76668333D02*
X137937380Y-76049285D01*
X138318333Y-76382619D01*
X138318333Y-76239761D01*
X138365952Y-76144523D01*
X138413571Y-76096904D01*
X138508809Y-76049285D01*
X138746904Y-76049285D01*
X138842142Y-76096904D01*
X138889761Y-76144523D01*
X138937380Y-76239761D01*
X138937380Y-76525476D01*
X138889761Y-76620714D01*
X138842142Y-76668333D01*
D12*
%TO.C,J14*%
X133420000Y-55980000D02*
X102940000Y-55980000D01*
X133420000Y-68480000D02*
X102940000Y-68480000D01*
X133420000Y-55980000D02*
X133420000Y-68480000D01*
X102940000Y-68480000D02*
X102940000Y-55980000D01*
%TO.C,C4*%
X130505252Y-79396000D02*
X129082748Y-79396000D01*
X130505252Y-77576000D02*
X129082748Y-77576000D01*
%TO.C,C1*%
X140519113Y-84915000D02*
X140519113Y-83590000D01*
X139079113Y-83355000D02*
X139079113Y-81745000D01*
X139639113Y-84293000D02*
X139639113Y-83590000D01*
X140559113Y-84932000D02*
X140559113Y-83590000D01*
X140119113Y-81510000D02*
X140119113Y-80401000D01*
X139399113Y-83993000D02*
X139399113Y-81107000D01*
X139999113Y-84615000D02*
X139999113Y-83590000D01*
X140839113Y-81510000D02*
X140839113Y-80070000D01*
X141240113Y-85111000D02*
X141240113Y-83590000D01*
X141560113Y-81510000D02*
X141560113Y-79970000D01*
X139599113Y-84249000D02*
X139599113Y-83590000D01*
X141080113Y-81510000D02*
X141080113Y-80014000D01*
X138999113Y-83068000D02*
X138999113Y-82032000D01*
X140880113Y-81510000D02*
X140880113Y-80059000D01*
X140799113Y-81510000D02*
X140799113Y-80082000D01*
X140839113Y-85030000D02*
X140839113Y-83590000D01*
X141520113Y-85130000D02*
X141520113Y-83590000D01*
X139599113Y-81510000D02*
X139599113Y-80851000D01*
X140319113Y-81510000D02*
X140319113Y-80282000D01*
X139799113Y-84451000D02*
X139799113Y-83590000D01*
X140199113Y-81510000D02*
X140199113Y-80350000D01*
X140399113Y-81510000D02*
X140399113Y-80240000D01*
X140039113Y-81510000D02*
X140039113Y-80455000D01*
X140159113Y-84725000D02*
X140159113Y-83590000D01*
X139719113Y-84376000D02*
X139719113Y-83590000D01*
X140719113Y-81510000D02*
X140719113Y-80108000D01*
X139959113Y-81510000D02*
X139959113Y-80515000D01*
X140359113Y-84840000D02*
X140359113Y-83590000D01*
X140759113Y-85005000D02*
X140759113Y-83590000D01*
X139919113Y-84554000D02*
X139919113Y-83590000D01*
X138959113Y-82834000D02*
X138959113Y-82266000D01*
X141200113Y-85106000D02*
X141200113Y-83590000D01*
X139759113Y-84414000D02*
X139759113Y-83590000D01*
X141240113Y-81510000D02*
X141240113Y-79989000D01*
X139999113Y-81510000D02*
X139999113Y-80485000D01*
X140479113Y-81510000D02*
X140479113Y-80202000D01*
X141560113Y-85130000D02*
X141560113Y-83590000D01*
X139679113Y-81510000D02*
X139679113Y-80765000D01*
X144364888Y-84025000D02*
X143864888Y-84025000D01*
X141320113Y-85119000D02*
X141320113Y-83590000D01*
X141080113Y-85086000D02*
X141080113Y-83590000D01*
X140039113Y-84645000D02*
X140039113Y-83590000D01*
X140679113Y-84978000D02*
X140679113Y-83590000D01*
X140639113Y-81510000D02*
X140639113Y-80136000D01*
X139319113Y-83869000D02*
X139319113Y-81231000D01*
X139919113Y-81510000D02*
X139919113Y-80546000D01*
X140719113Y-84992000D02*
X140719113Y-83590000D01*
X141000113Y-81510000D02*
X141000113Y-80030000D01*
X141280113Y-81510000D02*
X141280113Y-79985000D01*
X141440113Y-85128000D02*
X141440113Y-83590000D01*
X139959113Y-84585000D02*
X139959113Y-83590000D01*
X139239113Y-83728000D02*
X139239113Y-81372000D01*
X139279113Y-83801000D02*
X139279113Y-81299000D01*
X141160113Y-81510000D02*
X141160113Y-80000000D01*
X139839113Y-84487000D02*
X139839113Y-83590000D01*
X140799113Y-85018000D02*
X140799113Y-83590000D01*
X141200113Y-81510000D02*
X141200113Y-79994000D01*
X141480113Y-81510000D02*
X141480113Y-79971000D01*
X141120113Y-81510000D02*
X141120113Y-80007000D01*
X140239113Y-84774000D02*
X140239113Y-83590000D01*
X140359113Y-81510000D02*
X140359113Y-80260000D01*
X141120113Y-85093000D02*
X141120113Y-83590000D01*
X141520113Y-81510000D02*
X141520113Y-79970000D01*
X139799113Y-81510000D02*
X139799113Y-80649000D01*
X139879113Y-84521000D02*
X139879113Y-83590000D01*
X140960113Y-81510000D02*
X140960113Y-80039000D01*
X140599113Y-84948000D02*
X140599113Y-83590000D01*
X140439113Y-81510000D02*
X140439113Y-80221000D01*
X139719113Y-81510000D02*
X139719113Y-80724000D01*
X140479113Y-84898000D02*
X140479113Y-83590000D01*
X140319113Y-84818000D02*
X140319113Y-83590000D01*
X141280113Y-85115000D02*
X141280113Y-83590000D01*
X140439113Y-84879000D02*
X140439113Y-83590000D01*
X139039113Y-83227000D02*
X139039113Y-81873000D01*
X139519113Y-84155000D02*
X139519113Y-80945000D01*
X139479113Y-84104000D02*
X139479113Y-80996000D01*
X139839113Y-81510000D02*
X139839113Y-80613000D01*
X140639113Y-84964000D02*
X140639113Y-83590000D01*
X140279113Y-81510000D02*
X140279113Y-80303000D01*
X140920113Y-81510000D02*
X140920113Y-80049000D01*
X139119113Y-83465000D02*
X139119113Y-81635000D01*
X140599113Y-81510000D02*
X140599113Y-80152000D01*
X140679113Y-81510000D02*
X140679113Y-80122000D01*
X139639113Y-81510000D02*
X139639113Y-80807000D01*
X139879113Y-81510000D02*
X139879113Y-80579000D01*
X141480113Y-85129000D02*
X141480113Y-83590000D01*
X141320113Y-81510000D02*
X141320113Y-79981000D01*
X141440113Y-81510000D02*
X141440113Y-79972000D01*
X139199113Y-83648000D02*
X139199113Y-81452000D01*
X140559113Y-81510000D02*
X140559113Y-80168000D01*
X139559113Y-81510000D02*
X139559113Y-80897000D01*
X140199113Y-84750000D02*
X140199113Y-83590000D01*
X140159113Y-81510000D02*
X140159113Y-80375000D01*
X140759113Y-81510000D02*
X140759113Y-80095000D01*
X141160113Y-85100000D02*
X141160113Y-83590000D01*
X140399113Y-84860000D02*
X140399113Y-83590000D01*
X141400113Y-81510000D02*
X141400113Y-79974000D01*
X141360113Y-85123000D02*
X141360113Y-83590000D01*
X139159113Y-83561000D02*
X139159113Y-81539000D01*
X141040113Y-85078000D02*
X141040113Y-83590000D01*
X140880113Y-85041000D02*
X140880113Y-83590000D01*
X140920113Y-85051000D02*
X140920113Y-83590000D01*
X140239113Y-81510000D02*
X140239113Y-80326000D01*
X140079113Y-84672000D02*
X140079113Y-83590000D01*
X140119113Y-84699000D02*
X140119113Y-83590000D01*
X140079113Y-81510000D02*
X140079113Y-80428000D01*
X141000113Y-85070000D02*
X141000113Y-83590000D01*
X144114888Y-84275000D02*
X144114888Y-83775000D01*
X139559113Y-84203000D02*
X139559113Y-83590000D01*
X139679113Y-84335000D02*
X139679113Y-83590000D01*
X141040113Y-81510000D02*
X141040113Y-80022000D01*
X141400113Y-85126000D02*
X141400113Y-83590000D01*
X141360113Y-81510000D02*
X141360113Y-79977000D01*
X140279113Y-84797000D02*
X140279113Y-83590000D01*
X140519113Y-81510000D02*
X140519113Y-80185000D01*
X139759113Y-81510000D02*
X139759113Y-80686000D01*
X140960113Y-85061000D02*
X140960113Y-83590000D01*
X139439113Y-84050000D02*
X139439113Y-81050000D01*
X139359113Y-83933000D02*
X139359113Y-81167000D01*
X144180113Y-82550000D02*
G75*
G03*
X144180113Y-82550000I-2620000J0D01*
G01*
%TO.C,U3*%
X148152000Y-77602000D02*
X147052000Y-77602000D01*
X148152000Y-70972000D02*
X148152000Y-71242000D01*
X149652000Y-77872000D02*
X148152000Y-77872000D01*
X148152000Y-77872000D02*
X148152000Y-77602000D01*
X149652000Y-70972000D02*
X148152000Y-70972000D01*
X148152000Y-71242000D02*
X145322000Y-71242000D01*
%TO.C,U1*%
X137500000Y-92305000D02*
X137500000Y-68985000D01*
X130600000Y-94845000D02*
X105170000Y-94845000D01*
X130600000Y-92305000D02*
X137500000Y-92305000D01*
X137500000Y-68985000D02*
X105170000Y-68985000D01*
X103040000Y-71105000D02*
X103040000Y-92715000D01*
X130600000Y-94845000D02*
X130600000Y-92305000D01*
X103040000Y-92715000D02*
G75*
G03*
X105170000Y-94845000I2130002J2D01*
G01*
X105170000Y-68985000D02*
G75*
G03*
X103040000Y-71115000I0J-2130000D01*
G01*
G36*
X112015000Y-95885000D02*
G01*
X110745000Y-95885000D01*
X111380000Y-95250000D01*
X112015000Y-95885000D01*
G37*
D10*
X112015000Y-95885000D02*
X110745000Y-95885000D01*
X111380000Y-95250000D01*
X112015000Y-95885000D01*
D12*
%TO.C,C2*%
X141245000Y-71043748D02*
X141245000Y-72466252D01*
X139425000Y-71043748D02*
X139425000Y-72466252D01*
%TO.C,J13*%
X133420000Y-68480000D02*
X133420000Y-55980000D01*
X163900000Y-55980000D02*
X163900000Y-68480000D01*
X163900000Y-55980000D02*
X133420000Y-55980000D01*
X163900000Y-68480000D02*
X133420000Y-68480000D01*
%TO.C,R1*%
X125142258Y-78627500D02*
X124667742Y-78627500D01*
X125142258Y-77582500D02*
X124667742Y-77582500D01*
%TO.C,LOGO1*%
G36*
X150445236Y-83398693D02*
G01*
X150656003Y-83481287D01*
X150781886Y-83575208D01*
X150934517Y-83760817D01*
X151013879Y-83966862D01*
X151018405Y-84178719D01*
X150946525Y-84381765D01*
X150878773Y-84478608D01*
X150697074Y-84635460D01*
X150485221Y-84719535D01*
X150258748Y-84726707D01*
X150102355Y-84684774D01*
X149906878Y-84563928D01*
X149767389Y-84385415D01*
X149691243Y-84160871D01*
X149679000Y-84014891D01*
X149687331Y-83875255D01*
X149723165Y-83772146D01*
X149802767Y-83664812D01*
X149831728Y-83632192D01*
X150022111Y-83474805D01*
X150230276Y-83396752D01*
X150445236Y-83398693D01*
G37*
D13*
X150445236Y-83398693D02*
X150656003Y-83481287D01*
X150781886Y-83575208D01*
X150934517Y-83760817D01*
X151013879Y-83966862D01*
X151018405Y-84178719D01*
X150946525Y-84381765D01*
X150878773Y-84478608D01*
X150697074Y-84635460D01*
X150485221Y-84719535D01*
X150258748Y-84726707D01*
X150102355Y-84684774D01*
X149906878Y-84563928D01*
X149767389Y-84385415D01*
X149691243Y-84160871D01*
X149679000Y-84014891D01*
X149687331Y-83875255D01*
X149723165Y-83772146D01*
X149802767Y-83664812D01*
X149831728Y-83632192D01*
X150022111Y-83474805D01*
X150230276Y-83396752D01*
X150445236Y-83398693D01*
G36*
X141835672Y-86290676D02*
G01*
X142091736Y-86271906D01*
X142276148Y-86239856D01*
X142393534Y-86196620D01*
X142590499Y-86073381D01*
X142795502Y-85914050D01*
X142975489Y-85745714D01*
X143056410Y-85653339D01*
X143186940Y-85517736D01*
X143362674Y-85375142D01*
X143555542Y-85245188D01*
X143737474Y-85147507D01*
X143829561Y-85112599D01*
X144056408Y-85063040D01*
X144330382Y-85027889D01*
X144619291Y-85009230D01*
X144890948Y-85009141D01*
X145112735Y-85029634D01*
X145482178Y-85127292D01*
X145809383Y-85285026D01*
X146085134Y-85496049D01*
X146300216Y-85753576D01*
X146425401Y-85996107D01*
X146499879Y-86280477D01*
X146523973Y-86606945D01*
X146497677Y-86949559D01*
X146425788Y-87267092D01*
X146372862Y-87426562D01*
X146316574Y-87564193D01*
X146246473Y-87698412D01*
X146152111Y-87847646D01*
X146023039Y-88030321D01*
X145894790Y-88203543D01*
X145791253Y-88346296D01*
X145710727Y-88465640D01*
X145664596Y-88544277D01*
X145657982Y-88563376D01*
X145698484Y-88662711D01*
X145804067Y-88741305D01*
X145955700Y-88788107D01*
X146059138Y-88796334D01*
X146171652Y-88788186D01*
X146306439Y-88767437D01*
X146437836Y-88739626D01*
X146540185Y-88710294D01*
X146587824Y-88684978D01*
X146588667Y-88682016D01*
X146564366Y-88640834D01*
X146501932Y-88556018D01*
X146446880Y-88485958D01*
X146347846Y-88355277D01*
X146259305Y-88226264D01*
X146229281Y-88177326D01*
X146153469Y-88045151D01*
X146307052Y-87796326D01*
X146465270Y-87513029D01*
X146568644Y-87253095D01*
X146626284Y-86984407D01*
X146647305Y-86674850D01*
X146647919Y-86595000D01*
X146637047Y-86306439D01*
X146600213Y-86077916D01*
X146530269Y-85886921D01*
X146420067Y-85710943D01*
X146333748Y-85605588D01*
X146197482Y-85450389D01*
X146315082Y-85271278D01*
X146398140Y-85160821D01*
X146512905Y-85028822D01*
X146644381Y-84890102D01*
X146777573Y-84759482D01*
X146897485Y-84651784D01*
X146989123Y-84581831D01*
X147031659Y-84563000D01*
X147072500Y-84597438D01*
X147145618Y-84691580D01*
X147241197Y-84831669D01*
X147349421Y-85003946D01*
X147366481Y-85032287D01*
X147647362Y-85501573D01*
X147457572Y-85723724D01*
X147334482Y-85886371D01*
X147215887Y-86073094D01*
X147150475Y-86196354D01*
X147091022Y-86335813D01*
X147055544Y-86461718D01*
X147038216Y-86605418D01*
X147033215Y-86798262D01*
X147033167Y-86827834D01*
X147037142Y-87030317D01*
X147052825Y-87179315D01*
X147085855Y-87305792D01*
X147141870Y-87440711D01*
X147146623Y-87450898D01*
X147241398Y-87618551D01*
X147366298Y-87795946D01*
X147456302Y-87902742D01*
X147652525Y-88112521D01*
X147582660Y-88247625D01*
X147541570Y-88345955D01*
X147545784Y-88404956D01*
X147602721Y-88426091D01*
X147719798Y-88410821D01*
X147904432Y-88360610D01*
X148001543Y-88330212D01*
X148240487Y-88241680D01*
X148442199Y-88143577D01*
X148594474Y-88043545D01*
X148685103Y-87949223D01*
X148705334Y-87889702D01*
X148738322Y-87819493D01*
X148821351Y-87729664D01*
X148930516Y-87641834D01*
X149041912Y-87577620D01*
X149057339Y-87571360D01*
X149224679Y-87530332D01*
X149359202Y-87556095D01*
X149486374Y-87654023D01*
X149495845Y-87663917D01*
X149616608Y-87810854D01*
X149728258Y-87989583D01*
X149834801Y-88209773D01*
X149940244Y-88481093D01*
X150048591Y-88813211D01*
X150163851Y-89215797D01*
X150209537Y-89386395D01*
X150262556Y-89597811D01*
X150294678Y-89764565D01*
X150309250Y-89919950D01*
X150309617Y-90097264D01*
X150300941Y-90296087D01*
X150246710Y-90799189D01*
X150137440Y-91248831D01*
X149968034Y-91659922D01*
X149733396Y-92047371D01*
X149674631Y-92128096D01*
X149556365Y-92277793D01*
X149445951Y-92393042D01*
X149319621Y-92494066D01*
X149153609Y-92601089D01*
X149040467Y-92667701D01*
X148803788Y-92800485D01*
X148599905Y-92902225D01*
X148409440Y-92978383D01*
X148213015Y-93034425D01*
X147991251Y-93075815D01*
X147724769Y-93108017D01*
X147394191Y-93136495D01*
X147371834Y-93138209D01*
X146416164Y-93184087D01*
X145404240Y-93179809D01*
X144662500Y-93147214D01*
X144394289Y-93127225D01*
X144113775Y-93099309D01*
X143851624Y-93066934D01*
X143638501Y-93033564D01*
X143610932Y-93028351D01*
X143401375Y-92983551D01*
X143247074Y-92937940D01*
X143119289Y-92880101D01*
X142989277Y-92798616D01*
X142933599Y-92759286D01*
X142710891Y-92584165D01*
X142502518Y-92393196D01*
X142326894Y-92204837D01*
X142202434Y-92037546D01*
X142186533Y-92010463D01*
X141979573Y-91615448D01*
X141829357Y-91269753D01*
X141734363Y-90961268D01*
X141693070Y-90677883D01*
X141703956Y-90407486D01*
X141765501Y-90137969D01*
X141876183Y-89857220D01*
X141907752Y-89791167D01*
X141996695Y-89629919D01*
X142107794Y-89469076D01*
X142251518Y-89296300D01*
X142438337Y-89099253D01*
X142678721Y-88865597D01*
X142750412Y-88798146D01*
X142933871Y-88613587D01*
X143050645Y-88459269D01*
X143105890Y-88320630D01*
X143104762Y-88183105D01*
X143052416Y-88032133D01*
X143034523Y-87995639D01*
X142910571Y-87813289D01*
X142739050Y-87671365D01*
X142504511Y-87558225D01*
X142409663Y-87524898D01*
X142063753Y-87383463D01*
X141763184Y-87203677D01*
X141524386Y-86995957D01*
X141463566Y-86925119D01*
X141344844Y-86744481D01*
X141299861Y-86590963D01*
X141326533Y-86454012D01*
X141359422Y-86397720D01*
X141398669Y-86355530D01*
X141457573Y-86327372D01*
X141554109Y-86309208D01*
X141685451Y-86298667D01*
X143710000Y-86298667D01*
X143738757Y-86388396D01*
X143808515Y-86485578D01*
X143813909Y-86491091D01*
X143909982Y-86562667D01*
X144001599Y-86594861D01*
X144006334Y-86595000D01*
X144096062Y-86566244D01*
X144193245Y-86496485D01*
X144198758Y-86491091D01*
X144270334Y-86395019D01*
X144302527Y-86303401D01*
X144302667Y-86298667D01*
X144273910Y-86208938D01*
X144204152Y-86111756D01*
X144198758Y-86106243D01*
X144102685Y-86034666D01*
X144011068Y-86002473D01*
X144006334Y-86002334D01*
X143916605Y-86031090D01*
X143819422Y-86100848D01*
X143813909Y-86106243D01*
X143742333Y-86202315D01*
X143710140Y-86293932D01*
X143710000Y-86298667D01*
X141685451Y-86298667D01*
X141706247Y-86296998D01*
X141835672Y-86290676D01*
G37*
X141835672Y-86290676D02*
X142091736Y-86271906D01*
X142276148Y-86239856D01*
X142393534Y-86196620D01*
X142590499Y-86073381D01*
X142795502Y-85914050D01*
X142975489Y-85745714D01*
X143056410Y-85653339D01*
X143186940Y-85517736D01*
X143362674Y-85375142D01*
X143555542Y-85245188D01*
X143737474Y-85147507D01*
X143829561Y-85112599D01*
X144056408Y-85063040D01*
X144330382Y-85027889D01*
X144619291Y-85009230D01*
X144890948Y-85009141D01*
X145112735Y-85029634D01*
X145482178Y-85127292D01*
X145809383Y-85285026D01*
X146085134Y-85496049D01*
X146300216Y-85753576D01*
X146425401Y-85996107D01*
X146499879Y-86280477D01*
X146523973Y-86606945D01*
X146497677Y-86949559D01*
X146425788Y-87267092D01*
X146372862Y-87426562D01*
X146316574Y-87564193D01*
X146246473Y-87698412D01*
X146152111Y-87847646D01*
X146023039Y-88030321D01*
X145894790Y-88203543D01*
X145791253Y-88346296D01*
X145710727Y-88465640D01*
X145664596Y-88544277D01*
X145657982Y-88563376D01*
X145698484Y-88662711D01*
X145804067Y-88741305D01*
X145955700Y-88788107D01*
X146059138Y-88796334D01*
X146171652Y-88788186D01*
X146306439Y-88767437D01*
X146437836Y-88739626D01*
X146540185Y-88710294D01*
X146587824Y-88684978D01*
X146588667Y-88682016D01*
X146564366Y-88640834D01*
X146501932Y-88556018D01*
X146446880Y-88485958D01*
X146347846Y-88355277D01*
X146259305Y-88226264D01*
X146229281Y-88177326D01*
X146153469Y-88045151D01*
X146307052Y-87796326D01*
X146465270Y-87513029D01*
X146568644Y-87253095D01*
X146626284Y-86984407D01*
X146647305Y-86674850D01*
X146647919Y-86595000D01*
X146637047Y-86306439D01*
X146600213Y-86077916D01*
X146530269Y-85886921D01*
X146420067Y-85710943D01*
X146333748Y-85605588D01*
X146197482Y-85450389D01*
X146315082Y-85271278D01*
X146398140Y-85160821D01*
X146512905Y-85028822D01*
X146644381Y-84890102D01*
X146777573Y-84759482D01*
X146897485Y-84651784D01*
X146989123Y-84581831D01*
X147031659Y-84563000D01*
X147072500Y-84597438D01*
X147145618Y-84691580D01*
X147241197Y-84831669D01*
X147349421Y-85003946D01*
X147366481Y-85032287D01*
X147647362Y-85501573D01*
X147457572Y-85723724D01*
X147334482Y-85886371D01*
X147215887Y-86073094D01*
X147150475Y-86196354D01*
X147091022Y-86335813D01*
X147055544Y-86461718D01*
X147038216Y-86605418D01*
X147033215Y-86798262D01*
X147033167Y-86827834D01*
X147037142Y-87030317D01*
X147052825Y-87179315D01*
X147085855Y-87305792D01*
X147141870Y-87440711D01*
X147146623Y-87450898D01*
X147241398Y-87618551D01*
X147366298Y-87795946D01*
X147456302Y-87902742D01*
X147652525Y-88112521D01*
X147582660Y-88247625D01*
X147541570Y-88345955D01*
X147545784Y-88404956D01*
X147602721Y-88426091D01*
X147719798Y-88410821D01*
X147904432Y-88360610D01*
X148001543Y-88330212D01*
X148240487Y-88241680D01*
X148442199Y-88143577D01*
X148594474Y-88043545D01*
X148685103Y-87949223D01*
X148705334Y-87889702D01*
X148738322Y-87819493D01*
X148821351Y-87729664D01*
X148930516Y-87641834D01*
X149041912Y-87577620D01*
X149057339Y-87571360D01*
X149224679Y-87530332D01*
X149359202Y-87556095D01*
X149486374Y-87654023D01*
X149495845Y-87663917D01*
X149616608Y-87810854D01*
X149728258Y-87989583D01*
X149834801Y-88209773D01*
X149940244Y-88481093D01*
X150048591Y-88813211D01*
X150163851Y-89215797D01*
X150209537Y-89386395D01*
X150262556Y-89597811D01*
X150294678Y-89764565D01*
X150309250Y-89919950D01*
X150309617Y-90097264D01*
X150300941Y-90296087D01*
X150246710Y-90799189D01*
X150137440Y-91248831D01*
X149968034Y-91659922D01*
X149733396Y-92047371D01*
X149674631Y-92128096D01*
X149556365Y-92277793D01*
X149445951Y-92393042D01*
X149319621Y-92494066D01*
X149153609Y-92601089D01*
X149040467Y-92667701D01*
X148803788Y-92800485D01*
X148599905Y-92902225D01*
X148409440Y-92978383D01*
X148213015Y-93034425D01*
X147991251Y-93075815D01*
X147724769Y-93108017D01*
X147394191Y-93136495D01*
X147371834Y-93138209D01*
X146416164Y-93184087D01*
X145404240Y-93179809D01*
X144662500Y-93147214D01*
X144394289Y-93127225D01*
X144113775Y-93099309D01*
X143851624Y-93066934D01*
X143638501Y-93033564D01*
X143610932Y-93028351D01*
X143401375Y-92983551D01*
X143247074Y-92937940D01*
X143119289Y-92880101D01*
X142989277Y-92798616D01*
X142933599Y-92759286D01*
X142710891Y-92584165D01*
X142502518Y-92393196D01*
X142326894Y-92204837D01*
X142202434Y-92037546D01*
X142186533Y-92010463D01*
X141979573Y-91615448D01*
X141829357Y-91269753D01*
X141734363Y-90961268D01*
X141693070Y-90677883D01*
X141703956Y-90407486D01*
X141765501Y-90137969D01*
X141876183Y-89857220D01*
X141907752Y-89791167D01*
X141996695Y-89629919D01*
X142107794Y-89469076D01*
X142251518Y-89296300D01*
X142438337Y-89099253D01*
X142678721Y-88865597D01*
X142750412Y-88798146D01*
X142933871Y-88613587D01*
X143050645Y-88459269D01*
X143105890Y-88320630D01*
X143104762Y-88183105D01*
X143052416Y-88032133D01*
X143034523Y-87995639D01*
X142910571Y-87813289D01*
X142739050Y-87671365D01*
X142504511Y-87558225D01*
X142409663Y-87524898D01*
X142063753Y-87383463D01*
X141763184Y-87203677D01*
X141524386Y-86995957D01*
X141463566Y-86925119D01*
X141344844Y-86744481D01*
X141299861Y-86590963D01*
X141326533Y-86454012D01*
X141359422Y-86397720D01*
X141398669Y-86355530D01*
X141457573Y-86327372D01*
X141554109Y-86309208D01*
X141685451Y-86298667D01*
X143710000Y-86298667D01*
X143738757Y-86388396D01*
X143808515Y-86485578D01*
X143813909Y-86491091D01*
X143909982Y-86562667D01*
X144001599Y-86594861D01*
X144006334Y-86595000D01*
X144096062Y-86566244D01*
X144193245Y-86496485D01*
X144198758Y-86491091D01*
X144270334Y-86395019D01*
X144302527Y-86303401D01*
X144302667Y-86298667D01*
X144273910Y-86208938D01*
X144204152Y-86111756D01*
X144198758Y-86106243D01*
X144102685Y-86034666D01*
X144011068Y-86002473D01*
X144006334Y-86002334D01*
X143916605Y-86031090D01*
X143819422Y-86100848D01*
X143813909Y-86106243D01*
X143742333Y-86202315D01*
X143710140Y-86293932D01*
X143710000Y-86298667D01*
X141685451Y-86298667D01*
X141706247Y-86296998D01*
X141835672Y-86290676D01*
G36*
X148915995Y-84032517D02*
G01*
X149107242Y-84053734D01*
X149231686Y-84077569D01*
X149306906Y-84113564D01*
X149350482Y-84171259D01*
X149379993Y-84260196D01*
X149387187Y-84288246D01*
X149472062Y-84486208D01*
X149614182Y-84678378D01*
X149789289Y-84836040D01*
X149909471Y-84906487D01*
X150080004Y-84957489D01*
X150287631Y-84982585D01*
X150494743Y-84979927D01*
X150663729Y-84947670D01*
X150673816Y-84944007D01*
X150753388Y-84924977D01*
X150817829Y-84950520D01*
X150898754Y-85033178D01*
X150898822Y-85033256D01*
X151119032Y-85334563D01*
X151305853Y-85681042D01*
X151445908Y-86043667D01*
X151525818Y-86393411D01*
X151525886Y-86393917D01*
X151553175Y-86595000D01*
X150436680Y-86595000D01*
X150373917Y-86436250D01*
X150213272Y-86083967D01*
X150034496Y-85803515D01*
X149826954Y-85582387D01*
X149580007Y-85408081D01*
X149435695Y-85333293D01*
X149308982Y-85278819D01*
X149193590Y-85244854D01*
X149062363Y-85226750D01*
X148888146Y-85219861D01*
X148768834Y-85219167D01*
X148572250Y-85222515D01*
X148393858Y-85231504D01*
X148259762Y-85244548D01*
X148214586Y-85252816D01*
X148159913Y-85264461D01*
X148115055Y-85259806D01*
X148069797Y-85228028D01*
X148013925Y-85158307D01*
X147937224Y-85039821D01*
X147829477Y-84861748D01*
X147801836Y-84815581D01*
X147696267Y-84636679D01*
X147608708Y-84483500D01*
X147547391Y-84370800D01*
X147520546Y-84313338D01*
X147520000Y-84310279D01*
X147559579Y-84262406D01*
X147667709Y-84211822D01*
X147828476Y-84161692D01*
X148025970Y-84115183D01*
X148244277Y-84075460D01*
X148467486Y-84045691D01*
X148679685Y-84029040D01*
X148864961Y-84028674D01*
X148915995Y-84032517D01*
G37*
X148915995Y-84032517D02*
X149107242Y-84053734D01*
X149231686Y-84077569D01*
X149306906Y-84113564D01*
X149350482Y-84171259D01*
X149379993Y-84260196D01*
X149387187Y-84288246D01*
X149472062Y-84486208D01*
X149614182Y-84678378D01*
X149789289Y-84836040D01*
X149909471Y-84906487D01*
X150080004Y-84957489D01*
X150287631Y-84982585D01*
X150494743Y-84979927D01*
X150663729Y-84947670D01*
X150673816Y-84944007D01*
X150753388Y-84924977D01*
X150817829Y-84950520D01*
X150898754Y-85033178D01*
X150898822Y-85033256D01*
X151119032Y-85334563D01*
X151305853Y-85681042D01*
X151445908Y-86043667D01*
X151525818Y-86393411D01*
X151525886Y-86393917D01*
X151553175Y-86595000D01*
X150436680Y-86595000D01*
X150373917Y-86436250D01*
X150213272Y-86083967D01*
X150034496Y-85803515D01*
X149826954Y-85582387D01*
X149580007Y-85408081D01*
X149435695Y-85333293D01*
X149308982Y-85278819D01*
X149193590Y-85244854D01*
X149062363Y-85226750D01*
X148888146Y-85219861D01*
X148768834Y-85219167D01*
X148572250Y-85222515D01*
X148393858Y-85231504D01*
X148259762Y-85244548D01*
X148214586Y-85252816D01*
X148159913Y-85264461D01*
X148115055Y-85259806D01*
X148069797Y-85228028D01*
X148013925Y-85158307D01*
X147937224Y-85039821D01*
X147829477Y-84861748D01*
X147801836Y-84815581D01*
X147696267Y-84636679D01*
X147608708Y-84483500D01*
X147547391Y-84370800D01*
X147520546Y-84313338D01*
X147520000Y-84310279D01*
X147559579Y-84262406D01*
X147667709Y-84211822D01*
X147828476Y-84161692D01*
X148025970Y-84115183D01*
X148244277Y-84075460D01*
X148467486Y-84045691D01*
X148679685Y-84029040D01*
X148864961Y-84028674D01*
X148915995Y-84032517D01*
G36*
X151183670Y-87040050D02*
G01*
X151340627Y-87043182D01*
X151440316Y-87051125D01*
X151496436Y-87066105D01*
X151522687Y-87090347D01*
X151532767Y-87126080D01*
X151533860Y-87133468D01*
X151528673Y-87293854D01*
X151481480Y-87503459D01*
X151399997Y-87742974D01*
X151291939Y-87993089D01*
X151165022Y-88234495D01*
X151026962Y-88447883D01*
X150988278Y-88498819D01*
X150888695Y-88621171D01*
X150822435Y-88686094D01*
X150771912Y-88703812D01*
X150719543Y-88684547D01*
X150695000Y-88669334D01*
X150618871Y-88646267D01*
X150491541Y-88631087D01*
X150395734Y-88627648D01*
X150159968Y-88627000D01*
X150022468Y-88314123D01*
X149884969Y-88001246D01*
X150053188Y-87778990D01*
X150161745Y-87610377D01*
X150260221Y-87415578D01*
X150306200Y-87298117D01*
X150390992Y-87039500D01*
X150955746Y-87039500D01*
X151183670Y-87040050D01*
G37*
X151183670Y-87040050D02*
X151340627Y-87043182D01*
X151440316Y-87051125D01*
X151496436Y-87066105D01*
X151522687Y-87090347D01*
X151532767Y-87126080D01*
X151533860Y-87133468D01*
X151528673Y-87293854D01*
X151481480Y-87503459D01*
X151399997Y-87742974D01*
X151291939Y-87993089D01*
X151165022Y-88234495D01*
X151026962Y-88447883D01*
X150988278Y-88498819D01*
X150888695Y-88621171D01*
X150822435Y-88686094D01*
X150771912Y-88703812D01*
X150719543Y-88684547D01*
X150695000Y-88669334D01*
X150618871Y-88646267D01*
X150491541Y-88631087D01*
X150395734Y-88627648D01*
X150159968Y-88627000D01*
X150022468Y-88314123D01*
X149884969Y-88001246D01*
X150053188Y-87778990D01*
X150161745Y-87610377D01*
X150260221Y-87415578D01*
X150306200Y-87298117D01*
X150390992Y-87039500D01*
X150955746Y-87039500D01*
X151183670Y-87040050D01*
G36*
X150464418Y-88894332D02*
G01*
X150670017Y-88966547D01*
X150834373Y-89099132D01*
X150950367Y-89274970D01*
X151010880Y-89476945D01*
X151008795Y-89687942D01*
X150936993Y-89890845D01*
X150901849Y-89946099D01*
X150808886Y-90044790D01*
X150690040Y-90131723D01*
X150577207Y-90185529D01*
X150532776Y-90193334D01*
X150511680Y-90154313D01*
X150489372Y-90050210D01*
X150469611Y-89900462D01*
X150463523Y-89835290D01*
X150435052Y-89611301D01*
X150392328Y-89423095D01*
X150352682Y-89318339D01*
X150301400Y-89202464D01*
X150273416Y-89109501D01*
X150271667Y-89092182D01*
X150243441Y-89003242D01*
X150222255Y-88975521D01*
X150205500Y-88926288D01*
X150257326Y-88894229D01*
X150362510Y-88884446D01*
X150464418Y-88894332D01*
G37*
X150464418Y-88894332D02*
X150670017Y-88966547D01*
X150834373Y-89099132D01*
X150950367Y-89274970D01*
X151010880Y-89476945D01*
X151008795Y-89687942D01*
X150936993Y-89890845D01*
X150901849Y-89946099D01*
X150808886Y-90044790D01*
X150690040Y-90131723D01*
X150577207Y-90185529D01*
X150532776Y-90193334D01*
X150511680Y-90154313D01*
X150489372Y-90050210D01*
X150469611Y-89900462D01*
X150463523Y-89835290D01*
X150435052Y-89611301D01*
X150392328Y-89423095D01*
X150352682Y-89318339D01*
X150301400Y-89202464D01*
X150273416Y-89109501D01*
X150271667Y-89092182D01*
X150243441Y-89003242D01*
X150222255Y-88975521D01*
X150205500Y-88926288D01*
X150257326Y-88894229D01*
X150362510Y-88884446D01*
X150464418Y-88894332D01*
D12*
%TO.C,U2*%
X147495000Y-69175000D02*
X147495000Y-79415000D01*
X147495000Y-76835000D02*
X144955000Y-76835000D01*
X163385000Y-79415000D02*
X147495000Y-79415000D01*
X163385000Y-69175000D02*
X147495000Y-69175000D01*
X147495000Y-71755000D02*
X144955000Y-71755000D01*
X163385000Y-69175000D02*
X163385000Y-79415000D01*
X147495000Y-74295000D02*
X144955000Y-74295000D01*
%TO.C,J2*%
X110050000Y-72965000D02*
X110050000Y-75625000D01*
X130490000Y-72965000D02*
X130490000Y-74295000D01*
X127890000Y-72965000D02*
X110050000Y-72965000D01*
X127890000Y-75625000D02*
X110050000Y-75625000D01*
X129160000Y-72965000D02*
X130490000Y-72965000D01*
X127890000Y-72965000D02*
X127890000Y-75625000D01*
%TO.C,C3*%
X141245000Y-77546252D02*
X141245000Y-76123748D01*
X139425000Y-77546252D02*
X139425000Y-76123748D01*
%TO.C,J1*%
X112650000Y-90865000D02*
X112650000Y-88205000D01*
X110050000Y-90865000D02*
X110050000Y-89535000D01*
X112650000Y-88205000D02*
X130490000Y-88205000D01*
X130490000Y-90865000D02*
X130490000Y-88205000D01*
X112650000Y-90865000D02*
X130490000Y-90865000D01*
X111380000Y-90865000D02*
X110050000Y-90865000D01*
%TD*%
M02*
