%TF.GenerationSoftware,KiCad,Pcbnew,6.0.4-6f826c9f35~116~ubuntu18.04.1*%
%TF.CreationDate,2022-08-29T00:14:49+02:00*%
%TF.ProjectId,WS2815_D1Mini,57533238-3135-45f4-9431-4d696e692e6b,rev?*%
%TF.SameCoordinates,Original*%
%TF.FileFunction,Legend,Top*%
%TF.FilePolarity,Positive*%
%FSLAX46Y46*%
G04 Gerber Fmt 4.6, Leading zero omitted, Abs format (unit mm)*
G04 Created by KiCad (PCBNEW 6.0.4-6f826c9f35~116~ubuntu18.04.1) date 2022-08-29 00:14:49*
%MOMM*%
%LPD*%
G01*
G04 APERTURE LIST*
%ADD10C,0.150000*%
%ADD11C,0.250000*%
%ADD12C,0.010000*%
%ADD13C,0.120000*%
G04 APERTURE END LIST*
D10*
X128968523Y-76160380D02*
X128492333Y-76160380D01*
X128444714Y-76636571D01*
X128492333Y-76588952D01*
X128587571Y-76541333D01*
X128825666Y-76541333D01*
X128920904Y-76588952D01*
X128968523Y-76636571D01*
X129016142Y-76731809D01*
X129016142Y-76969904D01*
X128968523Y-77065142D01*
X128920904Y-77112761D01*
X128825666Y-77160380D01*
X128587571Y-77160380D01*
X128492333Y-77112761D01*
X128444714Y-77065142D01*
X129301857Y-76160380D02*
X129635190Y-77160380D01*
X129968523Y-76160380D01*
X125857095Y-76208000D02*
X125761857Y-76160380D01*
X125619000Y-76160380D01*
X125476142Y-76208000D01*
X125380904Y-76303238D01*
X125333285Y-76398476D01*
X125285666Y-76588952D01*
X125285666Y-76731809D01*
X125333285Y-76922285D01*
X125380904Y-77017523D01*
X125476142Y-77112761D01*
X125619000Y-77160380D01*
X125714238Y-77160380D01*
X125857095Y-77112761D01*
X125904714Y-77065142D01*
X125904714Y-76731809D01*
X125714238Y-76731809D01*
X126333285Y-77160380D02*
X126333285Y-76160380D01*
X126904714Y-77160380D01*
X126904714Y-76160380D01*
X127380904Y-77160380D02*
X127380904Y-76160380D01*
X127619000Y-76160380D01*
X127761857Y-76208000D01*
X127857095Y-76303238D01*
X127904714Y-76398476D01*
X127952333Y-76588952D01*
X127952333Y-76731809D01*
X127904714Y-76922285D01*
X127857095Y-77017523D01*
X127761857Y-77112761D01*
X127619000Y-77160380D01*
X127380904Y-77160380D01*
X123340904Y-77160380D02*
X123340904Y-76160380D01*
X123579000Y-76160380D01*
X123721857Y-76208000D01*
X123817095Y-76303238D01*
X123864714Y-76398476D01*
X123912333Y-76588952D01*
X123912333Y-76731809D01*
X123864714Y-76922285D01*
X123817095Y-77017523D01*
X123721857Y-77112761D01*
X123579000Y-77160380D01*
X123340904Y-77160380D01*
X124769476Y-76493714D02*
X124769476Y-77160380D01*
X124531380Y-76112761D02*
X124293285Y-76827047D01*
X124912333Y-76827047D01*
X121991380Y-77884785D02*
X120991380Y-77884785D01*
X120991380Y-77646690D01*
X121039000Y-77503833D01*
X121134238Y-77408595D01*
X121229476Y-77360976D01*
X121419952Y-77313357D01*
X121562809Y-77313357D01*
X121753285Y-77360976D01*
X121848523Y-77408595D01*
X121943761Y-77503833D01*
X121991380Y-77646690D01*
X121991380Y-77884785D01*
X120991380Y-76980023D02*
X120991380Y-76360976D01*
X121372333Y-76694309D01*
X121372333Y-76551452D01*
X121419952Y-76456214D01*
X121467571Y-76408595D01*
X121562809Y-76360976D01*
X121800904Y-76360976D01*
X121896142Y-76408595D01*
X121943761Y-76456214D01*
X121991380Y-76551452D01*
X121991380Y-76837166D01*
X121943761Y-76932404D01*
X121896142Y-76980023D01*
X119451380Y-77884785D02*
X118451380Y-77884785D01*
X118451380Y-77646690D01*
X118499000Y-77503833D01*
X118594238Y-77408595D01*
X118689476Y-77360976D01*
X118879952Y-77313357D01*
X119022809Y-77313357D01*
X119213285Y-77360976D01*
X119308523Y-77408595D01*
X119403761Y-77503833D01*
X119451380Y-77646690D01*
X119451380Y-77884785D01*
X118546619Y-76932404D02*
X118499000Y-76884785D01*
X118451380Y-76789547D01*
X118451380Y-76551452D01*
X118499000Y-76456214D01*
X118546619Y-76408595D01*
X118641857Y-76360976D01*
X118737095Y-76360976D01*
X118879952Y-76408595D01*
X119451380Y-76980023D01*
X119451380Y-76360976D01*
X116911380Y-77884785D02*
X115911380Y-77884785D01*
X115911380Y-77646690D01*
X115959000Y-77503833D01*
X116054238Y-77408595D01*
X116149476Y-77360976D01*
X116339952Y-77313357D01*
X116482809Y-77313357D01*
X116673285Y-77360976D01*
X116768523Y-77408595D01*
X116863761Y-77503833D01*
X116911380Y-77646690D01*
X116911380Y-77884785D01*
X116911380Y-76360976D02*
X116911380Y-76932404D01*
X116911380Y-76646690D02*
X115911380Y-76646690D01*
X116054238Y-76741928D01*
X116149476Y-76837166D01*
X116197095Y-76932404D01*
X114371380Y-77170500D02*
X113895190Y-77503833D01*
X114371380Y-77741928D02*
X113371380Y-77741928D01*
X113371380Y-77360976D01*
X113419000Y-77265738D01*
X113466619Y-77218119D01*
X113561857Y-77170500D01*
X113704714Y-77170500D01*
X113799952Y-77218119D01*
X113847571Y-77265738D01*
X113895190Y-77360976D01*
X113895190Y-77741928D01*
X114371380Y-76837166D02*
X113704714Y-76313357D01*
X113704714Y-76837166D02*
X114371380Y-76313357D01*
X110831380Y-77646690D02*
X110831380Y-77075261D01*
X111831380Y-77360976D02*
X110831380Y-77360976D01*
X111831380Y-76837166D02*
X111164714Y-76313357D01*
X111164714Y-76837166D02*
X111831380Y-76313357D01*
X128611380Y-87516642D02*
X128611380Y-86897595D01*
X128992333Y-87230928D01*
X128992333Y-87088071D01*
X129039952Y-86992833D01*
X129087571Y-86945214D01*
X129182809Y-86897595D01*
X129420904Y-86897595D01*
X129516142Y-86945214D01*
X129563761Y-86992833D01*
X129611380Y-87088071D01*
X129611380Y-87373785D01*
X129563761Y-87469023D01*
X129516142Y-87516642D01*
X128611380Y-86611880D02*
X129611380Y-86278547D01*
X128611380Y-85945214D01*
X128611380Y-85707119D02*
X128611380Y-85088071D01*
X128992333Y-85421404D01*
X128992333Y-85278547D01*
X129039952Y-85183309D01*
X129087571Y-85135690D01*
X129182809Y-85088071D01*
X129420904Y-85088071D01*
X129516142Y-85135690D01*
X129563761Y-85183309D01*
X129611380Y-85278547D01*
X129611380Y-85564261D01*
X129563761Y-85659500D01*
X129516142Y-85707119D01*
X127071380Y-87421404D02*
X126071380Y-87421404D01*
X126071380Y-87183309D01*
X126119000Y-87040452D01*
X126214238Y-86945214D01*
X126309476Y-86897595D01*
X126499952Y-86849976D01*
X126642809Y-86849976D01*
X126833285Y-86897595D01*
X126928523Y-86945214D01*
X127023761Y-87040452D01*
X127071380Y-87183309D01*
X127071380Y-87421404D01*
X126499952Y-86278547D02*
X126452333Y-86373785D01*
X126404714Y-86421404D01*
X126309476Y-86469023D01*
X126261857Y-86469023D01*
X126166619Y-86421404D01*
X126119000Y-86373785D01*
X126071380Y-86278547D01*
X126071380Y-86088071D01*
X126119000Y-85992833D01*
X126166619Y-85945214D01*
X126261857Y-85897595D01*
X126309476Y-85897595D01*
X126404714Y-85945214D01*
X126452333Y-85992833D01*
X126499952Y-86088071D01*
X126499952Y-86278547D01*
X126547571Y-86373785D01*
X126595190Y-86421404D01*
X126690428Y-86469023D01*
X126880904Y-86469023D01*
X126976142Y-86421404D01*
X127023761Y-86373785D01*
X127071380Y-86278547D01*
X127071380Y-86088071D01*
X127023761Y-85992833D01*
X126976142Y-85945214D01*
X126880904Y-85897595D01*
X126690428Y-85897595D01*
X126595190Y-85945214D01*
X126547571Y-85992833D01*
X126499952Y-86088071D01*
X124531380Y-87421404D02*
X123531380Y-87421404D01*
X123531380Y-87183309D01*
X123579000Y-87040452D01*
X123674238Y-86945214D01*
X123769476Y-86897595D01*
X123959952Y-86849976D01*
X124102809Y-86849976D01*
X124293285Y-86897595D01*
X124388523Y-86945214D01*
X124483761Y-87040452D01*
X124531380Y-87183309D01*
X124531380Y-87421404D01*
X123531380Y-86516642D02*
X123531380Y-85849976D01*
X124531380Y-86278547D01*
X121991380Y-87421404D02*
X120991380Y-87421404D01*
X120991380Y-87183309D01*
X121039000Y-87040452D01*
X121134238Y-86945214D01*
X121229476Y-86897595D01*
X121419952Y-86849976D01*
X121562809Y-86849976D01*
X121753285Y-86897595D01*
X121848523Y-86945214D01*
X121943761Y-87040452D01*
X121991380Y-87183309D01*
X121991380Y-87421404D01*
X120991380Y-85992833D02*
X120991380Y-86183309D01*
X121039000Y-86278547D01*
X121086619Y-86326166D01*
X121229476Y-86421404D01*
X121419952Y-86469023D01*
X121800904Y-86469023D01*
X121896142Y-86421404D01*
X121943761Y-86373785D01*
X121991380Y-86278547D01*
X121991380Y-86088071D01*
X121943761Y-85992833D01*
X121896142Y-85945214D01*
X121800904Y-85897595D01*
X121562809Y-85897595D01*
X121467571Y-85945214D01*
X121419952Y-85992833D01*
X121372333Y-86088071D01*
X121372333Y-86278547D01*
X121419952Y-86373785D01*
X121467571Y-86421404D01*
X121562809Y-86469023D01*
X119451380Y-87421404D02*
X118451380Y-87421404D01*
X118451380Y-87183309D01*
X118499000Y-87040452D01*
X118594238Y-86945214D01*
X118689476Y-86897595D01*
X118879952Y-86849976D01*
X119022809Y-86849976D01*
X119213285Y-86897595D01*
X119308523Y-86945214D01*
X119403761Y-87040452D01*
X119451380Y-87183309D01*
X119451380Y-87421404D01*
X118451380Y-85945214D02*
X118451380Y-86421404D01*
X118927571Y-86469023D01*
X118879952Y-86421404D01*
X118832333Y-86326166D01*
X118832333Y-86088071D01*
X118879952Y-85992833D01*
X118927571Y-85945214D01*
X119022809Y-85897595D01*
X119260904Y-85897595D01*
X119356142Y-85945214D01*
X119403761Y-85992833D01*
X119451380Y-86088071D01*
X119451380Y-86326166D01*
X119403761Y-86421404D01*
X119356142Y-86469023D01*
X116911380Y-87421404D02*
X115911380Y-87421404D01*
X115911380Y-87183309D01*
X115959000Y-87040452D01*
X116054238Y-86945214D01*
X116149476Y-86897595D01*
X116339952Y-86849976D01*
X116482809Y-86849976D01*
X116673285Y-86897595D01*
X116768523Y-86945214D01*
X116863761Y-87040452D01*
X116911380Y-87183309D01*
X116911380Y-87421404D01*
X115911380Y-86230928D02*
X115911380Y-86135690D01*
X115959000Y-86040452D01*
X116006619Y-85992833D01*
X116101857Y-85945214D01*
X116292333Y-85897595D01*
X116530428Y-85897595D01*
X116720904Y-85945214D01*
X116816142Y-85992833D01*
X116863761Y-86040452D01*
X116911380Y-86135690D01*
X116911380Y-86230928D01*
X116863761Y-86326166D01*
X116816142Y-86373785D01*
X116720904Y-86421404D01*
X116530428Y-86469023D01*
X116292333Y-86469023D01*
X116101857Y-86421404D01*
X116006619Y-86373785D01*
X115959000Y-86326166D01*
X115911380Y-86230928D01*
X114085666Y-87469023D02*
X114085666Y-86992833D01*
X114371380Y-87564261D02*
X113371380Y-87230928D01*
X114371380Y-86897595D01*
X113371380Y-86373785D02*
X113371380Y-86278547D01*
X113419000Y-86183309D01*
X113466619Y-86135690D01*
X113561857Y-86088071D01*
X113752333Y-86040452D01*
X113990428Y-86040452D01*
X114180904Y-86088071D01*
X114276142Y-86135690D01*
X114323761Y-86183309D01*
X114371380Y-86278547D01*
X114371380Y-86373785D01*
X114323761Y-86469023D01*
X114276142Y-86516642D01*
X114180904Y-86564261D01*
X113990428Y-86611880D01*
X113752333Y-86611880D01*
X113561857Y-86564261D01*
X113466619Y-86516642D01*
X113419000Y-86469023D01*
X113371380Y-86373785D01*
X111831380Y-86849976D02*
X111355190Y-87183309D01*
X111831380Y-87421404D02*
X110831380Y-87421404D01*
X110831380Y-87040452D01*
X110879000Y-86945214D01*
X110926619Y-86897595D01*
X111021857Y-86849976D01*
X111164714Y-86849976D01*
X111259952Y-86897595D01*
X111307571Y-86945214D01*
X111355190Y-87040452D01*
X111355190Y-87421404D01*
X111783761Y-86469023D02*
X111831380Y-86326166D01*
X111831380Y-86088071D01*
X111783761Y-85992833D01*
X111736142Y-85945214D01*
X111640904Y-85897595D01*
X111545666Y-85897595D01*
X111450428Y-85945214D01*
X111402809Y-85992833D01*
X111355190Y-86088071D01*
X111307571Y-86278547D01*
X111259952Y-86373785D01*
X111212333Y-86421404D01*
X111117095Y-86469023D01*
X111021857Y-86469023D01*
X110926619Y-86421404D01*
X110879000Y-86373785D01*
X110831380Y-86278547D01*
X110831380Y-86040452D01*
X110879000Y-85897595D01*
X110831380Y-85611880D02*
X110831380Y-85040452D01*
X111831380Y-85326166D02*
X110831380Y-85326166D01*
D11*
X149006428Y-81073571D02*
X148949285Y-81130714D01*
X148777857Y-81187857D01*
X148663571Y-81187857D01*
X148492142Y-81130714D01*
X148377857Y-81016428D01*
X148320714Y-80902142D01*
X148263571Y-80673571D01*
X148263571Y-80502142D01*
X148320714Y-80273571D01*
X148377857Y-80159285D01*
X148492142Y-80045000D01*
X148663571Y-79987857D01*
X148777857Y-79987857D01*
X148949285Y-80045000D01*
X149006428Y-80102142D01*
X149692142Y-81187857D02*
X149577857Y-81130714D01*
X149520714Y-81073571D01*
X149463571Y-80959285D01*
X149463571Y-80616428D01*
X149520714Y-80502142D01*
X149577857Y-80445000D01*
X149692142Y-80387857D01*
X149863571Y-80387857D01*
X149977857Y-80445000D01*
X150035000Y-80502142D01*
X150092142Y-80616428D01*
X150092142Y-80959285D01*
X150035000Y-81073571D01*
X149977857Y-81130714D01*
X149863571Y-81187857D01*
X149692142Y-81187857D01*
X150606428Y-80387857D02*
X150606428Y-81187857D01*
X150606428Y-80502142D02*
X150663571Y-80445000D01*
X150777857Y-80387857D01*
X150949285Y-80387857D01*
X151063571Y-80445000D01*
X151120714Y-80559285D01*
X151120714Y-81187857D01*
X151692142Y-80387857D02*
X151692142Y-81187857D01*
X151692142Y-80502142D02*
X151749285Y-80445000D01*
X151863571Y-80387857D01*
X152035000Y-80387857D01*
X152149285Y-80445000D01*
X152206428Y-80559285D01*
X152206428Y-81187857D01*
X153235000Y-81130714D02*
X153120714Y-81187857D01*
X152892142Y-81187857D01*
X152777857Y-81130714D01*
X152720714Y-81016428D01*
X152720714Y-80559285D01*
X152777857Y-80445000D01*
X152892142Y-80387857D01*
X153120714Y-80387857D01*
X153235000Y-80445000D01*
X153292142Y-80559285D01*
X153292142Y-80673571D01*
X152720714Y-80787857D01*
X154320714Y-81130714D02*
X154206428Y-81187857D01*
X153977857Y-81187857D01*
X153863571Y-81130714D01*
X153806428Y-81073571D01*
X153749285Y-80959285D01*
X153749285Y-80616428D01*
X153806428Y-80502142D01*
X153863571Y-80445000D01*
X153977857Y-80387857D01*
X154206428Y-80387857D01*
X154320714Y-80445000D01*
X154663571Y-80387857D02*
X155120714Y-80387857D01*
X154835000Y-79987857D02*
X154835000Y-81016428D01*
X154892142Y-81130714D01*
X155006428Y-81187857D01*
X155120714Y-81187857D01*
X155692142Y-81187857D02*
X155577857Y-81130714D01*
X155520714Y-81073571D01*
X155463571Y-80959285D01*
X155463571Y-80616428D01*
X155520714Y-80502142D01*
X155577857Y-80445000D01*
X155692142Y-80387857D01*
X155863571Y-80387857D01*
X155977857Y-80445000D01*
X156035000Y-80502142D01*
X156092142Y-80616428D01*
X156092142Y-80959285D01*
X156035000Y-81073571D01*
X155977857Y-81130714D01*
X155863571Y-81187857D01*
X155692142Y-81187857D01*
X156606428Y-81187857D02*
X156606428Y-80387857D01*
X156606428Y-80616428D02*
X156663571Y-80502142D01*
X156720714Y-80445000D01*
X156835000Y-80387857D01*
X156949285Y-80387857D01*
X157292142Y-81130714D02*
X157406428Y-81187857D01*
X157635000Y-81187857D01*
X157749285Y-81130714D01*
X157806428Y-81016428D01*
X157806428Y-80959285D01*
X157749285Y-80845000D01*
X157635000Y-80787857D01*
X157463571Y-80787857D01*
X157349285Y-80730714D01*
X157292142Y-80616428D01*
X157292142Y-80559285D01*
X157349285Y-80445000D01*
X157463571Y-80387857D01*
X157635000Y-80387857D01*
X157749285Y-80445000D01*
D10*
X153351547Y-83955000D02*
X153256309Y-83907380D01*
X153113452Y-83907380D01*
X152970595Y-83955000D01*
X152875357Y-84050238D01*
X152827738Y-84145476D01*
X152780119Y-84335952D01*
X152780119Y-84478809D01*
X152827738Y-84669285D01*
X152875357Y-84764523D01*
X152970595Y-84859761D01*
X153113452Y-84907380D01*
X153208690Y-84907380D01*
X153351547Y-84859761D01*
X153399166Y-84812142D01*
X153399166Y-84478809D01*
X153208690Y-84478809D01*
X153827738Y-84907380D02*
X153827738Y-83907380D01*
X154399166Y-84907380D01*
X154399166Y-83907380D01*
X154875357Y-84907380D02*
X154875357Y-83907380D01*
X155113452Y-83907380D01*
X155256309Y-83955000D01*
X155351547Y-84050238D01*
X155399166Y-84145476D01*
X155446785Y-84335952D01*
X155446785Y-84478809D01*
X155399166Y-84669285D01*
X155351547Y-84764523D01*
X155256309Y-84859761D01*
X155113452Y-84907380D01*
X154875357Y-84907380D01*
X155970595Y-84240714D02*
X156542023Y-84812142D01*
X156542023Y-84240714D02*
X155970595Y-84812142D01*
X157065833Y-84002619D02*
X157113452Y-83955000D01*
X157208690Y-83907380D01*
X157446785Y-83907380D01*
X157542023Y-83955000D01*
X157589642Y-84002619D01*
X157637261Y-84097857D01*
X157637261Y-84193095D01*
X157589642Y-84335952D01*
X157018214Y-84907380D01*
X157637261Y-84907380D01*
X158303928Y-85240714D02*
X158303928Y-83812142D01*
X159542023Y-84907380D02*
X158970595Y-84907380D01*
X159256309Y-84907380D02*
X159256309Y-83907380D01*
X159161071Y-84050238D01*
X159065833Y-84145476D01*
X158970595Y-84193095D01*
X159922976Y-84002619D02*
X159970595Y-83955000D01*
X160065833Y-83907380D01*
X160303928Y-83907380D01*
X160399166Y-83955000D01*
X160446785Y-84002619D01*
X160494404Y-84097857D01*
X160494404Y-84193095D01*
X160446785Y-84335952D01*
X159875357Y-84907380D01*
X160494404Y-84907380D01*
X160780119Y-83907380D02*
X161113452Y-84907380D01*
X161446785Y-83907380D01*
X161875357Y-84240714D02*
X162446785Y-84812142D01*
X162446785Y-84240714D02*
X161875357Y-84812142D01*
X162970595Y-84002619D02*
X163018214Y-83955000D01*
X163113452Y-83907380D01*
X163351547Y-83907380D01*
X163446785Y-83955000D01*
X163494404Y-84002619D01*
X163542023Y-84097857D01*
X163542023Y-84193095D01*
X163494404Y-84335952D01*
X162922976Y-84907380D01*
X163542023Y-84907380D01*
X145639404Y-82050000D02*
X145544166Y-82002380D01*
X145401309Y-82002380D01*
X145258452Y-82050000D01*
X145163214Y-82145238D01*
X145115595Y-82240476D01*
X145067976Y-82430952D01*
X145067976Y-82573809D01*
X145115595Y-82764285D01*
X145163214Y-82859523D01*
X145258452Y-82954761D01*
X145401309Y-83002380D01*
X145496547Y-83002380D01*
X145639404Y-82954761D01*
X145687023Y-82907142D01*
X145687023Y-82573809D01*
X145496547Y-82573809D01*
X146115595Y-83002380D02*
X146115595Y-82002380D01*
X146687023Y-83002380D01*
X146687023Y-82002380D01*
X147163214Y-83002380D02*
X147163214Y-82002380D01*
X147401309Y-82002380D01*
X147544166Y-82050000D01*
X147639404Y-82145238D01*
X147687023Y-82240476D01*
X147734642Y-82430952D01*
X147734642Y-82573809D01*
X147687023Y-82764285D01*
X147639404Y-82859523D01*
X147544166Y-82954761D01*
X147401309Y-83002380D01*
X147163214Y-83002380D01*
X148401309Y-83335714D02*
X148401309Y-81907142D01*
X149448928Y-82478571D02*
X149591785Y-82526190D01*
X149639404Y-82573809D01*
X149687023Y-82669047D01*
X149687023Y-82811904D01*
X149639404Y-82907142D01*
X149591785Y-82954761D01*
X149496547Y-83002380D01*
X149115595Y-83002380D01*
X149115595Y-82002380D01*
X149448928Y-82002380D01*
X149544166Y-82050000D01*
X149591785Y-82097619D01*
X149639404Y-82192857D01*
X149639404Y-82288095D01*
X149591785Y-82383333D01*
X149544166Y-82430952D01*
X149448928Y-82478571D01*
X149115595Y-82478571D01*
X150115595Y-83002380D02*
X150115595Y-82002380D01*
X150829880Y-83335714D02*
X150829880Y-81907142D01*
X151544166Y-83002380D02*
X151544166Y-82002380D01*
X151782261Y-82002380D01*
X151925119Y-82050000D01*
X152020357Y-82145238D01*
X152067976Y-82240476D01*
X152115595Y-82430952D01*
X152115595Y-82573809D01*
X152067976Y-82764285D01*
X152020357Y-82859523D01*
X151925119Y-82954761D01*
X151782261Y-83002380D01*
X151544166Y-83002380D01*
X152544166Y-83002380D02*
X152544166Y-82002380D01*
X153258452Y-83335714D02*
X153258452Y-81907142D01*
X154496547Y-83002380D02*
X153925119Y-83002380D01*
X154210833Y-83002380D02*
X154210833Y-82002380D01*
X154115595Y-82145238D01*
X154020357Y-82240476D01*
X153925119Y-82288095D01*
X154877500Y-82097619D02*
X154925119Y-82050000D01*
X155020357Y-82002380D01*
X155258452Y-82002380D01*
X155353690Y-82050000D01*
X155401309Y-82097619D01*
X155448928Y-82192857D01*
X155448928Y-82288095D01*
X155401309Y-82430952D01*
X154829880Y-83002380D01*
X155448928Y-83002380D01*
X155734642Y-82002380D02*
X156067976Y-83002380D01*
X156401309Y-82002380D01*
X140383333Y-91992380D02*
X140621428Y-92992380D01*
X140811904Y-92278095D01*
X141002380Y-92992380D01*
X141240476Y-91992380D01*
X141573809Y-92944761D02*
X141716666Y-92992380D01*
X141954761Y-92992380D01*
X142050000Y-92944761D01*
X142097619Y-92897142D01*
X142145238Y-92801904D01*
X142145238Y-92706666D01*
X142097619Y-92611428D01*
X142050000Y-92563809D01*
X141954761Y-92516190D01*
X141764285Y-92468571D01*
X141669047Y-92420952D01*
X141621428Y-92373333D01*
X141573809Y-92278095D01*
X141573809Y-92182857D01*
X141621428Y-92087619D01*
X141669047Y-92040000D01*
X141764285Y-91992380D01*
X142002380Y-91992380D01*
X142145238Y-92040000D01*
X142526190Y-92087619D02*
X142573809Y-92040000D01*
X142669047Y-91992380D01*
X142907142Y-91992380D01*
X143002380Y-92040000D01*
X143050000Y-92087619D01*
X143097619Y-92182857D01*
X143097619Y-92278095D01*
X143050000Y-92420952D01*
X142478571Y-92992380D01*
X143097619Y-92992380D01*
X143669047Y-92420952D02*
X143573809Y-92373333D01*
X143526190Y-92325714D01*
X143478571Y-92230476D01*
X143478571Y-92182857D01*
X143526190Y-92087619D01*
X143573809Y-92040000D01*
X143669047Y-91992380D01*
X143859523Y-91992380D01*
X143954761Y-92040000D01*
X144002380Y-92087619D01*
X144050000Y-92182857D01*
X144050000Y-92230476D01*
X144002380Y-92325714D01*
X143954761Y-92373333D01*
X143859523Y-92420952D01*
X143669047Y-92420952D01*
X143573809Y-92468571D01*
X143526190Y-92516190D01*
X143478571Y-92611428D01*
X143478571Y-92801904D01*
X143526190Y-92897142D01*
X143573809Y-92944761D01*
X143669047Y-92992380D01*
X143859523Y-92992380D01*
X143954761Y-92944761D01*
X144002380Y-92897142D01*
X144050000Y-92801904D01*
X144050000Y-92611428D01*
X144002380Y-92516190D01*
X143954761Y-92468571D01*
X143859523Y-92420952D01*
X145002380Y-92992380D02*
X144430952Y-92992380D01*
X144716666Y-92992380D02*
X144716666Y-91992380D01*
X144621428Y-92135238D01*
X144526190Y-92230476D01*
X144430952Y-92278095D01*
X145907142Y-91992380D02*
X145430952Y-91992380D01*
X145383333Y-92468571D01*
X145430952Y-92420952D01*
X145526190Y-92373333D01*
X145764285Y-92373333D01*
X145859523Y-92420952D01*
X145907142Y-92468571D01*
X145954761Y-92563809D01*
X145954761Y-92801904D01*
X145907142Y-92897142D01*
X145859523Y-92944761D01*
X145764285Y-92992380D01*
X145526190Y-92992380D01*
X145430952Y-92944761D01*
X145383333Y-92897142D01*
X146145238Y-93087619D02*
X146907142Y-93087619D01*
X147145238Y-92992380D02*
X147145238Y-91992380D01*
X147383333Y-91992380D01*
X147526190Y-92040000D01*
X147621428Y-92135238D01*
X147669047Y-92230476D01*
X147716666Y-92420952D01*
X147716666Y-92563809D01*
X147669047Y-92754285D01*
X147621428Y-92849523D01*
X147526190Y-92944761D01*
X147383333Y-92992380D01*
X147145238Y-92992380D01*
X148669047Y-92992380D02*
X148097619Y-92992380D01*
X148383333Y-92992380D02*
X148383333Y-91992380D01*
X148288095Y-92135238D01*
X148192857Y-92230476D01*
X148097619Y-92278095D01*
X149097619Y-92992380D02*
X149097619Y-91992380D01*
X149430952Y-92706666D01*
X149764285Y-91992380D01*
X149764285Y-92992380D01*
X150240476Y-92992380D02*
X150240476Y-92325714D01*
X150240476Y-91992380D02*
X150192857Y-92040000D01*
X150240476Y-92087619D01*
X150288095Y-92040000D01*
X150240476Y-91992380D01*
X150240476Y-92087619D01*
X150716666Y-92325714D02*
X150716666Y-92992380D01*
X150716666Y-92420952D02*
X150764285Y-92373333D01*
X150859523Y-92325714D01*
X151002380Y-92325714D01*
X151097619Y-92373333D01*
X151145238Y-92468571D01*
X151145238Y-92992380D01*
X151621428Y-92992380D02*
X151621428Y-92325714D01*
X151621428Y-91992380D02*
X151573809Y-92040000D01*
X151621428Y-92087619D01*
X151669047Y-92040000D01*
X151621428Y-91992380D01*
X151621428Y-92087619D01*
X138550000Y-93602380D02*
X138883333Y-94602380D01*
X139216666Y-93602380D01*
X140073809Y-94602380D02*
X139502380Y-94602380D01*
X139788095Y-94602380D02*
X139788095Y-93602380D01*
X139692857Y-93745238D01*
X139597619Y-93840476D01*
X139502380Y-93888095D01*
X140502380Y-94602380D02*
X140502380Y-93935714D01*
X140502380Y-94126190D02*
X140550000Y-94030952D01*
X140597619Y-93983333D01*
X140692857Y-93935714D01*
X140788095Y-93935714D01*
X141311904Y-93602380D02*
X141407142Y-93602380D01*
X141502380Y-93650000D01*
X141550000Y-93697619D01*
X141597619Y-93792857D01*
X141645238Y-93983333D01*
X141645238Y-94221428D01*
X141597619Y-94411904D01*
X141550000Y-94507142D01*
X141502380Y-94554761D01*
X141407142Y-94602380D01*
X141311904Y-94602380D01*
X141216666Y-94554761D01*
X141169047Y-94507142D01*
X141121428Y-94411904D01*
X141073809Y-94221428D01*
X141073809Y-93983333D01*
X141121428Y-93792857D01*
X141169047Y-93697619D01*
X141216666Y-93650000D01*
X141311904Y-93602380D01*
X143121428Y-94983333D02*
X143073809Y-94935714D01*
X142978571Y-94792857D01*
X142930952Y-94697619D01*
X142883333Y-94554761D01*
X142835714Y-94316666D01*
X142835714Y-94126190D01*
X142883333Y-93888095D01*
X142930952Y-93745238D01*
X142978571Y-93650000D01*
X143073809Y-93507142D01*
X143121428Y-93459523D01*
X143454761Y-93697619D02*
X143502380Y-93650000D01*
X143597619Y-93602380D01*
X143835714Y-93602380D01*
X143930952Y-93650000D01*
X143978571Y-93697619D01*
X144026190Y-93792857D01*
X144026190Y-93888095D01*
X143978571Y-94030952D01*
X143407142Y-94602380D01*
X144026190Y-94602380D01*
X144645238Y-93602380D02*
X144740476Y-93602380D01*
X144835714Y-93650000D01*
X144883333Y-93697619D01*
X144930952Y-93792857D01*
X144978571Y-93983333D01*
X144978571Y-94221428D01*
X144930952Y-94411904D01*
X144883333Y-94507142D01*
X144835714Y-94554761D01*
X144740476Y-94602380D01*
X144645238Y-94602380D01*
X144550000Y-94554761D01*
X144502380Y-94507142D01*
X144454761Y-94411904D01*
X144407142Y-94221428D01*
X144407142Y-93983333D01*
X144454761Y-93792857D01*
X144502380Y-93697619D01*
X144550000Y-93650000D01*
X144645238Y-93602380D01*
X145359523Y-93697619D02*
X145407142Y-93650000D01*
X145502380Y-93602380D01*
X145740476Y-93602380D01*
X145835714Y-93650000D01*
X145883333Y-93697619D01*
X145930952Y-93792857D01*
X145930952Y-93888095D01*
X145883333Y-94030952D01*
X145311904Y-94602380D01*
X145930952Y-94602380D01*
X146311904Y-93697619D02*
X146359523Y-93650000D01*
X146454761Y-93602380D01*
X146692857Y-93602380D01*
X146788095Y-93650000D01*
X146835714Y-93697619D01*
X146883333Y-93792857D01*
X146883333Y-93888095D01*
X146835714Y-94030952D01*
X146264285Y-94602380D01*
X146883333Y-94602380D01*
X148026190Y-93554761D02*
X147169047Y-94840476D01*
X148550000Y-93602380D02*
X148645238Y-93602380D01*
X148740476Y-93650000D01*
X148788095Y-93697619D01*
X148835714Y-93792857D01*
X148883333Y-93983333D01*
X148883333Y-94221428D01*
X148835714Y-94411904D01*
X148788095Y-94507142D01*
X148740476Y-94554761D01*
X148645238Y-94602380D01*
X148550000Y-94602380D01*
X148454761Y-94554761D01*
X148407142Y-94507142D01*
X148359523Y-94411904D01*
X148311904Y-94221428D01*
X148311904Y-93983333D01*
X148359523Y-93792857D01*
X148407142Y-93697619D01*
X148454761Y-93650000D01*
X148550000Y-93602380D01*
X149454761Y-94030952D02*
X149359523Y-93983333D01*
X149311904Y-93935714D01*
X149264285Y-93840476D01*
X149264285Y-93792857D01*
X149311904Y-93697619D01*
X149359523Y-93650000D01*
X149454761Y-93602380D01*
X149645238Y-93602380D01*
X149740476Y-93650000D01*
X149788095Y-93697619D01*
X149835714Y-93792857D01*
X149835714Y-93840476D01*
X149788095Y-93935714D01*
X149740476Y-93983333D01*
X149645238Y-94030952D01*
X149454761Y-94030952D01*
X149359523Y-94078571D01*
X149311904Y-94126190D01*
X149264285Y-94221428D01*
X149264285Y-94411904D01*
X149311904Y-94507142D01*
X149359523Y-94554761D01*
X149454761Y-94602380D01*
X149645238Y-94602380D01*
X149740476Y-94554761D01*
X149788095Y-94507142D01*
X149835714Y-94411904D01*
X149835714Y-94221428D01*
X149788095Y-94126190D01*
X149740476Y-94078571D01*
X149645238Y-94030952D01*
X150978571Y-93554761D02*
X150121428Y-94840476D01*
X151264285Y-93697619D02*
X151311904Y-93650000D01*
X151407142Y-93602380D01*
X151645238Y-93602380D01*
X151740476Y-93650000D01*
X151788095Y-93697619D01*
X151835714Y-93792857D01*
X151835714Y-93888095D01*
X151788095Y-94030952D01*
X151216666Y-94602380D01*
X151835714Y-94602380D01*
X152407142Y-94030952D02*
X152311904Y-93983333D01*
X152264285Y-93935714D01*
X152216666Y-93840476D01*
X152216666Y-93792857D01*
X152264285Y-93697619D01*
X152311904Y-93650000D01*
X152407142Y-93602380D01*
X152597619Y-93602380D01*
X152692857Y-93650000D01*
X152740476Y-93697619D01*
X152788095Y-93792857D01*
X152788095Y-93840476D01*
X152740476Y-93935714D01*
X152692857Y-93983333D01*
X152597619Y-94030952D01*
X152407142Y-94030952D01*
X152311904Y-94078571D01*
X152264285Y-94126190D01*
X152216666Y-94221428D01*
X152216666Y-94411904D01*
X152264285Y-94507142D01*
X152311904Y-94554761D01*
X152407142Y-94602380D01*
X152597619Y-94602380D01*
X152692857Y-94554761D01*
X152740476Y-94507142D01*
X152788095Y-94411904D01*
X152788095Y-94221428D01*
X152740476Y-94126190D01*
X152692857Y-94078571D01*
X152597619Y-94030952D01*
X153121428Y-94983333D02*
X153169047Y-94935714D01*
X153264285Y-94792857D01*
X153311904Y-94697619D01*
X153359523Y-94554761D01*
X153407142Y-94316666D01*
X153407142Y-94126190D01*
X153359523Y-93888095D01*
X153311904Y-93745238D01*
X153264285Y-93650000D01*
X153169047Y-93507142D01*
X153121428Y-93459523D01*
%TO.C,U2*%
X163837380Y-75056904D02*
X164646904Y-75056904D01*
X164742142Y-75009285D01*
X164789761Y-74961666D01*
X164837380Y-74866428D01*
X164837380Y-74675952D01*
X164789761Y-74580714D01*
X164742142Y-74533095D01*
X164646904Y-74485476D01*
X163837380Y-74485476D01*
X163932619Y-74056904D02*
X163885000Y-74009285D01*
X163837380Y-73914047D01*
X163837380Y-73675952D01*
X163885000Y-73580714D01*
X163932619Y-73533095D01*
X164027857Y-73485476D01*
X164123095Y-73485476D01*
X164265952Y-73533095D01*
X164837380Y-74104523D01*
X164837380Y-73485476D01*
X148264761Y-79192380D02*
X147788571Y-79192380D01*
X147788571Y-78192380D01*
X148502857Y-78192380D02*
X149169523Y-78192380D01*
X148740952Y-79192380D01*
X149693333Y-78620952D02*
X149598095Y-78573333D01*
X149550476Y-78525714D01*
X149502857Y-78430476D01*
X149502857Y-78382857D01*
X149550476Y-78287619D01*
X149598095Y-78240000D01*
X149693333Y-78192380D01*
X149883809Y-78192380D01*
X149979047Y-78240000D01*
X150026666Y-78287619D01*
X150074285Y-78382857D01*
X150074285Y-78430476D01*
X150026666Y-78525714D01*
X149979047Y-78573333D01*
X149883809Y-78620952D01*
X149693333Y-78620952D01*
X149598095Y-78668571D01*
X149550476Y-78716190D01*
X149502857Y-78811428D01*
X149502857Y-79001904D01*
X149550476Y-79097142D01*
X149598095Y-79144761D01*
X149693333Y-79192380D01*
X149883809Y-79192380D01*
X149979047Y-79144761D01*
X150026666Y-79097142D01*
X150074285Y-79001904D01*
X150074285Y-78811428D01*
X150026666Y-78716190D01*
X149979047Y-78668571D01*
X149883809Y-78620952D01*
X150693333Y-78192380D02*
X150788571Y-78192380D01*
X150883809Y-78240000D01*
X150931428Y-78287619D01*
X150979047Y-78382857D01*
X151026666Y-78573333D01*
X151026666Y-78811428D01*
X150979047Y-79001904D01*
X150931428Y-79097142D01*
X150883809Y-79144761D01*
X150788571Y-79192380D01*
X150693333Y-79192380D01*
X150598095Y-79144761D01*
X150550476Y-79097142D01*
X150502857Y-79001904D01*
X150455238Y-78811428D01*
X150455238Y-78573333D01*
X150502857Y-78382857D01*
X150550476Y-78287619D01*
X150598095Y-78240000D01*
X150693333Y-78192380D01*
X151931428Y-78192380D02*
X151455238Y-78192380D01*
X151407619Y-78668571D01*
X151455238Y-78620952D01*
X151550476Y-78573333D01*
X151788571Y-78573333D01*
X151883809Y-78620952D01*
X151931428Y-78668571D01*
X151979047Y-78763809D01*
X151979047Y-79001904D01*
X151931428Y-79097142D01*
X151883809Y-79144761D01*
X151788571Y-79192380D01*
X151550476Y-79192380D01*
X151455238Y-79144761D01*
X151407619Y-79097142D01*
%TO.C,U1*%
X135977380Y-91104404D02*
X136786904Y-91104404D01*
X136882142Y-91056785D01*
X136929761Y-91009166D01*
X136977380Y-90913928D01*
X136977380Y-90723452D01*
X136929761Y-90628214D01*
X136882142Y-90580595D01*
X136786904Y-90532976D01*
X135977380Y-90532976D01*
X136977380Y-89532976D02*
X136977380Y-90104404D01*
X136977380Y-89818690D02*
X135977380Y-89818690D01*
X136120238Y-89913928D01*
X136215476Y-90009166D01*
X136263095Y-90104404D01*
X134072380Y-91199642D02*
X135072380Y-90961547D01*
X134358095Y-90771071D01*
X135072380Y-90580595D01*
X134072380Y-90342500D01*
X135024761Y-89580595D02*
X135072380Y-89675833D01*
X135072380Y-89866309D01*
X135024761Y-89961547D01*
X134929523Y-90009166D01*
X134548571Y-90009166D01*
X134453333Y-89961547D01*
X134405714Y-89866309D01*
X134405714Y-89675833D01*
X134453333Y-89580595D01*
X134548571Y-89532976D01*
X134643809Y-89532976D01*
X134739047Y-90009166D01*
X135072380Y-89104404D02*
X134072380Y-89104404D01*
X134786666Y-88771071D01*
X134072380Y-88437738D01*
X135072380Y-88437738D01*
X135072380Y-87818690D02*
X135024761Y-87913928D01*
X134977142Y-87961547D01*
X134881904Y-88009166D01*
X134596190Y-88009166D01*
X134500952Y-87961547D01*
X134453333Y-87913928D01*
X134405714Y-87818690D01*
X134405714Y-87675833D01*
X134453333Y-87580595D01*
X134500952Y-87532976D01*
X134596190Y-87485357D01*
X134881904Y-87485357D01*
X134977142Y-87532976D01*
X135024761Y-87580595D01*
X135072380Y-87675833D01*
X135072380Y-87818690D01*
X135024761Y-87104404D02*
X135072380Y-87009166D01*
X135072380Y-86818690D01*
X135024761Y-86723452D01*
X134929523Y-86675833D01*
X134881904Y-86675833D01*
X134786666Y-86723452D01*
X134739047Y-86818690D01*
X134739047Y-86961547D01*
X134691428Y-87056785D01*
X134596190Y-87104404D01*
X134548571Y-87104404D01*
X134453333Y-87056785D01*
X134405714Y-86961547D01*
X134405714Y-86818690D01*
X134453333Y-86723452D01*
X135167619Y-86485357D02*
X135167619Y-85723452D01*
X135072380Y-85485357D02*
X134072380Y-85485357D01*
X134072380Y-85247261D01*
X134120000Y-85104404D01*
X134215238Y-85009166D01*
X134310476Y-84961547D01*
X134500952Y-84913928D01*
X134643809Y-84913928D01*
X134834285Y-84961547D01*
X134929523Y-85009166D01*
X135024761Y-85104404D01*
X135072380Y-85247261D01*
X135072380Y-85485357D01*
X135072380Y-83961547D02*
X135072380Y-84532976D01*
X135072380Y-84247261D02*
X134072380Y-84247261D01*
X134215238Y-84342500D01*
X134310476Y-84437738D01*
X134358095Y-84532976D01*
X135167619Y-83771071D02*
X135167619Y-83009166D01*
X135072380Y-82771071D02*
X134405714Y-82771071D01*
X134500952Y-82771071D02*
X134453333Y-82723452D01*
X134405714Y-82628214D01*
X134405714Y-82485357D01*
X134453333Y-82390119D01*
X134548571Y-82342500D01*
X135072380Y-82342500D01*
X134548571Y-82342500D02*
X134453333Y-82294880D01*
X134405714Y-82199642D01*
X134405714Y-82056785D01*
X134453333Y-81961547D01*
X134548571Y-81913928D01*
X135072380Y-81913928D01*
X135072380Y-81437738D02*
X134405714Y-81437738D01*
X134072380Y-81437738D02*
X134120000Y-81485357D01*
X134167619Y-81437738D01*
X134120000Y-81390119D01*
X134072380Y-81437738D01*
X134167619Y-81437738D01*
X134405714Y-80961547D02*
X135072380Y-80961547D01*
X134500952Y-80961547D02*
X134453333Y-80913928D01*
X134405714Y-80818690D01*
X134405714Y-80675833D01*
X134453333Y-80580595D01*
X134548571Y-80532976D01*
X135072380Y-80532976D01*
X135072380Y-80056785D02*
X134405714Y-80056785D01*
X134072380Y-80056785D02*
X134120000Y-80104404D01*
X134167619Y-80056785D01*
X134120000Y-80009166D01*
X134072380Y-80056785D01*
X134167619Y-80056785D01*
%TO.C,R1*%
X124738333Y-79987380D02*
X124405000Y-79511190D01*
X124166904Y-79987380D02*
X124166904Y-78987380D01*
X124547857Y-78987380D01*
X124643095Y-79035000D01*
X124690714Y-79082619D01*
X124738333Y-79177857D01*
X124738333Y-79320714D01*
X124690714Y-79415952D01*
X124643095Y-79463571D01*
X124547857Y-79511190D01*
X124166904Y-79511190D01*
X125690714Y-79987380D02*
X125119285Y-79987380D01*
X125405000Y-79987380D02*
X125405000Y-78987380D01*
X125309761Y-79130238D01*
X125214523Y-79225476D01*
X125119285Y-79273095D01*
%TO.C,J14*%
X113312380Y-66932380D02*
X113121904Y-66932380D01*
X113026666Y-66980000D01*
X112979047Y-67027619D01*
X112883809Y-67170476D01*
X112836190Y-67360952D01*
X112836190Y-67741904D01*
X112883809Y-67837142D01*
X112931428Y-67884761D01*
X113026666Y-67932380D01*
X113217142Y-67932380D01*
X113312380Y-67884761D01*
X113360000Y-67837142D01*
X113407619Y-67741904D01*
X113407619Y-67503809D01*
X113360000Y-67408571D01*
X113312380Y-67360952D01*
X113217142Y-67313333D01*
X113026666Y-67313333D01*
X112931428Y-67360952D01*
X112883809Y-67408571D01*
X112836190Y-67503809D01*
X113883809Y-67932380D02*
X114074285Y-67932380D01*
X114169523Y-67884761D01*
X114217142Y-67837142D01*
X114312380Y-67694285D01*
X114360000Y-67503809D01*
X114360000Y-67122857D01*
X114312380Y-67027619D01*
X114264761Y-66980000D01*
X114169523Y-66932380D01*
X113979047Y-66932380D01*
X113883809Y-66980000D01*
X113836190Y-67027619D01*
X113788571Y-67122857D01*
X113788571Y-67360952D01*
X113836190Y-67456190D01*
X113883809Y-67503809D01*
X113979047Y-67551428D01*
X114169523Y-67551428D01*
X114264761Y-67503809D01*
X114312380Y-67456190D01*
X114360000Y-67360952D01*
X115312380Y-67932380D02*
X114740952Y-67932380D01*
X115026666Y-67932380D02*
X115026666Y-66932380D01*
X114931428Y-67075238D01*
X114836190Y-67170476D01*
X114740952Y-67218095D01*
X116169523Y-67265714D02*
X116169523Y-67932380D01*
X115931428Y-66884761D02*
X115693333Y-67599047D01*
X116312380Y-67599047D01*
X117217142Y-67932380D02*
X116645714Y-67932380D01*
X116931428Y-67932380D02*
X116931428Y-66932380D01*
X116836190Y-67075238D01*
X116740952Y-67170476D01*
X116645714Y-67218095D01*
X118169523Y-67932380D02*
X117598095Y-67932380D01*
X117883809Y-67932380D02*
X117883809Y-66932380D01*
X117788571Y-67075238D01*
X117693333Y-67170476D01*
X117598095Y-67218095D01*
X119026666Y-67265714D02*
X119026666Y-67932380D01*
X118788571Y-66884761D02*
X118550476Y-67599047D01*
X119169523Y-67599047D01*
X120074285Y-67932380D02*
X119502857Y-67932380D01*
X119788571Y-67932380D02*
X119788571Y-66932380D01*
X119693333Y-67075238D01*
X119598095Y-67170476D01*
X119502857Y-67218095D01*
X120693333Y-66932380D02*
X120788571Y-66932380D01*
X120883809Y-66980000D01*
X120931428Y-67027619D01*
X120979047Y-67122857D01*
X121026666Y-67313333D01*
X121026666Y-67551428D01*
X120979047Y-67741904D01*
X120931428Y-67837142D01*
X120883809Y-67884761D01*
X120788571Y-67932380D01*
X120693333Y-67932380D01*
X120598095Y-67884761D01*
X120550476Y-67837142D01*
X120502857Y-67741904D01*
X120455238Y-67551428D01*
X120455238Y-67313333D01*
X120502857Y-67122857D01*
X120550476Y-67027619D01*
X120598095Y-66980000D01*
X120693333Y-66932380D01*
X121645714Y-66932380D02*
X121740952Y-66932380D01*
X121836190Y-66980000D01*
X121883809Y-67027619D01*
X121931428Y-67122857D01*
X121979047Y-67313333D01*
X121979047Y-67551428D01*
X121931428Y-67741904D01*
X121883809Y-67837142D01*
X121836190Y-67884761D01*
X121740952Y-67932380D01*
X121645714Y-67932380D01*
X121550476Y-67884761D01*
X121502857Y-67837142D01*
X121455238Y-67741904D01*
X121407619Y-67551428D01*
X121407619Y-67313333D01*
X121455238Y-67122857D01*
X121502857Y-67027619D01*
X121550476Y-66980000D01*
X121645714Y-66932380D01*
X122598095Y-66932380D02*
X122693333Y-66932380D01*
X122788571Y-66980000D01*
X122836190Y-67027619D01*
X122883809Y-67122857D01*
X122931428Y-67313333D01*
X122931428Y-67551428D01*
X122883809Y-67741904D01*
X122836190Y-67837142D01*
X122788571Y-67884761D01*
X122693333Y-67932380D01*
X122598095Y-67932380D01*
X122502857Y-67884761D01*
X122455238Y-67837142D01*
X122407619Y-67741904D01*
X122360000Y-67551428D01*
X122360000Y-67313333D01*
X122407619Y-67122857D01*
X122455238Y-67027619D01*
X122502857Y-66980000D01*
X122598095Y-66932380D01*
X123788571Y-67265714D02*
X123788571Y-67932380D01*
X123550476Y-66884761D02*
X123312380Y-67599047D01*
X123931428Y-67599047D01*
%TO.C,J13*%
X143792380Y-66932380D02*
X143601904Y-66932380D01*
X143506666Y-66980000D01*
X143459047Y-67027619D01*
X143363809Y-67170476D01*
X143316190Y-67360952D01*
X143316190Y-67741904D01*
X143363809Y-67837142D01*
X143411428Y-67884761D01*
X143506666Y-67932380D01*
X143697142Y-67932380D01*
X143792380Y-67884761D01*
X143840000Y-67837142D01*
X143887619Y-67741904D01*
X143887619Y-67503809D01*
X143840000Y-67408571D01*
X143792380Y-67360952D01*
X143697142Y-67313333D01*
X143506666Y-67313333D01*
X143411428Y-67360952D01*
X143363809Y-67408571D01*
X143316190Y-67503809D01*
X144363809Y-67932380D02*
X144554285Y-67932380D01*
X144649523Y-67884761D01*
X144697142Y-67837142D01*
X144792380Y-67694285D01*
X144840000Y-67503809D01*
X144840000Y-67122857D01*
X144792380Y-67027619D01*
X144744761Y-66980000D01*
X144649523Y-66932380D01*
X144459047Y-66932380D01*
X144363809Y-66980000D01*
X144316190Y-67027619D01*
X144268571Y-67122857D01*
X144268571Y-67360952D01*
X144316190Y-67456190D01*
X144363809Y-67503809D01*
X144459047Y-67551428D01*
X144649523Y-67551428D01*
X144744761Y-67503809D01*
X144792380Y-67456190D01*
X144840000Y-67360952D01*
X145792380Y-67932380D02*
X145220952Y-67932380D01*
X145506666Y-67932380D02*
X145506666Y-66932380D01*
X145411428Y-67075238D01*
X145316190Y-67170476D01*
X145220952Y-67218095D01*
X146649523Y-67265714D02*
X146649523Y-67932380D01*
X146411428Y-66884761D02*
X146173333Y-67599047D01*
X146792380Y-67599047D01*
X147697142Y-67932380D02*
X147125714Y-67932380D01*
X147411428Y-67932380D02*
X147411428Y-66932380D01*
X147316190Y-67075238D01*
X147220952Y-67170476D01*
X147125714Y-67218095D01*
X148649523Y-67932380D02*
X148078095Y-67932380D01*
X148363809Y-67932380D02*
X148363809Y-66932380D01*
X148268571Y-67075238D01*
X148173333Y-67170476D01*
X148078095Y-67218095D01*
X149506666Y-67265714D02*
X149506666Y-67932380D01*
X149268571Y-66884761D02*
X149030476Y-67599047D01*
X149649523Y-67599047D01*
X150554285Y-67932380D02*
X149982857Y-67932380D01*
X150268571Y-67932380D02*
X150268571Y-66932380D01*
X150173333Y-67075238D01*
X150078095Y-67170476D01*
X149982857Y-67218095D01*
X151173333Y-66932380D02*
X151268571Y-66932380D01*
X151363809Y-66980000D01*
X151411428Y-67027619D01*
X151459047Y-67122857D01*
X151506666Y-67313333D01*
X151506666Y-67551428D01*
X151459047Y-67741904D01*
X151411428Y-67837142D01*
X151363809Y-67884761D01*
X151268571Y-67932380D01*
X151173333Y-67932380D01*
X151078095Y-67884761D01*
X151030476Y-67837142D01*
X150982857Y-67741904D01*
X150935238Y-67551428D01*
X150935238Y-67313333D01*
X150982857Y-67122857D01*
X151030476Y-67027619D01*
X151078095Y-66980000D01*
X151173333Y-66932380D01*
X152125714Y-66932380D02*
X152220952Y-66932380D01*
X152316190Y-66980000D01*
X152363809Y-67027619D01*
X152411428Y-67122857D01*
X152459047Y-67313333D01*
X152459047Y-67551428D01*
X152411428Y-67741904D01*
X152363809Y-67837142D01*
X152316190Y-67884761D01*
X152220952Y-67932380D01*
X152125714Y-67932380D01*
X152030476Y-67884761D01*
X151982857Y-67837142D01*
X151935238Y-67741904D01*
X151887619Y-67551428D01*
X151887619Y-67313333D01*
X151935238Y-67122857D01*
X151982857Y-67027619D01*
X152030476Y-66980000D01*
X152125714Y-66932380D01*
X153078095Y-66932380D02*
X153173333Y-66932380D01*
X153268571Y-66980000D01*
X153316190Y-67027619D01*
X153363809Y-67122857D01*
X153411428Y-67313333D01*
X153411428Y-67551428D01*
X153363809Y-67741904D01*
X153316190Y-67837142D01*
X153268571Y-67884761D01*
X153173333Y-67932380D01*
X153078095Y-67932380D01*
X152982857Y-67884761D01*
X152935238Y-67837142D01*
X152887619Y-67741904D01*
X152840000Y-67551428D01*
X152840000Y-67313333D01*
X152887619Y-67122857D01*
X152935238Y-67027619D01*
X152982857Y-66980000D01*
X153078095Y-66932380D01*
X154268571Y-67265714D02*
X154268571Y-67932380D01*
X154030476Y-66884761D02*
X153792380Y-67599047D01*
X154411428Y-67599047D01*
%TO.C,C4*%
X128993333Y-79892142D02*
X128945714Y-79939761D01*
X128802857Y-79987380D01*
X128707619Y-79987380D01*
X128564761Y-79939761D01*
X128469523Y-79844523D01*
X128421904Y-79749285D01*
X128374285Y-79558809D01*
X128374285Y-79415952D01*
X128421904Y-79225476D01*
X128469523Y-79130238D01*
X128564761Y-79035000D01*
X128707619Y-78987380D01*
X128802857Y-78987380D01*
X128945714Y-79035000D01*
X128993333Y-79082619D01*
X129850476Y-79320714D02*
X129850476Y-79987380D01*
X129612380Y-78939761D02*
X129374285Y-79654047D01*
X129993333Y-79654047D01*
%TO.C,C3*%
X138842142Y-77001666D02*
X138889761Y-77049285D01*
X138937380Y-77192142D01*
X138937380Y-77287380D01*
X138889761Y-77430238D01*
X138794523Y-77525476D01*
X138699285Y-77573095D01*
X138508809Y-77620714D01*
X138365952Y-77620714D01*
X138175476Y-77573095D01*
X138080238Y-77525476D01*
X137985000Y-77430238D01*
X137937380Y-77287380D01*
X137937380Y-77192142D01*
X137985000Y-77049285D01*
X138032619Y-77001666D01*
X137937380Y-76668333D02*
X137937380Y-76049285D01*
X138318333Y-76382619D01*
X138318333Y-76239761D01*
X138365952Y-76144523D01*
X138413571Y-76096904D01*
X138508809Y-76049285D01*
X138746904Y-76049285D01*
X138842142Y-76096904D01*
X138889761Y-76144523D01*
X138937380Y-76239761D01*
X138937380Y-76525476D01*
X138889761Y-76620714D01*
X138842142Y-76668333D01*
%TO.C,C2*%
X138787142Y-71921666D02*
X138834761Y-71969285D01*
X138882380Y-72112142D01*
X138882380Y-72207380D01*
X138834761Y-72350238D01*
X138739523Y-72445476D01*
X138644285Y-72493095D01*
X138453809Y-72540714D01*
X138310952Y-72540714D01*
X138120476Y-72493095D01*
X138025238Y-72445476D01*
X137930000Y-72350238D01*
X137882380Y-72207380D01*
X137882380Y-72112142D01*
X137930000Y-71969285D01*
X137977619Y-71921666D01*
X137977619Y-71540714D02*
X137930000Y-71493095D01*
X137882380Y-71397857D01*
X137882380Y-71159761D01*
X137930000Y-71064523D01*
X137977619Y-71016904D01*
X138072857Y-70969285D01*
X138168095Y-70969285D01*
X138310952Y-71016904D01*
X138882380Y-71588333D01*
X138882380Y-70969285D01*
%TO.C,C1*%
X141393446Y-86657142D02*
X141345827Y-86704761D01*
X141202970Y-86752380D01*
X141107732Y-86752380D01*
X140964874Y-86704761D01*
X140869636Y-86609523D01*
X140822017Y-86514285D01*
X140774398Y-86323809D01*
X140774398Y-86180952D01*
X140822017Y-85990476D01*
X140869636Y-85895238D01*
X140964874Y-85800000D01*
X141107732Y-85752380D01*
X141202970Y-85752380D01*
X141345827Y-85800000D01*
X141393446Y-85847619D01*
X142345827Y-86752380D02*
X141774398Y-86752380D01*
X142060113Y-86752380D02*
X142060113Y-85752380D01*
X141964874Y-85895238D01*
X141869636Y-85990476D01*
X141774398Y-86038095D01*
%TO.C,LOGO1*%
G36*
X153700672Y-87960676D02*
G01*
X153956736Y-87941906D01*
X154141148Y-87909856D01*
X154258534Y-87866620D01*
X154455499Y-87743381D01*
X154660502Y-87584050D01*
X154840489Y-87415714D01*
X154921410Y-87323339D01*
X155051940Y-87187736D01*
X155227674Y-87045142D01*
X155420542Y-86915188D01*
X155602474Y-86817507D01*
X155694561Y-86782599D01*
X155921408Y-86733040D01*
X156195382Y-86697889D01*
X156484291Y-86679230D01*
X156755948Y-86679141D01*
X156977735Y-86699634D01*
X157347178Y-86797292D01*
X157674383Y-86955026D01*
X157950134Y-87166049D01*
X158165216Y-87423576D01*
X158290401Y-87666107D01*
X158364879Y-87950477D01*
X158388973Y-88276945D01*
X158362677Y-88619559D01*
X158290788Y-88937092D01*
X158237862Y-89096562D01*
X158181574Y-89234193D01*
X158111473Y-89368412D01*
X158017111Y-89517646D01*
X157888039Y-89700321D01*
X157759790Y-89873543D01*
X157656253Y-90016296D01*
X157575727Y-90135640D01*
X157529596Y-90214277D01*
X157522982Y-90233376D01*
X157563484Y-90332711D01*
X157669067Y-90411305D01*
X157820700Y-90458107D01*
X157924138Y-90466334D01*
X158036652Y-90458186D01*
X158171439Y-90437437D01*
X158302836Y-90409626D01*
X158405185Y-90380294D01*
X158452824Y-90354978D01*
X158453667Y-90352016D01*
X158429366Y-90310834D01*
X158366932Y-90226018D01*
X158311880Y-90155958D01*
X158212846Y-90025277D01*
X158124305Y-89896264D01*
X158094281Y-89847326D01*
X158018469Y-89715151D01*
X158172052Y-89466326D01*
X158330270Y-89183029D01*
X158433644Y-88923095D01*
X158491284Y-88654407D01*
X158512305Y-88344850D01*
X158512919Y-88265000D01*
X158502047Y-87976439D01*
X158465213Y-87747916D01*
X158395269Y-87556921D01*
X158285067Y-87380943D01*
X158198748Y-87275588D01*
X158062482Y-87120389D01*
X158180082Y-86941278D01*
X158263140Y-86830821D01*
X158377905Y-86698822D01*
X158509381Y-86560102D01*
X158642573Y-86429482D01*
X158762485Y-86321784D01*
X158854123Y-86251831D01*
X158896659Y-86233000D01*
X158937500Y-86267438D01*
X159010618Y-86361580D01*
X159106197Y-86501669D01*
X159214421Y-86673946D01*
X159231481Y-86702287D01*
X159512362Y-87171573D01*
X159322572Y-87393724D01*
X159199482Y-87556371D01*
X159080887Y-87743094D01*
X159015475Y-87866354D01*
X158956022Y-88005813D01*
X158920544Y-88131718D01*
X158903216Y-88275418D01*
X158898215Y-88468262D01*
X158898167Y-88497834D01*
X158902142Y-88700317D01*
X158917825Y-88849315D01*
X158950855Y-88975792D01*
X159006870Y-89110711D01*
X159011623Y-89120898D01*
X159106398Y-89288551D01*
X159231298Y-89465946D01*
X159321302Y-89572742D01*
X159517525Y-89782521D01*
X159447660Y-89917625D01*
X159406570Y-90015955D01*
X159410784Y-90074956D01*
X159467721Y-90096091D01*
X159584798Y-90080821D01*
X159769432Y-90030610D01*
X159866543Y-90000212D01*
X160105487Y-89911680D01*
X160307199Y-89813577D01*
X160459474Y-89713545D01*
X160550103Y-89619223D01*
X160570334Y-89559702D01*
X160603322Y-89489493D01*
X160686351Y-89399664D01*
X160795516Y-89311834D01*
X160906912Y-89247620D01*
X160922339Y-89241360D01*
X161089679Y-89200332D01*
X161224202Y-89226095D01*
X161351374Y-89324023D01*
X161360845Y-89333917D01*
X161481608Y-89480854D01*
X161593258Y-89659583D01*
X161699801Y-89879773D01*
X161805244Y-90151093D01*
X161913591Y-90483211D01*
X162028851Y-90885797D01*
X162074537Y-91056395D01*
X162127556Y-91267811D01*
X162159678Y-91434565D01*
X162174250Y-91589950D01*
X162174617Y-91767264D01*
X162165941Y-91966087D01*
X162111710Y-92469189D01*
X162002440Y-92918831D01*
X161833034Y-93329922D01*
X161598396Y-93717371D01*
X161539631Y-93798096D01*
X161421365Y-93947793D01*
X161310951Y-94063042D01*
X161184621Y-94164066D01*
X161018609Y-94271089D01*
X160905467Y-94337701D01*
X160668788Y-94470485D01*
X160464905Y-94572225D01*
X160274440Y-94648383D01*
X160078015Y-94704425D01*
X159856251Y-94745815D01*
X159589769Y-94778017D01*
X159259191Y-94806495D01*
X159236834Y-94808209D01*
X158281164Y-94854087D01*
X157269240Y-94849809D01*
X156527500Y-94817214D01*
X156259289Y-94797225D01*
X155978775Y-94769309D01*
X155716624Y-94736934D01*
X155503501Y-94703564D01*
X155475932Y-94698351D01*
X155266375Y-94653551D01*
X155112074Y-94607940D01*
X154984289Y-94550101D01*
X154854277Y-94468616D01*
X154798599Y-94429286D01*
X154575891Y-94254165D01*
X154367518Y-94063196D01*
X154191894Y-93874837D01*
X154067434Y-93707546D01*
X154051533Y-93680463D01*
X153844573Y-93285448D01*
X153694357Y-92939753D01*
X153599363Y-92631268D01*
X153558070Y-92347883D01*
X153568956Y-92077486D01*
X153630501Y-91807969D01*
X153741183Y-91527220D01*
X153772752Y-91461167D01*
X153861695Y-91299919D01*
X153972794Y-91139076D01*
X154116518Y-90966300D01*
X154303337Y-90769253D01*
X154543721Y-90535597D01*
X154615412Y-90468146D01*
X154798871Y-90283587D01*
X154915645Y-90129269D01*
X154970890Y-89990630D01*
X154969762Y-89853105D01*
X154917416Y-89702133D01*
X154899523Y-89665639D01*
X154775571Y-89483289D01*
X154604050Y-89341365D01*
X154369511Y-89228225D01*
X154274663Y-89194898D01*
X153928753Y-89053463D01*
X153628184Y-88873677D01*
X153389386Y-88665957D01*
X153328566Y-88595119D01*
X153209844Y-88414481D01*
X153164861Y-88260963D01*
X153191533Y-88124012D01*
X153224422Y-88067720D01*
X153263669Y-88025530D01*
X153322573Y-87997372D01*
X153419109Y-87979208D01*
X153550451Y-87968667D01*
X155575000Y-87968667D01*
X155603757Y-88058396D01*
X155673515Y-88155578D01*
X155678909Y-88161091D01*
X155774982Y-88232667D01*
X155866599Y-88264861D01*
X155871334Y-88265000D01*
X155961062Y-88236244D01*
X156058245Y-88166485D01*
X156063758Y-88161091D01*
X156135334Y-88065019D01*
X156167527Y-87973401D01*
X156167667Y-87968667D01*
X156138910Y-87878938D01*
X156069152Y-87781756D01*
X156063758Y-87776243D01*
X155967685Y-87704666D01*
X155876068Y-87672473D01*
X155871334Y-87672334D01*
X155781605Y-87701090D01*
X155684422Y-87770848D01*
X155678909Y-87776243D01*
X155607333Y-87872315D01*
X155575140Y-87963932D01*
X155575000Y-87968667D01*
X153550451Y-87968667D01*
X153571247Y-87966998D01*
X153700672Y-87960676D01*
G37*
D12*
X153700672Y-87960676D02*
X153956736Y-87941906D01*
X154141148Y-87909856D01*
X154258534Y-87866620D01*
X154455499Y-87743381D01*
X154660502Y-87584050D01*
X154840489Y-87415714D01*
X154921410Y-87323339D01*
X155051940Y-87187736D01*
X155227674Y-87045142D01*
X155420542Y-86915188D01*
X155602474Y-86817507D01*
X155694561Y-86782599D01*
X155921408Y-86733040D01*
X156195382Y-86697889D01*
X156484291Y-86679230D01*
X156755948Y-86679141D01*
X156977735Y-86699634D01*
X157347178Y-86797292D01*
X157674383Y-86955026D01*
X157950134Y-87166049D01*
X158165216Y-87423576D01*
X158290401Y-87666107D01*
X158364879Y-87950477D01*
X158388973Y-88276945D01*
X158362677Y-88619559D01*
X158290788Y-88937092D01*
X158237862Y-89096562D01*
X158181574Y-89234193D01*
X158111473Y-89368412D01*
X158017111Y-89517646D01*
X157888039Y-89700321D01*
X157759790Y-89873543D01*
X157656253Y-90016296D01*
X157575727Y-90135640D01*
X157529596Y-90214277D01*
X157522982Y-90233376D01*
X157563484Y-90332711D01*
X157669067Y-90411305D01*
X157820700Y-90458107D01*
X157924138Y-90466334D01*
X158036652Y-90458186D01*
X158171439Y-90437437D01*
X158302836Y-90409626D01*
X158405185Y-90380294D01*
X158452824Y-90354978D01*
X158453667Y-90352016D01*
X158429366Y-90310834D01*
X158366932Y-90226018D01*
X158311880Y-90155958D01*
X158212846Y-90025277D01*
X158124305Y-89896264D01*
X158094281Y-89847326D01*
X158018469Y-89715151D01*
X158172052Y-89466326D01*
X158330270Y-89183029D01*
X158433644Y-88923095D01*
X158491284Y-88654407D01*
X158512305Y-88344850D01*
X158512919Y-88265000D01*
X158502047Y-87976439D01*
X158465213Y-87747916D01*
X158395269Y-87556921D01*
X158285067Y-87380943D01*
X158198748Y-87275588D01*
X158062482Y-87120389D01*
X158180082Y-86941278D01*
X158263140Y-86830821D01*
X158377905Y-86698822D01*
X158509381Y-86560102D01*
X158642573Y-86429482D01*
X158762485Y-86321784D01*
X158854123Y-86251831D01*
X158896659Y-86233000D01*
X158937500Y-86267438D01*
X159010618Y-86361580D01*
X159106197Y-86501669D01*
X159214421Y-86673946D01*
X159231481Y-86702287D01*
X159512362Y-87171573D01*
X159322572Y-87393724D01*
X159199482Y-87556371D01*
X159080887Y-87743094D01*
X159015475Y-87866354D01*
X158956022Y-88005813D01*
X158920544Y-88131718D01*
X158903216Y-88275418D01*
X158898215Y-88468262D01*
X158898167Y-88497834D01*
X158902142Y-88700317D01*
X158917825Y-88849315D01*
X158950855Y-88975792D01*
X159006870Y-89110711D01*
X159011623Y-89120898D01*
X159106398Y-89288551D01*
X159231298Y-89465946D01*
X159321302Y-89572742D01*
X159517525Y-89782521D01*
X159447660Y-89917625D01*
X159406570Y-90015955D01*
X159410784Y-90074956D01*
X159467721Y-90096091D01*
X159584798Y-90080821D01*
X159769432Y-90030610D01*
X159866543Y-90000212D01*
X160105487Y-89911680D01*
X160307199Y-89813577D01*
X160459474Y-89713545D01*
X160550103Y-89619223D01*
X160570334Y-89559702D01*
X160603322Y-89489493D01*
X160686351Y-89399664D01*
X160795516Y-89311834D01*
X160906912Y-89247620D01*
X160922339Y-89241360D01*
X161089679Y-89200332D01*
X161224202Y-89226095D01*
X161351374Y-89324023D01*
X161360845Y-89333917D01*
X161481608Y-89480854D01*
X161593258Y-89659583D01*
X161699801Y-89879773D01*
X161805244Y-90151093D01*
X161913591Y-90483211D01*
X162028851Y-90885797D01*
X162074537Y-91056395D01*
X162127556Y-91267811D01*
X162159678Y-91434565D01*
X162174250Y-91589950D01*
X162174617Y-91767264D01*
X162165941Y-91966087D01*
X162111710Y-92469189D01*
X162002440Y-92918831D01*
X161833034Y-93329922D01*
X161598396Y-93717371D01*
X161539631Y-93798096D01*
X161421365Y-93947793D01*
X161310951Y-94063042D01*
X161184621Y-94164066D01*
X161018609Y-94271089D01*
X160905467Y-94337701D01*
X160668788Y-94470485D01*
X160464905Y-94572225D01*
X160274440Y-94648383D01*
X160078015Y-94704425D01*
X159856251Y-94745815D01*
X159589769Y-94778017D01*
X159259191Y-94806495D01*
X159236834Y-94808209D01*
X158281164Y-94854087D01*
X157269240Y-94849809D01*
X156527500Y-94817214D01*
X156259289Y-94797225D01*
X155978775Y-94769309D01*
X155716624Y-94736934D01*
X155503501Y-94703564D01*
X155475932Y-94698351D01*
X155266375Y-94653551D01*
X155112074Y-94607940D01*
X154984289Y-94550101D01*
X154854277Y-94468616D01*
X154798599Y-94429286D01*
X154575891Y-94254165D01*
X154367518Y-94063196D01*
X154191894Y-93874837D01*
X154067434Y-93707546D01*
X154051533Y-93680463D01*
X153844573Y-93285448D01*
X153694357Y-92939753D01*
X153599363Y-92631268D01*
X153558070Y-92347883D01*
X153568956Y-92077486D01*
X153630501Y-91807969D01*
X153741183Y-91527220D01*
X153772752Y-91461167D01*
X153861695Y-91299919D01*
X153972794Y-91139076D01*
X154116518Y-90966300D01*
X154303337Y-90769253D01*
X154543721Y-90535597D01*
X154615412Y-90468146D01*
X154798871Y-90283587D01*
X154915645Y-90129269D01*
X154970890Y-89990630D01*
X154969762Y-89853105D01*
X154917416Y-89702133D01*
X154899523Y-89665639D01*
X154775571Y-89483289D01*
X154604050Y-89341365D01*
X154369511Y-89228225D01*
X154274663Y-89194898D01*
X153928753Y-89053463D01*
X153628184Y-88873677D01*
X153389386Y-88665957D01*
X153328566Y-88595119D01*
X153209844Y-88414481D01*
X153164861Y-88260963D01*
X153191533Y-88124012D01*
X153224422Y-88067720D01*
X153263669Y-88025530D01*
X153322573Y-87997372D01*
X153419109Y-87979208D01*
X153550451Y-87968667D01*
X155575000Y-87968667D01*
X155603757Y-88058396D01*
X155673515Y-88155578D01*
X155678909Y-88161091D01*
X155774982Y-88232667D01*
X155866599Y-88264861D01*
X155871334Y-88265000D01*
X155961062Y-88236244D01*
X156058245Y-88166485D01*
X156063758Y-88161091D01*
X156135334Y-88065019D01*
X156167527Y-87973401D01*
X156167667Y-87968667D01*
X156138910Y-87878938D01*
X156069152Y-87781756D01*
X156063758Y-87776243D01*
X155967685Y-87704666D01*
X155876068Y-87672473D01*
X155871334Y-87672334D01*
X155781605Y-87701090D01*
X155684422Y-87770848D01*
X155678909Y-87776243D01*
X155607333Y-87872315D01*
X155575140Y-87963932D01*
X155575000Y-87968667D01*
X153550451Y-87968667D01*
X153571247Y-87966998D01*
X153700672Y-87960676D01*
G36*
X162329418Y-90564332D02*
G01*
X162535017Y-90636547D01*
X162699373Y-90769132D01*
X162815367Y-90944970D01*
X162875880Y-91146945D01*
X162873795Y-91357942D01*
X162801993Y-91560845D01*
X162766849Y-91616099D01*
X162673886Y-91714790D01*
X162555040Y-91801723D01*
X162442207Y-91855529D01*
X162397776Y-91863334D01*
X162376680Y-91824313D01*
X162354372Y-91720210D01*
X162334611Y-91570462D01*
X162328523Y-91505290D01*
X162300052Y-91281301D01*
X162257328Y-91093095D01*
X162217682Y-90988339D01*
X162166400Y-90872464D01*
X162138416Y-90779501D01*
X162136667Y-90762182D01*
X162108441Y-90673242D01*
X162087255Y-90645521D01*
X162070500Y-90596288D01*
X162122326Y-90564229D01*
X162227510Y-90554446D01*
X162329418Y-90564332D01*
G37*
X162329418Y-90564332D02*
X162535017Y-90636547D01*
X162699373Y-90769132D01*
X162815367Y-90944970D01*
X162875880Y-91146945D01*
X162873795Y-91357942D01*
X162801993Y-91560845D01*
X162766849Y-91616099D01*
X162673886Y-91714790D01*
X162555040Y-91801723D01*
X162442207Y-91855529D01*
X162397776Y-91863334D01*
X162376680Y-91824313D01*
X162354372Y-91720210D01*
X162334611Y-91570462D01*
X162328523Y-91505290D01*
X162300052Y-91281301D01*
X162257328Y-91093095D01*
X162217682Y-90988339D01*
X162166400Y-90872464D01*
X162138416Y-90779501D01*
X162136667Y-90762182D01*
X162108441Y-90673242D01*
X162087255Y-90645521D01*
X162070500Y-90596288D01*
X162122326Y-90564229D01*
X162227510Y-90554446D01*
X162329418Y-90564332D01*
G36*
X163048670Y-88710050D02*
G01*
X163205627Y-88713182D01*
X163305316Y-88721125D01*
X163361436Y-88736105D01*
X163387687Y-88760347D01*
X163397767Y-88796080D01*
X163398860Y-88803468D01*
X163393673Y-88963854D01*
X163346480Y-89173459D01*
X163264997Y-89412974D01*
X163156939Y-89663089D01*
X163030022Y-89904495D01*
X162891962Y-90117883D01*
X162853278Y-90168819D01*
X162753695Y-90291171D01*
X162687435Y-90356094D01*
X162636912Y-90373812D01*
X162584543Y-90354547D01*
X162560000Y-90339334D01*
X162483871Y-90316267D01*
X162356541Y-90301087D01*
X162260734Y-90297648D01*
X162024968Y-90297000D01*
X161887468Y-89984123D01*
X161749969Y-89671246D01*
X161918188Y-89448990D01*
X162026745Y-89280377D01*
X162125221Y-89085578D01*
X162171200Y-88968117D01*
X162255992Y-88709500D01*
X162820746Y-88709500D01*
X163048670Y-88710050D01*
G37*
X163048670Y-88710050D02*
X163205627Y-88713182D01*
X163305316Y-88721125D01*
X163361436Y-88736105D01*
X163387687Y-88760347D01*
X163397767Y-88796080D01*
X163398860Y-88803468D01*
X163393673Y-88963854D01*
X163346480Y-89173459D01*
X163264997Y-89412974D01*
X163156939Y-89663089D01*
X163030022Y-89904495D01*
X162891962Y-90117883D01*
X162853278Y-90168819D01*
X162753695Y-90291171D01*
X162687435Y-90356094D01*
X162636912Y-90373812D01*
X162584543Y-90354547D01*
X162560000Y-90339334D01*
X162483871Y-90316267D01*
X162356541Y-90301087D01*
X162260734Y-90297648D01*
X162024968Y-90297000D01*
X161887468Y-89984123D01*
X161749969Y-89671246D01*
X161918188Y-89448990D01*
X162026745Y-89280377D01*
X162125221Y-89085578D01*
X162171200Y-88968117D01*
X162255992Y-88709500D01*
X162820746Y-88709500D01*
X163048670Y-88710050D01*
G36*
X160780995Y-85702517D02*
G01*
X160972242Y-85723734D01*
X161096686Y-85747569D01*
X161171906Y-85783564D01*
X161215482Y-85841259D01*
X161244993Y-85930196D01*
X161252187Y-85958246D01*
X161337062Y-86156208D01*
X161479182Y-86348378D01*
X161654289Y-86506040D01*
X161774471Y-86576487D01*
X161945004Y-86627489D01*
X162152631Y-86652585D01*
X162359743Y-86649927D01*
X162528729Y-86617670D01*
X162538816Y-86614007D01*
X162618388Y-86594977D01*
X162682829Y-86620520D01*
X162763754Y-86703178D01*
X162763822Y-86703256D01*
X162984032Y-87004563D01*
X163170853Y-87351042D01*
X163310908Y-87713667D01*
X163390818Y-88063411D01*
X163390886Y-88063917D01*
X163418175Y-88265000D01*
X162301680Y-88265000D01*
X162238917Y-88106250D01*
X162078272Y-87753967D01*
X161899496Y-87473515D01*
X161691954Y-87252387D01*
X161445007Y-87078081D01*
X161300695Y-87003293D01*
X161173982Y-86948819D01*
X161058590Y-86914854D01*
X160927363Y-86896750D01*
X160753146Y-86889861D01*
X160633834Y-86889167D01*
X160437250Y-86892515D01*
X160258858Y-86901504D01*
X160124762Y-86914548D01*
X160079586Y-86922816D01*
X160024913Y-86934461D01*
X159980055Y-86929806D01*
X159934797Y-86898028D01*
X159878925Y-86828307D01*
X159802224Y-86709821D01*
X159694477Y-86531748D01*
X159666836Y-86485581D01*
X159561267Y-86306679D01*
X159473708Y-86153500D01*
X159412391Y-86040800D01*
X159385546Y-85983338D01*
X159385000Y-85980279D01*
X159424579Y-85932406D01*
X159532709Y-85881822D01*
X159693476Y-85831692D01*
X159890970Y-85785183D01*
X160109277Y-85745460D01*
X160332486Y-85715691D01*
X160544685Y-85699040D01*
X160729961Y-85698674D01*
X160780995Y-85702517D01*
G37*
X160780995Y-85702517D02*
X160972242Y-85723734D01*
X161096686Y-85747569D01*
X161171906Y-85783564D01*
X161215482Y-85841259D01*
X161244993Y-85930196D01*
X161252187Y-85958246D01*
X161337062Y-86156208D01*
X161479182Y-86348378D01*
X161654289Y-86506040D01*
X161774471Y-86576487D01*
X161945004Y-86627489D01*
X162152631Y-86652585D01*
X162359743Y-86649927D01*
X162528729Y-86617670D01*
X162538816Y-86614007D01*
X162618388Y-86594977D01*
X162682829Y-86620520D01*
X162763754Y-86703178D01*
X162763822Y-86703256D01*
X162984032Y-87004563D01*
X163170853Y-87351042D01*
X163310908Y-87713667D01*
X163390818Y-88063411D01*
X163390886Y-88063917D01*
X163418175Y-88265000D01*
X162301680Y-88265000D01*
X162238917Y-88106250D01*
X162078272Y-87753967D01*
X161899496Y-87473515D01*
X161691954Y-87252387D01*
X161445007Y-87078081D01*
X161300695Y-87003293D01*
X161173982Y-86948819D01*
X161058590Y-86914854D01*
X160927363Y-86896750D01*
X160753146Y-86889861D01*
X160633834Y-86889167D01*
X160437250Y-86892515D01*
X160258858Y-86901504D01*
X160124762Y-86914548D01*
X160079586Y-86922816D01*
X160024913Y-86934461D01*
X159980055Y-86929806D01*
X159934797Y-86898028D01*
X159878925Y-86828307D01*
X159802224Y-86709821D01*
X159694477Y-86531748D01*
X159666836Y-86485581D01*
X159561267Y-86306679D01*
X159473708Y-86153500D01*
X159412391Y-86040800D01*
X159385546Y-85983338D01*
X159385000Y-85980279D01*
X159424579Y-85932406D01*
X159532709Y-85881822D01*
X159693476Y-85831692D01*
X159890970Y-85785183D01*
X160109277Y-85745460D01*
X160332486Y-85715691D01*
X160544685Y-85699040D01*
X160729961Y-85698674D01*
X160780995Y-85702517D01*
G36*
X162310236Y-85068693D02*
G01*
X162521003Y-85151287D01*
X162646886Y-85245208D01*
X162799517Y-85430817D01*
X162878879Y-85636862D01*
X162883405Y-85848719D01*
X162811525Y-86051765D01*
X162743773Y-86148608D01*
X162562074Y-86305460D01*
X162350221Y-86389535D01*
X162123748Y-86396707D01*
X161967355Y-86354774D01*
X161771878Y-86233928D01*
X161632389Y-86055415D01*
X161556243Y-85830871D01*
X161544000Y-85684891D01*
X161552331Y-85545255D01*
X161588165Y-85442146D01*
X161667767Y-85334812D01*
X161696728Y-85302192D01*
X161887111Y-85144805D01*
X162095276Y-85066752D01*
X162310236Y-85068693D01*
G37*
X162310236Y-85068693D02*
X162521003Y-85151287D01*
X162646886Y-85245208D01*
X162799517Y-85430817D01*
X162878879Y-85636862D01*
X162883405Y-85848719D01*
X162811525Y-86051765D01*
X162743773Y-86148608D01*
X162562074Y-86305460D01*
X162350221Y-86389535D01*
X162123748Y-86396707D01*
X161967355Y-86354774D01*
X161771878Y-86233928D01*
X161632389Y-86055415D01*
X161556243Y-85830871D01*
X161544000Y-85684891D01*
X161552331Y-85545255D01*
X161588165Y-85442146D01*
X161667767Y-85334812D01*
X161696728Y-85302192D01*
X161887111Y-85144805D01*
X162095276Y-85066752D01*
X162310236Y-85068693D01*
D13*
%TO.C,U2*%
X163385000Y-69175000D02*
X147495000Y-69175000D01*
X163385000Y-69175000D02*
X163385000Y-79415000D01*
X163385000Y-79415000D02*
X147495000Y-79415000D01*
X147495000Y-69175000D02*
X147495000Y-79415000D01*
X147495000Y-74295000D02*
X144955000Y-74295000D01*
X147495000Y-76835000D02*
X144955000Y-76835000D01*
X147495000Y-71755000D02*
X144955000Y-71755000D01*
%TO.C,J2*%
X130490000Y-72965000D02*
X130490000Y-74295000D01*
X127890000Y-75625000D02*
X110050000Y-75625000D01*
X129160000Y-72965000D02*
X130490000Y-72965000D01*
X127890000Y-72965000D02*
X110050000Y-72965000D01*
X110050000Y-72965000D02*
X110050000Y-75625000D01*
X127890000Y-72965000D02*
X127890000Y-75625000D01*
%TO.C,J1*%
X112650000Y-90865000D02*
X112650000Y-88205000D01*
X130490000Y-90865000D02*
X130490000Y-88205000D01*
X112650000Y-90865000D02*
X130490000Y-90865000D01*
X111380000Y-90865000D02*
X110050000Y-90865000D01*
X112650000Y-88205000D02*
X130490000Y-88205000D01*
X110050000Y-90865000D02*
X110050000Y-89535000D01*
%TO.C,U1*%
G36*
X112015000Y-95885000D02*
G01*
X110745000Y-95885000D01*
X111380000Y-95250000D01*
X112015000Y-95885000D01*
G37*
D10*
X112015000Y-95885000D02*
X110745000Y-95885000D01*
X111380000Y-95250000D01*
X112015000Y-95885000D01*
D13*
X103040000Y-92715000D02*
G75*
G03*
X105170000Y-94845000I2130002J2D01*
G01*
X105170000Y-68985000D02*
G75*
G03*
X103040000Y-71115000I0J-2130000D01*
G01*
X137500000Y-68985000D02*
X105170000Y-68985000D01*
X103040000Y-71105000D02*
X103040000Y-92715000D01*
X130600000Y-94845000D02*
X105170000Y-94845000D01*
X137500000Y-92305000D02*
X137500000Y-68985000D01*
X130600000Y-92305000D02*
X137500000Y-92305000D01*
X130600000Y-94845000D02*
X130600000Y-92305000D01*
%TO.C,R1*%
X125142258Y-78627500D02*
X124667742Y-78627500D01*
X125142258Y-77582500D02*
X124667742Y-77582500D01*
%TO.C,J14*%
X133420000Y-68480000D02*
X102940000Y-68480000D01*
X133420000Y-55980000D02*
X102940000Y-55980000D01*
X102940000Y-68480000D02*
X102940000Y-55980000D01*
X133420000Y-55980000D02*
X133420000Y-68480000D01*
%TO.C,J13*%
X163900000Y-68480000D02*
X133420000Y-68480000D01*
X163900000Y-55980000D02*
X133420000Y-55980000D01*
X133420000Y-68480000D02*
X133420000Y-55980000D01*
X163900000Y-55980000D02*
X163900000Y-68480000D01*
%TO.C,C4*%
X129300580Y-78615000D02*
X129019420Y-78615000D01*
X129300580Y-77595000D02*
X129019420Y-77595000D01*
%TO.C,C3*%
X139425000Y-77546252D02*
X139425000Y-76123748D01*
X141245000Y-77546252D02*
X141245000Y-76123748D01*
%TO.C,C2*%
X141245000Y-71043748D02*
X141245000Y-72466252D01*
X139425000Y-71043748D02*
X139425000Y-72466252D01*
%TO.C,C1*%
X144180113Y-82550000D02*
G75*
G03*
X144180113Y-82550000I-2620000J0D01*
G01*
X139599113Y-84249000D02*
X139599113Y-83590000D01*
X140920113Y-85051000D02*
X140920113Y-83590000D01*
X141520113Y-85130000D02*
X141520113Y-83590000D01*
X139799113Y-81510000D02*
X139799113Y-80649000D01*
X139959113Y-81510000D02*
X139959113Y-80515000D01*
X141000113Y-85070000D02*
X141000113Y-83590000D01*
X141080113Y-81510000D02*
X141080113Y-80014000D01*
X139879113Y-81510000D02*
X139879113Y-80579000D01*
X141160113Y-85100000D02*
X141160113Y-83590000D01*
X144114888Y-84275000D02*
X144114888Y-83775000D01*
X140239113Y-84774000D02*
X140239113Y-83590000D01*
X140920113Y-81510000D02*
X140920113Y-80049000D01*
X141120113Y-85093000D02*
X141120113Y-83590000D01*
X139839113Y-84487000D02*
X139839113Y-83590000D01*
X141320113Y-85119000D02*
X141320113Y-83590000D01*
X140359113Y-84840000D02*
X140359113Y-83590000D01*
X140159113Y-84725000D02*
X140159113Y-83590000D01*
X140119113Y-81510000D02*
X140119113Y-80401000D01*
X139919113Y-84554000D02*
X139919113Y-83590000D01*
X140839113Y-85030000D02*
X140839113Y-83590000D01*
X139679113Y-81510000D02*
X139679113Y-80765000D01*
X140880113Y-81510000D02*
X140880113Y-80059000D01*
X141480113Y-81510000D02*
X141480113Y-79971000D01*
X141280113Y-81510000D02*
X141280113Y-79985000D01*
X140759113Y-81510000D02*
X140759113Y-80095000D01*
X139719113Y-81510000D02*
X139719113Y-80724000D01*
X139399113Y-83993000D02*
X139399113Y-81107000D01*
X141120113Y-81510000D02*
X141120113Y-80007000D01*
X141200113Y-85106000D02*
X141200113Y-83590000D01*
X140719113Y-84992000D02*
X140719113Y-83590000D01*
X141040113Y-81510000D02*
X141040113Y-80022000D01*
X140799113Y-81510000D02*
X140799113Y-80082000D01*
X140079113Y-81510000D02*
X140079113Y-80428000D01*
X139519113Y-84155000D02*
X139519113Y-80945000D01*
X139959113Y-84585000D02*
X139959113Y-83590000D01*
X139639113Y-84293000D02*
X139639113Y-83590000D01*
X140199113Y-81510000D02*
X140199113Y-80350000D01*
X139239113Y-83728000D02*
X139239113Y-81372000D01*
X140279113Y-84797000D02*
X140279113Y-83590000D01*
X140599113Y-84948000D02*
X140599113Y-83590000D01*
X139359113Y-83933000D02*
X139359113Y-81167000D01*
X139319113Y-83869000D02*
X139319113Y-81231000D01*
X141160113Y-81510000D02*
X141160113Y-80000000D01*
X140399113Y-81510000D02*
X140399113Y-80240000D01*
X139839113Y-81510000D02*
X139839113Y-80613000D01*
X140960113Y-81510000D02*
X140960113Y-80039000D01*
X138959113Y-82834000D02*
X138959113Y-82266000D01*
X138999113Y-83068000D02*
X138999113Y-82032000D01*
X140439113Y-81510000D02*
X140439113Y-80221000D01*
X139759113Y-81510000D02*
X139759113Y-80686000D01*
X141360113Y-85123000D02*
X141360113Y-83590000D01*
X141480113Y-85129000D02*
X141480113Y-83590000D01*
X141280113Y-85115000D02*
X141280113Y-83590000D01*
X141440113Y-85128000D02*
X141440113Y-83590000D01*
X139199113Y-83648000D02*
X139199113Y-81452000D01*
X139639113Y-81510000D02*
X139639113Y-80807000D01*
X139759113Y-84414000D02*
X139759113Y-83590000D01*
X140199113Y-84750000D02*
X140199113Y-83590000D01*
X140359113Y-81510000D02*
X140359113Y-80260000D01*
X140079113Y-84672000D02*
X140079113Y-83590000D01*
X140759113Y-85005000D02*
X140759113Y-83590000D01*
X141560113Y-81510000D02*
X141560113Y-79970000D01*
X144364888Y-84025000D02*
X143864888Y-84025000D01*
X139119113Y-83465000D02*
X139119113Y-81635000D01*
X139479113Y-84104000D02*
X139479113Y-80996000D01*
X139159113Y-83561000D02*
X139159113Y-81539000D01*
X140880113Y-85041000D02*
X140880113Y-83590000D01*
X140559113Y-84932000D02*
X140559113Y-83590000D01*
X141400113Y-81510000D02*
X141400113Y-79974000D01*
X140599113Y-81510000D02*
X140599113Y-80152000D01*
X140639113Y-81510000D02*
X140639113Y-80136000D01*
X141240113Y-81510000D02*
X141240113Y-79989000D01*
X140039113Y-84645000D02*
X140039113Y-83590000D01*
X139679113Y-84335000D02*
X139679113Y-83590000D01*
X140319113Y-81510000D02*
X140319113Y-80282000D01*
X140479113Y-84898000D02*
X140479113Y-83590000D01*
X140679113Y-81510000D02*
X140679113Y-80122000D01*
X140559113Y-81510000D02*
X140559113Y-80168000D01*
X140799113Y-85018000D02*
X140799113Y-83590000D01*
X140039113Y-81510000D02*
X140039113Y-80455000D01*
X139999113Y-81510000D02*
X139999113Y-80485000D01*
X139039113Y-83227000D02*
X139039113Y-81873000D01*
X140479113Y-81510000D02*
X140479113Y-80202000D01*
X141200113Y-81510000D02*
X141200113Y-79994000D01*
X139439113Y-84050000D02*
X139439113Y-81050000D01*
X139279113Y-83801000D02*
X139279113Y-81299000D01*
X139079113Y-83355000D02*
X139079113Y-81745000D01*
X141080113Y-85086000D02*
X141080113Y-83590000D01*
X140519113Y-84915000D02*
X140519113Y-83590000D01*
X141240113Y-85111000D02*
X141240113Y-83590000D01*
X141560113Y-85130000D02*
X141560113Y-83590000D01*
X140519113Y-81510000D02*
X140519113Y-80185000D01*
X139559113Y-84203000D02*
X139559113Y-83590000D01*
X139719113Y-84376000D02*
X139719113Y-83590000D01*
X140119113Y-84699000D02*
X140119113Y-83590000D01*
X141040113Y-85078000D02*
X141040113Y-83590000D01*
X141440113Y-81510000D02*
X141440113Y-79972000D01*
X140159113Y-81510000D02*
X140159113Y-80375000D01*
X140279113Y-81510000D02*
X140279113Y-80303000D01*
X141000113Y-81510000D02*
X141000113Y-80030000D01*
X140719113Y-81510000D02*
X140719113Y-80108000D01*
X141320113Y-81510000D02*
X141320113Y-79981000D01*
X140960113Y-85061000D02*
X140960113Y-83590000D01*
X139799113Y-84451000D02*
X139799113Y-83590000D01*
X140639113Y-84964000D02*
X140639113Y-83590000D01*
X140679113Y-84978000D02*
X140679113Y-83590000D01*
X140839113Y-81510000D02*
X140839113Y-80070000D01*
X141520113Y-81510000D02*
X141520113Y-79970000D01*
X139999113Y-84615000D02*
X139999113Y-83590000D01*
X141400113Y-85126000D02*
X141400113Y-83590000D01*
X139919113Y-81510000D02*
X139919113Y-80546000D01*
X139599113Y-81510000D02*
X139599113Y-80851000D01*
X139879113Y-84521000D02*
X139879113Y-83590000D01*
X140399113Y-84860000D02*
X140399113Y-83590000D01*
X140439113Y-84879000D02*
X140439113Y-83590000D01*
X140319113Y-84818000D02*
X140319113Y-83590000D01*
X141360113Y-81510000D02*
X141360113Y-79977000D01*
X140239113Y-81510000D02*
X140239113Y-80326000D01*
X139559113Y-81510000D02*
X139559113Y-80897000D01*
%TD*%
M02*
