%TF.GenerationSoftware,KiCad,Pcbnew,6.0.4-6f826c9f35~116~ubuntu18.04.1*%
%TF.CreationDate,2022-08-29T00:14:49+02:00*%
%TF.ProjectId,WS2815_D1Mini,57533238-3135-45f4-9431-4d696e692e6b,rev?*%
%TF.SameCoordinates,Original*%
%TF.FileFunction,Legend,Bot*%
%TF.FilePolarity,Positive*%
%FSLAX46Y46*%
G04 Gerber Fmt 4.6, Leading zero omitted, Abs format (unit mm)*
G04 Created by KiCad (PCBNEW 6.0.4-6f826c9f35~116~ubuntu18.04.1) date 2022-08-29 00:14:49*
%MOMM*%
%LPD*%
G01*
G04 APERTURE LIST*
%ADD10C,0.010000*%
G04 APERTURE END LIST*
%TO.C,LOGO2*%
G36*
X162763641Y-83736057D02*
G01*
X162851998Y-83778294D01*
X162910868Y-83841579D01*
X162960201Y-83926018D01*
X163000209Y-84131443D01*
X162932734Y-84361720D01*
X162754651Y-84632678D01*
X162663422Y-84738935D01*
X162305225Y-85050515D01*
X161854371Y-85320193D01*
X161335507Y-85532347D01*
X161193235Y-85582336D01*
X160841425Y-85752046D01*
X160584145Y-85964933D01*
X160398216Y-86238458D01*
X160371377Y-86293199D01*
X160292858Y-86519657D01*
X160291165Y-86725944D01*
X160374033Y-86933903D01*
X160549194Y-87165380D01*
X160824383Y-87442218D01*
X160931919Y-87543395D01*
X161292495Y-87893879D01*
X161572724Y-88189449D01*
X161788310Y-88448613D01*
X161954958Y-88689877D01*
X162088373Y-88931750D01*
X162135726Y-89030830D01*
X162301749Y-89451953D01*
X162394066Y-89856229D01*
X162410396Y-90261823D01*
X162348457Y-90686902D01*
X162205965Y-91149629D01*
X161980641Y-91668171D01*
X161670201Y-92260693D01*
X161646350Y-92301318D01*
X161459660Y-92552254D01*
X161196224Y-92834793D01*
X160883664Y-93121246D01*
X160549603Y-93383928D01*
X160466086Y-93442924D01*
X160271067Y-93565151D01*
X160079389Y-93651909D01*
X159847939Y-93720325D01*
X159533603Y-93787525D01*
X159492250Y-93795345D01*
X159172565Y-93845400D01*
X158779338Y-93893963D01*
X158358567Y-93935836D01*
X157956250Y-93965820D01*
X156843641Y-94014713D01*
X155325755Y-94021130D01*
X153892250Y-93952313D01*
X153858714Y-93949741D01*
X153362847Y-93907025D01*
X152963124Y-93858722D01*
X152630478Y-93796637D01*
X152335840Y-93712574D01*
X152050144Y-93598336D01*
X151744319Y-93445727D01*
X151389300Y-93246550D01*
X151219588Y-93146632D01*
X150970569Y-92986098D01*
X150781074Y-92834562D01*
X150615453Y-92661689D01*
X150438055Y-92437144D01*
X150349907Y-92316055D01*
X149997949Y-91734883D01*
X149743841Y-91118246D01*
X149579936Y-90443783D01*
X149498589Y-89689130D01*
X149485575Y-89390895D01*
X149486125Y-89124925D01*
X149507983Y-88891846D01*
X149556167Y-88641716D01*
X149635695Y-88324591D01*
X149704225Y-88068695D01*
X149877114Y-87464816D01*
X150039635Y-86966639D01*
X150197799Y-86559659D01*
X150357614Y-86229374D01*
X150525089Y-85961280D01*
X150706234Y-85740875D01*
X150720440Y-85726034D01*
X150911198Y-85579142D01*
X151112983Y-85540498D01*
X151363992Y-85602039D01*
X151387133Y-85611429D01*
X151554227Y-85707750D01*
X151717975Y-85839495D01*
X151842518Y-85974238D01*
X151892000Y-86079552D01*
X151922346Y-86168834D01*
X152058290Y-86310316D01*
X152286702Y-86460365D01*
X152589271Y-86607519D01*
X152947686Y-86740317D01*
X153093352Y-86785914D01*
X153370304Y-86861231D01*
X153545919Y-86884135D01*
X153631324Y-86852433D01*
X153637646Y-86763932D01*
X153576010Y-86616436D01*
X153471213Y-86413780D01*
X153765548Y-86099112D01*
X153900554Y-85938918D01*
X154087904Y-85672826D01*
X154230067Y-85421347D01*
X154237196Y-85406065D01*
X154321218Y-85203687D01*
X154370763Y-85013972D01*
X154394288Y-84790474D01*
X154400250Y-84486750D01*
X154400178Y-84442392D01*
X154392677Y-84153127D01*
X154366685Y-83937576D01*
X154313468Y-83748719D01*
X154224289Y-83539531D01*
X154126170Y-83354640D01*
X153948278Y-83074555D01*
X153763642Y-82830586D01*
X153478958Y-82497359D01*
X153900279Y-81793429D01*
X153925870Y-81750919D01*
X154088206Y-81492503D01*
X154231574Y-81282370D01*
X154341251Y-81141157D01*
X154402512Y-81089500D01*
X154466317Y-81117745D01*
X154603773Y-81222676D01*
X154783641Y-81384222D01*
X154983429Y-81580152D01*
X155180643Y-81788232D01*
X155352790Y-81986231D01*
X155477378Y-82151916D01*
X155653778Y-82420583D01*
X155449379Y-82653381D01*
X155319900Y-82811414D01*
X155154598Y-83075381D01*
X155049682Y-83361873D01*
X154994430Y-83704657D01*
X154978122Y-84137500D01*
X154979043Y-84257275D01*
X155010574Y-84721610D01*
X155097035Y-85124641D01*
X155252095Y-85514543D01*
X155489422Y-85939488D01*
X155719798Y-86312726D01*
X155606080Y-86510988D01*
X155561043Y-86584396D01*
X155428232Y-86777915D01*
X155279681Y-86973936D01*
X155197103Y-87079026D01*
X155103452Y-87206250D01*
X155067000Y-87268023D01*
X155068265Y-87272467D01*
X155139724Y-87310440D01*
X155293246Y-87354439D01*
X155490343Y-87396155D01*
X155692522Y-87427278D01*
X155861294Y-87439500D01*
X156016451Y-87427160D01*
X156243901Y-87356956D01*
X156402275Y-87239065D01*
X156463028Y-87090063D01*
X156453106Y-87061415D01*
X156383911Y-86943459D01*
X156263122Y-86764443D01*
X156107815Y-86550313D01*
X155915442Y-86290481D01*
X155721835Y-86016468D01*
X155580292Y-85792617D01*
X155475140Y-85591288D01*
X155390707Y-85384842D01*
X155311319Y-85145637D01*
X155203485Y-84669338D01*
X155164041Y-84155417D01*
X155198169Y-83693000D01*
X158496000Y-83693000D01*
X158496210Y-83700101D01*
X158544500Y-83837527D01*
X158651864Y-83981636D01*
X158660134Y-83989727D01*
X158805907Y-84094365D01*
X158940500Y-84137500D01*
X158947602Y-84137290D01*
X159085028Y-84089000D01*
X159229137Y-83981636D01*
X159237228Y-83973366D01*
X159341866Y-83827593D01*
X159385000Y-83693000D01*
X159384791Y-83685898D01*
X159336501Y-83548472D01*
X159229137Y-83404363D01*
X159220867Y-83396272D01*
X159075094Y-83291634D01*
X158940500Y-83248500D01*
X158933399Y-83248709D01*
X158795973Y-83296999D01*
X158651864Y-83404363D01*
X158643773Y-83412633D01*
X158539135Y-83558406D01*
X158496000Y-83693000D01*
X155198169Y-83693000D01*
X155200183Y-83665715D01*
X155311900Y-83239159D01*
X155499677Y-82875364D01*
X155822299Y-82489072D01*
X156235926Y-82172538D01*
X156726734Y-81935938D01*
X157280898Y-81789450D01*
X157613579Y-81758711D01*
X158021064Y-81758844D01*
X158454428Y-81786833D01*
X158865388Y-81839559D01*
X159205659Y-81913898D01*
X159343789Y-81966260D01*
X159616688Y-82112781D01*
X159905990Y-82307712D01*
X160169591Y-82521603D01*
X160365386Y-82725008D01*
X160486767Y-82863571D01*
X160756748Y-83116074D01*
X161064252Y-83355071D01*
X161359700Y-83539929D01*
X161535779Y-83604784D01*
X161812396Y-83652858D01*
X162196493Y-83681013D01*
X162390630Y-83690496D01*
X162421831Y-83693000D01*
X162618838Y-83708811D01*
X162763641Y-83736057D01*
G37*
D10*
X162763641Y-83736057D02*
X162851998Y-83778294D01*
X162910868Y-83841579D01*
X162960201Y-83926018D01*
X163000209Y-84131443D01*
X162932734Y-84361720D01*
X162754651Y-84632678D01*
X162663422Y-84738935D01*
X162305225Y-85050515D01*
X161854371Y-85320193D01*
X161335507Y-85532347D01*
X161193235Y-85582336D01*
X160841425Y-85752046D01*
X160584145Y-85964933D01*
X160398216Y-86238458D01*
X160371377Y-86293199D01*
X160292858Y-86519657D01*
X160291165Y-86725944D01*
X160374033Y-86933903D01*
X160549194Y-87165380D01*
X160824383Y-87442218D01*
X160931919Y-87543395D01*
X161292495Y-87893879D01*
X161572724Y-88189449D01*
X161788310Y-88448613D01*
X161954958Y-88689877D01*
X162088373Y-88931750D01*
X162135726Y-89030830D01*
X162301749Y-89451953D01*
X162394066Y-89856229D01*
X162410396Y-90261823D01*
X162348457Y-90686902D01*
X162205965Y-91149629D01*
X161980641Y-91668171D01*
X161670201Y-92260693D01*
X161646350Y-92301318D01*
X161459660Y-92552254D01*
X161196224Y-92834793D01*
X160883664Y-93121246D01*
X160549603Y-93383928D01*
X160466086Y-93442924D01*
X160271067Y-93565151D01*
X160079389Y-93651909D01*
X159847939Y-93720325D01*
X159533603Y-93787525D01*
X159492250Y-93795345D01*
X159172565Y-93845400D01*
X158779338Y-93893963D01*
X158358567Y-93935836D01*
X157956250Y-93965820D01*
X156843641Y-94014713D01*
X155325755Y-94021130D01*
X153892250Y-93952313D01*
X153858714Y-93949741D01*
X153362847Y-93907025D01*
X152963124Y-93858722D01*
X152630478Y-93796637D01*
X152335840Y-93712574D01*
X152050144Y-93598336D01*
X151744319Y-93445727D01*
X151389300Y-93246550D01*
X151219588Y-93146632D01*
X150970569Y-92986098D01*
X150781074Y-92834562D01*
X150615453Y-92661689D01*
X150438055Y-92437144D01*
X150349907Y-92316055D01*
X149997949Y-91734883D01*
X149743841Y-91118246D01*
X149579936Y-90443783D01*
X149498589Y-89689130D01*
X149485575Y-89390895D01*
X149486125Y-89124925D01*
X149507983Y-88891846D01*
X149556167Y-88641716D01*
X149635695Y-88324591D01*
X149704225Y-88068695D01*
X149877114Y-87464816D01*
X150039635Y-86966639D01*
X150197799Y-86559659D01*
X150357614Y-86229374D01*
X150525089Y-85961280D01*
X150706234Y-85740875D01*
X150720440Y-85726034D01*
X150911198Y-85579142D01*
X151112983Y-85540498D01*
X151363992Y-85602039D01*
X151387133Y-85611429D01*
X151554227Y-85707750D01*
X151717975Y-85839495D01*
X151842518Y-85974238D01*
X151892000Y-86079552D01*
X151922346Y-86168834D01*
X152058290Y-86310316D01*
X152286702Y-86460365D01*
X152589271Y-86607519D01*
X152947686Y-86740317D01*
X153093352Y-86785914D01*
X153370304Y-86861231D01*
X153545919Y-86884135D01*
X153631324Y-86852433D01*
X153637646Y-86763932D01*
X153576010Y-86616436D01*
X153471213Y-86413780D01*
X153765548Y-86099112D01*
X153900554Y-85938918D01*
X154087904Y-85672826D01*
X154230067Y-85421347D01*
X154237196Y-85406065D01*
X154321218Y-85203687D01*
X154370763Y-85013972D01*
X154394288Y-84790474D01*
X154400250Y-84486750D01*
X154400178Y-84442392D01*
X154392677Y-84153127D01*
X154366685Y-83937576D01*
X154313468Y-83748719D01*
X154224289Y-83539531D01*
X154126170Y-83354640D01*
X153948278Y-83074555D01*
X153763642Y-82830586D01*
X153478958Y-82497359D01*
X153900279Y-81793429D01*
X153925870Y-81750919D01*
X154088206Y-81492503D01*
X154231574Y-81282370D01*
X154341251Y-81141157D01*
X154402512Y-81089500D01*
X154466317Y-81117745D01*
X154603773Y-81222676D01*
X154783641Y-81384222D01*
X154983429Y-81580152D01*
X155180643Y-81788232D01*
X155352790Y-81986231D01*
X155477378Y-82151916D01*
X155653778Y-82420583D01*
X155449379Y-82653381D01*
X155319900Y-82811414D01*
X155154598Y-83075381D01*
X155049682Y-83361873D01*
X154994430Y-83704657D01*
X154978122Y-84137500D01*
X154979043Y-84257275D01*
X155010574Y-84721610D01*
X155097035Y-85124641D01*
X155252095Y-85514543D01*
X155489422Y-85939488D01*
X155719798Y-86312726D01*
X155606080Y-86510988D01*
X155561043Y-86584396D01*
X155428232Y-86777915D01*
X155279681Y-86973936D01*
X155197103Y-87079026D01*
X155103452Y-87206250D01*
X155067000Y-87268023D01*
X155068265Y-87272467D01*
X155139724Y-87310440D01*
X155293246Y-87354439D01*
X155490343Y-87396155D01*
X155692522Y-87427278D01*
X155861294Y-87439500D01*
X156016451Y-87427160D01*
X156243901Y-87356956D01*
X156402275Y-87239065D01*
X156463028Y-87090063D01*
X156453106Y-87061415D01*
X156383911Y-86943459D01*
X156263122Y-86764443D01*
X156107815Y-86550313D01*
X155915442Y-86290481D01*
X155721835Y-86016468D01*
X155580292Y-85792617D01*
X155475140Y-85591288D01*
X155390707Y-85384842D01*
X155311319Y-85145637D01*
X155203485Y-84669338D01*
X155164041Y-84155417D01*
X155198169Y-83693000D01*
X158496000Y-83693000D01*
X158496210Y-83700101D01*
X158544500Y-83837527D01*
X158651864Y-83981636D01*
X158660134Y-83989727D01*
X158805907Y-84094365D01*
X158940500Y-84137500D01*
X158947602Y-84137290D01*
X159085028Y-84089000D01*
X159229137Y-83981636D01*
X159237228Y-83973366D01*
X159341866Y-83827593D01*
X159385000Y-83693000D01*
X159384791Y-83685898D01*
X159336501Y-83548472D01*
X159229137Y-83404363D01*
X159220867Y-83396272D01*
X159075094Y-83291634D01*
X158940500Y-83248500D01*
X158933399Y-83248709D01*
X158795973Y-83296999D01*
X158651864Y-83404363D01*
X158643773Y-83412633D01*
X158539135Y-83558406D01*
X158496000Y-83693000D01*
X155198169Y-83693000D01*
X155200183Y-83665715D01*
X155311900Y-83239159D01*
X155499677Y-82875364D01*
X155822299Y-82489072D01*
X156235926Y-82172538D01*
X156726734Y-81935938D01*
X157280898Y-81789450D01*
X157613579Y-81758711D01*
X158021064Y-81758844D01*
X158454428Y-81786833D01*
X158865388Y-81839559D01*
X159205659Y-81913898D01*
X159343789Y-81966260D01*
X159616688Y-82112781D01*
X159905990Y-82307712D01*
X160169591Y-82521603D01*
X160365386Y-82725008D01*
X160486767Y-82863571D01*
X160756748Y-83116074D01*
X161064252Y-83355071D01*
X161359700Y-83539929D01*
X161535779Y-83604784D01*
X161812396Y-83652858D01*
X162196493Y-83681013D01*
X162390630Y-83690496D01*
X162421831Y-83693000D01*
X162618838Y-83708811D01*
X162763641Y-83736057D01*
G36*
X149564012Y-87586342D02*
G01*
X149641751Y-87634432D01*
X149616619Y-87708281D01*
X149584840Y-87749863D01*
X149542500Y-87883273D01*
X149539877Y-87909250D01*
X149497901Y-88048696D01*
X149420977Y-88222507D01*
X149361508Y-88379642D01*
X149297423Y-88661951D01*
X149254717Y-88997934D01*
X149245585Y-89095692D01*
X149215943Y-89320314D01*
X149182480Y-89476469D01*
X149150837Y-89535000D01*
X149084190Y-89523293D01*
X148914941Y-89442583D01*
X148736671Y-89312184D01*
X148597227Y-89164148D01*
X148544512Y-89081266D01*
X148436808Y-88776912D01*
X148433680Y-88460417D01*
X148524451Y-88157454D01*
X148698442Y-87893697D01*
X148944975Y-87694820D01*
X149253373Y-87586497D01*
X149406235Y-87571668D01*
X149564012Y-87586342D01*
G37*
X149564012Y-87586342D02*
X149641751Y-87634432D01*
X149616619Y-87708281D01*
X149584840Y-87749863D01*
X149542500Y-87883273D01*
X149539877Y-87909250D01*
X149497901Y-88048696D01*
X149420977Y-88222507D01*
X149361508Y-88379642D01*
X149297423Y-88661951D01*
X149254717Y-88997934D01*
X149245585Y-89095692D01*
X149215943Y-89320314D01*
X149182480Y-89476469D01*
X149150837Y-89535000D01*
X149084190Y-89523293D01*
X148914941Y-89442583D01*
X148736671Y-89312184D01*
X148597227Y-89164148D01*
X148544512Y-89081266D01*
X148436808Y-88776912D01*
X148433680Y-88460417D01*
X148524451Y-88157454D01*
X148698442Y-87893697D01*
X148944975Y-87694820D01*
X149253373Y-87586497D01*
X149406235Y-87571668D01*
X149564012Y-87586342D01*
G36*
X149490701Y-85192175D02*
G01*
X149559670Y-85368366D01*
X149707384Y-85660565D01*
X149870219Y-85913484D01*
X150122547Y-86246868D01*
X149710049Y-87185500D01*
X149356400Y-87186472D01*
X149212689Y-87191630D01*
X149021695Y-87214400D01*
X148907500Y-87249000D01*
X148870686Y-87271820D01*
X148792132Y-87300717D01*
X148716348Y-87274140D01*
X148616958Y-87176756D01*
X148467584Y-86993228D01*
X148409558Y-86916823D01*
X148202468Y-86596742D01*
X148012093Y-86234633D01*
X147850005Y-85859460D01*
X147727780Y-85500188D01*
X147656991Y-85185780D01*
X147649211Y-84945201D01*
X147650850Y-84934120D01*
X147665970Y-84880520D01*
X147705346Y-84844156D01*
X147789527Y-84821687D01*
X147939061Y-84809773D01*
X148174496Y-84805074D01*
X148516382Y-84804250D01*
X149363513Y-84804250D01*
X149490701Y-85192175D01*
G37*
X149490701Y-85192175D02*
X149559670Y-85368366D01*
X149707384Y-85660565D01*
X149870219Y-85913484D01*
X150122547Y-86246868D01*
X149710049Y-87185500D01*
X149356400Y-87186472D01*
X149212689Y-87191630D01*
X149021695Y-87214400D01*
X148907500Y-87249000D01*
X148870686Y-87271820D01*
X148792132Y-87300717D01*
X148716348Y-87274140D01*
X148616958Y-87176756D01*
X148467584Y-86993228D01*
X148409558Y-86916823D01*
X148202468Y-86596742D01*
X148012093Y-86234633D01*
X147850005Y-85859460D01*
X147727780Y-85500188D01*
X147656991Y-85185780D01*
X147649211Y-84945201D01*
X147650850Y-84934120D01*
X147665970Y-84880520D01*
X147705346Y-84844156D01*
X147789527Y-84821687D01*
X147939061Y-84809773D01*
X148174496Y-84805074D01*
X148516382Y-84804250D01*
X149363513Y-84804250D01*
X149490701Y-85192175D01*
G36*
X151930473Y-80288559D02*
G01*
X152248771Y-80313535D01*
X152583585Y-80358190D01*
X152911046Y-80417773D01*
X153207286Y-80487537D01*
X153448438Y-80562732D01*
X153610632Y-80638608D01*
X153670000Y-80710418D01*
X153669181Y-80715006D01*
X153628914Y-80801200D01*
X153536938Y-80970249D01*
X153405600Y-81200018D01*
X153247246Y-81468371D01*
X153205786Y-81537622D01*
X153044165Y-81804730D01*
X152929113Y-81982460D01*
X152845305Y-82087042D01*
X152777419Y-82134709D01*
X152710132Y-82141691D01*
X152628121Y-82124223D01*
X152560358Y-82111822D01*
X152359214Y-82092255D01*
X152091626Y-82078772D01*
X151796750Y-82073750D01*
X151617782Y-82074790D01*
X151356457Y-82085125D01*
X151159616Y-82112280D01*
X150986528Y-82163228D01*
X150796458Y-82244938D01*
X150579990Y-82357121D01*
X150209570Y-82618580D01*
X149898256Y-82950271D01*
X149630093Y-83370950D01*
X149389126Y-83899375D01*
X149294981Y-84137500D01*
X147620238Y-84137500D01*
X147661171Y-83835875D01*
X147661274Y-83835115D01*
X147781139Y-83310500D01*
X147991221Y-82766563D01*
X148271452Y-82246844D01*
X148601768Y-81794884D01*
X148601870Y-81794766D01*
X148723257Y-81670780D01*
X148819918Y-81632465D01*
X148939276Y-81661009D01*
X148954407Y-81666505D01*
X149207887Y-81714890D01*
X149518554Y-81718876D01*
X149829994Y-81681233D01*
X150085794Y-81604730D01*
X150266067Y-81499059D01*
X150528727Y-81262566D01*
X150741908Y-80974311D01*
X150869220Y-80677369D01*
X150880011Y-80635293D01*
X150924278Y-80501888D01*
X150989641Y-80415345D01*
X151102471Y-80361353D01*
X151289137Y-80325600D01*
X151576008Y-80293774D01*
X151652559Y-80288010D01*
X151930473Y-80288559D01*
G37*
X151930473Y-80288559D02*
X152248771Y-80313535D01*
X152583585Y-80358190D01*
X152911046Y-80417773D01*
X153207286Y-80487537D01*
X153448438Y-80562732D01*
X153610632Y-80638608D01*
X153670000Y-80710418D01*
X153669181Y-80715006D01*
X153628914Y-80801200D01*
X153536938Y-80970249D01*
X153405600Y-81200018D01*
X153247246Y-81468371D01*
X153205786Y-81537622D01*
X153044165Y-81804730D01*
X152929113Y-81982460D01*
X152845305Y-82087042D01*
X152777419Y-82134709D01*
X152710132Y-82141691D01*
X152628121Y-82124223D01*
X152560358Y-82111822D01*
X152359214Y-82092255D01*
X152091626Y-82078772D01*
X151796750Y-82073750D01*
X151617782Y-82074790D01*
X151356457Y-82085125D01*
X151159616Y-82112280D01*
X150986528Y-82163228D01*
X150796458Y-82244938D01*
X150579990Y-82357121D01*
X150209570Y-82618580D01*
X149898256Y-82950271D01*
X149630093Y-83370950D01*
X149389126Y-83899375D01*
X149294981Y-84137500D01*
X147620238Y-84137500D01*
X147661171Y-83835875D01*
X147661274Y-83835115D01*
X147781139Y-83310500D01*
X147991221Y-82766563D01*
X148271452Y-82246844D01*
X148601768Y-81794884D01*
X148601870Y-81794766D01*
X148723257Y-81670780D01*
X148819918Y-81632465D01*
X148939276Y-81661009D01*
X148954407Y-81666505D01*
X149207887Y-81714890D01*
X149518554Y-81718876D01*
X149829994Y-81681233D01*
X150085794Y-81604730D01*
X150266067Y-81499059D01*
X150528727Y-81262566D01*
X150741908Y-80974311D01*
X150869220Y-80677369D01*
X150880011Y-80635293D01*
X150924278Y-80501888D01*
X150989641Y-80415345D01*
X151102471Y-80361353D01*
X151289137Y-80325600D01*
X151576008Y-80293774D01*
X151652559Y-80288010D01*
X151930473Y-80288559D01*
G36*
X149916834Y-79457207D02*
G01*
X150202408Y-79693288D01*
X150245851Y-79742218D01*
X150365253Y-79903218D01*
X150419004Y-80057881D01*
X150431500Y-80267336D01*
X150413136Y-80486305D01*
X150298917Y-80823122D01*
X150089684Y-81090892D01*
X149796468Y-81272160D01*
X149561879Y-81335060D01*
X149222169Y-81324302D01*
X148904390Y-81198190D01*
X148631841Y-80962911D01*
X148530213Y-80817647D01*
X148422394Y-80513078D01*
X148429182Y-80195292D01*
X148548226Y-79886225D01*
X148777171Y-79607811D01*
X148965996Y-79466929D01*
X149282146Y-79343039D01*
X149604586Y-79340127D01*
X149916834Y-79457207D01*
G37*
X149916834Y-79457207D02*
X150202408Y-79693288D01*
X150245851Y-79742218D01*
X150365253Y-79903218D01*
X150419004Y-80057881D01*
X150431500Y-80267336D01*
X150413136Y-80486305D01*
X150298917Y-80823122D01*
X150089684Y-81090892D01*
X149796468Y-81272160D01*
X149561879Y-81335060D01*
X149222169Y-81324302D01*
X148904390Y-81198190D01*
X148631841Y-80962911D01*
X148530213Y-80817647D01*
X148422394Y-80513078D01*
X148429182Y-80195292D01*
X148548226Y-79886225D01*
X148777171Y-79607811D01*
X148965996Y-79466929D01*
X149282146Y-79343039D01*
X149604586Y-79340127D01*
X149916834Y-79457207D01*
%TD*%
M02*
