%TF.GenerationSoftware,KiCad,Pcbnew,6.0.4-6f826c9f35~116~ubuntu18.04.1*%
%TF.CreationDate,2022-09-09T12:05:51+02:00*%
%TF.ProjectId,WS2815_D1Mini,57533238-3135-45f4-9431-4d696e692e6b,rev?*%
%TF.SameCoordinates,Original*%
%TF.FileFunction,Legend,Bot*%
%TF.FilePolarity,Positive*%
%FSLAX46Y46*%
G04 Gerber Fmt 4.6, Leading zero omitted, Abs format (unit mm)*
G04 Created by KiCad (PCBNEW 6.0.4-6f826c9f35~116~ubuntu18.04.1) date 2022-09-09 12:05:51*
%MOMM*%
%LPD*%
G01*
G04 APERTURE LIST*
%ADD10C,0.010000*%
G04 APERTURE END LIST*
%TO.C,LOGO2*%
G36*
X152476641Y-81831057D02*
G01*
X152564998Y-81873294D01*
X152623868Y-81936579D01*
X152673201Y-82021018D01*
X152713209Y-82226443D01*
X152645734Y-82456720D01*
X152467651Y-82727678D01*
X152376422Y-82833935D01*
X152018225Y-83145515D01*
X151567371Y-83415193D01*
X151048507Y-83627347D01*
X150906235Y-83677336D01*
X150554425Y-83847046D01*
X150297145Y-84059933D01*
X150111216Y-84333458D01*
X150084377Y-84388199D01*
X150005858Y-84614657D01*
X150004165Y-84820944D01*
X150087033Y-85028903D01*
X150262194Y-85260380D01*
X150537383Y-85537218D01*
X150644919Y-85638395D01*
X151005495Y-85988879D01*
X151285724Y-86284449D01*
X151501310Y-86543613D01*
X151667958Y-86784877D01*
X151801373Y-87026750D01*
X151848726Y-87125830D01*
X152014749Y-87546953D01*
X152107066Y-87951229D01*
X152123396Y-88356823D01*
X152061457Y-88781902D01*
X151918965Y-89244629D01*
X151693641Y-89763171D01*
X151383201Y-90355693D01*
X151359350Y-90396318D01*
X151172660Y-90647254D01*
X150909224Y-90929793D01*
X150596664Y-91216246D01*
X150262603Y-91478928D01*
X150179086Y-91537924D01*
X149984067Y-91660151D01*
X149792389Y-91746909D01*
X149560939Y-91815325D01*
X149246603Y-91882525D01*
X149205250Y-91890345D01*
X148885565Y-91940400D01*
X148492338Y-91988963D01*
X148071567Y-92030836D01*
X147669250Y-92060820D01*
X146556641Y-92109713D01*
X145038755Y-92116130D01*
X143605250Y-92047313D01*
X143571714Y-92044741D01*
X143075847Y-92002025D01*
X142676124Y-91953722D01*
X142343478Y-91891637D01*
X142048840Y-91807574D01*
X141763144Y-91693336D01*
X141457319Y-91540727D01*
X141102300Y-91341550D01*
X140932588Y-91241632D01*
X140683569Y-91081098D01*
X140494074Y-90929562D01*
X140328453Y-90756689D01*
X140151055Y-90532144D01*
X140062907Y-90411055D01*
X139710949Y-89829883D01*
X139456841Y-89213246D01*
X139292936Y-88538783D01*
X139211589Y-87784130D01*
X139198575Y-87485895D01*
X139199125Y-87219925D01*
X139220983Y-86986846D01*
X139269167Y-86736716D01*
X139348695Y-86419591D01*
X139417225Y-86163695D01*
X139590114Y-85559816D01*
X139752635Y-85061639D01*
X139910799Y-84654659D01*
X140070614Y-84324374D01*
X140238089Y-84056280D01*
X140419234Y-83835875D01*
X140433440Y-83821034D01*
X140624198Y-83674142D01*
X140825983Y-83635498D01*
X141076992Y-83697039D01*
X141100133Y-83706429D01*
X141267227Y-83802750D01*
X141430975Y-83934495D01*
X141555518Y-84069238D01*
X141605000Y-84174552D01*
X141635346Y-84263834D01*
X141771290Y-84405316D01*
X141999702Y-84555365D01*
X142302271Y-84702519D01*
X142660686Y-84835317D01*
X142806352Y-84880914D01*
X143083304Y-84956231D01*
X143258919Y-84979135D01*
X143344324Y-84947433D01*
X143350646Y-84858932D01*
X143289010Y-84711436D01*
X143184213Y-84508780D01*
X143478548Y-84194112D01*
X143613554Y-84033918D01*
X143800904Y-83767826D01*
X143943067Y-83516347D01*
X143950196Y-83501065D01*
X144034218Y-83298687D01*
X144083763Y-83108972D01*
X144107288Y-82885474D01*
X144113250Y-82581750D01*
X144113178Y-82537392D01*
X144105677Y-82248127D01*
X144079685Y-82032576D01*
X144026468Y-81843719D01*
X143937289Y-81634531D01*
X143839170Y-81449640D01*
X143661278Y-81169555D01*
X143476642Y-80925586D01*
X143191958Y-80592359D01*
X143613279Y-79888429D01*
X143638870Y-79845919D01*
X143801206Y-79587503D01*
X143944574Y-79377370D01*
X144054251Y-79236157D01*
X144115512Y-79184500D01*
X144179317Y-79212745D01*
X144316773Y-79317676D01*
X144496641Y-79479222D01*
X144696429Y-79675152D01*
X144893643Y-79883232D01*
X145065790Y-80081231D01*
X145190378Y-80246916D01*
X145366778Y-80515583D01*
X145162379Y-80748381D01*
X145032900Y-80906414D01*
X144867598Y-81170381D01*
X144762682Y-81456873D01*
X144707430Y-81799657D01*
X144691122Y-82232500D01*
X144692043Y-82352275D01*
X144723574Y-82816610D01*
X144810035Y-83219641D01*
X144965095Y-83609543D01*
X145202422Y-84034488D01*
X145432798Y-84407726D01*
X145319080Y-84605988D01*
X145274043Y-84679396D01*
X145141232Y-84872915D01*
X144992681Y-85068936D01*
X144910103Y-85174026D01*
X144816452Y-85301250D01*
X144780000Y-85363023D01*
X144781265Y-85367467D01*
X144852724Y-85405440D01*
X145006246Y-85449439D01*
X145203343Y-85491155D01*
X145405522Y-85522278D01*
X145574294Y-85534500D01*
X145729451Y-85522160D01*
X145956901Y-85451956D01*
X146115275Y-85334065D01*
X146176028Y-85185063D01*
X146166106Y-85156415D01*
X146096911Y-85038459D01*
X145976122Y-84859443D01*
X145820815Y-84645313D01*
X145628442Y-84385481D01*
X145434835Y-84111468D01*
X145293292Y-83887617D01*
X145188140Y-83686288D01*
X145103707Y-83479842D01*
X145024319Y-83240637D01*
X144916485Y-82764338D01*
X144877041Y-82250417D01*
X144911169Y-81788000D01*
X148209000Y-81788000D01*
X148209210Y-81795101D01*
X148257500Y-81932527D01*
X148364864Y-82076636D01*
X148373134Y-82084727D01*
X148518907Y-82189365D01*
X148653500Y-82232500D01*
X148660602Y-82232290D01*
X148798028Y-82184000D01*
X148942137Y-82076636D01*
X148950228Y-82068366D01*
X149054866Y-81922593D01*
X149098000Y-81788000D01*
X149097791Y-81780898D01*
X149049501Y-81643472D01*
X148942137Y-81499363D01*
X148933867Y-81491272D01*
X148788094Y-81386634D01*
X148653500Y-81343500D01*
X148646399Y-81343709D01*
X148508973Y-81391999D01*
X148364864Y-81499363D01*
X148356773Y-81507633D01*
X148252135Y-81653406D01*
X148209000Y-81788000D01*
X144911169Y-81788000D01*
X144913183Y-81760715D01*
X145024900Y-81334159D01*
X145212677Y-80970364D01*
X145535299Y-80584072D01*
X145948926Y-80267538D01*
X146439734Y-80030938D01*
X146993898Y-79884450D01*
X147326579Y-79853711D01*
X147734064Y-79853844D01*
X148167428Y-79881833D01*
X148578388Y-79934559D01*
X148918659Y-80008898D01*
X149056789Y-80061260D01*
X149329688Y-80207781D01*
X149618990Y-80402712D01*
X149882591Y-80616603D01*
X150078386Y-80820008D01*
X150199767Y-80958571D01*
X150469748Y-81211074D01*
X150777252Y-81450071D01*
X151072700Y-81634929D01*
X151248779Y-81699784D01*
X151525396Y-81747858D01*
X151909493Y-81776013D01*
X152103630Y-81785496D01*
X152134831Y-81788000D01*
X152331838Y-81803811D01*
X152476641Y-81831057D01*
G37*
D10*
X152476641Y-81831057D02*
X152564998Y-81873294D01*
X152623868Y-81936579D01*
X152673201Y-82021018D01*
X152713209Y-82226443D01*
X152645734Y-82456720D01*
X152467651Y-82727678D01*
X152376422Y-82833935D01*
X152018225Y-83145515D01*
X151567371Y-83415193D01*
X151048507Y-83627347D01*
X150906235Y-83677336D01*
X150554425Y-83847046D01*
X150297145Y-84059933D01*
X150111216Y-84333458D01*
X150084377Y-84388199D01*
X150005858Y-84614657D01*
X150004165Y-84820944D01*
X150087033Y-85028903D01*
X150262194Y-85260380D01*
X150537383Y-85537218D01*
X150644919Y-85638395D01*
X151005495Y-85988879D01*
X151285724Y-86284449D01*
X151501310Y-86543613D01*
X151667958Y-86784877D01*
X151801373Y-87026750D01*
X151848726Y-87125830D01*
X152014749Y-87546953D01*
X152107066Y-87951229D01*
X152123396Y-88356823D01*
X152061457Y-88781902D01*
X151918965Y-89244629D01*
X151693641Y-89763171D01*
X151383201Y-90355693D01*
X151359350Y-90396318D01*
X151172660Y-90647254D01*
X150909224Y-90929793D01*
X150596664Y-91216246D01*
X150262603Y-91478928D01*
X150179086Y-91537924D01*
X149984067Y-91660151D01*
X149792389Y-91746909D01*
X149560939Y-91815325D01*
X149246603Y-91882525D01*
X149205250Y-91890345D01*
X148885565Y-91940400D01*
X148492338Y-91988963D01*
X148071567Y-92030836D01*
X147669250Y-92060820D01*
X146556641Y-92109713D01*
X145038755Y-92116130D01*
X143605250Y-92047313D01*
X143571714Y-92044741D01*
X143075847Y-92002025D01*
X142676124Y-91953722D01*
X142343478Y-91891637D01*
X142048840Y-91807574D01*
X141763144Y-91693336D01*
X141457319Y-91540727D01*
X141102300Y-91341550D01*
X140932588Y-91241632D01*
X140683569Y-91081098D01*
X140494074Y-90929562D01*
X140328453Y-90756689D01*
X140151055Y-90532144D01*
X140062907Y-90411055D01*
X139710949Y-89829883D01*
X139456841Y-89213246D01*
X139292936Y-88538783D01*
X139211589Y-87784130D01*
X139198575Y-87485895D01*
X139199125Y-87219925D01*
X139220983Y-86986846D01*
X139269167Y-86736716D01*
X139348695Y-86419591D01*
X139417225Y-86163695D01*
X139590114Y-85559816D01*
X139752635Y-85061639D01*
X139910799Y-84654659D01*
X140070614Y-84324374D01*
X140238089Y-84056280D01*
X140419234Y-83835875D01*
X140433440Y-83821034D01*
X140624198Y-83674142D01*
X140825983Y-83635498D01*
X141076992Y-83697039D01*
X141100133Y-83706429D01*
X141267227Y-83802750D01*
X141430975Y-83934495D01*
X141555518Y-84069238D01*
X141605000Y-84174552D01*
X141635346Y-84263834D01*
X141771290Y-84405316D01*
X141999702Y-84555365D01*
X142302271Y-84702519D01*
X142660686Y-84835317D01*
X142806352Y-84880914D01*
X143083304Y-84956231D01*
X143258919Y-84979135D01*
X143344324Y-84947433D01*
X143350646Y-84858932D01*
X143289010Y-84711436D01*
X143184213Y-84508780D01*
X143478548Y-84194112D01*
X143613554Y-84033918D01*
X143800904Y-83767826D01*
X143943067Y-83516347D01*
X143950196Y-83501065D01*
X144034218Y-83298687D01*
X144083763Y-83108972D01*
X144107288Y-82885474D01*
X144113250Y-82581750D01*
X144113178Y-82537392D01*
X144105677Y-82248127D01*
X144079685Y-82032576D01*
X144026468Y-81843719D01*
X143937289Y-81634531D01*
X143839170Y-81449640D01*
X143661278Y-81169555D01*
X143476642Y-80925586D01*
X143191958Y-80592359D01*
X143613279Y-79888429D01*
X143638870Y-79845919D01*
X143801206Y-79587503D01*
X143944574Y-79377370D01*
X144054251Y-79236157D01*
X144115512Y-79184500D01*
X144179317Y-79212745D01*
X144316773Y-79317676D01*
X144496641Y-79479222D01*
X144696429Y-79675152D01*
X144893643Y-79883232D01*
X145065790Y-80081231D01*
X145190378Y-80246916D01*
X145366778Y-80515583D01*
X145162379Y-80748381D01*
X145032900Y-80906414D01*
X144867598Y-81170381D01*
X144762682Y-81456873D01*
X144707430Y-81799657D01*
X144691122Y-82232500D01*
X144692043Y-82352275D01*
X144723574Y-82816610D01*
X144810035Y-83219641D01*
X144965095Y-83609543D01*
X145202422Y-84034488D01*
X145432798Y-84407726D01*
X145319080Y-84605988D01*
X145274043Y-84679396D01*
X145141232Y-84872915D01*
X144992681Y-85068936D01*
X144910103Y-85174026D01*
X144816452Y-85301250D01*
X144780000Y-85363023D01*
X144781265Y-85367467D01*
X144852724Y-85405440D01*
X145006246Y-85449439D01*
X145203343Y-85491155D01*
X145405522Y-85522278D01*
X145574294Y-85534500D01*
X145729451Y-85522160D01*
X145956901Y-85451956D01*
X146115275Y-85334065D01*
X146176028Y-85185063D01*
X146166106Y-85156415D01*
X146096911Y-85038459D01*
X145976122Y-84859443D01*
X145820815Y-84645313D01*
X145628442Y-84385481D01*
X145434835Y-84111468D01*
X145293292Y-83887617D01*
X145188140Y-83686288D01*
X145103707Y-83479842D01*
X145024319Y-83240637D01*
X144916485Y-82764338D01*
X144877041Y-82250417D01*
X144911169Y-81788000D01*
X148209000Y-81788000D01*
X148209210Y-81795101D01*
X148257500Y-81932527D01*
X148364864Y-82076636D01*
X148373134Y-82084727D01*
X148518907Y-82189365D01*
X148653500Y-82232500D01*
X148660602Y-82232290D01*
X148798028Y-82184000D01*
X148942137Y-82076636D01*
X148950228Y-82068366D01*
X149054866Y-81922593D01*
X149098000Y-81788000D01*
X149097791Y-81780898D01*
X149049501Y-81643472D01*
X148942137Y-81499363D01*
X148933867Y-81491272D01*
X148788094Y-81386634D01*
X148653500Y-81343500D01*
X148646399Y-81343709D01*
X148508973Y-81391999D01*
X148364864Y-81499363D01*
X148356773Y-81507633D01*
X148252135Y-81653406D01*
X148209000Y-81788000D01*
X144911169Y-81788000D01*
X144913183Y-81760715D01*
X145024900Y-81334159D01*
X145212677Y-80970364D01*
X145535299Y-80584072D01*
X145948926Y-80267538D01*
X146439734Y-80030938D01*
X146993898Y-79884450D01*
X147326579Y-79853711D01*
X147734064Y-79853844D01*
X148167428Y-79881833D01*
X148578388Y-79934559D01*
X148918659Y-80008898D01*
X149056789Y-80061260D01*
X149329688Y-80207781D01*
X149618990Y-80402712D01*
X149882591Y-80616603D01*
X150078386Y-80820008D01*
X150199767Y-80958571D01*
X150469748Y-81211074D01*
X150777252Y-81450071D01*
X151072700Y-81634929D01*
X151248779Y-81699784D01*
X151525396Y-81747858D01*
X151909493Y-81776013D01*
X152103630Y-81785496D01*
X152134831Y-81788000D01*
X152331838Y-81803811D01*
X152476641Y-81831057D01*
G36*
X141643473Y-78383559D02*
G01*
X141961771Y-78408535D01*
X142296585Y-78453190D01*
X142624046Y-78512773D01*
X142920286Y-78582537D01*
X143161438Y-78657732D01*
X143323632Y-78733608D01*
X143383000Y-78805418D01*
X143382181Y-78810006D01*
X143341914Y-78896200D01*
X143249938Y-79065249D01*
X143118600Y-79295018D01*
X142960246Y-79563371D01*
X142918786Y-79632622D01*
X142757165Y-79899730D01*
X142642113Y-80077460D01*
X142558305Y-80182042D01*
X142490419Y-80229709D01*
X142423132Y-80236691D01*
X142341121Y-80219223D01*
X142273358Y-80206822D01*
X142072214Y-80187255D01*
X141804626Y-80173772D01*
X141509750Y-80168750D01*
X141330782Y-80169790D01*
X141069457Y-80180125D01*
X140872616Y-80207280D01*
X140699528Y-80258228D01*
X140509458Y-80339938D01*
X140292990Y-80452121D01*
X139922570Y-80713580D01*
X139611256Y-81045271D01*
X139343093Y-81465950D01*
X139102126Y-81994375D01*
X139007981Y-82232500D01*
X137333238Y-82232500D01*
X137374171Y-81930875D01*
X137374274Y-81930115D01*
X137494139Y-81405500D01*
X137704221Y-80861563D01*
X137984452Y-80341844D01*
X138314768Y-79889884D01*
X138314870Y-79889766D01*
X138436257Y-79765780D01*
X138532918Y-79727465D01*
X138652276Y-79756009D01*
X138667407Y-79761505D01*
X138920887Y-79809890D01*
X139231554Y-79813876D01*
X139542994Y-79776233D01*
X139798794Y-79699730D01*
X139979067Y-79594059D01*
X140241727Y-79357566D01*
X140454908Y-79069311D01*
X140582220Y-78772369D01*
X140593011Y-78730293D01*
X140637278Y-78596888D01*
X140702641Y-78510345D01*
X140815471Y-78456353D01*
X141002137Y-78420600D01*
X141289008Y-78388774D01*
X141365559Y-78383010D01*
X141643473Y-78383559D01*
G37*
X141643473Y-78383559D02*
X141961771Y-78408535D01*
X142296585Y-78453190D01*
X142624046Y-78512773D01*
X142920286Y-78582537D01*
X143161438Y-78657732D01*
X143323632Y-78733608D01*
X143383000Y-78805418D01*
X143382181Y-78810006D01*
X143341914Y-78896200D01*
X143249938Y-79065249D01*
X143118600Y-79295018D01*
X142960246Y-79563371D01*
X142918786Y-79632622D01*
X142757165Y-79899730D01*
X142642113Y-80077460D01*
X142558305Y-80182042D01*
X142490419Y-80229709D01*
X142423132Y-80236691D01*
X142341121Y-80219223D01*
X142273358Y-80206822D01*
X142072214Y-80187255D01*
X141804626Y-80173772D01*
X141509750Y-80168750D01*
X141330782Y-80169790D01*
X141069457Y-80180125D01*
X140872616Y-80207280D01*
X140699528Y-80258228D01*
X140509458Y-80339938D01*
X140292990Y-80452121D01*
X139922570Y-80713580D01*
X139611256Y-81045271D01*
X139343093Y-81465950D01*
X139102126Y-81994375D01*
X139007981Y-82232500D01*
X137333238Y-82232500D01*
X137374171Y-81930875D01*
X137374274Y-81930115D01*
X137494139Y-81405500D01*
X137704221Y-80861563D01*
X137984452Y-80341844D01*
X138314768Y-79889884D01*
X138314870Y-79889766D01*
X138436257Y-79765780D01*
X138532918Y-79727465D01*
X138652276Y-79756009D01*
X138667407Y-79761505D01*
X138920887Y-79809890D01*
X139231554Y-79813876D01*
X139542994Y-79776233D01*
X139798794Y-79699730D01*
X139979067Y-79594059D01*
X140241727Y-79357566D01*
X140454908Y-79069311D01*
X140582220Y-78772369D01*
X140593011Y-78730293D01*
X140637278Y-78596888D01*
X140702641Y-78510345D01*
X140815471Y-78456353D01*
X141002137Y-78420600D01*
X141289008Y-78388774D01*
X141365559Y-78383010D01*
X141643473Y-78383559D01*
G36*
X139203701Y-83287175D02*
G01*
X139272670Y-83463366D01*
X139420384Y-83755565D01*
X139583219Y-84008484D01*
X139835547Y-84341868D01*
X139423049Y-85280500D01*
X139069400Y-85281472D01*
X138925689Y-85286630D01*
X138734695Y-85309400D01*
X138620500Y-85344000D01*
X138583686Y-85366820D01*
X138505132Y-85395717D01*
X138429348Y-85369140D01*
X138329958Y-85271756D01*
X138180584Y-85088228D01*
X138122558Y-85011823D01*
X137915468Y-84691742D01*
X137725093Y-84329633D01*
X137563005Y-83954460D01*
X137440780Y-83595188D01*
X137369991Y-83280780D01*
X137362211Y-83040201D01*
X137363850Y-83029120D01*
X137378970Y-82975520D01*
X137418346Y-82939156D01*
X137502527Y-82916687D01*
X137652061Y-82904773D01*
X137887496Y-82900074D01*
X138229382Y-82899250D01*
X139076513Y-82899250D01*
X139203701Y-83287175D01*
G37*
X139203701Y-83287175D02*
X139272670Y-83463366D01*
X139420384Y-83755565D01*
X139583219Y-84008484D01*
X139835547Y-84341868D01*
X139423049Y-85280500D01*
X139069400Y-85281472D01*
X138925689Y-85286630D01*
X138734695Y-85309400D01*
X138620500Y-85344000D01*
X138583686Y-85366820D01*
X138505132Y-85395717D01*
X138429348Y-85369140D01*
X138329958Y-85271756D01*
X138180584Y-85088228D01*
X138122558Y-85011823D01*
X137915468Y-84691742D01*
X137725093Y-84329633D01*
X137563005Y-83954460D01*
X137440780Y-83595188D01*
X137369991Y-83280780D01*
X137362211Y-83040201D01*
X137363850Y-83029120D01*
X137378970Y-82975520D01*
X137418346Y-82939156D01*
X137502527Y-82916687D01*
X137652061Y-82904773D01*
X137887496Y-82900074D01*
X138229382Y-82899250D01*
X139076513Y-82899250D01*
X139203701Y-83287175D01*
G36*
X139629834Y-77552207D02*
G01*
X139915408Y-77788288D01*
X139958851Y-77837218D01*
X140078253Y-77998218D01*
X140132004Y-78152881D01*
X140144500Y-78362336D01*
X140126136Y-78581305D01*
X140011917Y-78918122D01*
X139802684Y-79185892D01*
X139509468Y-79367160D01*
X139274879Y-79430060D01*
X138935169Y-79419302D01*
X138617390Y-79293190D01*
X138344841Y-79057911D01*
X138243213Y-78912647D01*
X138135394Y-78608078D01*
X138142182Y-78290292D01*
X138261226Y-77981225D01*
X138490171Y-77702811D01*
X138678996Y-77561929D01*
X138995146Y-77438039D01*
X139317586Y-77435127D01*
X139629834Y-77552207D01*
G37*
X139629834Y-77552207D02*
X139915408Y-77788288D01*
X139958851Y-77837218D01*
X140078253Y-77998218D01*
X140132004Y-78152881D01*
X140144500Y-78362336D01*
X140126136Y-78581305D01*
X140011917Y-78918122D01*
X139802684Y-79185892D01*
X139509468Y-79367160D01*
X139274879Y-79430060D01*
X138935169Y-79419302D01*
X138617390Y-79293190D01*
X138344841Y-79057911D01*
X138243213Y-78912647D01*
X138135394Y-78608078D01*
X138142182Y-78290292D01*
X138261226Y-77981225D01*
X138490171Y-77702811D01*
X138678996Y-77561929D01*
X138995146Y-77438039D01*
X139317586Y-77435127D01*
X139629834Y-77552207D01*
G36*
X139277012Y-85681342D02*
G01*
X139354751Y-85729432D01*
X139329619Y-85803281D01*
X139297840Y-85844863D01*
X139255500Y-85978273D01*
X139252877Y-86004250D01*
X139210901Y-86143696D01*
X139133977Y-86317507D01*
X139074508Y-86474642D01*
X139010423Y-86756951D01*
X138967717Y-87092934D01*
X138958585Y-87190692D01*
X138928943Y-87415314D01*
X138895480Y-87571469D01*
X138863837Y-87630000D01*
X138797190Y-87618293D01*
X138627941Y-87537583D01*
X138449671Y-87407184D01*
X138310227Y-87259148D01*
X138257512Y-87176266D01*
X138149808Y-86871912D01*
X138146680Y-86555417D01*
X138237451Y-86252454D01*
X138411442Y-85988697D01*
X138657975Y-85789820D01*
X138966373Y-85681497D01*
X139119235Y-85666668D01*
X139277012Y-85681342D01*
G37*
X139277012Y-85681342D02*
X139354751Y-85729432D01*
X139329619Y-85803281D01*
X139297840Y-85844863D01*
X139255500Y-85978273D01*
X139252877Y-86004250D01*
X139210901Y-86143696D01*
X139133977Y-86317507D01*
X139074508Y-86474642D01*
X139010423Y-86756951D01*
X138967717Y-87092934D01*
X138958585Y-87190692D01*
X138928943Y-87415314D01*
X138895480Y-87571469D01*
X138863837Y-87630000D01*
X138797190Y-87618293D01*
X138627941Y-87537583D01*
X138449671Y-87407184D01*
X138310227Y-87259148D01*
X138257512Y-87176266D01*
X138149808Y-86871912D01*
X138146680Y-86555417D01*
X138237451Y-86252454D01*
X138411442Y-85988697D01*
X138657975Y-85789820D01*
X138966373Y-85681497D01*
X139119235Y-85666668D01*
X139277012Y-85681342D01*
%TD*%
M02*
