M48
; DRILL file {KiCad 6.0.4-6f826c9f35~116~ubuntu18.04.1} date ven. 09 sept. 2022 12:05:54 CEST
; FORMAT={-:-/ absolute / metric / decimal}
; #@! TF.CreationDate,2022-09-09T12:05:54+02:00
; #@! TF.GenerationSoftware,Kicad,Pcbnew,6.0.4-6f826c9f35~116~ubuntu18.04.1
; #@! TF.FileFunction,Plated,1,2,PTH
FMAT,2
METRIC
; #@! TA.AperFunction,Plated,PTH,ViaDrill
T1C0.400
; #@! TA.AperFunction,Plated,PTH,ComponentDrill
T2C0.800
; #@! TA.AperFunction,Plated,PTH,ComponentDrill
T3C1.000
; #@! TA.AperFunction,Plated,PTH,ComponentDrill
T4C1.100
; #@! TA.AperFunction,Plated,PTH,ComponentDrill
T5C1.300
; #@! TA.AperFunction,Plated,PTH,ComponentDrill
T6C4.300
%
G90
G05
T1
X110.49Y-62.23
X111.0Y-78.5
X111.76Y-86.36
X118.11Y-62.23
X124.46Y-62.23
X128.27Y-80.01
X130.81Y-83.82
X133.35Y-73.152
X134.62Y-93.98
X135.636Y-74.168
X135.636Y-76.2
X138.43Y-75.438
X140.97Y-57.15
X140.97Y-62.23
X151.765Y-84.455
X154.94Y-68.58
X156.21Y-62.23
X162.56Y-68.58
X162.56Y-81.28
X162.56Y-93.98
T2
X140.56Y-82.55
X142.56Y-82.55
T3
X111.38Y-70.485
X111.38Y-74.295
X111.38Y-89.535
X111.38Y-93.345
X113.92Y-70.485
X113.92Y-74.295
X113.92Y-89.535
X113.92Y-93.345
X116.46Y-70.485
X116.46Y-74.295
X116.46Y-89.535
X116.46Y-93.345
X119.0Y-70.485
X119.0Y-74.295
X119.0Y-89.535
X119.0Y-93.345
X121.54Y-70.485
X121.54Y-74.295
X121.54Y-89.535
X121.54Y-93.345
X124.08Y-70.485
X124.08Y-74.295
X124.08Y-89.535
X124.08Y-93.345
X126.62Y-70.485
X126.62Y-74.295
X126.62Y-89.535
X126.62Y-93.345
X129.16Y-70.485
X129.16Y-74.295
X129.16Y-89.535
X129.16Y-93.345
T4
X143.805Y-71.755
X143.805Y-74.295
X143.805Y-76.835
T5
X106.75Y-59.73
X106.75Y-64.73
X114.37Y-59.73
X114.37Y-64.73
X121.99Y-59.73
X121.99Y-64.73
X129.61Y-59.73
X129.61Y-64.73
X137.23Y-59.73
X137.23Y-64.73
X144.85Y-59.73
X144.85Y-64.73
X152.47Y-59.73
X152.47Y-64.73
X160.09Y-59.73
X160.09Y-64.73
T6
X114.808Y-82.0
X157.75Y-89.25
T0
M30
