%TF.GenerationSoftware,KiCad,Pcbnew,6.0.4-6f826c9f35~116~ubuntu18.04.1*%
%TF.CreationDate,2022-09-04T19:01:58+02:00*%
%TF.ProjectId,WS2815_D1Mini,57533238-3135-45f4-9431-4d696e692e6b,rev?*%
%TF.SameCoordinates,Original*%
%TF.FileFunction,Copper,L1,Top*%
%TF.FilePolarity,Positive*%
%FSLAX46Y46*%
G04 Gerber Fmt 4.6, Leading zero omitted, Abs format (unit mm)*
G04 Created by KiCad (PCBNEW 6.0.4-6f826c9f35~116~ubuntu18.04.1) date 2022-09-04 19:01:58*
%MOMM*%
%LPD*%
G01*
G04 APERTURE LIST*
G04 Aperture macros list*
%AMRoundRect*
0 Rectangle with rounded corners*
0 $1 Rounding radius*
0 $2 $3 $4 $5 $6 $7 $8 $9 X,Y pos of 4 corners*
0 Add a 4 corners polygon primitive as box body*
4,1,4,$2,$3,$4,$5,$6,$7,$8,$9,$2,$3,0*
0 Add four circle primitives for the rounded corners*
1,1,$1+$1,$2,$3*
1,1,$1+$1,$4,$5*
1,1,$1+$1,$6,$7*
1,1,$1+$1,$8,$9*
0 Add four rect primitives between the rounded corners*
20,1,$1+$1,$2,$3,$4,$5,0*
20,1,$1+$1,$4,$5,$6,$7,0*
20,1,$1+$1,$6,$7,$8,$9,0*
20,1,$1+$1,$8,$9,$2,$3,0*%
G04 Aperture macros list end*
%TA.AperFunction,ComponentPad*%
%ADD10C,2.300000*%
%TD*%
%TA.AperFunction,ComponentPad*%
%ADD11R,1.600000X1.600000*%
%TD*%
%TA.AperFunction,ComponentPad*%
%ADD12C,1.600000*%
%TD*%
%TA.AperFunction,ComponentPad*%
%ADD13C,7.500000*%
%TD*%
%TA.AperFunction,ComponentPad*%
%ADD14R,2.000000X2.000000*%
%TD*%
%TA.AperFunction,ComponentPad*%
%ADD15O,1.600000X2.000000*%
%TD*%
%TA.AperFunction,SMDPad,CuDef*%
%ADD16C,0.500000*%
%TD*%
%TA.AperFunction,SMDPad,CuDef*%
%ADD17RoundRect,0.250000X-0.650000X0.325000X-0.650000X-0.325000X0.650000X-0.325000X0.650000X0.325000X0*%
%TD*%
%TA.AperFunction,SMDPad,CuDef*%
%ADD18RoundRect,0.200000X0.200000X0.275000X-0.200000X0.275000X-0.200000X-0.275000X0.200000X-0.275000X0*%
%TD*%
%TA.AperFunction,SMDPad,CuDef*%
%ADD19RoundRect,0.225000X0.225000X0.250000X-0.225000X0.250000X-0.225000X-0.250000X0.225000X-0.250000X0*%
%TD*%
%TA.AperFunction,ComponentPad*%
%ADD20R,2.000000X1.905000*%
%TD*%
%TA.AperFunction,ComponentPad*%
%ADD21O,2.000000X1.905000*%
%TD*%
%TA.AperFunction,ComponentPad*%
%ADD22R,1.700000X1.700000*%
%TD*%
%TA.AperFunction,ComponentPad*%
%ADD23O,1.700000X1.700000*%
%TD*%
%TA.AperFunction,SMDPad,CuDef*%
%ADD24RoundRect,0.250000X0.650000X-0.325000X0.650000X0.325000X-0.650000X0.325000X-0.650000X-0.325000X0*%
%TD*%
%TA.AperFunction,ViaPad*%
%ADD25C,0.800000*%
%TD*%
%TA.AperFunction,Conductor*%
%ADD26C,1.000000*%
%TD*%
%TA.AperFunction,Conductor*%
%ADD27C,0.500000*%
%TD*%
%TA.AperFunction,Conductor*%
%ADD28C,0.250000*%
%TD*%
G04 APERTURE END LIST*
%TO.C,NT1*%
G36*
X138295000Y-74545000D02*
G01*
X137295000Y-74545000D01*
X137295000Y-74045000D01*
X138295000Y-74045000D01*
X138295000Y-74545000D01*
G37*
%TD*%
D10*
%TO.P,J14,1,Pin_1*%
%TO.N,+12V*%
X129610000Y-64730000D03*
X129610000Y-59730000D03*
%TO.P,J14,2,Pin_2*%
%TO.N,/GPo_WS281x*%
X121990000Y-59730000D03*
X121990000Y-64730000D03*
%TO.P,J14,3,Pin_3*%
%TO.N,GND*%
X114370000Y-59730000D03*
X114370000Y-64730000D03*
%TO.P,J14,4,Pin_4*%
%TO.N,GNDPWR*%
X106750000Y-59730000D03*
X106750000Y-64730000D03*
%TD*%
D11*
%TO.P,C1,1*%
%TO.N,+12V*%
X142560113Y-82550000D03*
D12*
%TO.P,C1,2*%
%TO.N,GNDPWR*%
X140560113Y-82550000D03*
%TD*%
D13*
%TO.P,H1,1,1*%
%TO.N,unconnected-(H1-Pad1)*%
X157750000Y-89250000D03*
%TD*%
D14*
%TO.P,U1,1,~{RST}*%
%TO.N,/RST*%
X111380000Y-93345000D03*
D15*
%TO.P,U1,2,A0*%
%TO.N,/GP_A0*%
X113920000Y-93345000D03*
%TO.P,U1,3,D0*%
%TO.N,/GP_D0*%
X116460000Y-93345000D03*
%TO.P,U1,4,SCK/D5*%
%TO.N,/GP_D5*%
X119000000Y-93345000D03*
%TO.P,U1,5,MISO/D6*%
%TO.N,/GP_D6*%
X121540000Y-93345000D03*
%TO.P,U1,6,MOSI/D7*%
%TO.N,/GP_D7*%
X124080000Y-93345000D03*
%TO.P,U1,7,CS/D8*%
%TO.N,/GP_D8*%
X126620000Y-93345000D03*
%TO.P,U1,8,3V3*%
%TO.N,/3V3*%
X129160000Y-93345000D03*
%TO.P,U1,9,5V*%
%TO.N,+5V*%
X129160000Y-70485000D03*
%TO.P,U1,10,GND*%
%TO.N,GND*%
X126620000Y-70485000D03*
%TO.P,U1,11,D4*%
%TO.N,/GP_D4*%
X124080000Y-70485000D03*
%TO.P,U1,12,D3*%
%TO.N,/GP_D3*%
X121540000Y-70485000D03*
%TO.P,U1,13,SDA/D2*%
%TO.N,/GP_D2*%
X119000000Y-70485000D03*
%TO.P,U1,14,SCL/D1*%
%TO.N,/GP_D1*%
X116460000Y-70485000D03*
%TO.P,U1,15,RX*%
%TO.N,/GP_Rx*%
X113920000Y-70485000D03*
%TO.P,U1,16,TX*%
%TO.N,/GP_Tx*%
X111380000Y-70485000D03*
%TD*%
D16*
%TO.P,NT1,1,1*%
%TO.N,GNDPWR*%
X138295000Y-74295000D03*
%TO.P,NT1,2,2*%
%TO.N,GND*%
X137295000Y-74295000D03*
%TD*%
D17*
%TO.P,C2,1*%
%TO.N,+12V*%
X140335000Y-70280000D03*
%TO.P,C2,2*%
%TO.N,GNDPWR*%
X140335000Y-73230000D03*
%TD*%
D13*
%TO.P,H3,1,1*%
%TO.N,unconnected-(H3-Pad1)*%
X114808000Y-82000000D03*
%TD*%
D10*
%TO.P,J13,1,Pin_1*%
%TO.N,GNDPWR*%
X160090000Y-64730000D03*
X160090000Y-59730000D03*
%TO.P,J13,2,Pin_2*%
X152470000Y-64730000D03*
X152470000Y-59730000D03*
%TO.P,J13,3,Pin_3*%
%TO.N,+12V*%
X144850000Y-64730000D03*
X144850000Y-59730000D03*
%TO.P,J13,4,Pin_4*%
X137230000Y-64730000D03*
X137230000Y-59730000D03*
%TD*%
D18*
%TO.P,R1,1*%
%TO.N,/GPo_WS281x*%
X125730000Y-78105000D03*
%TO.P,R1,2*%
%TO.N,/GP_D4*%
X124080000Y-78105000D03*
%TD*%
D19*
%TO.P,C4,1*%
%TO.N,+5V*%
X129935000Y-78105000D03*
%TO.P,C4,2*%
%TO.N,GND*%
X128385000Y-78105000D03*
%TD*%
D20*
%TO.P,U2,1,IN*%
%TO.N,+12V*%
X143805000Y-71755000D03*
D21*
%TO.P,U2,2,GND*%
%TO.N,GNDPWR*%
X143805000Y-74295000D03*
%TO.P,U2,3,OUT*%
%TO.N,+5V*%
X143805000Y-76835000D03*
%TD*%
D22*
%TO.P,J2,1,Pin_1*%
%TO.N,+5V*%
X129160000Y-74295000D03*
D23*
%TO.P,J2,2,Pin_2*%
%TO.N,GND*%
X126620000Y-74295000D03*
%TO.P,J2,3,Pin_3*%
%TO.N,/GP_D4*%
X124080000Y-74295000D03*
%TO.P,J2,4,Pin_4*%
%TO.N,/GP_D3*%
X121540000Y-74295000D03*
%TO.P,J2,5,Pin_5*%
%TO.N,/GP_D2*%
X119000000Y-74295000D03*
%TO.P,J2,6,Pin_6*%
%TO.N,/GP_D1*%
X116460000Y-74295000D03*
%TO.P,J2,7,Pin_7*%
%TO.N,/GP_Rx*%
X113920000Y-74295000D03*
%TO.P,J2,8,Pin_8*%
%TO.N,/GP_Tx*%
X111380000Y-74295000D03*
%TD*%
D24*
%TO.P,C3,1*%
%TO.N,+5V*%
X140335000Y-78310000D03*
%TO.P,C3,2*%
%TO.N,GNDPWR*%
X140335000Y-75360000D03*
%TD*%
D22*
%TO.P,J1,1,Pin_1*%
%TO.N,/RST*%
X111380000Y-89535000D03*
D23*
%TO.P,J1,2,Pin_2*%
%TO.N,/GP_A0*%
X113920000Y-89535000D03*
%TO.P,J1,3,Pin_3*%
%TO.N,/GP_D0*%
X116460000Y-89535000D03*
%TO.P,J1,4,Pin_4*%
%TO.N,/GP_D5*%
X119000000Y-89535000D03*
%TO.P,J1,5,Pin_5*%
%TO.N,/GP_D6*%
X121540000Y-89535000D03*
%TO.P,J1,6,Pin_6*%
%TO.N,/GP_D7*%
X124080000Y-89535000D03*
%TO.P,J1,7,Pin_7*%
%TO.N,/GP_D8*%
X126620000Y-89535000D03*
%TO.P,J1,8,Pin_8*%
%TO.N,/3V3*%
X129160000Y-89535000D03*
%TD*%
D25*
%TO.N,+12V*%
X140970000Y-62230000D03*
X140970000Y-57150000D03*
%TO.N,GNDPWR*%
X138430000Y-75438000D03*
X154940000Y-68580000D03*
X156210000Y-62230000D03*
X151765000Y-84455000D03*
X162560000Y-81280000D03*
X162560000Y-68580000D03*
%TO.N,GND*%
X124460000Y-62230000D03*
X111760000Y-86360000D03*
X130810000Y-83820000D03*
X162560000Y-93980000D03*
X111000000Y-78500000D03*
X110490000Y-62230000D03*
X133350000Y-73152000D03*
X128524000Y-76708000D03*
X118110000Y-62230000D03*
X135636000Y-76200000D03*
X135636000Y-74168000D03*
X134620000Y-93980000D03*
%TD*%
D26*
%TO.N,+12V*%
X142670000Y-70280000D02*
X140335000Y-70280000D01*
X130770000Y-64730000D02*
X129610000Y-64730000D01*
X144850000Y-64730000D02*
X144850000Y-59730000D01*
X148250000Y-73500000D02*
X146505000Y-71755000D01*
X144850000Y-59730000D02*
X137230000Y-59730000D01*
X143805000Y-71755000D02*
X143805000Y-71415000D01*
X143805000Y-71415000D02*
X142670000Y-70280000D01*
X140335000Y-70280000D02*
X136320000Y-70280000D01*
X137230000Y-64730000D02*
X137230000Y-59730000D01*
X136320000Y-70280000D02*
X130770000Y-64730000D01*
X142560113Y-82550000D02*
X142875000Y-82550000D01*
X142875000Y-82550000D02*
X148250000Y-77175000D01*
X129610000Y-64730000D02*
X129610000Y-59730000D01*
X146505000Y-71755000D02*
X143805000Y-71755000D01*
X148250000Y-77175000D02*
X148250000Y-73500000D01*
X137230000Y-64730000D02*
X144850000Y-64730000D01*
%TO.N,GNDPWR*%
X160090000Y-59730000D02*
X160090000Y-64730000D01*
X140560113Y-81550978D02*
X141060602Y-81050489D01*
X126238000Y-59182000D02*
X126238000Y-66040000D01*
X140560113Y-82550000D02*
X140560113Y-81550978D01*
X143805000Y-74295000D02*
X140335000Y-74295000D01*
X152470000Y-59730000D02*
X152470000Y-64730000D01*
X144780000Y-74295000D02*
X143805000Y-74295000D01*
D27*
X139319000Y-74295000D02*
X140335000Y-74295000D01*
D26*
X142469511Y-81050489D02*
X146050000Y-77470000D01*
X160090000Y-59730000D02*
X152470000Y-59730000D01*
X146050000Y-77470000D02*
X146050000Y-75565000D01*
D27*
X138295000Y-74295000D02*
X139319000Y-74295000D01*
D26*
X140335000Y-74295000D02*
X140335000Y-75360000D01*
X137160000Y-72136000D02*
X139319000Y-74295000D01*
X133888944Y-72136000D02*
X137160000Y-72136000D01*
X141060602Y-81050489D02*
X142469511Y-81050489D01*
X124206000Y-57150000D02*
X126238000Y-59182000D01*
X128524000Y-68326000D02*
X130078944Y-68326000D01*
X109330000Y-57150000D02*
X124206000Y-57150000D01*
X160090000Y-64730000D02*
X152470000Y-64730000D01*
X106750000Y-59730000D02*
X106750000Y-64730000D01*
X140335000Y-73230000D02*
X140335000Y-74295000D01*
X130078944Y-68326000D02*
X133888944Y-72136000D01*
X138430000Y-75438000D02*
X138508000Y-75360000D01*
X146050000Y-75565000D02*
X144780000Y-74295000D01*
X126238000Y-66040000D02*
X128524000Y-68326000D01*
X138508000Y-75360000D02*
X140335000Y-75360000D01*
X106750000Y-59730000D02*
X109330000Y-57150000D01*
D27*
%TO.N,+5V*%
X129935000Y-78105000D02*
X129935000Y-75070000D01*
X130140000Y-78310000D02*
X129935000Y-78105000D01*
X129935000Y-75070000D02*
X129160000Y-74295000D01*
X142035000Y-78310000D02*
X140335000Y-78310000D01*
X143805000Y-76835000D02*
X143510000Y-76835000D01*
X140335000Y-78310000D02*
X130140000Y-78310000D01*
X129160000Y-74295000D02*
X129160000Y-70485000D01*
X143510000Y-76835000D02*
X142035000Y-78310000D01*
D28*
%TO.N,GND*%
X137295000Y-74295000D02*
X135763000Y-74295000D01*
X137295000Y-74295000D02*
X135636000Y-75954000D01*
X114370000Y-59730000D02*
X114370000Y-64730000D01*
X135763000Y-74295000D02*
X135636000Y-74168000D01*
X128524000Y-76708000D02*
X128524000Y-77966000D01*
X135636000Y-75954000D02*
X135636000Y-76200000D01*
X133350000Y-73152000D02*
X136152000Y-73152000D01*
X126620000Y-70485000D02*
X126620000Y-74295000D01*
X136152000Y-73152000D02*
X137295000Y-74295000D01*
X128524000Y-77966000D02*
X128385000Y-78105000D01*
X126620000Y-70485000D02*
X126620000Y-70225344D01*
X126620000Y-70225344D02*
X124466656Y-68072000D01*
X117712000Y-68072000D02*
X114370000Y-64730000D01*
X124466656Y-68072000D02*
X117712000Y-68072000D01*
%TO.N,/GPo_WS281x*%
X125730000Y-77470000D02*
X127985489Y-75214511D01*
X123150000Y-64730000D02*
X121990000Y-64730000D01*
X121990000Y-59730000D02*
X121990000Y-64730000D01*
X127985489Y-75214511D02*
X127985489Y-69565489D01*
X127985489Y-69565489D02*
X123150000Y-64730000D01*
X125730000Y-78105000D02*
X125730000Y-77470000D01*
%TO.N,/RST*%
X111380000Y-89535000D02*
X111380000Y-93345000D01*
%TO.N,/GP_A0*%
X113920000Y-93345000D02*
X113920000Y-89535000D01*
%TO.N,/GP_D0*%
X116460000Y-89535000D02*
X116460000Y-93345000D01*
%TO.N,/GP_D5*%
X119000000Y-93345000D02*
X119000000Y-89535000D01*
%TO.N,/GP_D6*%
X121540000Y-89535000D02*
X121540000Y-93345000D01*
%TO.N,/GP_D7*%
X124080000Y-93345000D02*
X124080000Y-89535000D01*
%TO.N,/GP_D8*%
X126620000Y-89535000D02*
X126620000Y-93345000D01*
%TO.N,/3V3*%
X129160000Y-93345000D02*
X129160000Y-89535000D01*
%TO.N,/GP_D4*%
X124080000Y-70485000D02*
X124080000Y-74295000D01*
X124080000Y-74295000D02*
X124080000Y-78105000D01*
%TO.N,/GP_D3*%
X121540000Y-70485000D02*
X121540000Y-74295000D01*
%TO.N,/GP_D2*%
X119000000Y-70485000D02*
X119000000Y-74295000D01*
%TO.N,/GP_D1*%
X116460000Y-70485000D02*
X116460000Y-74295000D01*
%TO.N,/GP_Rx*%
X113920000Y-70485000D02*
X113920000Y-74295000D01*
%TO.N,/GP_Tx*%
X111380000Y-70485000D02*
X111380000Y-74295000D01*
%TD*%
%TA.AperFunction,Conductor*%
%TO.N,+12V*%
G36*
X148676191Y-56199407D02*
G01*
X148712155Y-56248907D01*
X148717000Y-56279500D01*
X148717000Y-72927922D01*
X148698093Y-72986113D01*
X148648593Y-73022077D01*
X148619941Y-73026903D01*
X148122361Y-73036660D01*
X145219810Y-73093572D01*
X145161262Y-73075810D01*
X145124334Y-73027025D01*
X145123135Y-72965851D01*
X145133112Y-72945785D01*
X145132641Y-72945545D01*
X145186629Y-72839588D01*
X145191384Y-72824953D01*
X145204391Y-72742827D01*
X145205000Y-72735088D01*
X145205000Y-72120680D01*
X145200878Y-72107995D01*
X145196757Y-72105000D01*
X142420681Y-72105000D01*
X142407996Y-72109122D01*
X142405001Y-72113243D01*
X142405001Y-72735085D01*
X142405611Y-72742829D01*
X142418616Y-72824949D01*
X142423373Y-72839591D01*
X142473823Y-72938606D01*
X142482865Y-72951051D01*
X142510853Y-72979039D01*
X142538630Y-73033556D01*
X142529059Y-73093988D01*
X142485794Y-73137253D01*
X142442791Y-73148024D01*
X142271030Y-73151392D01*
X142214177Y-73134785D01*
X141491980Y-72653320D01*
X141468040Y-72630803D01*
X141382008Y-72517460D01*
X141382005Y-72517457D01*
X141377922Y-72512078D01*
X141347742Y-72489170D01*
X141263160Y-72424968D01*
X141263158Y-72424967D01*
X141257783Y-72420887D01*
X141117547Y-72365364D01*
X141106669Y-72364048D01*
X141070698Y-72359694D01*
X141027678Y-72343784D01*
X139966197Y-71636131D01*
X139966196Y-71636131D01*
X139954000Y-71628000D01*
X137825086Y-71628000D01*
X137766895Y-71609093D01*
X137755082Y-71599004D01*
X137732366Y-71576288D01*
X137731637Y-71575551D01*
X137673012Y-71515685D01*
X137669141Y-71511732D01*
X137631967Y-71487775D01*
X137623832Y-71481929D01*
X137593593Y-71457790D01*
X137593592Y-71457789D01*
X137589266Y-71454336D01*
X137584289Y-71451930D01*
X137584281Y-71451925D01*
X137557952Y-71439197D01*
X137547411Y-71433282D01*
X137522834Y-71417443D01*
X137522832Y-71417442D01*
X137518183Y-71414446D01*
X137476604Y-71399312D01*
X137467397Y-71395422D01*
X137454774Y-71389320D01*
X142405000Y-71389320D01*
X142409122Y-71402005D01*
X142413243Y-71405000D01*
X143439320Y-71405000D01*
X143452005Y-71400878D01*
X143455000Y-71396757D01*
X143455000Y-71389320D01*
X144155000Y-71389320D01*
X144159122Y-71402005D01*
X144163243Y-71405000D01*
X145189319Y-71405000D01*
X145202004Y-71400878D01*
X145204999Y-71396757D01*
X145204999Y-70774915D01*
X145204389Y-70767171D01*
X145191384Y-70685051D01*
X145186627Y-70670409D01*
X145136177Y-70571394D01*
X145127135Y-70558949D01*
X145048551Y-70480365D01*
X145036106Y-70471323D01*
X144937088Y-70420871D01*
X144922453Y-70416116D01*
X144840327Y-70403109D01*
X144832588Y-70402500D01*
X144170680Y-70402500D01*
X144157995Y-70406622D01*
X144155000Y-70410743D01*
X144155000Y-71389320D01*
X143455000Y-71389320D01*
X143455000Y-70418181D01*
X143450878Y-70405496D01*
X143446757Y-70402501D01*
X142777415Y-70402501D01*
X142769671Y-70403111D01*
X142687551Y-70416116D01*
X142672909Y-70420873D01*
X142573894Y-70471323D01*
X142561449Y-70480365D01*
X142482865Y-70558949D01*
X142473823Y-70571394D01*
X142423371Y-70670412D01*
X142418616Y-70685047D01*
X142405609Y-70767173D01*
X142405000Y-70774912D01*
X142405000Y-71389320D01*
X137454774Y-71389320D01*
X137432566Y-71378584D01*
X137432564Y-71378583D01*
X137427578Y-71376173D01*
X137393687Y-71368349D01*
X137382102Y-71364916D01*
X137354631Y-71354917D01*
X137354624Y-71354915D01*
X137349422Y-71353022D01*
X137316559Y-71348870D01*
X137305546Y-71347479D01*
X137295685Y-71345723D01*
X137278378Y-71341728D01*
X137252589Y-71335774D01*
X137212508Y-71335634D01*
X137211519Y-71335601D01*
X137210717Y-71335500D01*
X137174168Y-71335500D01*
X137173822Y-71335499D01*
X137172509Y-71335494D01*
X137073000Y-71335147D01*
X137071841Y-71335406D01*
X137070106Y-71335500D01*
X134261530Y-71335500D01*
X134203339Y-71316593D01*
X134191526Y-71306504D01*
X133553714Y-70668692D01*
X139035000Y-70668692D01*
X139035153Y-70672584D01*
X139037503Y-70702449D01*
X139039311Y-70712349D01*
X139081980Y-70859216D01*
X139086890Y-70870561D01*
X139164144Y-71001191D01*
X139171721Y-71010960D01*
X139279040Y-71118279D01*
X139288809Y-71125856D01*
X139419439Y-71203110D01*
X139430784Y-71208020D01*
X139577651Y-71250689D01*
X139587551Y-71252497D01*
X139617416Y-71254847D01*
X139621308Y-71255000D01*
X139969320Y-71255000D01*
X139982005Y-71250878D01*
X139985000Y-71246757D01*
X139985000Y-71239320D01*
X140685000Y-71239320D01*
X140689122Y-71252005D01*
X140693243Y-71255000D01*
X141048692Y-71255000D01*
X141052584Y-71254847D01*
X141082449Y-71252497D01*
X141092349Y-71250689D01*
X141239216Y-71208020D01*
X141250561Y-71203110D01*
X141381191Y-71125856D01*
X141390960Y-71118279D01*
X141498279Y-71010960D01*
X141505856Y-71001191D01*
X141583110Y-70870561D01*
X141588020Y-70859216D01*
X141630689Y-70712349D01*
X141632497Y-70702449D01*
X141634847Y-70672584D01*
X141635000Y-70668692D01*
X141635000Y-70645680D01*
X141630878Y-70632995D01*
X141626757Y-70630000D01*
X140700680Y-70630000D01*
X140687995Y-70634122D01*
X140685000Y-70638243D01*
X140685000Y-71239320D01*
X139985000Y-71239320D01*
X139985000Y-70645680D01*
X139980878Y-70632995D01*
X139976757Y-70630000D01*
X139050680Y-70630000D01*
X139037995Y-70634122D01*
X139035000Y-70638243D01*
X139035000Y-70668692D01*
X133553714Y-70668692D01*
X132799342Y-69914320D01*
X139035000Y-69914320D01*
X139039122Y-69927005D01*
X139043243Y-69930000D01*
X139969320Y-69930000D01*
X139982005Y-69925878D01*
X139985000Y-69921757D01*
X139985000Y-69914320D01*
X140685000Y-69914320D01*
X140689122Y-69927005D01*
X140693243Y-69930000D01*
X141619320Y-69930000D01*
X141632005Y-69925878D01*
X141635000Y-69921757D01*
X141635000Y-69891308D01*
X141634847Y-69887416D01*
X141632497Y-69857551D01*
X141630689Y-69847651D01*
X141588020Y-69700784D01*
X141583110Y-69689439D01*
X141505856Y-69558809D01*
X141498279Y-69549040D01*
X141390960Y-69441721D01*
X141381191Y-69434144D01*
X141250561Y-69356890D01*
X141239216Y-69351980D01*
X141092349Y-69309311D01*
X141082449Y-69307503D01*
X141052584Y-69305153D01*
X141048692Y-69305000D01*
X140700680Y-69305000D01*
X140687995Y-69309122D01*
X140685000Y-69313243D01*
X140685000Y-69914320D01*
X139985000Y-69914320D01*
X139985000Y-69320680D01*
X139980878Y-69307995D01*
X139976757Y-69305000D01*
X139621308Y-69305000D01*
X139617416Y-69305153D01*
X139587551Y-69307503D01*
X139577651Y-69309311D01*
X139430784Y-69351980D01*
X139419439Y-69356890D01*
X139288809Y-69434144D01*
X139279040Y-69441721D01*
X139171721Y-69549040D01*
X139164144Y-69558809D01*
X139086890Y-69689439D01*
X139081980Y-69700784D01*
X139039311Y-69847651D01*
X139037503Y-69857551D01*
X139035153Y-69887416D01*
X139035000Y-69891308D01*
X139035000Y-69914320D01*
X132799342Y-69914320D01*
X130651310Y-67766288D01*
X130650581Y-67765551D01*
X130591956Y-67705685D01*
X130588085Y-67701732D01*
X130550911Y-67677775D01*
X130542776Y-67671929D01*
X130512537Y-67647790D01*
X130512536Y-67647789D01*
X130508210Y-67644336D01*
X130503233Y-67641930D01*
X130503225Y-67641925D01*
X130476896Y-67629197D01*
X130466355Y-67623282D01*
X130441778Y-67607443D01*
X130441776Y-67607442D01*
X130437127Y-67604446D01*
X130395548Y-67589312D01*
X130386341Y-67585422D01*
X130351510Y-67568584D01*
X130351508Y-67568583D01*
X130346522Y-67566173D01*
X130312631Y-67558349D01*
X130301046Y-67554916D01*
X130273575Y-67544917D01*
X130273568Y-67544915D01*
X130268366Y-67543022D01*
X130235503Y-67538870D01*
X130224490Y-67537479D01*
X130214629Y-67535723D01*
X130197322Y-67531728D01*
X130171533Y-67525774D01*
X130131452Y-67525634D01*
X130130463Y-67525601D01*
X130129661Y-67525500D01*
X130093112Y-67525500D01*
X130092766Y-67525499D01*
X130091453Y-67525494D01*
X129991944Y-67525147D01*
X129990785Y-67525406D01*
X129989050Y-67525500D01*
X128896586Y-67525500D01*
X128838395Y-67506593D01*
X128826582Y-67496504D01*
X127375571Y-66045493D01*
X128795049Y-66045493D01*
X128801419Y-66052384D01*
X128900824Y-66113300D01*
X128907730Y-66116819D01*
X129125952Y-66207209D01*
X129133320Y-66209603D01*
X129363004Y-66264745D01*
X129370647Y-66265956D01*
X129606125Y-66284488D01*
X129613875Y-66284488D01*
X129849353Y-66265956D01*
X129856996Y-66264745D01*
X130086680Y-66209603D01*
X130094048Y-66207209D01*
X130312270Y-66116819D01*
X130319176Y-66113300D01*
X130416887Y-66053422D01*
X130423658Y-66045493D01*
X136415049Y-66045493D01*
X136421419Y-66052384D01*
X136520824Y-66113300D01*
X136527730Y-66116819D01*
X136745952Y-66207209D01*
X136753320Y-66209603D01*
X136983004Y-66264745D01*
X136990647Y-66265956D01*
X137226125Y-66284488D01*
X137233875Y-66284488D01*
X137469353Y-66265956D01*
X137476996Y-66264745D01*
X137706680Y-66209603D01*
X137714048Y-66207209D01*
X137932270Y-66116819D01*
X137939176Y-66113300D01*
X138036887Y-66053422D01*
X138043658Y-66045493D01*
X144035049Y-66045493D01*
X144041419Y-66052384D01*
X144140824Y-66113300D01*
X144147730Y-66116819D01*
X144365952Y-66207209D01*
X144373320Y-66209603D01*
X144603004Y-66264745D01*
X144610647Y-66265956D01*
X144846125Y-66284488D01*
X144853875Y-66284488D01*
X145089353Y-66265956D01*
X145096996Y-66264745D01*
X145326680Y-66209603D01*
X145334048Y-66207209D01*
X145552270Y-66116819D01*
X145559176Y-66113300D01*
X145656887Y-66053422D01*
X145665159Y-66043736D01*
X145660575Y-66035550D01*
X144861086Y-65236061D01*
X144849203Y-65230007D01*
X144844172Y-65230803D01*
X144040831Y-66034144D01*
X144035049Y-66045493D01*
X138043658Y-66045493D01*
X138045159Y-66043736D01*
X138040575Y-66035550D01*
X137241086Y-65236061D01*
X137229203Y-65230007D01*
X137224172Y-65230803D01*
X136420831Y-66034144D01*
X136415049Y-66045493D01*
X130423658Y-66045493D01*
X130425159Y-66043736D01*
X130420575Y-66035550D01*
X129621086Y-65236061D01*
X129609203Y-65230007D01*
X129604172Y-65230803D01*
X128800831Y-66034144D01*
X128795049Y-66045493D01*
X127375571Y-66045493D01*
X127067496Y-65737418D01*
X127039719Y-65682901D01*
X127038500Y-65667414D01*
X127038500Y-64733875D01*
X128055512Y-64733875D01*
X128074044Y-64969353D01*
X128075255Y-64976996D01*
X128130397Y-65206680D01*
X128132791Y-65214048D01*
X128223181Y-65432270D01*
X128226700Y-65439176D01*
X128286578Y-65536887D01*
X128296264Y-65545159D01*
X128304450Y-65540575D01*
X129103939Y-64741086D01*
X129109181Y-64730797D01*
X130110007Y-64730797D01*
X130110803Y-64735828D01*
X130914144Y-65539169D01*
X130925493Y-65544951D01*
X130932384Y-65538581D01*
X130993300Y-65439176D01*
X130996819Y-65432270D01*
X131087209Y-65214048D01*
X131089603Y-65206680D01*
X131144745Y-64976996D01*
X131145956Y-64969353D01*
X131164488Y-64733875D01*
X135675512Y-64733875D01*
X135694044Y-64969353D01*
X135695255Y-64976996D01*
X135750397Y-65206680D01*
X135752791Y-65214048D01*
X135843181Y-65432270D01*
X135846700Y-65439176D01*
X135906578Y-65536887D01*
X135916264Y-65545159D01*
X135924450Y-65540575D01*
X136723939Y-64741086D01*
X136729181Y-64730797D01*
X137730007Y-64730797D01*
X137730803Y-64735828D01*
X138534144Y-65539169D01*
X138545493Y-65544951D01*
X138552384Y-65538581D01*
X138613300Y-65439176D01*
X138616819Y-65432270D01*
X138707209Y-65214048D01*
X138709603Y-65206680D01*
X138764745Y-64976996D01*
X138765956Y-64969353D01*
X138784488Y-64733875D01*
X143295512Y-64733875D01*
X143314044Y-64969353D01*
X143315255Y-64976996D01*
X143370397Y-65206680D01*
X143372791Y-65214048D01*
X143463181Y-65432270D01*
X143466700Y-65439176D01*
X143526578Y-65536887D01*
X143536264Y-65545159D01*
X143544450Y-65540575D01*
X144343939Y-64741086D01*
X144349181Y-64730797D01*
X145350007Y-64730797D01*
X145350803Y-64735828D01*
X146154144Y-65539169D01*
X146165493Y-65544951D01*
X146172384Y-65538581D01*
X146233300Y-65439176D01*
X146236819Y-65432270D01*
X146327209Y-65214048D01*
X146329603Y-65206680D01*
X146384745Y-64976996D01*
X146385956Y-64969353D01*
X146404488Y-64733875D01*
X146404488Y-64726125D01*
X146385956Y-64490647D01*
X146384745Y-64483004D01*
X146329603Y-64253320D01*
X146327209Y-64245952D01*
X146236819Y-64027730D01*
X146233300Y-64020824D01*
X146173422Y-63923113D01*
X146163736Y-63914841D01*
X146155550Y-63919425D01*
X145356061Y-64718914D01*
X145350007Y-64730797D01*
X144349181Y-64730797D01*
X144349993Y-64729203D01*
X144349197Y-64724172D01*
X143545856Y-63920831D01*
X143534507Y-63915049D01*
X143527616Y-63921419D01*
X143466700Y-64020824D01*
X143463181Y-64027730D01*
X143372791Y-64245952D01*
X143370397Y-64253320D01*
X143315255Y-64483004D01*
X143314044Y-64490647D01*
X143295512Y-64726125D01*
X143295512Y-64733875D01*
X138784488Y-64733875D01*
X138784488Y-64726125D01*
X138765956Y-64490647D01*
X138764745Y-64483004D01*
X138709603Y-64253320D01*
X138707209Y-64245952D01*
X138616819Y-64027730D01*
X138613300Y-64020824D01*
X138553422Y-63923113D01*
X138543736Y-63914841D01*
X138535550Y-63919425D01*
X137736061Y-64718914D01*
X137730007Y-64730797D01*
X136729181Y-64730797D01*
X136729993Y-64729203D01*
X136729197Y-64724172D01*
X135925856Y-63920831D01*
X135914507Y-63915049D01*
X135907616Y-63921419D01*
X135846700Y-64020824D01*
X135843181Y-64027730D01*
X135752791Y-64245952D01*
X135750397Y-64253320D01*
X135695255Y-64483004D01*
X135694044Y-64490647D01*
X135675512Y-64726125D01*
X135675512Y-64733875D01*
X131164488Y-64733875D01*
X131164488Y-64726125D01*
X131145956Y-64490647D01*
X131144745Y-64483004D01*
X131089603Y-64253320D01*
X131087209Y-64245952D01*
X130996819Y-64027730D01*
X130993300Y-64020824D01*
X130933422Y-63923113D01*
X130923736Y-63914841D01*
X130915550Y-63919425D01*
X130116061Y-64718914D01*
X130110007Y-64730797D01*
X129109181Y-64730797D01*
X129109993Y-64729203D01*
X129109197Y-64724172D01*
X128305856Y-63920831D01*
X128294507Y-63915049D01*
X128287616Y-63921419D01*
X128226700Y-64020824D01*
X128223181Y-64027730D01*
X128132791Y-64245952D01*
X128130397Y-64253320D01*
X128075255Y-64483004D01*
X128074044Y-64490647D01*
X128055512Y-64726125D01*
X128055512Y-64733875D01*
X127038500Y-64733875D01*
X127038500Y-63416264D01*
X128794841Y-63416264D01*
X128799425Y-63424450D01*
X129598914Y-64223939D01*
X129610797Y-64229993D01*
X129615828Y-64229197D01*
X130419169Y-63425856D01*
X130424056Y-63416264D01*
X136414841Y-63416264D01*
X136419425Y-63424450D01*
X137218914Y-64223939D01*
X137230797Y-64229993D01*
X137235828Y-64229197D01*
X138039169Y-63425856D01*
X138044056Y-63416264D01*
X144034841Y-63416264D01*
X144039425Y-63424450D01*
X144838914Y-64223939D01*
X144850797Y-64229993D01*
X144855828Y-64229197D01*
X145659169Y-63425856D01*
X145664951Y-63414507D01*
X145658581Y-63407616D01*
X145559176Y-63346700D01*
X145552270Y-63343181D01*
X145334048Y-63252791D01*
X145326680Y-63250397D01*
X145096996Y-63195255D01*
X145089353Y-63194044D01*
X144853875Y-63175512D01*
X144846125Y-63175512D01*
X144610647Y-63194044D01*
X144603004Y-63195255D01*
X144373320Y-63250397D01*
X144365952Y-63252791D01*
X144147730Y-63343181D01*
X144140824Y-63346700D01*
X144043113Y-63406578D01*
X144034841Y-63416264D01*
X138044056Y-63416264D01*
X138044951Y-63414507D01*
X138038581Y-63407616D01*
X137939176Y-63346700D01*
X137932270Y-63343181D01*
X137714048Y-63252791D01*
X137706680Y-63250397D01*
X137476996Y-63195255D01*
X137469353Y-63194044D01*
X137233875Y-63175512D01*
X137226125Y-63175512D01*
X136990647Y-63194044D01*
X136983004Y-63195255D01*
X136753320Y-63250397D01*
X136745952Y-63252791D01*
X136527730Y-63343181D01*
X136520824Y-63346700D01*
X136423113Y-63406578D01*
X136414841Y-63416264D01*
X130424056Y-63416264D01*
X130424951Y-63414507D01*
X130418581Y-63407616D01*
X130319176Y-63346700D01*
X130312270Y-63343181D01*
X130094048Y-63252791D01*
X130086680Y-63250397D01*
X129856996Y-63195255D01*
X129849353Y-63194044D01*
X129613875Y-63175512D01*
X129606125Y-63175512D01*
X129370647Y-63194044D01*
X129363004Y-63195255D01*
X129133320Y-63250397D01*
X129125952Y-63252791D01*
X128907730Y-63343181D01*
X128900824Y-63346700D01*
X128803113Y-63406578D01*
X128794841Y-63416264D01*
X127038500Y-63416264D01*
X127038500Y-61045493D01*
X128795049Y-61045493D01*
X128801419Y-61052384D01*
X128900824Y-61113300D01*
X128907730Y-61116819D01*
X129125952Y-61207209D01*
X129133320Y-61209603D01*
X129363004Y-61264745D01*
X129370647Y-61265956D01*
X129606125Y-61284488D01*
X129613875Y-61284488D01*
X129849353Y-61265956D01*
X129856996Y-61264745D01*
X130086680Y-61209603D01*
X130094048Y-61207209D01*
X130312270Y-61116819D01*
X130319176Y-61113300D01*
X130416887Y-61053422D01*
X130423658Y-61045493D01*
X136415049Y-61045493D01*
X136421419Y-61052384D01*
X136520824Y-61113300D01*
X136527730Y-61116819D01*
X136745952Y-61207209D01*
X136753320Y-61209603D01*
X136983004Y-61264745D01*
X136990647Y-61265956D01*
X137226125Y-61284488D01*
X137233875Y-61284488D01*
X137469353Y-61265956D01*
X137476996Y-61264745D01*
X137706680Y-61209603D01*
X137714048Y-61207209D01*
X137932270Y-61116819D01*
X137939176Y-61113300D01*
X138036887Y-61053422D01*
X138043658Y-61045493D01*
X144035049Y-61045493D01*
X144041419Y-61052384D01*
X144140824Y-61113300D01*
X144147730Y-61116819D01*
X144365952Y-61207209D01*
X144373320Y-61209603D01*
X144603004Y-61264745D01*
X144610647Y-61265956D01*
X144846125Y-61284488D01*
X144853875Y-61284488D01*
X145089353Y-61265956D01*
X145096996Y-61264745D01*
X145326680Y-61209603D01*
X145334048Y-61207209D01*
X145552270Y-61116819D01*
X145559176Y-61113300D01*
X145656887Y-61053422D01*
X145665159Y-61043736D01*
X145660575Y-61035550D01*
X144861086Y-60236061D01*
X144849203Y-60230007D01*
X144844172Y-60230803D01*
X144040831Y-61034144D01*
X144035049Y-61045493D01*
X138043658Y-61045493D01*
X138045159Y-61043736D01*
X138040575Y-61035550D01*
X137241086Y-60236061D01*
X137229203Y-60230007D01*
X137224172Y-60230803D01*
X136420831Y-61034144D01*
X136415049Y-61045493D01*
X130423658Y-61045493D01*
X130425159Y-61043736D01*
X130420575Y-61035550D01*
X129621086Y-60236061D01*
X129609203Y-60230007D01*
X129604172Y-60230803D01*
X128800831Y-61034144D01*
X128795049Y-61045493D01*
X127038500Y-61045493D01*
X127038500Y-59733875D01*
X128055512Y-59733875D01*
X128074044Y-59969353D01*
X128075255Y-59976996D01*
X128130397Y-60206680D01*
X128132791Y-60214048D01*
X128223181Y-60432270D01*
X128226700Y-60439176D01*
X128286578Y-60536887D01*
X128296264Y-60545159D01*
X128304450Y-60540575D01*
X129103939Y-59741086D01*
X129109181Y-59730797D01*
X130110007Y-59730797D01*
X130110803Y-59735828D01*
X130914144Y-60539169D01*
X130925493Y-60544951D01*
X130932384Y-60538581D01*
X130993300Y-60439176D01*
X130996819Y-60432270D01*
X131087209Y-60214048D01*
X131089603Y-60206680D01*
X131144745Y-59976996D01*
X131145956Y-59969353D01*
X131164488Y-59733875D01*
X135675512Y-59733875D01*
X135694044Y-59969353D01*
X135695255Y-59976996D01*
X135750397Y-60206680D01*
X135752791Y-60214048D01*
X135843181Y-60432270D01*
X135846700Y-60439176D01*
X135906578Y-60536887D01*
X135916264Y-60545159D01*
X135924450Y-60540575D01*
X136723939Y-59741086D01*
X136729181Y-59730797D01*
X137730007Y-59730797D01*
X137730803Y-59735828D01*
X138534144Y-60539169D01*
X138545493Y-60544951D01*
X138552384Y-60538581D01*
X138613300Y-60439176D01*
X138616819Y-60432270D01*
X138707209Y-60214048D01*
X138709603Y-60206680D01*
X138764745Y-59976996D01*
X138765956Y-59969353D01*
X138784488Y-59733875D01*
X143295512Y-59733875D01*
X143314044Y-59969353D01*
X143315255Y-59976996D01*
X143370397Y-60206680D01*
X143372791Y-60214048D01*
X143463181Y-60432270D01*
X143466700Y-60439176D01*
X143526578Y-60536887D01*
X143536264Y-60545159D01*
X143544450Y-60540575D01*
X144343939Y-59741086D01*
X144349181Y-59730797D01*
X145350007Y-59730797D01*
X145350803Y-59735828D01*
X146154144Y-60539169D01*
X146165493Y-60544951D01*
X146172384Y-60538581D01*
X146233300Y-60439176D01*
X146236819Y-60432270D01*
X146327209Y-60214048D01*
X146329603Y-60206680D01*
X146384745Y-59976996D01*
X146385956Y-59969353D01*
X146404488Y-59733875D01*
X146404488Y-59726125D01*
X146385956Y-59490647D01*
X146384745Y-59483004D01*
X146329603Y-59253320D01*
X146327209Y-59245952D01*
X146236819Y-59027730D01*
X146233300Y-59020824D01*
X146173422Y-58923113D01*
X146163736Y-58914841D01*
X146155550Y-58919425D01*
X145356061Y-59718914D01*
X145350007Y-59730797D01*
X144349181Y-59730797D01*
X144349993Y-59729203D01*
X144349197Y-59724172D01*
X143545856Y-58920831D01*
X143534507Y-58915049D01*
X143527616Y-58921419D01*
X143466700Y-59020824D01*
X143463181Y-59027730D01*
X143372791Y-59245952D01*
X143370397Y-59253320D01*
X143315255Y-59483004D01*
X143314044Y-59490647D01*
X143295512Y-59726125D01*
X143295512Y-59733875D01*
X138784488Y-59733875D01*
X138784488Y-59726125D01*
X138765956Y-59490647D01*
X138764745Y-59483004D01*
X138709603Y-59253320D01*
X138707209Y-59245952D01*
X138616819Y-59027730D01*
X138613300Y-59020824D01*
X138553422Y-58923113D01*
X138543736Y-58914841D01*
X138535550Y-58919425D01*
X137736061Y-59718914D01*
X137730007Y-59730797D01*
X136729181Y-59730797D01*
X136729993Y-59729203D01*
X136729197Y-59724172D01*
X135925856Y-58920831D01*
X135914507Y-58915049D01*
X135907616Y-58921419D01*
X135846700Y-59020824D01*
X135843181Y-59027730D01*
X135752791Y-59245952D01*
X135750397Y-59253320D01*
X135695255Y-59483004D01*
X135694044Y-59490647D01*
X135675512Y-59726125D01*
X135675512Y-59733875D01*
X131164488Y-59733875D01*
X131164488Y-59726125D01*
X131145956Y-59490647D01*
X131144745Y-59483004D01*
X131089603Y-59253320D01*
X131087209Y-59245952D01*
X130996819Y-59027730D01*
X130993300Y-59020824D01*
X130933422Y-58923113D01*
X130923736Y-58914841D01*
X130915550Y-58919425D01*
X130116061Y-59718914D01*
X130110007Y-59730797D01*
X129109181Y-59730797D01*
X129109993Y-59729203D01*
X129109197Y-59724172D01*
X128305856Y-58920831D01*
X128294507Y-58915049D01*
X128287616Y-58921419D01*
X128226700Y-59020824D01*
X128223181Y-59027730D01*
X128132791Y-59245952D01*
X128130397Y-59253320D01*
X128075255Y-59483004D01*
X128074044Y-59490647D01*
X128055512Y-59726125D01*
X128055512Y-59733875D01*
X127038500Y-59733875D01*
X127038500Y-59190991D01*
X127038505Y-59189954D01*
X127039383Y-59106126D01*
X127039441Y-59100593D01*
X127030093Y-59057359D01*
X127028476Y-59047481D01*
X127024163Y-59009025D01*
X127024162Y-59009021D01*
X127023546Y-59003528D01*
X127021728Y-58998308D01*
X127021727Y-58998303D01*
X127012108Y-58970683D01*
X127008837Y-58959045D01*
X127002659Y-58930470D01*
X127001489Y-58925058D01*
X126999151Y-58920044D01*
X126999149Y-58920038D01*
X126982799Y-58884976D01*
X126979030Y-58875694D01*
X126966306Y-58839156D01*
X126964485Y-58833927D01*
X126946056Y-58804434D01*
X126940290Y-58793813D01*
X126927930Y-58767307D01*
X126927926Y-58767300D01*
X126925591Y-58762293D01*
X126922204Y-58757927D01*
X126922200Y-58757920D01*
X126898480Y-58727341D01*
X126892748Y-58719125D01*
X126872248Y-58686318D01*
X126869316Y-58681625D01*
X126841061Y-58653172D01*
X126840398Y-58652463D01*
X126839901Y-58651823D01*
X126814041Y-58625963D01*
X126813798Y-58625718D01*
X126745162Y-58556601D01*
X126745155Y-58556595D01*
X126742770Y-58554193D01*
X126741769Y-58553558D01*
X126740476Y-58552398D01*
X126604342Y-58416264D01*
X128794841Y-58416264D01*
X128799425Y-58424450D01*
X129598914Y-59223939D01*
X129610797Y-59229993D01*
X129615828Y-59229197D01*
X130419169Y-58425856D01*
X130424056Y-58416264D01*
X136414841Y-58416264D01*
X136419425Y-58424450D01*
X137218914Y-59223939D01*
X137230797Y-59229993D01*
X137235828Y-59229197D01*
X138039169Y-58425856D01*
X138044056Y-58416264D01*
X144034841Y-58416264D01*
X144039425Y-58424450D01*
X144838914Y-59223939D01*
X144850797Y-59229993D01*
X144855828Y-59229197D01*
X145659169Y-58425856D01*
X145664951Y-58414507D01*
X145658581Y-58407616D01*
X145559176Y-58346700D01*
X145552270Y-58343181D01*
X145334048Y-58252791D01*
X145326680Y-58250397D01*
X145096996Y-58195255D01*
X145089353Y-58194044D01*
X144853875Y-58175512D01*
X144846125Y-58175512D01*
X144610647Y-58194044D01*
X144603004Y-58195255D01*
X144373320Y-58250397D01*
X144365952Y-58252791D01*
X144147730Y-58343181D01*
X144140824Y-58346700D01*
X144043113Y-58406578D01*
X144034841Y-58416264D01*
X138044056Y-58416264D01*
X138044951Y-58414507D01*
X138038581Y-58407616D01*
X137939176Y-58346700D01*
X137932270Y-58343181D01*
X137714048Y-58252791D01*
X137706680Y-58250397D01*
X137476996Y-58195255D01*
X137469353Y-58194044D01*
X137233875Y-58175512D01*
X137226125Y-58175512D01*
X136990647Y-58194044D01*
X136983004Y-58195255D01*
X136753320Y-58250397D01*
X136745952Y-58252791D01*
X136527730Y-58343181D01*
X136520824Y-58346700D01*
X136423113Y-58406578D01*
X136414841Y-58416264D01*
X130424056Y-58416264D01*
X130424951Y-58414507D01*
X130418581Y-58407616D01*
X130319176Y-58346700D01*
X130312270Y-58343181D01*
X130094048Y-58252791D01*
X130086680Y-58250397D01*
X129856996Y-58195255D01*
X129849353Y-58194044D01*
X129613875Y-58175512D01*
X129606125Y-58175512D01*
X129370647Y-58194044D01*
X129363004Y-58195255D01*
X129133320Y-58250397D01*
X129125952Y-58252791D01*
X128907730Y-58343181D01*
X128900824Y-58346700D01*
X128803113Y-58406578D01*
X128794841Y-58416264D01*
X126604342Y-58416264D01*
X126368996Y-58180918D01*
X126341219Y-58126401D01*
X126340000Y-58110914D01*
X126340000Y-56279500D01*
X126358907Y-56221309D01*
X126408407Y-56185345D01*
X126439000Y-56180500D01*
X148618000Y-56180500D01*
X148676191Y-56199407D01*
G37*
%TD.AperFunction*%
%TD*%
%TA.AperFunction,Conductor*%
%TO.N,GNDPWR*%
G36*
X163263621Y-56408502D02*
G01*
X163310114Y-56462158D01*
X163321500Y-56514500D01*
X163321500Y-87504000D01*
X163301498Y-87572121D01*
X163247842Y-87618614D01*
X163195500Y-87630000D01*
X161772470Y-87630000D01*
X161704349Y-87609998D01*
X161657633Y-87555851D01*
X161549875Y-87317194D01*
X161548654Y-87314489D01*
X161479695Y-87193590D01*
X161351113Y-86968163D01*
X161349648Y-86965594D01*
X161118691Y-86636976D01*
X160857833Y-86331550D01*
X160756530Y-86233381D01*
X160571529Y-86054102D01*
X160571520Y-86054094D01*
X160569390Y-86052030D01*
X160255922Y-85800894D01*
X160244207Y-85793199D01*
X159922695Y-85582005D01*
X159922685Y-85581999D01*
X159920211Y-85580374D01*
X159565237Y-85392425D01*
X159194151Y-85238716D01*
X158810247Y-85120611D01*
X158807344Y-85120010D01*
X158807337Y-85120008D01*
X158419851Y-85039764D01*
X158419841Y-85039762D01*
X158416932Y-85039160D01*
X158017697Y-84995084D01*
X158014716Y-84995037D01*
X158014713Y-84995037D01*
X157902454Y-84993274D01*
X157616086Y-84988775D01*
X157613142Y-84989007D01*
X157613132Y-84989007D01*
X157228775Y-85019257D01*
X157215663Y-85020289D01*
X156819984Y-85089346D01*
X156817117Y-85090130D01*
X156817105Y-85090133D01*
X156435423Y-85194549D01*
X156435413Y-85194552D01*
X156432559Y-85195333D01*
X156429795Y-85196377D01*
X156429784Y-85196381D01*
X156059601Y-85336262D01*
X156056828Y-85337310D01*
X155696126Y-85514016D01*
X155693591Y-85515569D01*
X155693590Y-85515570D01*
X155585178Y-85582005D01*
X155353654Y-85723883D01*
X155032452Y-85965049D01*
X154735371Y-86235371D01*
X154465049Y-86532452D01*
X154223883Y-86853654D01*
X154014016Y-87196126D01*
X153837310Y-87556828D01*
X153836629Y-87556495D01*
X153793253Y-87608618D01*
X153723032Y-87630000D01*
X137921000Y-87630000D01*
X137852879Y-87609998D01*
X137806386Y-87556342D01*
X137795000Y-87504000D01*
X137795000Y-82524219D01*
X139355763Y-82524219D01*
X139369431Y-82732759D01*
X139371231Y-82744127D01*
X139422676Y-82946689D01*
X139426514Y-82957527D01*
X139491850Y-83099252D01*
X139501122Y-83109876D01*
X139507015Y-83108123D01*
X140052326Y-82562812D01*
X140059940Y-82548868D01*
X140059809Y-82547035D01*
X140055558Y-82540420D01*
X139513729Y-81998591D01*
X139501349Y-81991831D01*
X139495383Y-81996297D01*
X139449399Y-82083698D01*
X139444994Y-82094333D01*
X139383021Y-82293916D01*
X139380628Y-82305174D01*
X139356064Y-82512718D01*
X139355763Y-82524219D01*
X137795000Y-82524219D01*
X137795000Y-79194500D01*
X137815002Y-79126379D01*
X137868658Y-79079886D01*
X137921000Y-79068500D01*
X138994317Y-79068500D01*
X139062438Y-79088502D01*
X139086016Y-79109855D01*
X139086522Y-79109348D01*
X139211697Y-79234305D01*
X139217927Y-79238145D01*
X139217928Y-79238146D01*
X139355090Y-79322694D01*
X139362262Y-79327115D01*
X139442005Y-79353564D01*
X139523611Y-79380632D01*
X139523613Y-79380632D01*
X139530139Y-79382797D01*
X139536975Y-79383497D01*
X139536978Y-79383498D01*
X139580031Y-79387909D01*
X139634600Y-79393500D01*
X141035400Y-79393500D01*
X141038646Y-79393163D01*
X141038650Y-79393163D01*
X141134308Y-79383238D01*
X141134312Y-79383237D01*
X141141166Y-79382526D01*
X141147702Y-79380345D01*
X141147704Y-79380345D01*
X141279806Y-79336272D01*
X141308946Y-79326550D01*
X141459348Y-79233478D01*
X141584305Y-79108303D01*
X141585945Y-79109941D01*
X141634744Y-79075344D01*
X141675706Y-79068500D01*
X141967930Y-79068500D01*
X141986880Y-79069933D01*
X142001115Y-79072099D01*
X142001119Y-79072099D01*
X142008349Y-79073199D01*
X142015641Y-79072606D01*
X142015644Y-79072606D01*
X142061018Y-79068915D01*
X142071233Y-79068500D01*
X142079293Y-79068500D01*
X142092583Y-79066951D01*
X142107507Y-79065211D01*
X142111882Y-79064778D01*
X142177339Y-79059454D01*
X142177342Y-79059453D01*
X142184637Y-79058860D01*
X142191601Y-79056604D01*
X142197560Y-79055413D01*
X142203415Y-79054029D01*
X142210681Y-79053182D01*
X142279327Y-79028265D01*
X142283455Y-79026848D01*
X142345936Y-79006607D01*
X142345938Y-79006606D01*
X142352899Y-79004351D01*
X142359154Y-79000555D01*
X142364628Y-78998049D01*
X142370058Y-78995330D01*
X142376937Y-78992833D01*
X142437976Y-78952814D01*
X142441680Y-78950477D01*
X142504107Y-78912595D01*
X142512484Y-78905197D01*
X142512508Y-78905224D01*
X142515500Y-78902571D01*
X142518733Y-78899868D01*
X142524852Y-78895856D01*
X142578128Y-78839617D01*
X142580506Y-78837175D01*
X143164535Y-78253146D01*
X143226847Y-78219120D01*
X143287302Y-78220824D01*
X143482798Y-78275040D01*
X143487935Y-78275589D01*
X143675593Y-78295644D01*
X143675601Y-78295644D01*
X143678928Y-78296000D01*
X143913402Y-78296000D01*
X143915975Y-78295788D01*
X143915986Y-78295788D01*
X144016946Y-78287487D01*
X144091937Y-78281322D01*
X144324944Y-78222794D01*
X144453771Y-78166779D01*
X144540526Y-78129057D01*
X144540529Y-78129055D01*
X144545263Y-78126997D01*
X144746977Y-77996502D01*
X144924670Y-77834814D01*
X145065674Y-77656272D01*
X145070367Y-77650330D01*
X145070370Y-77650325D01*
X145073568Y-77646276D01*
X145115796Y-77569781D01*
X145187177Y-77440474D01*
X145187179Y-77440470D01*
X145189674Y-77435950D01*
X145205343Y-77391704D01*
X145268144Y-77214360D01*
X145268145Y-77214356D01*
X145269870Y-77209485D01*
X145276475Y-77172407D01*
X145311095Y-76978052D01*
X145311096Y-76978046D01*
X145312001Y-76972963D01*
X145313151Y-76878866D01*
X145314873Y-76737907D01*
X145314873Y-76737905D01*
X145314936Y-76732737D01*
X145278596Y-76495256D01*
X145220296Y-76316885D01*
X145205566Y-76271817D01*
X145205563Y-76271811D01*
X145203958Y-76266899D01*
X145196630Y-76252821D01*
X145095416Y-76058393D01*
X145093025Y-76053800D01*
X144948777Y-75861680D01*
X144804230Y-75723548D01*
X144778827Y-75699272D01*
X144775088Y-75695699D01*
X144727235Y-75663056D01*
X144639957Y-75603518D01*
X144594955Y-75548606D01*
X144586784Y-75478082D01*
X144618038Y-75414335D01*
X144640595Y-75394909D01*
X144698627Y-75355840D01*
X144706905Y-75349185D01*
X144865268Y-75198113D01*
X144872308Y-75190156D01*
X145002950Y-75014567D01*
X145008554Y-75005530D01*
X145107743Y-74810439D01*
X145111743Y-74800588D01*
X145154682Y-74662300D01*
X145154900Y-74648201D01*
X145148169Y-74645000D01*
X142467071Y-74645000D01*
X142453540Y-74648973D01*
X142452015Y-74659581D01*
X142456265Y-74679835D01*
X142459322Y-74690026D01*
X142539711Y-74893582D01*
X142544438Y-74903104D01*
X142657974Y-75090206D01*
X142664240Y-75098799D01*
X142807675Y-75264094D01*
X142815306Y-75271514D01*
X142976897Y-75404011D01*
X143016892Y-75462671D01*
X143018823Y-75533641D01*
X142982079Y-75594389D01*
X142965446Y-75607237D01*
X142867363Y-75670690D01*
X142863023Y-75673498D01*
X142685330Y-75835186D01*
X142661141Y-75865815D01*
X142539633Y-76019670D01*
X142539630Y-76019675D01*
X142536432Y-76023724D01*
X142533939Y-76028240D01*
X142533937Y-76028243D01*
X142435412Y-76206721D01*
X142420326Y-76234050D01*
X142418602Y-76238919D01*
X142418600Y-76238923D01*
X142384577Y-76335000D01*
X142340130Y-76460515D01*
X142339223Y-76465608D01*
X142339222Y-76465611D01*
X142320351Y-76571556D01*
X142297999Y-76697037D01*
X142295196Y-76926463D01*
X142274363Y-76994335D01*
X142258300Y-77014019D01*
X141761659Y-77510660D01*
X141699347Y-77544686D01*
X141628532Y-77539621D01*
X141585696Y-77508430D01*
X141583478Y-77510652D01*
X141463483Y-77390866D01*
X141458303Y-77385695D01*
X141452072Y-77381854D01*
X141313968Y-77296725D01*
X141313966Y-77296724D01*
X141307738Y-77292885D01*
X141147254Y-77239655D01*
X141146389Y-77239368D01*
X141146387Y-77239368D01*
X141139861Y-77237203D01*
X141133025Y-77236503D01*
X141133022Y-77236502D01*
X141086864Y-77231773D01*
X141035400Y-77226500D01*
X139634600Y-77226500D01*
X139631354Y-77226837D01*
X139631350Y-77226837D01*
X139535692Y-77236762D01*
X139535688Y-77236763D01*
X139528834Y-77237474D01*
X139522298Y-77239655D01*
X139522296Y-77239655D01*
X139396962Y-77281470D01*
X139361054Y-77293450D01*
X139210652Y-77386522D01*
X139085695Y-77511697D01*
X139084055Y-77510059D01*
X139035256Y-77544656D01*
X138994294Y-77551500D01*
X137921000Y-77551500D01*
X137852879Y-77531498D01*
X137806386Y-77477842D01*
X137795000Y-77425500D01*
X137795000Y-75748173D01*
X139035000Y-75748173D01*
X139035193Y-75753099D01*
X139037396Y-75781081D01*
X139039695Y-75793668D01*
X139081506Y-75937585D01*
X139087755Y-75952024D01*
X139163279Y-76079729D01*
X139172926Y-76092165D01*
X139277835Y-76197074D01*
X139290271Y-76206721D01*
X139417976Y-76282245D01*
X139432415Y-76288494D01*
X139576332Y-76330305D01*
X139588919Y-76332604D01*
X139616901Y-76334807D01*
X139621827Y-76335000D01*
X139966885Y-76335000D01*
X139982124Y-76330525D01*
X139983329Y-76329135D01*
X139985000Y-76321452D01*
X139985000Y-76316885D01*
X140685000Y-76316885D01*
X140689475Y-76332124D01*
X140690865Y-76333329D01*
X140698548Y-76335000D01*
X141048173Y-76335000D01*
X141053099Y-76334807D01*
X141081081Y-76332604D01*
X141093668Y-76330305D01*
X141237585Y-76288494D01*
X141252024Y-76282245D01*
X141379729Y-76206721D01*
X141392165Y-76197074D01*
X141497074Y-76092165D01*
X141506721Y-76079729D01*
X141582245Y-75952024D01*
X141588494Y-75937585D01*
X141630305Y-75793668D01*
X141632604Y-75781081D01*
X141634807Y-75753099D01*
X141635000Y-75748173D01*
X141635000Y-75728115D01*
X141630525Y-75712876D01*
X141629135Y-75711671D01*
X141621452Y-75710000D01*
X140703115Y-75710000D01*
X140687876Y-75714475D01*
X140686671Y-75715865D01*
X140685000Y-75723548D01*
X140685000Y-76316885D01*
X139985000Y-76316885D01*
X139985000Y-75728115D01*
X139980525Y-75712876D01*
X139979135Y-75711671D01*
X139971452Y-75710000D01*
X139053115Y-75710000D01*
X139037876Y-75714475D01*
X139036671Y-75715865D01*
X139035000Y-75723548D01*
X139035000Y-75748173D01*
X137795000Y-75748173D01*
X137795000Y-74974975D01*
X137815002Y-74906854D01*
X137868658Y-74860361D01*
X137938932Y-74850257D01*
X137981122Y-74864244D01*
X138047290Y-74900170D01*
X138061305Y-74905719D01*
X138198788Y-74941788D01*
X138213737Y-74943835D01*
X138355846Y-74946068D01*
X138370847Y-74944491D01*
X138509398Y-74912759D01*
X138523578Y-74907653D01*
X138527700Y-74905580D01*
X138538004Y-74895950D01*
X138535792Y-74889345D01*
X138090687Y-74444240D01*
X138056661Y-74381928D01*
X138055008Y-74337609D01*
X138057452Y-74320222D01*
X138057452Y-74320216D01*
X138058001Y-74316313D01*
X138058165Y-74304580D01*
X138058244Y-74298961D01*
X138058244Y-74298955D01*
X138058283Y-74296132D01*
X138653751Y-74296132D01*
X138653882Y-74297965D01*
X138658133Y-74304580D01*
X138883271Y-74529718D01*
X138895651Y-74536478D01*
X138899749Y-74533410D01*
X138924631Y-74471512D01*
X138928533Y-74456950D01*
X138949049Y-74312797D01*
X138949673Y-74304588D01*
X138949731Y-74299133D01*
X138949277Y-74290894D01*
X138931786Y-74146355D01*
X138928189Y-74131710D01*
X138902686Y-74064219D01*
X138894186Y-74052965D01*
X138889561Y-74053992D01*
X138661365Y-74282188D01*
X138653751Y-74296132D01*
X138058283Y-74296132D01*
X138058299Y-74295000D01*
X138053273Y-74250193D01*
X138065557Y-74180269D01*
X138089393Y-74147054D01*
X138531929Y-73704518D01*
X138538689Y-73692138D01*
X138534514Y-73686560D01*
X138522284Y-73681866D01*
X138384434Y-73647240D01*
X138369465Y-73645349D01*
X138227336Y-73644605D01*
X138212360Y-73646337D01*
X138074144Y-73679520D01*
X138060020Y-73684773D01*
X137978790Y-73726699D01*
X137909083Y-73740168D01*
X137843159Y-73713813D01*
X137801950Y-73656000D01*
X137795000Y-73614733D01*
X137795000Y-72267500D01*
X137815002Y-72199379D01*
X137868658Y-72152886D01*
X137921000Y-72141500D01*
X139238520Y-72141500D01*
X139306641Y-72161502D01*
X139353134Y-72215158D01*
X139363238Y-72285432D01*
X139333744Y-72350012D01*
X139302660Y-72375953D01*
X139290269Y-72383281D01*
X139277835Y-72392926D01*
X139172926Y-72497835D01*
X139163279Y-72510271D01*
X139087755Y-72637976D01*
X139081506Y-72652415D01*
X139039695Y-72796332D01*
X139037396Y-72808919D01*
X139035193Y-72836901D01*
X139035000Y-72841828D01*
X139035000Y-72861885D01*
X139039475Y-72877124D01*
X139040865Y-72878329D01*
X139048548Y-72880000D01*
X140559000Y-72880000D01*
X140627121Y-72900002D01*
X140673614Y-72953658D01*
X140685000Y-73006000D01*
X140685000Y-73454000D01*
X140664998Y-73522121D01*
X140611342Y-73568614D01*
X140559000Y-73580000D01*
X139053115Y-73580000D01*
X139037876Y-73584475D01*
X139036671Y-73585865D01*
X139035000Y-73593548D01*
X139035000Y-73618173D01*
X139035193Y-73623099D01*
X139037396Y-73651081D01*
X139039695Y-73663668D01*
X139081506Y-73807585D01*
X139087755Y-73822024D01*
X139163279Y-73949729D01*
X139172926Y-73962165D01*
X139277835Y-74067074D01*
X139290271Y-74076721D01*
X139417976Y-74152245D01*
X139432415Y-74158494D01*
X139485798Y-74174003D01*
X139545633Y-74212216D01*
X139575311Y-74276712D01*
X139565408Y-74347015D01*
X139519068Y-74400803D01*
X139485798Y-74415997D01*
X139432415Y-74431506D01*
X139417976Y-74437755D01*
X139290271Y-74513279D01*
X139277835Y-74522926D01*
X139172926Y-74627835D01*
X139163279Y-74640271D01*
X139087755Y-74767976D01*
X139081506Y-74782415D01*
X139039695Y-74926332D01*
X139037396Y-74938919D01*
X139035193Y-74966901D01*
X139035000Y-74971828D01*
X139035000Y-74991885D01*
X139039475Y-75007124D01*
X139040865Y-75008329D01*
X139048548Y-75010000D01*
X141616885Y-75010000D01*
X141632124Y-75005525D01*
X141633329Y-75004135D01*
X141635000Y-74996452D01*
X141635000Y-74971828D01*
X141634807Y-74966901D01*
X141632604Y-74938919D01*
X141630305Y-74926332D01*
X141588494Y-74782415D01*
X141582245Y-74767976D01*
X141506721Y-74640271D01*
X141497074Y-74627835D01*
X141392165Y-74522926D01*
X141379729Y-74513279D01*
X141252024Y-74437755D01*
X141237585Y-74431506D01*
X141184202Y-74415997D01*
X141124367Y-74377784D01*
X141094689Y-74313288D01*
X141104592Y-74242985D01*
X141150932Y-74189197D01*
X141184202Y-74174003D01*
X141237585Y-74158494D01*
X141252024Y-74152245D01*
X141379729Y-74076721D01*
X141392165Y-74067074D01*
X141497074Y-73962165D01*
X141506721Y-73949729D01*
X141582245Y-73822024D01*
X141588494Y-73807585D01*
X141630305Y-73663668D01*
X141632604Y-73651081D01*
X141634807Y-73623099D01*
X141635000Y-73618173D01*
X141635000Y-73601250D01*
X141655002Y-73533129D01*
X141708658Y-73486636D01*
X141778932Y-73476532D01*
X141830892Y-73496412D01*
X141925353Y-73559387D01*
X141925359Y-73559391D01*
X141929338Y-73562043D01*
X141933673Y-73564063D01*
X141933678Y-73564066D01*
X142065856Y-73625664D01*
X142065861Y-73625666D01*
X142070198Y-73627687D01*
X142074791Y-73629029D01*
X142074792Y-73629029D01*
X142122463Y-73642954D01*
X142122465Y-73642954D01*
X142127051Y-73644294D01*
X142131791Y-73644925D01*
X142131792Y-73644925D01*
X142276352Y-73664162D01*
X142276357Y-73664162D01*
X142281097Y-73664793D01*
X142313277Y-73664162D01*
X142363935Y-73663169D01*
X142432435Y-73681832D01*
X142479971Y-73734566D01*
X142491450Y-73804629D01*
X142486738Y-73826509D01*
X142455318Y-73927700D01*
X142455100Y-73941799D01*
X142461831Y-73945000D01*
X145142929Y-73945000D01*
X145156460Y-73941027D01*
X145157985Y-73930419D01*
X145153735Y-73910165D01*
X145150676Y-73899969D01*
X145102704Y-73778495D01*
X145096286Y-73707789D01*
X145129114Y-73644838D01*
X145190764Y-73609628D01*
X145226495Y-73606505D01*
X145229877Y-73606973D01*
X145234825Y-73606876D01*
X146844397Y-73575317D01*
X146912897Y-73593980D01*
X146935962Y-73612197D01*
X147204595Y-73880829D01*
X147238620Y-73943142D01*
X147241500Y-73969925D01*
X147241500Y-76705075D01*
X147221498Y-76773196D01*
X147204595Y-76794170D01*
X142794171Y-81204595D01*
X142731859Y-81238621D01*
X142705076Y-81241500D01*
X141711979Y-81241500D01*
X141649797Y-81248255D01*
X141513408Y-81299385D01*
X141396852Y-81386739D01*
X141391471Y-81393919D01*
X141391470Y-81393920D01*
X141328071Y-81478513D01*
X141271212Y-81521028D01*
X141200393Y-81526054D01*
X141160009Y-81509510D01*
X141112114Y-81479291D01*
X141101872Y-81474072D01*
X140907755Y-81396627D01*
X140896728Y-81393360D01*
X140691752Y-81352588D01*
X140680306Y-81351385D01*
X140471341Y-81348650D01*
X140459861Y-81349553D01*
X140253890Y-81384945D01*
X140242782Y-81387922D01*
X140046705Y-81460258D01*
X140036326Y-81465208D01*
X140010496Y-81480575D01*
X140000898Y-81490908D01*
X140004385Y-81499297D01*
X140965993Y-82460905D01*
X141000019Y-82523217D01*
X140994954Y-82594032D01*
X140965993Y-82639095D01*
X140005519Y-83599569D01*
X139998759Y-83611949D01*
X140002105Y-83616419D01*
X140182401Y-83693879D01*
X140193334Y-83697431D01*
X140397176Y-83743556D01*
X140408584Y-83745058D01*
X140617416Y-83753262D01*
X140628900Y-83752660D01*
X140835727Y-83722673D01*
X140846922Y-83719985D01*
X141044820Y-83652807D01*
X141055324Y-83648130D01*
X141165261Y-83586562D01*
X141234470Y-83570728D01*
X141301252Y-83594825D01*
X141327654Y-83620931D01*
X141396852Y-83713261D01*
X141513408Y-83800615D01*
X141649797Y-83851745D01*
X141711979Y-83858500D01*
X143408247Y-83858500D01*
X143470429Y-83851745D01*
X143606818Y-83800615D01*
X143723374Y-83713261D01*
X143810728Y-83596705D01*
X143861858Y-83460316D01*
X143868613Y-83398134D01*
X143868613Y-83034812D01*
X143888615Y-82966691D01*
X143905518Y-82945717D01*
X148919379Y-77931855D01*
X148929522Y-77922753D01*
X148954218Y-77902897D01*
X148959025Y-77899032D01*
X148991292Y-77860578D01*
X148994472Y-77856931D01*
X148996115Y-77855119D01*
X148998309Y-77852925D01*
X149025642Y-77819651D01*
X149026348Y-77818800D01*
X149082195Y-77752244D01*
X149086154Y-77747526D01*
X149088722Y-77742856D01*
X149092103Y-77738739D01*
X149135977Y-77656914D01*
X149136606Y-77655755D01*
X149178462Y-77579619D01*
X149178465Y-77579611D01*
X149181433Y-77574213D01*
X149183045Y-77569131D01*
X149185562Y-77564437D01*
X149212774Y-77475435D01*
X149213143Y-77474249D01*
X149223858Y-77440474D01*
X149241235Y-77385694D01*
X149241829Y-77380403D01*
X149243388Y-77375302D01*
X149252790Y-77282737D01*
X149252925Y-77281470D01*
X149258108Y-77235270D01*
X149258108Y-77235265D01*
X149258500Y-77231773D01*
X149258500Y-77228248D01*
X149258555Y-77227263D01*
X149259004Y-77221559D01*
X149262752Y-77184666D01*
X149262752Y-77184661D01*
X149263374Y-77178538D01*
X149259059Y-77132891D01*
X149258500Y-77121033D01*
X149258500Y-74295000D01*
X158201654Y-74295000D01*
X158201924Y-74299119D01*
X158217683Y-74539556D01*
X158221017Y-74590426D01*
X158221819Y-74594459D01*
X158221820Y-74594465D01*
X158272701Y-74850257D01*
X158278776Y-74880797D01*
X158280103Y-74884706D01*
X158280104Y-74884710D01*
X158352777Y-75098799D01*
X158373941Y-75161145D01*
X158375765Y-75164843D01*
X158498801Y-75414335D01*
X158504885Y-75426673D01*
X158507179Y-75430106D01*
X158662831Y-75663056D01*
X158669367Y-75672838D01*
X158672081Y-75675932D01*
X158672085Y-75675938D01*
X158838604Y-75865815D01*
X158864573Y-75895427D01*
X158867662Y-75898136D01*
X159084062Y-76087915D01*
X159084068Y-76087919D01*
X159087162Y-76090633D01*
X159090588Y-76092922D01*
X159090593Y-76092926D01*
X159246462Y-76197074D01*
X159333327Y-76255115D01*
X159337026Y-76256939D01*
X159337031Y-76256942D01*
X159458584Y-76316885D01*
X159598855Y-76386059D01*
X159602760Y-76387384D01*
X159602761Y-76387385D01*
X159875290Y-76479896D01*
X159875294Y-76479897D01*
X159879203Y-76481224D01*
X159883247Y-76482028D01*
X159883253Y-76482030D01*
X160165535Y-76538180D01*
X160165541Y-76538181D01*
X160169574Y-76538983D01*
X160173679Y-76539252D01*
X160173686Y-76539253D01*
X160460881Y-76558076D01*
X160465000Y-76558346D01*
X160469119Y-76558076D01*
X160756314Y-76539253D01*
X160756321Y-76539252D01*
X160760426Y-76538983D01*
X160764459Y-76538181D01*
X160764465Y-76538180D01*
X161046747Y-76482030D01*
X161046753Y-76482028D01*
X161050797Y-76481224D01*
X161054706Y-76479897D01*
X161054710Y-76479896D01*
X161327239Y-76387385D01*
X161327240Y-76387384D01*
X161331145Y-76386059D01*
X161471416Y-76316885D01*
X161592969Y-76256942D01*
X161592974Y-76256939D01*
X161596673Y-76255115D01*
X161683538Y-76197074D01*
X161839407Y-76092926D01*
X161839412Y-76092922D01*
X161842838Y-76090633D01*
X161845932Y-76087919D01*
X161845938Y-76087915D01*
X162062338Y-75898136D01*
X162065427Y-75895427D01*
X162091396Y-75865815D01*
X162257915Y-75675938D01*
X162257919Y-75675932D01*
X162260633Y-75672838D01*
X162267170Y-75663056D01*
X162422821Y-75430106D01*
X162425115Y-75426673D01*
X162431200Y-75414335D01*
X162554235Y-75164843D01*
X162556059Y-75161145D01*
X162577223Y-75098799D01*
X162649896Y-74884710D01*
X162649897Y-74884706D01*
X162651224Y-74880797D01*
X162657299Y-74850257D01*
X162708180Y-74594465D01*
X162708181Y-74594459D01*
X162708983Y-74590426D01*
X162712318Y-74539556D01*
X162728076Y-74299119D01*
X162728346Y-74295000D01*
X162722920Y-74212216D01*
X162709253Y-74003686D01*
X162709252Y-74003679D01*
X162708983Y-73999574D01*
X162703086Y-73969925D01*
X162652030Y-73713253D01*
X162652028Y-73713247D01*
X162651224Y-73709203D01*
X162645432Y-73692138D01*
X162557385Y-73432761D01*
X162557384Y-73432760D01*
X162556059Y-73428855D01*
X162491169Y-73297272D01*
X162426942Y-73167031D01*
X162426939Y-73167026D01*
X162425115Y-73163327D01*
X162276739Y-72941266D01*
X162262926Y-72920593D01*
X162262922Y-72920588D01*
X162260633Y-72917162D01*
X162257919Y-72914068D01*
X162257915Y-72914062D01*
X162068136Y-72697662D01*
X162065427Y-72694573D01*
X162000891Y-72637976D01*
X161845938Y-72502085D01*
X161845932Y-72502081D01*
X161842838Y-72499367D01*
X161839412Y-72497078D01*
X161839407Y-72497074D01*
X161600106Y-72337179D01*
X161596673Y-72334885D01*
X161592974Y-72333061D01*
X161592969Y-72333058D01*
X161456687Y-72265852D01*
X161331145Y-72203941D01*
X161317706Y-72199379D01*
X161054710Y-72110104D01*
X161054706Y-72110103D01*
X161050797Y-72108776D01*
X161046753Y-72107972D01*
X161046747Y-72107970D01*
X160764465Y-72051820D01*
X160764459Y-72051819D01*
X160760426Y-72051017D01*
X160756321Y-72050748D01*
X160756314Y-72050747D01*
X160469119Y-72031924D01*
X160465000Y-72031654D01*
X160460881Y-72031924D01*
X160173686Y-72050747D01*
X160173679Y-72050748D01*
X160169574Y-72051017D01*
X160165541Y-72051819D01*
X160165535Y-72051820D01*
X159883253Y-72107970D01*
X159883247Y-72107972D01*
X159879203Y-72108776D01*
X159875294Y-72110103D01*
X159875290Y-72110104D01*
X159612294Y-72199379D01*
X159598855Y-72203941D01*
X159473313Y-72265852D01*
X159337031Y-72333058D01*
X159337026Y-72333061D01*
X159333327Y-72334885D01*
X159329894Y-72337179D01*
X159090593Y-72497074D01*
X159090588Y-72497078D01*
X159087162Y-72499367D01*
X159084068Y-72502081D01*
X159084062Y-72502085D01*
X158929109Y-72637976D01*
X158864573Y-72694573D01*
X158861864Y-72697662D01*
X158672085Y-72914062D01*
X158672081Y-72914068D01*
X158669367Y-72917162D01*
X158667078Y-72920588D01*
X158667074Y-72920593D01*
X158653261Y-72941266D01*
X158504885Y-73163327D01*
X158503061Y-73167026D01*
X158503058Y-73167031D01*
X158438831Y-73297272D01*
X158373941Y-73428855D01*
X158372616Y-73432760D01*
X158372615Y-73432761D01*
X158284569Y-73692138D01*
X158278776Y-73709203D01*
X158277972Y-73713247D01*
X158277970Y-73713253D01*
X158226915Y-73969925D01*
X158221017Y-73999574D01*
X158220748Y-74003679D01*
X158220747Y-74003686D01*
X158207080Y-74212216D01*
X158201654Y-74295000D01*
X149258500Y-74295000D01*
X149258500Y-73561850D01*
X149259237Y-73548242D01*
X149261919Y-73523556D01*
X149263325Y-73510612D01*
X149258947Y-73460570D01*
X149258621Y-73455788D01*
X149258500Y-73453310D01*
X149258500Y-73450231D01*
X149258201Y-73447177D01*
X149258200Y-73447166D01*
X149254313Y-73407529D01*
X149254191Y-73406215D01*
X149246623Y-73319718D01*
X149246087Y-73313587D01*
X149244600Y-73308468D01*
X149244080Y-73303167D01*
X149217211Y-73214171D01*
X149216874Y-73213032D01*
X149202865Y-73164813D01*
X149203937Y-73096420D01*
X149202684Y-73096119D01*
X149203839Y-73091307D01*
X149205369Y-73086599D01*
X149230500Y-72927922D01*
X149230500Y-66044798D01*
X151655797Y-66044798D01*
X151661524Y-66052448D01*
X151759919Y-66112745D01*
X151768713Y-66117226D01*
X151984970Y-66206802D01*
X151994355Y-66209851D01*
X152221964Y-66264496D01*
X152231711Y-66266039D01*
X152465070Y-66284405D01*
X152474930Y-66284405D01*
X152708289Y-66266039D01*
X152718036Y-66264496D01*
X152945645Y-66209851D01*
X152955030Y-66206802D01*
X153171287Y-66117226D01*
X153180081Y-66112745D01*
X153274810Y-66054695D01*
X153283763Y-66044798D01*
X159275797Y-66044798D01*
X159281524Y-66052448D01*
X159379919Y-66112745D01*
X159388713Y-66117226D01*
X159604970Y-66206802D01*
X159614355Y-66209851D01*
X159841964Y-66264496D01*
X159851711Y-66266039D01*
X160085070Y-66284405D01*
X160094930Y-66284405D01*
X160328289Y-66266039D01*
X160338036Y-66264496D01*
X160565645Y-66209851D01*
X160575030Y-66206802D01*
X160791287Y-66117226D01*
X160800081Y-66112745D01*
X160894810Y-66054695D01*
X160904270Y-66044238D01*
X160900487Y-66035462D01*
X160102812Y-65237787D01*
X160088868Y-65230173D01*
X160087035Y-65230304D01*
X160080420Y-65234555D01*
X159282557Y-66032418D01*
X159275797Y-66044798D01*
X153283763Y-66044798D01*
X153284270Y-66044238D01*
X153280487Y-66035462D01*
X152482812Y-65237787D01*
X152468868Y-65230173D01*
X152467035Y-65230304D01*
X152460420Y-65234555D01*
X151662557Y-66032418D01*
X151655797Y-66044798D01*
X149230500Y-66044798D01*
X149230500Y-64734930D01*
X150915595Y-64734930D01*
X150933961Y-64968289D01*
X150935504Y-64978036D01*
X150990149Y-65205645D01*
X150993198Y-65215030D01*
X151082774Y-65431287D01*
X151087255Y-65440081D01*
X151145305Y-65534810D01*
X151155762Y-65544270D01*
X151164538Y-65540487D01*
X151962213Y-64742812D01*
X151968591Y-64731132D01*
X152970173Y-64731132D01*
X152970304Y-64732965D01*
X152974555Y-64739580D01*
X153772418Y-65537443D01*
X153784798Y-65544203D01*
X153792448Y-65538476D01*
X153852745Y-65440081D01*
X153857226Y-65431287D01*
X153946802Y-65215030D01*
X153949851Y-65205645D01*
X154004496Y-64978036D01*
X154006039Y-64968289D01*
X154024405Y-64734930D01*
X158535595Y-64734930D01*
X158553961Y-64968289D01*
X158555504Y-64978036D01*
X158610149Y-65205645D01*
X158613198Y-65215030D01*
X158702774Y-65431287D01*
X158707255Y-65440081D01*
X158765305Y-65534810D01*
X158775762Y-65544270D01*
X158784538Y-65540487D01*
X159582213Y-64742812D01*
X159588591Y-64731132D01*
X160590173Y-64731132D01*
X160590304Y-64732965D01*
X160594555Y-64739580D01*
X161392418Y-65537443D01*
X161404798Y-65544203D01*
X161412448Y-65538476D01*
X161472745Y-65440081D01*
X161477226Y-65431287D01*
X161566802Y-65215030D01*
X161569851Y-65205645D01*
X161624496Y-64978036D01*
X161626039Y-64968289D01*
X161644405Y-64734930D01*
X161644405Y-64725070D01*
X161626039Y-64491711D01*
X161624496Y-64481964D01*
X161569851Y-64254355D01*
X161566802Y-64244970D01*
X161477226Y-64028713D01*
X161472745Y-64019919D01*
X161414695Y-63925190D01*
X161404238Y-63915730D01*
X161395462Y-63919513D01*
X160597787Y-64717188D01*
X160590173Y-64731132D01*
X159588591Y-64731132D01*
X159589827Y-64728868D01*
X159589696Y-64727035D01*
X159585445Y-64720420D01*
X158787582Y-63922557D01*
X158775202Y-63915797D01*
X158767552Y-63921524D01*
X158707255Y-64019919D01*
X158702774Y-64028713D01*
X158613198Y-64244970D01*
X158610149Y-64254355D01*
X158555504Y-64481964D01*
X158553961Y-64491711D01*
X158535595Y-64725070D01*
X158535595Y-64734930D01*
X154024405Y-64734930D01*
X154024405Y-64725070D01*
X154006039Y-64491711D01*
X154004496Y-64481964D01*
X153949851Y-64254355D01*
X153946802Y-64244970D01*
X153857226Y-64028713D01*
X153852745Y-64019919D01*
X153794695Y-63925190D01*
X153784238Y-63915730D01*
X153775462Y-63919513D01*
X152977787Y-64717188D01*
X152970173Y-64731132D01*
X151968591Y-64731132D01*
X151969827Y-64728868D01*
X151969696Y-64727035D01*
X151965445Y-64720420D01*
X151167582Y-63922557D01*
X151155202Y-63915797D01*
X151147552Y-63921524D01*
X151087255Y-64019919D01*
X151082774Y-64028713D01*
X150993198Y-64244970D01*
X150990149Y-64254355D01*
X150935504Y-64481964D01*
X150933961Y-64491711D01*
X150915595Y-64725070D01*
X150915595Y-64734930D01*
X149230500Y-64734930D01*
X149230500Y-63415762D01*
X151655730Y-63415762D01*
X151659513Y-63424538D01*
X152457188Y-64222213D01*
X152471132Y-64229827D01*
X152472965Y-64229696D01*
X152479580Y-64225445D01*
X153277443Y-63427582D01*
X153283897Y-63415762D01*
X159275730Y-63415762D01*
X159279513Y-63424538D01*
X160077188Y-64222213D01*
X160091132Y-64229827D01*
X160092965Y-64229696D01*
X160099580Y-64225445D01*
X160897443Y-63427582D01*
X160904203Y-63415202D01*
X160898476Y-63407552D01*
X160800081Y-63347255D01*
X160791287Y-63342774D01*
X160575030Y-63253198D01*
X160565645Y-63250149D01*
X160338036Y-63195504D01*
X160328289Y-63193961D01*
X160094930Y-63175595D01*
X160085070Y-63175595D01*
X159851711Y-63193961D01*
X159841964Y-63195504D01*
X159614355Y-63250149D01*
X159604970Y-63253198D01*
X159388713Y-63342774D01*
X159379919Y-63347255D01*
X159285190Y-63405305D01*
X159275730Y-63415762D01*
X153283897Y-63415762D01*
X153284203Y-63415202D01*
X153278476Y-63407552D01*
X153180081Y-63347255D01*
X153171287Y-63342774D01*
X152955030Y-63253198D01*
X152945645Y-63250149D01*
X152718036Y-63195504D01*
X152708289Y-63193961D01*
X152474930Y-63175595D01*
X152465070Y-63175595D01*
X152231711Y-63193961D01*
X152221964Y-63195504D01*
X151994355Y-63250149D01*
X151984970Y-63253198D01*
X151768713Y-63342774D01*
X151759919Y-63347255D01*
X151665190Y-63405305D01*
X151655730Y-63415762D01*
X149230500Y-63415762D01*
X149230500Y-61044798D01*
X151655797Y-61044798D01*
X151661524Y-61052448D01*
X151759919Y-61112745D01*
X151768713Y-61117226D01*
X151984970Y-61206802D01*
X151994355Y-61209851D01*
X152221964Y-61264496D01*
X152231711Y-61266039D01*
X152465070Y-61284405D01*
X152474930Y-61284405D01*
X152708289Y-61266039D01*
X152718036Y-61264496D01*
X152945645Y-61209851D01*
X152955030Y-61206802D01*
X153171287Y-61117226D01*
X153180081Y-61112745D01*
X153274810Y-61054695D01*
X153283763Y-61044798D01*
X159275797Y-61044798D01*
X159281524Y-61052448D01*
X159379919Y-61112745D01*
X159388713Y-61117226D01*
X159604970Y-61206802D01*
X159614355Y-61209851D01*
X159841964Y-61264496D01*
X159851711Y-61266039D01*
X160085070Y-61284405D01*
X160094930Y-61284405D01*
X160328289Y-61266039D01*
X160338036Y-61264496D01*
X160565645Y-61209851D01*
X160575030Y-61206802D01*
X160791287Y-61117226D01*
X160800081Y-61112745D01*
X160894810Y-61054695D01*
X160904270Y-61044238D01*
X160900487Y-61035462D01*
X160102812Y-60237787D01*
X160088868Y-60230173D01*
X160087035Y-60230304D01*
X160080420Y-60234555D01*
X159282557Y-61032418D01*
X159275797Y-61044798D01*
X153283763Y-61044798D01*
X153284270Y-61044238D01*
X153280487Y-61035462D01*
X152482812Y-60237787D01*
X152468868Y-60230173D01*
X152467035Y-60230304D01*
X152460420Y-60234555D01*
X151662557Y-61032418D01*
X151655797Y-61044798D01*
X149230500Y-61044798D01*
X149230500Y-59734930D01*
X150915595Y-59734930D01*
X150933961Y-59968289D01*
X150935504Y-59978036D01*
X150990149Y-60205645D01*
X150993198Y-60215030D01*
X151082774Y-60431287D01*
X151087255Y-60440081D01*
X151145305Y-60534810D01*
X151155762Y-60544270D01*
X151164538Y-60540487D01*
X151962213Y-59742812D01*
X151968591Y-59731132D01*
X152970173Y-59731132D01*
X152970304Y-59732965D01*
X152974555Y-59739580D01*
X153772418Y-60537443D01*
X153784798Y-60544203D01*
X153792448Y-60538476D01*
X153852745Y-60440081D01*
X153857226Y-60431287D01*
X153946802Y-60215030D01*
X153949851Y-60205645D01*
X154004496Y-59978036D01*
X154006039Y-59968289D01*
X154024405Y-59734930D01*
X158535595Y-59734930D01*
X158553961Y-59968289D01*
X158555504Y-59978036D01*
X158610149Y-60205645D01*
X158613198Y-60215030D01*
X158702774Y-60431287D01*
X158707255Y-60440081D01*
X158765305Y-60534810D01*
X158775762Y-60544270D01*
X158784538Y-60540487D01*
X159582213Y-59742812D01*
X159588591Y-59731132D01*
X160590173Y-59731132D01*
X160590304Y-59732965D01*
X160594555Y-59739580D01*
X161392418Y-60537443D01*
X161404798Y-60544203D01*
X161412448Y-60538476D01*
X161472745Y-60440081D01*
X161477226Y-60431287D01*
X161566802Y-60215030D01*
X161569851Y-60205645D01*
X161624496Y-59978036D01*
X161626039Y-59968289D01*
X161644405Y-59734930D01*
X161644405Y-59725070D01*
X161626039Y-59491711D01*
X161624496Y-59481964D01*
X161569851Y-59254355D01*
X161566802Y-59244970D01*
X161477226Y-59028713D01*
X161472745Y-59019919D01*
X161414695Y-58925190D01*
X161404238Y-58915730D01*
X161395462Y-58919513D01*
X160597787Y-59717188D01*
X160590173Y-59731132D01*
X159588591Y-59731132D01*
X159589827Y-59728868D01*
X159589696Y-59727035D01*
X159585445Y-59720420D01*
X158787582Y-58922557D01*
X158775202Y-58915797D01*
X158767552Y-58921524D01*
X158707255Y-59019919D01*
X158702774Y-59028713D01*
X158613198Y-59244970D01*
X158610149Y-59254355D01*
X158555504Y-59481964D01*
X158553961Y-59491711D01*
X158535595Y-59725070D01*
X158535595Y-59734930D01*
X154024405Y-59734930D01*
X154024405Y-59725070D01*
X154006039Y-59491711D01*
X154004496Y-59481964D01*
X153949851Y-59254355D01*
X153946802Y-59244970D01*
X153857226Y-59028713D01*
X153852745Y-59019919D01*
X153794695Y-58925190D01*
X153784238Y-58915730D01*
X153775462Y-58919513D01*
X152977787Y-59717188D01*
X152970173Y-59731132D01*
X151968591Y-59731132D01*
X151969827Y-59728868D01*
X151969696Y-59727035D01*
X151965445Y-59720420D01*
X151167582Y-58922557D01*
X151155202Y-58915797D01*
X151147552Y-58921524D01*
X151087255Y-59019919D01*
X151082774Y-59028713D01*
X150993198Y-59244970D01*
X150990149Y-59254355D01*
X150935504Y-59481964D01*
X150933961Y-59491711D01*
X150915595Y-59725070D01*
X150915595Y-59734930D01*
X149230500Y-59734930D01*
X149230500Y-58415762D01*
X151655730Y-58415762D01*
X151659513Y-58424538D01*
X152457188Y-59222213D01*
X152471132Y-59229827D01*
X152472965Y-59229696D01*
X152479580Y-59225445D01*
X153277443Y-58427582D01*
X153283897Y-58415762D01*
X159275730Y-58415762D01*
X159279513Y-58424538D01*
X160077188Y-59222213D01*
X160091132Y-59229827D01*
X160092965Y-59229696D01*
X160099580Y-59225445D01*
X160897443Y-58427582D01*
X160904203Y-58415202D01*
X160898476Y-58407552D01*
X160800081Y-58347255D01*
X160791287Y-58342774D01*
X160575030Y-58253198D01*
X160565645Y-58250149D01*
X160338036Y-58195504D01*
X160328289Y-58193961D01*
X160094930Y-58175595D01*
X160085070Y-58175595D01*
X159851711Y-58193961D01*
X159841964Y-58195504D01*
X159614355Y-58250149D01*
X159604970Y-58253198D01*
X159388713Y-58342774D01*
X159379919Y-58347255D01*
X159285190Y-58405305D01*
X159275730Y-58415762D01*
X153283897Y-58415762D01*
X153284203Y-58415202D01*
X153278476Y-58407552D01*
X153180081Y-58347255D01*
X153171287Y-58342774D01*
X152955030Y-58253198D01*
X152945645Y-58250149D01*
X152718036Y-58195504D01*
X152708289Y-58193961D01*
X152474930Y-58175595D01*
X152465070Y-58175595D01*
X152231711Y-58193961D01*
X152221964Y-58195504D01*
X151994355Y-58250149D01*
X151984970Y-58253198D01*
X151768713Y-58342774D01*
X151759919Y-58347255D01*
X151665190Y-58405305D01*
X151655730Y-58415762D01*
X149230500Y-58415762D01*
X149230500Y-56514500D01*
X149250502Y-56446379D01*
X149304158Y-56399886D01*
X149356500Y-56388500D01*
X163195500Y-56388500D01*
X163263621Y-56408502D01*
G37*
%TD.AperFunction*%
%TD*%
%TA.AperFunction,Conductor*%
%TO.N,GND*%
G36*
X122892026Y-74970144D02*
G01*
X122919875Y-75001994D01*
X122979987Y-75100088D01*
X123126250Y-75268938D01*
X123298126Y-75411632D01*
X123369601Y-75453398D01*
X123384070Y-75461853D01*
X123432794Y-75513491D01*
X123446500Y-75570641D01*
X123446500Y-77209290D01*
X123426498Y-77277411D01*
X123409595Y-77298385D01*
X123318361Y-77389619D01*
X123229528Y-77536301D01*
X123178247Y-77699938D01*
X123171500Y-77773365D01*
X123171501Y-78436634D01*
X123171764Y-78439492D01*
X123171764Y-78439501D01*
X123174780Y-78472329D01*
X123178247Y-78510062D01*
X123180246Y-78516440D01*
X123180246Y-78516441D01*
X123191626Y-78552753D01*
X123229528Y-78673699D01*
X123318361Y-78820381D01*
X123439619Y-78941639D01*
X123586301Y-79030472D01*
X123593548Y-79032743D01*
X123593550Y-79032744D01*
X123659836Y-79053517D01*
X123749938Y-79081753D01*
X123823365Y-79088500D01*
X123826263Y-79088500D01*
X124080665Y-79088499D01*
X124336634Y-79088499D01*
X124339492Y-79088236D01*
X124339501Y-79088236D01*
X124375004Y-79084974D01*
X124410062Y-79081753D01*
X124417280Y-79079491D01*
X124566450Y-79032744D01*
X124566452Y-79032743D01*
X124573699Y-79030472D01*
X124720381Y-78941639D01*
X124815905Y-78846115D01*
X124878217Y-78812089D01*
X124949032Y-78817154D01*
X124994095Y-78846115D01*
X125089619Y-78941639D01*
X125236301Y-79030472D01*
X125243548Y-79032743D01*
X125243550Y-79032744D01*
X125309836Y-79053517D01*
X125399938Y-79081753D01*
X125473365Y-79088500D01*
X125476263Y-79088500D01*
X125730665Y-79088499D01*
X125986634Y-79088499D01*
X125989492Y-79088236D01*
X125989501Y-79088236D01*
X126025004Y-79084974D01*
X126060062Y-79081753D01*
X126067280Y-79079491D01*
X126216450Y-79032744D01*
X126216452Y-79032743D01*
X126223699Y-79030472D01*
X126370381Y-78941639D01*
X126491639Y-78820381D01*
X126580472Y-78673699D01*
X126631753Y-78510062D01*
X126638500Y-78436635D01*
X126638500Y-78400438D01*
X127427000Y-78400438D01*
X127427337Y-78406953D01*
X127436894Y-78499057D01*
X127439788Y-78512456D01*
X127489381Y-78661107D01*
X127495555Y-78674286D01*
X127577788Y-78807173D01*
X127586824Y-78818574D01*
X127697429Y-78928986D01*
X127708840Y-78937998D01*
X127841880Y-79020004D01*
X127855061Y-79026151D01*
X128003814Y-79075491D01*
X128017190Y-79078358D01*
X128108097Y-79087672D01*
X128113126Y-79087929D01*
X128128124Y-79083525D01*
X128129329Y-79082135D01*
X128131000Y-79074452D01*
X128131000Y-78377115D01*
X128126525Y-78361876D01*
X128125135Y-78360671D01*
X128117452Y-78359000D01*
X127445115Y-78359000D01*
X127429876Y-78363475D01*
X127428671Y-78364865D01*
X127427000Y-78372548D01*
X127427000Y-78400438D01*
X126638500Y-78400438D01*
X126638499Y-77832885D01*
X127427000Y-77832885D01*
X127431475Y-77848124D01*
X127432865Y-77849329D01*
X127440548Y-77851000D01*
X128112885Y-77851000D01*
X128128124Y-77846525D01*
X128129329Y-77845135D01*
X128131000Y-77837452D01*
X128131000Y-77140115D01*
X128126525Y-77124876D01*
X128125135Y-77123671D01*
X128117452Y-77122000D01*
X128114562Y-77122000D01*
X128108047Y-77122337D01*
X128015943Y-77131894D01*
X128002544Y-77134788D01*
X127853893Y-77184381D01*
X127840714Y-77190555D01*
X127707827Y-77272788D01*
X127696426Y-77281824D01*
X127586014Y-77392429D01*
X127577002Y-77403840D01*
X127494996Y-77536880D01*
X127488849Y-77550061D01*
X127439509Y-77698814D01*
X127436642Y-77712190D01*
X127427328Y-77803097D01*
X127427000Y-77809514D01*
X127427000Y-77832885D01*
X126638499Y-77832885D01*
X126638499Y-77773366D01*
X126638234Y-77770474D01*
X126634974Y-77734996D01*
X126631753Y-77699938D01*
X126598312Y-77593227D01*
X126597028Y-77522242D01*
X126629451Y-77466453D01*
X128377736Y-75718168D01*
X128386026Y-75710624D01*
X128392507Y-75706511D01*
X128404964Y-75693246D01*
X128466177Y-75657281D01*
X128496813Y-75653500D01*
X129050500Y-75653500D01*
X129118621Y-75673502D01*
X129165114Y-75727158D01*
X129176500Y-75779500D01*
X129176500Y-77117417D01*
X129156498Y-77185538D01*
X129102842Y-77232031D01*
X129032568Y-77242135D01*
X128984384Y-77224677D01*
X128928120Y-77189996D01*
X128914939Y-77183849D01*
X128766186Y-77134509D01*
X128752810Y-77131642D01*
X128661903Y-77122328D01*
X128656874Y-77122071D01*
X128641876Y-77126475D01*
X128640671Y-77127865D01*
X128639000Y-77135548D01*
X128639000Y-79069885D01*
X128643475Y-79085124D01*
X128644865Y-79086329D01*
X128652548Y-79088000D01*
X128655438Y-79088000D01*
X128661953Y-79087663D01*
X128754057Y-79078106D01*
X128767456Y-79075212D01*
X128916107Y-79025619D01*
X128929286Y-79019445D01*
X129062173Y-78937212D01*
X129079311Y-78923629D01*
X129080841Y-78925559D01*
X129132880Y-78897097D01*
X129203699Y-78902113D01*
X129240617Y-78925799D01*
X129241372Y-78924843D01*
X129247118Y-78929381D01*
X129252298Y-78934552D01*
X129258528Y-78938392D01*
X129258529Y-78938393D01*
X129390020Y-79019445D01*
X129397899Y-79024302D01*
X129560243Y-79078149D01*
X129567080Y-79078849D01*
X129567082Y-79078850D01*
X129608401Y-79083083D01*
X129661268Y-79088500D01*
X130208732Y-79088500D01*
X130211978Y-79088163D01*
X130211982Y-79088163D01*
X130246083Y-79084625D01*
X130311019Y-79077887D01*
X130319742Y-79074977D01*
X130359618Y-79068500D01*
X137155500Y-79068500D01*
X137223621Y-79088502D01*
X137270114Y-79142158D01*
X137281500Y-79194500D01*
X137281500Y-87504000D01*
X137293234Y-87613149D01*
X137304620Y-87665491D01*
X137339290Y-87769657D01*
X137418308Y-87892612D01*
X137464801Y-87946268D01*
X137468194Y-87949208D01*
X137568450Y-88036081D01*
X137568453Y-88036083D01*
X137575261Y-88041982D01*
X137708210Y-88102698D01*
X137731964Y-88109673D01*
X137772008Y-88121431D01*
X137772012Y-88121432D01*
X137776331Y-88122700D01*
X137780780Y-88123340D01*
X137780786Y-88123341D01*
X137916553Y-88142861D01*
X137916558Y-88142861D01*
X137921000Y-88143500D01*
X153472527Y-88143500D01*
X153540648Y-88163502D01*
X153587141Y-88217158D01*
X153597245Y-88287432D01*
X153594063Y-88302742D01*
X153589346Y-88319984D01*
X153520289Y-88715663D01*
X153520057Y-88718611D01*
X153490753Y-89090954D01*
X153488775Y-89116086D01*
X153495084Y-89517697D01*
X153539160Y-89916932D01*
X153539762Y-89919841D01*
X153539764Y-89919851D01*
X153620008Y-90307337D01*
X153620611Y-90310247D01*
X153621484Y-90313083D01*
X153621484Y-90313085D01*
X153701300Y-90572529D01*
X153738716Y-90694151D01*
X153892425Y-91065237D01*
X154080374Y-91420211D01*
X154081999Y-91422685D01*
X154082005Y-91422695D01*
X154271057Y-91710500D01*
X154300894Y-91755922D01*
X154552030Y-92069390D01*
X154554094Y-92071520D01*
X154554102Y-92071529D01*
X154763220Y-92287321D01*
X154831550Y-92357833D01*
X154833804Y-92359758D01*
X155091278Y-92579661D01*
X155136976Y-92618691D01*
X155465594Y-92849648D01*
X155574204Y-92911598D01*
X155811913Y-93047185D01*
X155811918Y-93047188D01*
X155814489Y-93048654D01*
X156180564Y-93213943D01*
X156560569Y-93344048D01*
X156563443Y-93344738D01*
X156563450Y-93344740D01*
X156948253Y-93437123D01*
X156948257Y-93437124D01*
X156951132Y-93437814D01*
X156954065Y-93438231D01*
X156954068Y-93438232D01*
X157085313Y-93456911D01*
X157348785Y-93494408D01*
X157750000Y-93513329D01*
X158151215Y-93494408D01*
X158414687Y-93456911D01*
X158545932Y-93438232D01*
X158545935Y-93438231D01*
X158548868Y-93437814D01*
X158551743Y-93437124D01*
X158551747Y-93437123D01*
X158936550Y-93344740D01*
X158936557Y-93344738D01*
X158939431Y-93344048D01*
X159319436Y-93213943D01*
X159685511Y-93048654D01*
X159688082Y-93047188D01*
X159688087Y-93047185D01*
X159925796Y-92911598D01*
X160034406Y-92849648D01*
X160363024Y-92618691D01*
X160408723Y-92579661D01*
X160666196Y-92359758D01*
X160668450Y-92357833D01*
X160736780Y-92287321D01*
X160945898Y-92071529D01*
X160945906Y-92071520D01*
X160947970Y-92069390D01*
X161199106Y-91755922D01*
X161228943Y-91710500D01*
X161417995Y-91422695D01*
X161418001Y-91422685D01*
X161419626Y-91420211D01*
X161607575Y-91065237D01*
X161761284Y-90694151D01*
X161798700Y-90572529D01*
X161878516Y-90313085D01*
X161878516Y-90313083D01*
X161879389Y-90310247D01*
X161879992Y-90307337D01*
X161960236Y-89919851D01*
X161960238Y-89919841D01*
X161960840Y-89916932D01*
X162004916Y-89517697D01*
X162004993Y-89515244D01*
X162004994Y-89515231D01*
X162013251Y-89252468D01*
X162013329Y-89250000D01*
X161994408Y-88848785D01*
X161950184Y-88538051D01*
X161938232Y-88454068D01*
X161938231Y-88454065D01*
X161937814Y-88451132D01*
X161933007Y-88431109D01*
X161901270Y-88298914D01*
X161904817Y-88228006D01*
X161946137Y-88170272D01*
X162012111Y-88144042D01*
X162023789Y-88143500D01*
X163195500Y-88143500D01*
X163263621Y-88163502D01*
X163310114Y-88217158D01*
X163321500Y-88269500D01*
X163321500Y-94615500D01*
X163301498Y-94683621D01*
X163247842Y-94730114D01*
X163195500Y-94741500D01*
X130118188Y-94741500D01*
X130050067Y-94721498D01*
X130003574Y-94667842D01*
X129993470Y-94597568D01*
X130022964Y-94532988D01*
X130029093Y-94526405D01*
X130166198Y-94389300D01*
X130297523Y-94201749D01*
X130299846Y-94196767D01*
X130299849Y-94196762D01*
X130391961Y-93999225D01*
X130391961Y-93999224D01*
X130394284Y-93994243D01*
X130453543Y-93773087D01*
X130468500Y-93602127D01*
X130468500Y-93087873D01*
X130453543Y-92916913D01*
X130394284Y-92695757D01*
X130315805Y-92527457D01*
X130299849Y-92493238D01*
X130299846Y-92493233D01*
X130297523Y-92488251D01*
X130166198Y-92300700D01*
X130004300Y-92138802D01*
X129999792Y-92135645D01*
X129999789Y-92135643D01*
X129847229Y-92028819D01*
X129802901Y-91973362D01*
X129793500Y-91925606D01*
X129793500Y-90815427D01*
X129813502Y-90747306D01*
X129854618Y-90707550D01*
X129857994Y-90705896D01*
X130039860Y-90576173D01*
X130198096Y-90418489D01*
X130328453Y-90237077D01*
X130349320Y-90194857D01*
X130425136Y-90041453D01*
X130425137Y-90041451D01*
X130427430Y-90036811D01*
X130492370Y-89823069D01*
X130521529Y-89601590D01*
X130523156Y-89535000D01*
X130504852Y-89312361D01*
X130450431Y-89095702D01*
X130361354Y-88890840D01*
X130240014Y-88703277D01*
X130089670Y-88538051D01*
X130085619Y-88534852D01*
X130085615Y-88534848D01*
X129918414Y-88402800D01*
X129918410Y-88402798D01*
X129914359Y-88399598D01*
X129718789Y-88291638D01*
X129713920Y-88289914D01*
X129713916Y-88289912D01*
X129513087Y-88218795D01*
X129513083Y-88218794D01*
X129508212Y-88217069D01*
X129503119Y-88216162D01*
X129503116Y-88216161D01*
X129293373Y-88178800D01*
X129293367Y-88178799D01*
X129288284Y-88177894D01*
X129214452Y-88176992D01*
X129070081Y-88175228D01*
X129070079Y-88175228D01*
X129064911Y-88175165D01*
X128844091Y-88208955D01*
X128631756Y-88278357D01*
X128433607Y-88381507D01*
X128429474Y-88384610D01*
X128429471Y-88384612D01*
X128259100Y-88512530D01*
X128254965Y-88515635D01*
X128251393Y-88519373D01*
X128143729Y-88632037D01*
X128100629Y-88677138D01*
X127993201Y-88834621D01*
X127938293Y-88879621D01*
X127867768Y-88887792D01*
X127804021Y-88856538D01*
X127783324Y-88832054D01*
X127702822Y-88707617D01*
X127702820Y-88707614D01*
X127700014Y-88703277D01*
X127549670Y-88538051D01*
X127545619Y-88534852D01*
X127545615Y-88534848D01*
X127378414Y-88402800D01*
X127378410Y-88402798D01*
X127374359Y-88399598D01*
X127178789Y-88291638D01*
X127173920Y-88289914D01*
X127173916Y-88289912D01*
X126973087Y-88218795D01*
X126973083Y-88218794D01*
X126968212Y-88217069D01*
X126963119Y-88216162D01*
X126963116Y-88216161D01*
X126753373Y-88178800D01*
X126753367Y-88178799D01*
X126748284Y-88177894D01*
X126674452Y-88176992D01*
X126530081Y-88175228D01*
X126530079Y-88175228D01*
X126524911Y-88175165D01*
X126304091Y-88208955D01*
X126091756Y-88278357D01*
X125893607Y-88381507D01*
X125889474Y-88384610D01*
X125889471Y-88384612D01*
X125719100Y-88512530D01*
X125714965Y-88515635D01*
X125711393Y-88519373D01*
X125603729Y-88632037D01*
X125560629Y-88677138D01*
X125453201Y-88834621D01*
X125398293Y-88879621D01*
X125327768Y-88887792D01*
X125264021Y-88856538D01*
X125243324Y-88832054D01*
X125162822Y-88707617D01*
X125162820Y-88707614D01*
X125160014Y-88703277D01*
X125009670Y-88538051D01*
X125005619Y-88534852D01*
X125005615Y-88534848D01*
X124838414Y-88402800D01*
X124838410Y-88402798D01*
X124834359Y-88399598D01*
X124638789Y-88291638D01*
X124633920Y-88289914D01*
X124633916Y-88289912D01*
X124433087Y-88218795D01*
X124433083Y-88218794D01*
X124428212Y-88217069D01*
X124423119Y-88216162D01*
X124423116Y-88216161D01*
X124213373Y-88178800D01*
X124213367Y-88178799D01*
X124208284Y-88177894D01*
X124134452Y-88176992D01*
X123990081Y-88175228D01*
X123990079Y-88175228D01*
X123984911Y-88175165D01*
X123764091Y-88208955D01*
X123551756Y-88278357D01*
X123353607Y-88381507D01*
X123349474Y-88384610D01*
X123349471Y-88384612D01*
X123179100Y-88512530D01*
X123174965Y-88515635D01*
X123171393Y-88519373D01*
X123063729Y-88632037D01*
X123020629Y-88677138D01*
X122913201Y-88834621D01*
X122858293Y-88879621D01*
X122787768Y-88887792D01*
X122724021Y-88856538D01*
X122703324Y-88832054D01*
X122622822Y-88707617D01*
X122622820Y-88707614D01*
X122620014Y-88703277D01*
X122469670Y-88538051D01*
X122465619Y-88534852D01*
X122465615Y-88534848D01*
X122298414Y-88402800D01*
X122298410Y-88402798D01*
X122294359Y-88399598D01*
X122098789Y-88291638D01*
X122093920Y-88289914D01*
X122093916Y-88289912D01*
X121893087Y-88218795D01*
X121893083Y-88218794D01*
X121888212Y-88217069D01*
X121883119Y-88216162D01*
X121883116Y-88216161D01*
X121673373Y-88178800D01*
X121673367Y-88178799D01*
X121668284Y-88177894D01*
X121594452Y-88176992D01*
X121450081Y-88175228D01*
X121450079Y-88175228D01*
X121444911Y-88175165D01*
X121224091Y-88208955D01*
X121011756Y-88278357D01*
X120813607Y-88381507D01*
X120809474Y-88384610D01*
X120809471Y-88384612D01*
X120639100Y-88512530D01*
X120634965Y-88515635D01*
X120631393Y-88519373D01*
X120523729Y-88632037D01*
X120480629Y-88677138D01*
X120373201Y-88834621D01*
X120318293Y-88879621D01*
X120247768Y-88887792D01*
X120184021Y-88856538D01*
X120163324Y-88832054D01*
X120082822Y-88707617D01*
X120082820Y-88707614D01*
X120080014Y-88703277D01*
X119929670Y-88538051D01*
X119925619Y-88534852D01*
X119925615Y-88534848D01*
X119758414Y-88402800D01*
X119758410Y-88402798D01*
X119754359Y-88399598D01*
X119558789Y-88291638D01*
X119553920Y-88289914D01*
X119553916Y-88289912D01*
X119353087Y-88218795D01*
X119353083Y-88218794D01*
X119348212Y-88217069D01*
X119343119Y-88216162D01*
X119343116Y-88216161D01*
X119133373Y-88178800D01*
X119133367Y-88178799D01*
X119128284Y-88177894D01*
X119054452Y-88176992D01*
X118910081Y-88175228D01*
X118910079Y-88175228D01*
X118904911Y-88175165D01*
X118684091Y-88208955D01*
X118471756Y-88278357D01*
X118273607Y-88381507D01*
X118269474Y-88384610D01*
X118269471Y-88384612D01*
X118099100Y-88512530D01*
X118094965Y-88515635D01*
X118091393Y-88519373D01*
X117983729Y-88632037D01*
X117940629Y-88677138D01*
X117833201Y-88834621D01*
X117778293Y-88879621D01*
X117707768Y-88887792D01*
X117644021Y-88856538D01*
X117623324Y-88832054D01*
X117542822Y-88707617D01*
X117542820Y-88707614D01*
X117540014Y-88703277D01*
X117389670Y-88538051D01*
X117385619Y-88534852D01*
X117385615Y-88534848D01*
X117218414Y-88402800D01*
X117218410Y-88402798D01*
X117214359Y-88399598D01*
X117018789Y-88291638D01*
X117013920Y-88289914D01*
X117013916Y-88289912D01*
X116813087Y-88218795D01*
X116813083Y-88218794D01*
X116808212Y-88217069D01*
X116803119Y-88216162D01*
X116803116Y-88216161D01*
X116593373Y-88178800D01*
X116593367Y-88178799D01*
X116588284Y-88177894D01*
X116514452Y-88176992D01*
X116370081Y-88175228D01*
X116370079Y-88175228D01*
X116364911Y-88175165D01*
X116144091Y-88208955D01*
X115931756Y-88278357D01*
X115733607Y-88381507D01*
X115729474Y-88384610D01*
X115729471Y-88384612D01*
X115559100Y-88512530D01*
X115554965Y-88515635D01*
X115551393Y-88519373D01*
X115443729Y-88632037D01*
X115400629Y-88677138D01*
X115293201Y-88834621D01*
X115238293Y-88879621D01*
X115167768Y-88887792D01*
X115104021Y-88856538D01*
X115083324Y-88832054D01*
X115002822Y-88707617D01*
X115002820Y-88707614D01*
X115000014Y-88703277D01*
X114849670Y-88538051D01*
X114845619Y-88534852D01*
X114845615Y-88534848D01*
X114678414Y-88402800D01*
X114678410Y-88402798D01*
X114674359Y-88399598D01*
X114478789Y-88291638D01*
X114473920Y-88289914D01*
X114473916Y-88289912D01*
X114273087Y-88218795D01*
X114273083Y-88218794D01*
X114268212Y-88217069D01*
X114263119Y-88216162D01*
X114263116Y-88216161D01*
X114053373Y-88178800D01*
X114053367Y-88178799D01*
X114048284Y-88177894D01*
X113974452Y-88176992D01*
X113830081Y-88175228D01*
X113830079Y-88175228D01*
X113824911Y-88175165D01*
X113604091Y-88208955D01*
X113391756Y-88278357D01*
X113193607Y-88381507D01*
X113189474Y-88384610D01*
X113189471Y-88384612D01*
X113019100Y-88512530D01*
X113014965Y-88515635D01*
X112958537Y-88574684D01*
X112934283Y-88600064D01*
X112872759Y-88635494D01*
X112801846Y-88632037D01*
X112744060Y-88590791D01*
X112725207Y-88557243D01*
X112683767Y-88446703D01*
X112680615Y-88438295D01*
X112593261Y-88321739D01*
X112476705Y-88234385D01*
X112340316Y-88183255D01*
X112278134Y-88176500D01*
X110616000Y-88176500D01*
X110547879Y-88156498D01*
X110501386Y-88102842D01*
X110490000Y-88050500D01*
X110490000Y-83285238D01*
X110510002Y-83217117D01*
X110563658Y-83170624D01*
X110633932Y-83160520D01*
X110698512Y-83190014D01*
X110736430Y-83248189D01*
X110796716Y-83444151D01*
X110950425Y-83815237D01*
X111138374Y-84170211D01*
X111139999Y-84172685D01*
X111140005Y-84172695D01*
X111351199Y-84494207D01*
X111358894Y-84505922D01*
X111610030Y-84819390D01*
X111612094Y-84821520D01*
X111612102Y-84821529D01*
X111821220Y-85037321D01*
X111889550Y-85107833D01*
X112194976Y-85368691D01*
X112523594Y-85599648D01*
X112699952Y-85700241D01*
X112869913Y-85797185D01*
X112869918Y-85797188D01*
X112872489Y-85798654D01*
X113238564Y-85963943D01*
X113618569Y-86094048D01*
X113621443Y-86094738D01*
X113621450Y-86094740D01*
X114006253Y-86187123D01*
X114006257Y-86187124D01*
X114009132Y-86187814D01*
X114012065Y-86188231D01*
X114012068Y-86188232D01*
X114143313Y-86206911D01*
X114406785Y-86244408D01*
X114808000Y-86263329D01*
X115209215Y-86244408D01*
X115472687Y-86206911D01*
X115603932Y-86188232D01*
X115603935Y-86188231D01*
X115606868Y-86187814D01*
X115609743Y-86187124D01*
X115609747Y-86187123D01*
X115994550Y-86094740D01*
X115994557Y-86094738D01*
X115997431Y-86094048D01*
X116377436Y-85963943D01*
X116743511Y-85798654D01*
X116746082Y-85797188D01*
X116746087Y-85797185D01*
X116916048Y-85700241D01*
X117092406Y-85599648D01*
X117421024Y-85368691D01*
X117726450Y-85107833D01*
X117794780Y-85037321D01*
X118003898Y-84821529D01*
X118003906Y-84821520D01*
X118005970Y-84819390D01*
X118257106Y-84505922D01*
X118264801Y-84494207D01*
X118475995Y-84172695D01*
X118476001Y-84172685D01*
X118477626Y-84170211D01*
X118665575Y-83815237D01*
X118819284Y-83444151D01*
X118937389Y-83060247D01*
X119018840Y-82666932D01*
X119062916Y-82267697D01*
X119062993Y-82265244D01*
X119062994Y-82265231D01*
X119071251Y-82002468D01*
X119071329Y-82000000D01*
X119052408Y-81598785D01*
X118995814Y-81201132D01*
X118964328Y-81069984D01*
X118902740Y-80813450D01*
X118902738Y-80813443D01*
X118902048Y-80810569D01*
X118771943Y-80430564D01*
X118606654Y-80064489D01*
X118537695Y-79943590D01*
X118409113Y-79718163D01*
X118407648Y-79715594D01*
X118176691Y-79386976D01*
X117915833Y-79081550D01*
X117814530Y-78983381D01*
X117629529Y-78804102D01*
X117629520Y-78804094D01*
X117627390Y-78802030D01*
X117313922Y-78550894D01*
X117261472Y-78516441D01*
X116980695Y-78332005D01*
X116980685Y-78331999D01*
X116978211Y-78330374D01*
X116623237Y-78142425D01*
X116252151Y-77988716D01*
X115868247Y-77870611D01*
X115865344Y-77870010D01*
X115865337Y-77870008D01*
X115477851Y-77789764D01*
X115477841Y-77789762D01*
X115474932Y-77789160D01*
X115075697Y-77745084D01*
X115072716Y-77745037D01*
X115072713Y-77745037D01*
X114960454Y-77743274D01*
X114674086Y-77738775D01*
X114671142Y-77739007D01*
X114671132Y-77739007D01*
X114286775Y-77769257D01*
X114273663Y-77770289D01*
X113877984Y-77839346D01*
X113875117Y-77840130D01*
X113875105Y-77840133D01*
X113493423Y-77944549D01*
X113493413Y-77944552D01*
X113490559Y-77945333D01*
X113487795Y-77946377D01*
X113487784Y-77946381D01*
X113117601Y-78086262D01*
X113114828Y-78087310D01*
X112754126Y-78264016D01*
X112751591Y-78265569D01*
X112751590Y-78265570D01*
X112643178Y-78332005D01*
X112411654Y-78473883D01*
X112090452Y-78715049D01*
X111793371Y-78985371D01*
X111523049Y-79282452D01*
X111281883Y-79603654D01*
X111072016Y-79946126D01*
X111070704Y-79948805D01*
X111070703Y-79948806D01*
X111014031Y-80064489D01*
X110895310Y-80306828D01*
X110894263Y-80309598D01*
X110894262Y-80309601D01*
X110754381Y-80679784D01*
X110754377Y-80679795D01*
X110753333Y-80682559D01*
X110752552Y-80685413D01*
X110752549Y-80685423D01*
X110737534Y-80740311D01*
X110700266Y-80800739D01*
X110636244Y-80831426D01*
X110565795Y-80822629D01*
X110511285Y-80777140D01*
X110490000Y-80707063D01*
X110490000Y-75568012D01*
X110510002Y-75499891D01*
X110563658Y-75453398D01*
X110633932Y-75443294D01*
X110679570Y-75459224D01*
X110685847Y-75462892D01*
X110791000Y-75524338D01*
X110999692Y-75604030D01*
X111004760Y-75605061D01*
X111004763Y-75605062D01*
X111112017Y-75626883D01*
X111218597Y-75648567D01*
X111223772Y-75648757D01*
X111223774Y-75648757D01*
X111436673Y-75656564D01*
X111436677Y-75656564D01*
X111441837Y-75656753D01*
X111446957Y-75656097D01*
X111446959Y-75656097D01*
X111658288Y-75629025D01*
X111658289Y-75629025D01*
X111663416Y-75628368D01*
X111668366Y-75626883D01*
X111872429Y-75565661D01*
X111872434Y-75565659D01*
X111877384Y-75564174D01*
X112077994Y-75465896D01*
X112259860Y-75336173D01*
X112418096Y-75178489D01*
X112425444Y-75168264D01*
X112548453Y-74997077D01*
X112549776Y-74998028D01*
X112596645Y-74954857D01*
X112666580Y-74942625D01*
X112732026Y-74970144D01*
X112759875Y-75001994D01*
X112819987Y-75100088D01*
X112966250Y-75268938D01*
X113138126Y-75411632D01*
X113331000Y-75524338D01*
X113539692Y-75604030D01*
X113544760Y-75605061D01*
X113544763Y-75605062D01*
X113652017Y-75626883D01*
X113758597Y-75648567D01*
X113763772Y-75648757D01*
X113763774Y-75648757D01*
X113976673Y-75656564D01*
X113976677Y-75656564D01*
X113981837Y-75656753D01*
X113986957Y-75656097D01*
X113986959Y-75656097D01*
X114198288Y-75629025D01*
X114198289Y-75629025D01*
X114203416Y-75628368D01*
X114208366Y-75626883D01*
X114412429Y-75565661D01*
X114412434Y-75565659D01*
X114417384Y-75564174D01*
X114617994Y-75465896D01*
X114799860Y-75336173D01*
X114958096Y-75178489D01*
X114965444Y-75168264D01*
X115088453Y-74997077D01*
X115089776Y-74998028D01*
X115136645Y-74954857D01*
X115206580Y-74942625D01*
X115272026Y-74970144D01*
X115299875Y-75001994D01*
X115359987Y-75100088D01*
X115506250Y-75268938D01*
X115678126Y-75411632D01*
X115871000Y-75524338D01*
X116079692Y-75604030D01*
X116084760Y-75605061D01*
X116084763Y-75605062D01*
X116192017Y-75626883D01*
X116298597Y-75648567D01*
X116303772Y-75648757D01*
X116303774Y-75648757D01*
X116516673Y-75656564D01*
X116516677Y-75656564D01*
X116521837Y-75656753D01*
X116526957Y-75656097D01*
X116526959Y-75656097D01*
X116738288Y-75629025D01*
X116738289Y-75629025D01*
X116743416Y-75628368D01*
X116748366Y-75626883D01*
X116952429Y-75565661D01*
X116952434Y-75565659D01*
X116957384Y-75564174D01*
X117157994Y-75465896D01*
X117339860Y-75336173D01*
X117498096Y-75178489D01*
X117505444Y-75168264D01*
X117628453Y-74997077D01*
X117629776Y-74998028D01*
X117676645Y-74954857D01*
X117746580Y-74942625D01*
X117812026Y-74970144D01*
X117839875Y-75001994D01*
X117899987Y-75100088D01*
X118046250Y-75268938D01*
X118218126Y-75411632D01*
X118411000Y-75524338D01*
X118619692Y-75604030D01*
X118624760Y-75605061D01*
X118624763Y-75605062D01*
X118732017Y-75626883D01*
X118838597Y-75648567D01*
X118843772Y-75648757D01*
X118843774Y-75648757D01*
X119056673Y-75656564D01*
X119056677Y-75656564D01*
X119061837Y-75656753D01*
X119066957Y-75656097D01*
X119066959Y-75656097D01*
X119278288Y-75629025D01*
X119278289Y-75629025D01*
X119283416Y-75628368D01*
X119288366Y-75626883D01*
X119492429Y-75565661D01*
X119492434Y-75565659D01*
X119497384Y-75564174D01*
X119697994Y-75465896D01*
X119879860Y-75336173D01*
X120038096Y-75178489D01*
X120045444Y-75168264D01*
X120168453Y-74997077D01*
X120169776Y-74998028D01*
X120216645Y-74954857D01*
X120286580Y-74942625D01*
X120352026Y-74970144D01*
X120379875Y-75001994D01*
X120439987Y-75100088D01*
X120586250Y-75268938D01*
X120758126Y-75411632D01*
X120951000Y-75524338D01*
X121159692Y-75604030D01*
X121164760Y-75605061D01*
X121164763Y-75605062D01*
X121272017Y-75626883D01*
X121378597Y-75648567D01*
X121383772Y-75648757D01*
X121383774Y-75648757D01*
X121596673Y-75656564D01*
X121596677Y-75656564D01*
X121601837Y-75656753D01*
X121606957Y-75656097D01*
X121606959Y-75656097D01*
X121818288Y-75629025D01*
X121818289Y-75629025D01*
X121823416Y-75628368D01*
X121828366Y-75626883D01*
X122032429Y-75565661D01*
X122032434Y-75565659D01*
X122037384Y-75564174D01*
X122237994Y-75465896D01*
X122419860Y-75336173D01*
X122578096Y-75178489D01*
X122585444Y-75168264D01*
X122708453Y-74997077D01*
X122709776Y-74998028D01*
X122756645Y-74954857D01*
X122826580Y-74942625D01*
X122892026Y-74970144D01*
G37*
%TD.AperFunction*%
%TA.AperFunction,Conductor*%
G36*
X130677012Y-70350756D02*
G01*
X130683595Y-70356885D01*
X130849853Y-70523143D01*
X130883879Y-70585455D01*
X130878814Y-70656270D01*
X130873830Y-70667831D01*
X130848538Y-70719274D01*
X130847145Y-70723562D01*
X130847144Y-70723564D01*
X130840228Y-70744851D01*
X130829631Y-70777465D01*
X130804500Y-70936142D01*
X130804500Y-71529000D01*
X130804692Y-71531446D01*
X130804693Y-71531459D01*
X130804830Y-71533197D01*
X130810821Y-71609322D01*
X130815666Y-71639915D01*
X130839208Y-71732155D01*
X130842674Y-71738723D01*
X130842674Y-71738724D01*
X130867951Y-71786629D01*
X130907415Y-71861422D01*
X130910059Y-71865061D01*
X130936347Y-71901243D01*
X130943379Y-71910922D01*
X130961289Y-71934147D01*
X131068970Y-72032975D01*
X131200132Y-72097462D01*
X131204420Y-72098855D01*
X131204422Y-72098856D01*
X131253610Y-72114838D01*
X131253614Y-72114839D01*
X131258323Y-72116369D01*
X131263209Y-72117143D01*
X131263214Y-72117144D01*
X131357827Y-72132128D01*
X131417000Y-72141500D01*
X132009858Y-72141500D01*
X132062523Y-72135267D01*
X132126041Y-72127750D01*
X132126050Y-72127748D01*
X132129729Y-72127313D01*
X132133336Y-72126447D01*
X132133342Y-72126446D01*
X132170630Y-72117494D01*
X132170632Y-72117493D01*
X132174674Y-72116523D01*
X132178551Y-72115030D01*
X132178559Y-72115027D01*
X132292093Y-72071290D01*
X132362850Y-72065467D01*
X132426482Y-72099772D01*
X133132089Y-72805379D01*
X133141191Y-72815522D01*
X133164912Y-72845025D01*
X133203365Y-72877291D01*
X133207013Y-72880472D01*
X133208825Y-72882115D01*
X133211019Y-72884309D01*
X133244293Y-72911642D01*
X133245091Y-72912304D01*
X133316418Y-72972154D01*
X133321088Y-72974722D01*
X133325205Y-72978103D01*
X133407064Y-73021995D01*
X133408224Y-73022624D01*
X133484333Y-73064466D01*
X133484338Y-73064468D01*
X133489731Y-73067433D01*
X133494809Y-73069044D01*
X133499507Y-73071563D01*
X133588442Y-73098753D01*
X133589646Y-73099128D01*
X133678250Y-73127235D01*
X133683541Y-73127828D01*
X133688642Y-73129388D01*
X133781255Y-73138795D01*
X133782375Y-73138915D01*
X133832171Y-73144500D01*
X133835700Y-73144500D01*
X133836683Y-73144555D01*
X133842370Y-73145003D01*
X133862627Y-73147060D01*
X133879280Y-73148752D01*
X133879283Y-73148752D01*
X133885407Y-73149374D01*
X133931056Y-73145059D01*
X133942913Y-73144500D01*
X136690075Y-73144500D01*
X136758196Y-73164502D01*
X136779170Y-73181405D01*
X137002038Y-73404273D01*
X137036064Y-73466585D01*
X137030999Y-73537400D01*
X136988452Y-73594236D01*
X136977302Y-73600938D01*
X136968860Y-73610302D01*
X136972684Y-73619131D01*
X137500030Y-74146477D01*
X137534056Y-74208789D01*
X137535942Y-74251359D01*
X137531775Y-74284343D01*
X137532709Y-74293868D01*
X137533181Y-74298681D01*
X137533540Y-74318774D01*
X137532453Y-74336298D01*
X137533694Y-74343518D01*
X137534061Y-74350304D01*
X137517772Y-74419407D01*
X137497340Y-74446213D01*
X136975999Y-74967554D01*
X136969239Y-74979934D01*
X136972022Y-74983652D01*
X137103857Y-75032681D01*
X137117447Y-75036070D01*
X137172165Y-75043371D01*
X137237042Y-75072207D01*
X137276030Y-75131541D01*
X137281500Y-75168264D01*
X137281500Y-77425500D01*
X137261498Y-77493621D01*
X137207842Y-77540114D01*
X137155500Y-77551500D01*
X130905003Y-77551500D01*
X130836882Y-77531498D01*
X130797859Y-77491803D01*
X130742606Y-77402515D01*
X130738752Y-77396287D01*
X130733569Y-77391113D01*
X130730480Y-77388029D01*
X130729042Y-77385401D01*
X130729023Y-77385377D01*
X130729027Y-77385374D01*
X130696402Y-77325746D01*
X130693500Y-77298858D01*
X130693500Y-75137070D01*
X130694933Y-75118120D01*
X130697099Y-75103885D01*
X130697099Y-75103881D01*
X130698199Y-75096651D01*
X130693915Y-75043982D01*
X130693500Y-75033767D01*
X130693500Y-75025707D01*
X130690209Y-74997480D01*
X130689778Y-74993121D01*
X130688706Y-74979934D01*
X130686666Y-74954857D01*
X130684454Y-74927662D01*
X130684453Y-74927659D01*
X130683860Y-74920364D01*
X130681604Y-74913400D01*
X130680417Y-74907461D01*
X130679030Y-74901590D01*
X130678182Y-74894319D01*
X130675686Y-74887443D01*
X130675684Y-74887434D01*
X130653275Y-74825702D01*
X130651865Y-74821598D01*
X130629352Y-74752101D01*
X130625556Y-74745846D01*
X130623057Y-74740387D01*
X130620329Y-74734939D01*
X130617833Y-74728063D01*
X130577805Y-74667010D01*
X130575481Y-74663327D01*
X130542072Y-74608270D01*
X130537595Y-74600893D01*
X130539592Y-74599681D01*
X130518752Y-74542388D01*
X130518500Y-74534421D01*
X130518500Y-74291362D01*
X136532966Y-74291362D01*
X136548186Y-74446585D01*
X136551097Y-74460280D01*
X136600327Y-74608270D01*
X136602729Y-74613468D01*
X136610717Y-74620772D01*
X136619338Y-74617109D01*
X136928635Y-74307812D01*
X136936249Y-74293868D01*
X136936118Y-74292035D01*
X136931867Y-74285420D01*
X136622039Y-73975592D01*
X136609659Y-73968832D01*
X136606037Y-73971543D01*
X136556001Y-74109016D01*
X136552709Y-74122625D01*
X136533162Y-74277356D01*
X136532966Y-74291362D01*
X130518500Y-74291362D01*
X130518500Y-73396866D01*
X130511745Y-73334684D01*
X130460615Y-73198295D01*
X130373261Y-73081739D01*
X130256705Y-72994385D01*
X130120316Y-72943255D01*
X130058134Y-72936500D01*
X130044500Y-72936500D01*
X129976379Y-72916498D01*
X129929886Y-72862842D01*
X129918500Y-72810500D01*
X129918500Y-71816867D01*
X129938502Y-71748746D01*
X129972228Y-71713655D01*
X130004300Y-71691198D01*
X130166198Y-71529300D01*
X130297523Y-71341749D01*
X130299846Y-71336767D01*
X130299849Y-71336762D01*
X130391961Y-71139225D01*
X130391961Y-71139224D01*
X130394284Y-71134243D01*
X130447366Y-70936142D01*
X130452119Y-70918402D01*
X130452119Y-70918400D01*
X130453543Y-70913087D01*
X130462254Y-70813520D01*
X130468262Y-70744851D01*
X130468262Y-70744844D01*
X130468500Y-70742127D01*
X130468500Y-70445980D01*
X130488502Y-70377859D01*
X130542158Y-70331366D01*
X130612432Y-70321262D01*
X130677012Y-70350756D01*
G37*
%TD.AperFunction*%
%TA.AperFunction,Conductor*%
G36*
X126816121Y-70251002D02*
G01*
X126862614Y-70304658D01*
X126874000Y-70357000D01*
X126874000Y-71952967D01*
X126877973Y-71966498D01*
X126886522Y-71967727D01*
X127063761Y-71920236D01*
X127074053Y-71916490D01*
X127172739Y-71870472D01*
X127242931Y-71859811D01*
X127307744Y-71888791D01*
X127346600Y-71948211D01*
X127351989Y-71984667D01*
X127351989Y-72935726D01*
X127331987Y-73003847D01*
X127278331Y-73050340D01*
X127208057Y-73060444D01*
X127178651Y-73051904D01*
X127178583Y-73052096D01*
X127175268Y-73050922D01*
X127174331Y-73050650D01*
X127173705Y-73050369D01*
X126972959Y-72979280D01*
X126962988Y-72976646D01*
X126891837Y-72963972D01*
X126878540Y-72965432D01*
X126874000Y-72979989D01*
X126874000Y-74423000D01*
X126853998Y-74491121D01*
X126800342Y-74537614D01*
X126748000Y-74549000D01*
X126492000Y-74549000D01*
X126423879Y-74528998D01*
X126377386Y-74475342D01*
X126366000Y-74423000D01*
X126366000Y-72978102D01*
X126362082Y-72964758D01*
X126347806Y-72962771D01*
X126309324Y-72968660D01*
X126299288Y-72971051D01*
X126096868Y-73037212D01*
X126087359Y-73041209D01*
X125898463Y-73139542D01*
X125889738Y-73145036D01*
X125719433Y-73272905D01*
X125711726Y-73279748D01*
X125564590Y-73433717D01*
X125558109Y-73441722D01*
X125453498Y-73595074D01*
X125398587Y-73640076D01*
X125328062Y-73648247D01*
X125264315Y-73616993D01*
X125243618Y-73592509D01*
X125162822Y-73467617D01*
X125162820Y-73467614D01*
X125160014Y-73463277D01*
X125009670Y-73298051D01*
X125005619Y-73294852D01*
X125005615Y-73294848D01*
X124838414Y-73162800D01*
X124838410Y-73162798D01*
X124834359Y-73159598D01*
X124829835Y-73157101D01*
X124829831Y-73157098D01*
X124778608Y-73128822D01*
X124728636Y-73078390D01*
X124713500Y-73018513D01*
X124713500Y-71904394D01*
X124733502Y-71836273D01*
X124767229Y-71801181D01*
X124919789Y-71694357D01*
X124919792Y-71694355D01*
X124924300Y-71691198D01*
X125086198Y-71529300D01*
X125217523Y-71341749D01*
X125219846Y-71336767D01*
X125219849Y-71336762D01*
X125236081Y-71301951D01*
X125282998Y-71248666D01*
X125351275Y-71229205D01*
X125419235Y-71249747D01*
X125464471Y-71301951D01*
X125480586Y-71336511D01*
X125486069Y-71346007D01*
X125611028Y-71524467D01*
X125618084Y-71532875D01*
X125772125Y-71686916D01*
X125780533Y-71693972D01*
X125958993Y-71818931D01*
X125968489Y-71824414D01*
X126165947Y-71916490D01*
X126176239Y-71920236D01*
X126348503Y-71966394D01*
X126362599Y-71966058D01*
X126366000Y-71958116D01*
X126366000Y-70357000D01*
X126386002Y-70288879D01*
X126439658Y-70242386D01*
X126492000Y-70231000D01*
X126748000Y-70231000D01*
X126816121Y-70251002D01*
G37*
%TD.AperFunction*%
%TA.AperFunction,Conductor*%
G36*
X108429196Y-56408502D02*
G01*
X108475689Y-56462158D01*
X108485793Y-56532432D01*
X108456299Y-56597012D01*
X108450170Y-56603595D01*
X107011148Y-58042618D01*
X106948836Y-58076643D01*
X106912169Y-58079135D01*
X106750000Y-58066372D01*
X106489751Y-58086854D01*
X106484944Y-58088008D01*
X106484938Y-58088009D01*
X106324931Y-58126424D01*
X106235911Y-58147796D01*
X106231340Y-58149689D01*
X106231338Y-58149690D01*
X105999303Y-58245802D01*
X105999299Y-58245804D01*
X105994729Y-58247697D01*
X105772144Y-58384097D01*
X105573637Y-58553637D01*
X105404097Y-58752144D01*
X105267697Y-58974729D01*
X105167796Y-59215911D01*
X105166641Y-59220723D01*
X105108009Y-59464938D01*
X105108008Y-59464944D01*
X105106854Y-59469751D01*
X105086372Y-59730000D01*
X105106854Y-59990249D01*
X105108008Y-59995056D01*
X105108009Y-59995062D01*
X105146424Y-60155069D01*
X105167796Y-60244089D01*
X105267697Y-60485271D01*
X105404097Y-60707856D01*
X105573637Y-60906363D01*
X105577399Y-60909576D01*
X105697330Y-61012006D01*
X105736139Y-61071456D01*
X105741500Y-61107817D01*
X105741500Y-63352183D01*
X105721498Y-63420304D01*
X105697331Y-63447992D01*
X105573637Y-63553637D01*
X105404097Y-63752144D01*
X105267697Y-63974729D01*
X105167796Y-64215911D01*
X105166641Y-64220723D01*
X105108009Y-64464938D01*
X105108008Y-64464944D01*
X105106854Y-64469751D01*
X105086372Y-64730000D01*
X105106854Y-64990249D01*
X105108008Y-64995056D01*
X105108009Y-64995062D01*
X105146424Y-65155069D01*
X105167796Y-65244089D01*
X105267697Y-65485271D01*
X105404097Y-65707856D01*
X105573637Y-65906363D01*
X105772144Y-66075903D01*
X105994729Y-66212303D01*
X105999299Y-66214196D01*
X105999303Y-66214198D01*
X106230189Y-66309834D01*
X106235911Y-66312204D01*
X106324931Y-66333576D01*
X106484938Y-66371991D01*
X106484944Y-66371992D01*
X106489751Y-66373146D01*
X106750000Y-66393628D01*
X107010249Y-66373146D01*
X107015056Y-66371992D01*
X107015062Y-66371991D01*
X107175069Y-66333576D01*
X107264089Y-66312204D01*
X107269811Y-66309834D01*
X107500697Y-66214198D01*
X107500701Y-66214196D01*
X107505271Y-66212303D01*
X107727856Y-66075903D01*
X107732187Y-66072204D01*
X113393151Y-66072204D01*
X113397720Y-66078735D01*
X113610736Y-66209271D01*
X113619530Y-66213752D01*
X113851492Y-66309834D01*
X113860877Y-66312883D01*
X114105017Y-66371496D01*
X114114764Y-66373039D01*
X114365070Y-66392739D01*
X114374930Y-66392739D01*
X114625236Y-66373039D01*
X114634983Y-66371496D01*
X114879123Y-66312883D01*
X114888508Y-66309834D01*
X115120470Y-66213752D01*
X115129264Y-66209271D01*
X115340875Y-66079596D01*
X115346922Y-66070330D01*
X115340915Y-66060125D01*
X114382812Y-65102022D01*
X114368868Y-65094408D01*
X114367035Y-65094539D01*
X114360420Y-65098790D01*
X113400544Y-66058666D01*
X113393151Y-66072204D01*
X107732187Y-66072204D01*
X107926363Y-65906363D01*
X108095903Y-65707856D01*
X108232303Y-65485271D01*
X108332204Y-65244089D01*
X108353576Y-65155069D01*
X108391991Y-64995062D01*
X108391992Y-64995056D01*
X108393146Y-64990249D01*
X108413240Y-64734930D01*
X112707261Y-64734930D01*
X112726961Y-64985236D01*
X112728504Y-64994983D01*
X112787117Y-65239123D01*
X112790166Y-65248508D01*
X112886248Y-65480470D01*
X112890729Y-65489264D01*
X113020404Y-65700875D01*
X113029670Y-65706922D01*
X113039875Y-65700915D01*
X113997978Y-64742812D01*
X114004356Y-64731132D01*
X114734408Y-64731132D01*
X114734539Y-64732965D01*
X114738790Y-64739580D01*
X115698666Y-65699456D01*
X115712204Y-65706849D01*
X115718735Y-65702280D01*
X115849271Y-65489264D01*
X115853752Y-65480470D01*
X115949834Y-65248508D01*
X115952883Y-65239123D01*
X116011496Y-64994983D01*
X116013039Y-64985236D01*
X116032739Y-64734930D01*
X116032739Y-64725070D01*
X116013039Y-64474764D01*
X116011496Y-64465017D01*
X115952883Y-64220877D01*
X115949834Y-64211492D01*
X115853752Y-63979530D01*
X115849271Y-63970736D01*
X115719596Y-63759125D01*
X115710330Y-63753078D01*
X115700125Y-63759085D01*
X114742022Y-64717188D01*
X114734408Y-64731132D01*
X114004356Y-64731132D01*
X114005592Y-64728868D01*
X114005461Y-64727035D01*
X114001210Y-64720420D01*
X113041334Y-63760544D01*
X113027796Y-63753151D01*
X113021265Y-63757720D01*
X112890729Y-63970736D01*
X112886248Y-63979530D01*
X112790166Y-64211492D01*
X112787117Y-64220877D01*
X112728504Y-64465017D01*
X112726961Y-64474764D01*
X112707261Y-64725070D01*
X112707261Y-64734930D01*
X108413240Y-64734930D01*
X108413628Y-64730000D01*
X108393146Y-64469751D01*
X108391992Y-64464944D01*
X108391991Y-64464938D01*
X108333359Y-64220723D01*
X108332204Y-64215911D01*
X108232303Y-63974729D01*
X108095903Y-63752144D01*
X107926363Y-63553637D01*
X107802669Y-63447993D01*
X107764596Y-63389670D01*
X113393078Y-63389670D01*
X113399085Y-63399875D01*
X114357188Y-64357978D01*
X114371132Y-64365592D01*
X114372965Y-64365461D01*
X114379580Y-64361210D01*
X115339456Y-63401334D01*
X115346849Y-63387796D01*
X115342280Y-63381265D01*
X115129264Y-63250729D01*
X115120470Y-63246248D01*
X114888508Y-63150166D01*
X114879123Y-63147117D01*
X114634983Y-63088504D01*
X114625236Y-63086961D01*
X114374930Y-63067261D01*
X114365070Y-63067261D01*
X114114764Y-63086961D01*
X114105017Y-63088504D01*
X113860877Y-63147117D01*
X113851492Y-63150166D01*
X113619530Y-63246248D01*
X113610736Y-63250729D01*
X113399125Y-63380404D01*
X113393078Y-63389670D01*
X107764596Y-63389670D01*
X107763861Y-63388544D01*
X107758500Y-63352183D01*
X107758500Y-61107817D01*
X107768957Y-61072204D01*
X113393151Y-61072204D01*
X113397720Y-61078735D01*
X113610736Y-61209271D01*
X113619530Y-61213752D01*
X113851492Y-61309834D01*
X113860877Y-61312883D01*
X114105017Y-61371496D01*
X114114764Y-61373039D01*
X114365070Y-61392739D01*
X114374930Y-61392739D01*
X114625236Y-61373039D01*
X114634983Y-61371496D01*
X114879123Y-61312883D01*
X114888508Y-61309834D01*
X115120470Y-61213752D01*
X115129264Y-61209271D01*
X115340875Y-61079596D01*
X115346922Y-61070330D01*
X115340915Y-61060125D01*
X114382812Y-60102022D01*
X114368868Y-60094408D01*
X114367035Y-60094539D01*
X114360420Y-60098790D01*
X113400544Y-61058666D01*
X113393151Y-61072204D01*
X107768957Y-61072204D01*
X107778502Y-61039696D01*
X107802670Y-61012006D01*
X107922601Y-60909576D01*
X107926363Y-60906363D01*
X108095903Y-60707856D01*
X108232303Y-60485271D01*
X108332204Y-60244089D01*
X108353576Y-60155069D01*
X108391991Y-59995062D01*
X108391992Y-59995056D01*
X108393146Y-59990249D01*
X108413240Y-59734930D01*
X112707261Y-59734930D01*
X112726961Y-59985236D01*
X112728504Y-59994983D01*
X112787117Y-60239123D01*
X112790166Y-60248508D01*
X112886248Y-60480470D01*
X112890729Y-60489264D01*
X113020404Y-60700875D01*
X113029670Y-60706922D01*
X113039875Y-60700915D01*
X113997978Y-59742812D01*
X114004356Y-59731132D01*
X114734408Y-59731132D01*
X114734539Y-59732965D01*
X114738790Y-59739580D01*
X115698666Y-60699456D01*
X115712204Y-60706849D01*
X115718735Y-60702280D01*
X115849271Y-60489264D01*
X115853752Y-60480470D01*
X115949834Y-60248508D01*
X115952883Y-60239123D01*
X116011496Y-59994983D01*
X116013039Y-59985236D01*
X116032739Y-59734930D01*
X116032739Y-59725070D01*
X116013039Y-59474764D01*
X116011496Y-59465017D01*
X115952883Y-59220877D01*
X115949834Y-59211492D01*
X115853752Y-58979530D01*
X115849271Y-58970736D01*
X115719596Y-58759125D01*
X115710330Y-58753078D01*
X115700125Y-58759085D01*
X114742022Y-59717188D01*
X114734408Y-59731132D01*
X114004356Y-59731132D01*
X114005592Y-59728868D01*
X114005461Y-59727035D01*
X114001210Y-59720420D01*
X113041334Y-58760544D01*
X113027796Y-58753151D01*
X113021265Y-58757720D01*
X112890729Y-58970736D01*
X112886248Y-58979530D01*
X112790166Y-59211492D01*
X112787117Y-59220877D01*
X112728504Y-59465017D01*
X112726961Y-59474764D01*
X112707261Y-59725070D01*
X112707261Y-59734930D01*
X108413240Y-59734930D01*
X108413628Y-59730000D01*
X108400865Y-59567833D01*
X108415461Y-59498354D01*
X108437382Y-59468853D01*
X109710829Y-58195405D01*
X109773141Y-58161380D01*
X109799924Y-58158500D01*
X113316376Y-58158500D01*
X113384497Y-58178502D01*
X113430990Y-58232158D01*
X113441094Y-58302432D01*
X113411600Y-58367012D01*
X113402286Y-58375562D01*
X113393078Y-58389670D01*
X113399085Y-58399875D01*
X114357188Y-59357978D01*
X114371132Y-59365592D01*
X114372965Y-59365461D01*
X114379580Y-59361210D01*
X115339456Y-58401334D01*
X115346849Y-58387796D01*
X115330862Y-58364943D01*
X115332243Y-58363977D01*
X115306205Y-58330204D01*
X115300136Y-58259467D01*
X115333273Y-58196678D01*
X115395096Y-58161772D01*
X115423624Y-58158500D01*
X120935525Y-58158500D01*
X121003646Y-58178502D01*
X121050139Y-58232158D01*
X121060243Y-58302432D01*
X121030749Y-58367012D01*
X121012140Y-58384092D01*
X121012144Y-58384097D01*
X120813637Y-58553637D01*
X120644097Y-58752144D01*
X120507697Y-58974729D01*
X120407796Y-59215911D01*
X120406641Y-59220723D01*
X120348009Y-59464938D01*
X120348008Y-59464944D01*
X120346854Y-59469751D01*
X120326372Y-59730000D01*
X120346854Y-59990249D01*
X120348008Y-59995056D01*
X120348009Y-59995062D01*
X120386424Y-60155069D01*
X120407796Y-60244089D01*
X120507697Y-60485271D01*
X120644097Y-60707856D01*
X120813637Y-60906363D01*
X121012144Y-61075903D01*
X121234729Y-61212303D01*
X121239304Y-61214198D01*
X121278718Y-61230524D01*
X121333999Y-61275073D01*
X121356500Y-61346933D01*
X121356500Y-63113067D01*
X121336498Y-63181188D01*
X121278718Y-63229476D01*
X121242370Y-63244532D01*
X121234729Y-63247697D01*
X121012144Y-63384097D01*
X120813637Y-63553637D01*
X120644097Y-63752144D01*
X120507697Y-63974729D01*
X120407796Y-64215911D01*
X120406641Y-64220723D01*
X120348009Y-64464938D01*
X120348008Y-64464944D01*
X120346854Y-64469751D01*
X120326372Y-64730000D01*
X120346854Y-64990249D01*
X120348008Y-64995056D01*
X120348009Y-64995062D01*
X120386424Y-65155069D01*
X120407796Y-65244089D01*
X120507697Y-65485271D01*
X120644097Y-65707856D01*
X120813637Y-65906363D01*
X121012144Y-66075903D01*
X121234729Y-66212303D01*
X121239299Y-66214196D01*
X121239303Y-66214198D01*
X121470189Y-66309834D01*
X121475911Y-66312204D01*
X121564931Y-66333576D01*
X121724938Y-66371991D01*
X121724944Y-66371992D01*
X121729751Y-66373146D01*
X121990000Y-66393628D01*
X122250249Y-66373146D01*
X122255056Y-66371992D01*
X122255062Y-66371991D01*
X122415069Y-66333576D01*
X122504089Y-66312204D01*
X122509811Y-66309834D01*
X122740697Y-66214198D01*
X122740701Y-66214196D01*
X122745271Y-66212303D01*
X122967856Y-66075903D01*
X123041820Y-66012732D01*
X123162596Y-65909581D01*
X123162601Y-65909576D01*
X123166363Y-65906363D01*
X123169579Y-65902598D01*
X123199496Y-65867570D01*
X123258947Y-65828761D01*
X123329942Y-65828255D01*
X123384402Y-65860306D01*
X126335514Y-68811419D01*
X126369540Y-68873731D01*
X126364475Y-68944547D01*
X126321928Y-69001382D01*
X126279031Y-69022221D01*
X126176236Y-69049765D01*
X126165947Y-69053510D01*
X125968489Y-69145586D01*
X125958993Y-69151069D01*
X125780533Y-69276028D01*
X125772125Y-69283084D01*
X125618084Y-69437125D01*
X125611028Y-69445533D01*
X125486069Y-69623993D01*
X125480586Y-69633489D01*
X125464471Y-69668049D01*
X125417554Y-69721334D01*
X125349277Y-69740795D01*
X125281317Y-69720253D01*
X125236081Y-69668049D01*
X125219849Y-69633238D01*
X125219846Y-69633233D01*
X125217523Y-69628251D01*
X125086198Y-69440700D01*
X124924300Y-69278802D01*
X124919792Y-69275645D01*
X124919789Y-69275643D01*
X124804130Y-69194658D01*
X124736749Y-69147477D01*
X124731767Y-69145154D01*
X124731762Y-69145151D01*
X124534225Y-69053039D01*
X124534224Y-69053039D01*
X124529243Y-69050716D01*
X124523935Y-69049294D01*
X124523933Y-69049293D01*
X124313402Y-68992881D01*
X124313400Y-68992881D01*
X124308087Y-68991457D01*
X124080000Y-68971502D01*
X123851913Y-68991457D01*
X123846600Y-68992881D01*
X123846598Y-68992881D01*
X123636067Y-69049293D01*
X123636065Y-69049294D01*
X123630757Y-69050716D01*
X123625776Y-69053039D01*
X123625775Y-69053039D01*
X123428238Y-69145151D01*
X123428233Y-69145154D01*
X123423251Y-69147477D01*
X123355870Y-69194658D01*
X123240211Y-69275643D01*
X123240208Y-69275645D01*
X123235700Y-69278802D01*
X123073802Y-69440700D01*
X122942477Y-69628251D01*
X122940154Y-69633233D01*
X122940151Y-69633238D01*
X122924195Y-69667457D01*
X122877278Y-69720742D01*
X122809001Y-69740203D01*
X122741041Y-69719661D01*
X122695805Y-69667457D01*
X122679849Y-69633238D01*
X122679846Y-69633233D01*
X122677523Y-69628251D01*
X122546198Y-69440700D01*
X122384300Y-69278802D01*
X122379792Y-69275645D01*
X122379789Y-69275643D01*
X122264130Y-69194658D01*
X122196749Y-69147477D01*
X122191767Y-69145154D01*
X122191762Y-69145151D01*
X121994225Y-69053039D01*
X121994224Y-69053039D01*
X121989243Y-69050716D01*
X121983935Y-69049294D01*
X121983933Y-69049293D01*
X121773402Y-68992881D01*
X121773400Y-68992881D01*
X121768087Y-68991457D01*
X121540000Y-68971502D01*
X121311913Y-68991457D01*
X121306600Y-68992881D01*
X121306598Y-68992881D01*
X121096067Y-69049293D01*
X121096065Y-69049294D01*
X121090757Y-69050716D01*
X121085776Y-69053039D01*
X121085775Y-69053039D01*
X120888238Y-69145151D01*
X120888233Y-69145154D01*
X120883251Y-69147477D01*
X120815870Y-69194658D01*
X120700211Y-69275643D01*
X120700208Y-69275645D01*
X120695700Y-69278802D01*
X120533802Y-69440700D01*
X120402477Y-69628251D01*
X120400154Y-69633233D01*
X120400151Y-69633238D01*
X120384195Y-69667457D01*
X120337278Y-69720742D01*
X120269001Y-69740203D01*
X120201041Y-69719661D01*
X120155805Y-69667457D01*
X120139849Y-69633238D01*
X120139846Y-69633233D01*
X120137523Y-69628251D01*
X120006198Y-69440700D01*
X119844300Y-69278802D01*
X119839792Y-69275645D01*
X119839789Y-69275643D01*
X119724130Y-69194658D01*
X119656749Y-69147477D01*
X119651767Y-69145154D01*
X119651762Y-69145151D01*
X119454225Y-69053039D01*
X119454224Y-69053039D01*
X119449243Y-69050716D01*
X119443935Y-69049294D01*
X119443933Y-69049293D01*
X119233402Y-68992881D01*
X119233400Y-68992881D01*
X119228087Y-68991457D01*
X119000000Y-68971502D01*
X118771913Y-68991457D01*
X118766600Y-68992881D01*
X118766598Y-68992881D01*
X118556067Y-69049293D01*
X118556065Y-69049294D01*
X118550757Y-69050716D01*
X118545776Y-69053039D01*
X118545775Y-69053039D01*
X118348238Y-69145151D01*
X118348233Y-69145154D01*
X118343251Y-69147477D01*
X118275870Y-69194658D01*
X118160211Y-69275643D01*
X118160208Y-69275645D01*
X118155700Y-69278802D01*
X117993802Y-69440700D01*
X117862477Y-69628251D01*
X117860154Y-69633233D01*
X117860151Y-69633238D01*
X117844195Y-69667457D01*
X117797278Y-69720742D01*
X117729001Y-69740203D01*
X117661041Y-69719661D01*
X117615805Y-69667457D01*
X117599849Y-69633238D01*
X117599846Y-69633233D01*
X117597523Y-69628251D01*
X117466198Y-69440700D01*
X117304300Y-69278802D01*
X117299792Y-69275645D01*
X117299789Y-69275643D01*
X117184130Y-69194658D01*
X117116749Y-69147477D01*
X117111767Y-69145154D01*
X117111762Y-69145151D01*
X116914225Y-69053039D01*
X116914224Y-69053039D01*
X116909243Y-69050716D01*
X116903935Y-69049294D01*
X116903933Y-69049293D01*
X116693402Y-68992881D01*
X116693400Y-68992881D01*
X116688087Y-68991457D01*
X116460000Y-68971502D01*
X116231913Y-68991457D01*
X116226600Y-68992881D01*
X116226598Y-68992881D01*
X116016067Y-69049293D01*
X116016065Y-69049294D01*
X116010757Y-69050716D01*
X116005776Y-69053039D01*
X116005775Y-69053039D01*
X115808238Y-69145151D01*
X115808233Y-69145154D01*
X115803251Y-69147477D01*
X115735870Y-69194658D01*
X115620211Y-69275643D01*
X115620208Y-69275645D01*
X115615700Y-69278802D01*
X115453802Y-69440700D01*
X115322477Y-69628251D01*
X115320154Y-69633233D01*
X115320151Y-69633238D01*
X115304195Y-69667457D01*
X115257278Y-69720742D01*
X115189001Y-69740203D01*
X115121041Y-69719661D01*
X115075805Y-69667457D01*
X115059849Y-69633238D01*
X115059846Y-69633233D01*
X115057523Y-69628251D01*
X114926198Y-69440700D01*
X114764300Y-69278802D01*
X114759792Y-69275645D01*
X114759789Y-69275643D01*
X114644130Y-69194658D01*
X114576749Y-69147477D01*
X114571767Y-69145154D01*
X114571762Y-69145151D01*
X114374225Y-69053039D01*
X114374224Y-69053039D01*
X114369243Y-69050716D01*
X114363935Y-69049294D01*
X114363933Y-69049293D01*
X114153402Y-68992881D01*
X114153400Y-68992881D01*
X114148087Y-68991457D01*
X113920000Y-68971502D01*
X113691913Y-68991457D01*
X113686600Y-68992881D01*
X113686598Y-68992881D01*
X113476067Y-69049293D01*
X113476065Y-69049294D01*
X113470757Y-69050716D01*
X113465776Y-69053039D01*
X113465775Y-69053039D01*
X113268238Y-69145151D01*
X113268233Y-69145154D01*
X113263251Y-69147477D01*
X113195870Y-69194658D01*
X113080211Y-69275643D01*
X113080208Y-69275645D01*
X113075700Y-69278802D01*
X112913802Y-69440700D01*
X112782477Y-69628251D01*
X112780154Y-69633233D01*
X112780151Y-69633238D01*
X112764195Y-69667457D01*
X112717278Y-69720742D01*
X112649001Y-69740203D01*
X112581041Y-69719661D01*
X112535805Y-69667457D01*
X112519849Y-69633238D01*
X112519846Y-69633233D01*
X112517523Y-69628251D01*
X112386198Y-69440700D01*
X112224300Y-69278802D01*
X112219792Y-69275645D01*
X112219789Y-69275643D01*
X112104130Y-69194658D01*
X112036749Y-69147477D01*
X112031767Y-69145154D01*
X112031762Y-69145151D01*
X111834225Y-69053039D01*
X111834224Y-69053039D01*
X111829243Y-69050716D01*
X111823935Y-69049294D01*
X111823933Y-69049293D01*
X111613402Y-68992881D01*
X111613400Y-68992881D01*
X111608087Y-68991457D01*
X111380000Y-68971502D01*
X111151913Y-68991457D01*
X111146600Y-68992881D01*
X111146598Y-68992881D01*
X110936067Y-69049293D01*
X110936065Y-69049294D01*
X110930757Y-69050716D01*
X110925776Y-69053039D01*
X110925775Y-69053039D01*
X110728238Y-69145151D01*
X110728233Y-69145154D01*
X110723251Y-69147477D01*
X110689303Y-69171248D01*
X110688270Y-69171971D01*
X110620996Y-69194658D01*
X110552136Y-69177373D01*
X110503552Y-69125603D01*
X110490000Y-69068757D01*
X110490000Y-68580000D01*
X103504500Y-68580000D01*
X103436379Y-68559998D01*
X103389886Y-68506342D01*
X103378500Y-68454000D01*
X103378500Y-56514500D01*
X103398502Y-56446379D01*
X103452158Y-56399886D01*
X103504500Y-56388500D01*
X108361075Y-56388500D01*
X108429196Y-56408502D01*
G37*
%TD.AperFunction*%
%TA.AperFunction,Conductor*%
G36*
X123804196Y-58178502D02*
G01*
X123825170Y-58195405D01*
X125192595Y-59562829D01*
X125226620Y-59625141D01*
X125229500Y-59651924D01*
X125229500Y-65609405D01*
X125209498Y-65677526D01*
X125155842Y-65724019D01*
X125085568Y-65734123D01*
X125020988Y-65704629D01*
X125014405Y-65698500D01*
X123653652Y-64337747D01*
X123646112Y-64329461D01*
X123642000Y-64322982D01*
X123612545Y-64295322D01*
X123576280Y-64232889D01*
X123572204Y-64215911D01*
X123472303Y-63974729D01*
X123335903Y-63752144D01*
X123166363Y-63553637D01*
X122967856Y-63384097D01*
X122745271Y-63247697D01*
X122737630Y-63244532D01*
X122701282Y-63229476D01*
X122646001Y-63184927D01*
X122623500Y-63113067D01*
X122623500Y-61346933D01*
X122643502Y-61278812D01*
X122701282Y-61230524D01*
X122740696Y-61214198D01*
X122745271Y-61212303D01*
X122967856Y-61075903D01*
X123166363Y-60906363D01*
X123335903Y-60707856D01*
X123472303Y-60485271D01*
X123572204Y-60244089D01*
X123593576Y-60155069D01*
X123631991Y-59995062D01*
X123631992Y-59995056D01*
X123633146Y-59990249D01*
X123653628Y-59730000D01*
X123633146Y-59469751D01*
X123631992Y-59464944D01*
X123631991Y-59464938D01*
X123573359Y-59220723D01*
X123572204Y-59215911D01*
X123472303Y-58974729D01*
X123335903Y-58752144D01*
X123166363Y-58553637D01*
X122970067Y-58385985D01*
X122970066Y-58385984D01*
X122967856Y-58384097D01*
X122968252Y-58383633D01*
X122927060Y-58330214D01*
X122920985Y-58259478D01*
X122954116Y-58196686D01*
X123015936Y-58161775D01*
X123044475Y-58158500D01*
X123736075Y-58158500D01*
X123804196Y-58178502D01*
G37*
%TD.AperFunction*%
%TD*%
M02*
